<svg id="icon" xmlns="http://www.w3.org/2000/svg" viewBox="0 0 50 50"><title>054</title><path d="M44.955,45.053h-40V42.624H7.388V5.028H24.944V19.985H42.5V42.556h2.455Zm-25.048-7.42H12.5v4.9h7.4Zm17.549,0H30.051v4.9h7.405ZM9.963,12.433h4.9v-4.9h-4.9Zm12.424.027V7.53H17.5v4.93Zm-7.512,7.512v-4.9H9.965v4.9Zm2.609,0H22.4v-4.9H17.484ZM14.9,22.594H9.965v4.894H14.9Zm7.494,4.9V22.6h-4.9v4.9Zm5.1-.015H32.42V22.6H27.489ZM39.967,22.6h-4.93v4.892h4.93ZM14.894,30.1H9.978V35h4.916Zm2.588,4.9h4.9V30.1h-4.9ZM32.44,30.1H27.53v4.894h4.91Zm7.524.014h-4.9v4.9h4.9Z"/></svg>