<svg id="icon" xmlns="http://www.w3.org/2000/svg" viewBox="0 0 50 50"><defs><style>.cls-1{fill:#002eef;}</style></defs><title>074 copia 8</title><path class="cls-1" d="M24.75,5A19.75,19.75,0,1,0,44.5,24.75,19.778,19.778,0,0,0,24.75,5Zm0,35.229A15.479,15.479,0,1,1,40.229,24.75,15.5,15.5,0,0,1,24.75,40.229Z"/><path class="cls-1" d="M26.632,23.681a25.346,25.346,0,0,1-2.684-1.4,2.864,2.864,0,0,1-.826-.8,1.811,1.811,0,0,1-.259-.977,1.846,1.846,0,0,1,.642-1.461,2.72,2.72,0,0,1,1.843-.56,8.511,8.511,0,0,1,2.056.259q.483.12,1.083.325a1.788,1.788,0,1,0,1.141-3.389q-.6-.2-1.173-.35a11.434,11.434,0,0,0-1.7-.3V13.692a1.752,1.752,0,1,0-3.5,0v1.489a6.244,6.244,0,0,0-2.727,1.289,5.161,5.161,0,0,0-1.8,4.166,5.262,5.262,0,0,0,.547,2.458,6.2,6.2,0,0,0,1.461,1.844,12.248,12.248,0,0,0,2.745,1.652,24.747,24.747,0,0,1,2.588,1.352,3.647,3.647,0,0,1,.963.881,1.748,1.748,0,0,1,.328,1.045,1.82,1.82,0,0,1-.745,1.584,3.639,3.639,0,0,1-2.137.533,10.123,10.123,0,0,1-2.561-.369q-.483-.128-1.041-.318a1.79,1.79,0,0,0-2.38,1.685v.106a1.777,1.777,0,0,0,1.175,1.681,12.945,12.945,0,0,0,3.626.686v.852a1.752,1.752,0,1,0,3.5,0V35.2a6.835,6.835,0,0,0,2.765-1.274,5.162,5.162,0,0,0,1.946-4.261,5.243,5.243,0,0,0-1.038-3.3A10.679,10.679,0,0,0,26.632,23.681Z"/></svg>