<svg id="icon" xmlns="http://www.w3.org/2000/svg" viewBox="0 0 50 50"><title>Mesa de trabajo 97</title><path d="M39.08,31.69H33.59L29.1,21.63a1.24,1.24,0,0,0-.4-.48,6.17,6.17,0,1,0-8.9.17,1.16,1.16,0,0,0-.22.31L15.09,31.69H9.27a.92.92,0,0,0-.87,1.23C10.88,40,17,45,24.18,45S37.47,40,40,32.92A.92.92,0,0,0,39.08,31.69Zm-8.26,0H25.44V23a6,6,0,0,0,1.33-.45s0,.07,0,.1ZM21,18.39a3.7,3.7,0,0,0,6.37,0h1.16a4.74,4.74,0,0,1-8.69,0Zm.88,4.3a7,7,0,0,0,1,.32v8.68H17.85Zm2.31,18.2a12.57,12.57,0,0,1-9.45-4.44H33.62A12.56,12.56,0,0,1,24.18,40.89Z"/><path d="M24.18,9.83A1.43,1.43,0,0,0,25.6,8.41V6.51a1.43,1.43,0,1,0-2.85,0v1.9A1.43,1.43,0,0,0,24.18,9.83Z"/><path d="M17.57,11a1.42,1.42,0,1,0,2.09-1.93l-.28-.31a1.43,1.43,0,1,0-2.09,1.94Z"/><rect x="12.77" y="13.63" width="4.75" height="2.85" rx="1.43"/><rect x="30.83" y="13.63" width="4.75" height="2.85" rx="1.43"/><path d="M31.38,11l.28-.3A1.43,1.43,0,1,0,29.57,8.8l-.28.31A1.42,1.42,0,1,0,31.38,11Z"/><path d="M15.57,19.8l-.28.31A1.42,1.42,0,0,0,17.38,22l.28-.3a1.43,1.43,0,1,0-2.09-1.94Z"/><path d="M31.37,19.72a1.43,1.43,0,0,0-.08,2l.28.3a1.42,1.42,0,1,0,2.09-1.93l-.28-.31A1.43,1.43,0,0,0,31.37,19.72Z"/></svg>