<svg id="icon" xmlns="http://www.w3.org/2000/svg" viewBox="0 0 50 50"><title>Artboard 108</title><path d="M41,24.66,26.43,5.51l0,0a2.71,2.71,0,0,0-2.8,0l0,0L9,24.66a.25.25,0,0,1,0,.07.2.2,0,0,0,0,.07v.8a1.21,1.21,0,0,0,.53,1,2,2,0,0,0,1.25.42h3.29a.09.09,0,0,1,.09.09V43.73A1.31,1.31,0,0,0,15.56,45c1.57-.09,3.07.27,3.07-1.19V31.31a.1.1,0,0,1,.1-.09H31.62a.09.09,0,0,1,.09.09V43.73A1.31,1.31,0,0,0,33.11,45c1.57-.09,3.07.27,3.07-1.19V27.09a.09.09,0,0,1,.1-.09h2.94a2,2,0,0,0,1.25-.42,1.21,1.21,0,0,0,.53-1v-.8A.26.26,0,0,0,41,24.66Zm-9.26,3.66H18.63V27H31.71Z"/></svg>