<svg id="icon" xmlns="http://www.w3.org/2000/svg" viewBox="0 0 50 50"><title>Mesa de trabajo 98</title><path d="M37.58,23.59A12.63,12.63,0,0,0,26.41,12.42v-1.5a1.41,1.41,0,0,0-2.82,0v1.5A12.63,12.63,0,0,0,12.42,23.59h-1.5a1.41,1.41,0,0,0,0,2.82h1.5A12.63,12.63,0,0,0,23.59,37.58v1.5a1.41,1.41,0,0,0,2.82,0v-1.5A12.63,12.63,0,0,0,37.58,26.41h1.5a1.41,1.41,0,0,0,0-2.82ZM25,34.85A9.85,9.85,0,1,1,34.85,25,9.84,9.84,0,0,1,25,34.85Z"/><rect x="23.55" y="5" width="2.9" height="9.54" rx="1.45"/><rect x="23.55" y="35.82" width="2.9" height="9.18" rx="1.45"/><rect x="38.66" y="20.12" width="2.9" height="9.77" rx="1.45" transform="translate(65.12 -15.12) rotate(90)"/><rect x="8.43" y="20.12" width="2.9" height="9.77" rx="1.45" transform="translate(34.88 15.12) rotate(90)"/><rect x="13" y="30.58" width="2.9" height="8.17" rx="1.45" transform="translate(28.75 -0.06) rotate(45)"/><rect x="34" y="10.58" width="2.9" height="8.17" rx="1.45" transform="translate(20.75 -20.77) rotate(45)"/><rect x="13.5" y="10.08" width="2.9" height="8.17" rx="1.45" transform="translate(35.53 13.62) rotate(135)"/><rect x="33.5" y="31.08" width="2.9" height="8.17" rx="1.45" transform="translate(84.53 35.33) rotate(135)"/><path d="M25.9,17H22.31c-.17,0-.23.18-.1.26.89.5,2.64,1.75,2.64,3.74,0,2.67-3.14,4-3.14,6.67,0,2.48,2.71,4.95,3.1,5.29a.15.15,0,0,0,.11,0h3.91c.15,0,.23-.15.12-.23-1-.85-3.95-3.77-4.1-5.1C24.53,24.78,29,22,28,19.67,26.76,16.82,26.42,17,26.42,17"/></svg>