<svg id="icon" xmlns="http://www.w3.org/2000/svg" viewBox="0 0 50 50"><title>Artboard 195</title><path d="M40.548,10.913a3.32,3.32,0,0,0-3.156-2.244H12.948a3.342,3.342,0,0,0-3.156,2.244l-4.377,12.6A4.606,4.606,0,0,0,5.17,24.98V40.891a3.334,3.334,0,1,0,6.667,0V39.78H38.5v1.111a3.333,3.333,0,1,0,6.666,0V24.98a4.74,4.74,0,0,0-.244-1.467Zm-27.6,22.2a3.333,3.333,0,1,1,3.333-3.333A3.328,3.328,0,0,1,12.948,33.113Zm24.444,0a3.333,3.333,0,1,1,3.334-3.333A3.328,3.328,0,0,1,37.392,33.113ZM9.615,22l2.822-8.489A2.253,2.253,0,0,1,14.548,12H35.792A2.255,2.255,0,0,1,37.9,13.513L40.726,22Z"/></svg>