<svg id="icon" xmlns="http://www.w3.org/2000/svg" viewBox="0 0 50 50"><title>Artboard 114</title><path d="M34,41.91a1.05,1.05,0,0,1-1.09-1V36.57a1,1,0,0,0-1.09-1H16.51a1,1,0,0,0-1.08,1v4.34a1.05,1.05,0,0,1-1.09,1h0a1.05,1.05,0,0,0-1.09,1v.84a1.05,1.05,0,0,0,1.09,1H34a1.05,1.05,0,0,0,1.09-1v-.84A1.05,1.05,0,0,0,34,41.91Z"/><path d="M38.39,25.37l-6.67-6.68a1.17,1.17,0,0,0-1.66,0l-1.74,1.74a1.18,1.18,0,1,1-1.67-1.66L35,10.42a1.17,1.17,0,0,0,0-1.66L31.57,5.35a1.15,1.15,0,0,0-1.66,0L23.24,12a1.18,1.18,0,0,0,0,1.67L25,15.43a1.18,1.18,0,1,1-1.67,1.67L15,8.76a1.17,1.17,0,0,0-1.66,0L9.92,12.17a1.18,1.18,0,0,0,0,1.67l7.49,7.51h0L20,18.77a1.18,1.18,0,0,1,1.67,0,1.17,1.17,0,0,1,0,1.66l-8.33,8.35a1.17,1.17,0,0,0,0,1.66l3.4,3.42a1.18,1.18,0,0,0,1.67,0l6.66-6.67a1.18,1.18,0,0,0,0-1.67l-1.74-1.75a1.17,1.17,0,0,1,0-1.66h0a1.18,1.18,0,0,1,1.67,0l8.32,8.34a1.18,1.18,0,0,0,1.67,0L38.39,27A1.17,1.17,0,0,0,38.39,25.37Z"/></svg>