<svg id="icon" xmlns="http://www.w3.org/2000/svg" viewBox="0 0 50 50"><defs><style>.cls-1,.cls-2{fill:#020200;}.cls-1{stroke:#000;stroke-miterlimit:10;stroke-width:1.02px;}</style></defs><title>Mesa de trabajo 105</title><path class="cls-1" d="M30.43,9.08a.8.8,0,0,0-.59.19.78.78,0,0,0-.26.56v.11a.77.77,0,0,0,.72.76A7.53,7.53,0,0,1,35,12.81a7.17,7.17,0,0,1,2.19,4.63.54.54,0,0,0,.54.49H38a.79.79,0,0,0,.58-.25.74.74,0,0,0,.2-.58,8.81,8.81,0,0,0-2.65-5.44A9.24,9.24,0,0,0,30.43,9.08Z"/><path class="cls-1" d="M39.11,8.78A13.58,13.58,0,0,0,30.41,5a.77.77,0,0,0-.58.21.73.73,0,0,0-.25.55v.11a.77.77,0,0,0,.74.75,11.85,11.85,0,0,1,7.6,3.31,11.18,11.18,0,0,1,3.42,7.49.54.54,0,0,0,.55.51h.33a.8.8,0,0,0,.57-.24.75.75,0,0,0,.21-.57A12.8,12.8,0,0,0,39.11,8.78Z"/><path class="cls-2" d="M21.54,30.32a13,13,0,0,0,6.05,1.46h0a11.71,11.71,0,0,0,1.19-.06h.08c.37,0,.75-.09,1.12-.16l.15,0c.34-.07.69-.15,1-.25l.22-.08a9.21,9.21,0,0,0,.93-.31l.31-.14c.27-.12.54-.23.81-.37s.25-.14.37-.21.47-.26.7-.41.3-.21.45-.31.39-.27.57-.41.65-.55,1-.85L32,23.81h.15V17.67a2.11,2.11,0,0,0,.93-.52,2.06,2.06,0,0,0,0-3,2.21,2.21,0,0,0-3.06,0,2.09,2.09,0,0,0-.54.91H23.14v.15L19.81,12a1.65,1.65,0,0,0-2.43.12,12,12,0,0,0-1,13.18A3.5,3.5,0,0,0,16.25,31c-.05.84-.11,1.9-.18,3H14.89s-.88,5.25-1.34,8H11.89a.87.87,0,0,0-.89.86v.85a.88.88,0,0,0,.89.87h15a.88.88,0,0,0,.89-.87v-.85a.87.87,0,0,0-.89-.86H22.7l-1.34-8H20.18c0-.74-.08-1.46-.15-2.52A3.64,3.64,0,0,0,21.54,30.32ZM28,19.93l2.51-2.44.44.18V22.8Zm1.48-3.69.18.43-2.51,2.44.27.26-3.22-3.13Z"/></svg>