<svg id="icon" xmlns="http://www.w3.org/2000/svg" viewBox="0 0 50 50"><title>Artboard 107</title><path d="M25.14,5A19.86,19.86,0,1,0,45,24.86,19.88,19.88,0,0,0,25.14,5Zm0,35.43A15.57,15.57,0,1,1,40.7,24.86,15.59,15.59,0,0,1,25.14,40.43Z"/><path d="M34.66,30.16c-1.27-.72-2.53-1.45-3.79-2.19a.87.87,0,0,0-1.17.18c-.5.53-1,1.08-1.46,1.63-.69.77-.88.79-1.81.29a15.54,15.54,0,0,1-6.49-6.48c-.5-.93-.49-1.13.28-1.82.52-.48,1.09-.91,1.6-1.39a.89.89,0,0,0,.25-1.17c-.77-1.34-1.54-2.69-2.33-4a.94.94,0,0,0-.62-.45,3.44,3.44,0,0,0-2.77.92A6.47,6.47,0,0,0,14.71,20,14.55,14.55,0,0,0,15,21.52,19.81,19.81,0,0,0,28.28,34.93a6.12,6.12,0,0,0,4.83-.4,3.65,3.65,0,0,0,2.17-3.15A1.1,1.1,0,0,0,34.66,30.16Z"/></svg>