<svg id="icon" xmlns="http://www.w3.org/2000/svg" viewBox="0 0 50 50"><title>Mesa de trabajo 102</title><path d="M37.78,29.75a3.34,3.34,0,0,0-2.35-1H14.57a3.34,3.34,0,0,0-2.35,1L5.69,36.21a2.36,2.36,0,0,0,.18,3.5,2.46,2.46,0,0,0,3.27-.26l5.95-5.94H34.91l6,5.94a2.46,2.46,0,0,0,3.27.26,2.36,2.36,0,0,0,.18-3.5Z"/><path d="M12.22,20.25a3.34,3.34,0,0,0,2.35,1H35.43a3.34,3.34,0,0,0,2.35-1l6.53-6.46a2.36,2.36,0,0,0-.18-3.5,2.46,2.46,0,0,0-3.27.26l-6,5.94H15.09L9.14,10.55a2.46,2.46,0,0,0-3.27-.26,2.36,2.36,0,0,0-.18,3.5Z"/></svg>