<svg id="icon" xmlns="http://www.w3.org/2000/svg" viewBox="0 0 50 50"><title>Mesa de trabajo 101</title><path d="M45,25.64V16.13a2.63,2.63,0,0,0-2.63-2.63H7.63A2.63,2.63,0,0,0,5,16.13V33.87A2.63,2.63,0,0,0,7.63,36.5H42.37A2.63,2.63,0,0,0,45,33.87V25.64ZM30,33,42,20v4l-8.3,9ZM8,26.8a1.06,1.06,0,0,0,.53-.31L17.28,17h3.64L8,31l0,0ZM25.89,17h4.79L16.07,32.86A.76.76,0,0,0,16,33H11.14Zm8.83,1a2.89,2.89,0,0,0,.6-1h4.44l-14,15.18a2.33,2.33,0,0,0-.49.82H20.91ZM9.48,17h2.83L8,21.68V18.44A1.46,1.46,0,0,1,9.48,17Zm31,16H38.67L42,29.39v2.17A1.46,1.46,0,0,1,40.52,33Z"/></svg>