<svg id="icon" xmlns="http://www.w3.org/2000/svg" viewBox="0 0 50 50"><title>Artboard 228</title><path d="M32.79,45V32a.79.79,0,0,1,.79-.79h.12a.8.8,0,0,1,.8.79v.13a.79.79,0,0,0,.79.79h.12a.79.79,0,0,0,.79-.79V20.89a.79.79,0,0,0-.79-.8h-.12a.79.79,0,0,0-.79.8V21a.79.79,0,0,1-.8.79h-.12a.79.79,0,0,1-.79-.79V19.18a.8.8,0,0,0-.79-.8H17.36a.79.79,0,0,0-.79.8V21a.79.79,0,0,1-.8.79h-.12a.79.79,0,0,1-.79-.79v-.12a.8.8,0,0,0-.79-.8h-.13a.8.8,0,0,0-.79.8V32.11a.8.8,0,0,0,.79.79h.13a.8.8,0,0,0,.79-.79V32a.79.79,0,0,1,.79-.79h.12a.8.8,0,0,1,.8.79V45m7.86-23.55a4.64,4.64,0,1,1-4.64,4.64A4.65,4.65,0,0,1,24.43,21.45Z"/><path d="M24.43,29.87a3.79,3.79,0,1,0-3.79-3.78A3.78,3.78,0,0,0,24.43,29.87Z"/><path d="M32.92,16.05a8.34,8.34,0,0,0-6.87-8.2C25.8,6.17,25.29,5,24.7,5s-1.1,1.17-1.35,2.83a8.37,8.37,0,0,0-7,8.25c0,.18,0,.6,0,.6H32.89S32.92,16.24,32.92,16.05Z"/><path d="M37.42,21.72l-.36,0V31h.38a4.67,4.67,0,1,0,0-9.33Z"/><path d="M12.26,21.72a4.45,4.45,0,0,0-4.41,4.67,4.52,4.52,0,0,0,4.49,4.66c.11,0,0,0,0,0v-9.3S12.36,21.72,12.26,21.72Z"/></svg>