<svg id="icon" xmlns="http://www.w3.org/2000/svg" viewBox="0 0 50 50"><title>095 copia 9</title><path d="M23.34,12l-2.87,2.86-6-6L15,8.32a1.47,1.47,0,0,0,0-2.09l-.61-.61a1.41,1.41,0,0,0-2,0l-7,6.93a1.38,1.38,0,0,0,0,2l.61.61a1.5,1.5,0,0,0,2.1,0l.55-.54,6.05,6-2.87,2.86a1.87,1.87,0,1,0,2.61,2.69l1.32-1.32L32.6,41.6a1.5,1.5,0,0,0,2.11,0l1.92-1.92,2.49,1.45A1.13,1.13,0,0,0,40.28,41l3.92,3.91a.47.47,0,0,0,.66,0,.45.45,0,0,0,0-.66l-4-4a1,1,0,0,0,0-.91l-1.37-2.6,2-2a1.47,1.47,0,0,0,0-2.09L24.72,15.94,26,14.63a1.88,1.88,0,0,0-.41-3A1.93,1.93,0,0,0,23.34,12ZM37.89,34a.25.25,0,0,1,0,.34L34.27,38a.23.23,0,0,1-.34,0L19.14,23.23a.25.25,0,0,1,0-.34l3.61-3.6a.26.26,0,0,1,.35,0Z"/></svg>