<svg id="icon" xmlns="http://www.w3.org/2000/svg" viewBox="0 0 50 50"><defs><style>.cls-1{fill:none;}</style></defs><title>094 copia 9</title><path class="cls-1" d="M23.41,20.17V12.79a12.22,12.22,0,0,0-6.34,2.8l5.28,5.06A5.07,5.07,0,0,1,23.41,20.17Z"/><path class="cls-1" d="M20,26H12.73A12.18,12.18,0,0,0,15,32.16l5.33-5.11A4.86,4.86,0,0,1,20,26Z"/><path class="cls-1" d="M29.83,23.41h7.38a12.38,12.38,0,0,0-2.75-6.3l-5.24,5A5,5,0,0,1,29.83,23.41Z"/><path class="cls-1" d="M27.24,20.43l5.35-5.12A12.21,12.21,0,0,0,26,12.73V20A5,5,0,0,1,27.24,20.43Z"/><path class="cls-1" d="M22,29.08l-5.23,5a12.21,12.21,0,0,0,6.68,3.11V29.83A5,5,0,0,1,22,29.08Z"/><path class="cls-1" d="M20.56,22.53l-5.29-5.06a12.27,12.27,0,0,0-2.48,5.94h7.38A4.62,4.62,0,0,1,20.56,22.53Z"/><path class="cls-1" d="M30,26a5,5,0,0,1-.56,1.51l5.29,5.06A12.26,12.26,0,0,0,37.27,26Z"/><path class="cls-1" d="M26,30v7.26a12.26,12.26,0,0,0,7-2.87l-5.28-5.06A5.14,5.14,0,0,1,26,30Z"/><path d="M43.8,23.41H40.64a15.62,15.62,0,0,0-3.73-8.64l2.14-2.06a1.22,1.22,0,0,0,0-1.73l-.1-.1a1.22,1.22,0,0,0-1.73,0l-2.19,2.1A15.65,15.65,0,0,0,26,9.33V6.2A1.2,1.2,0,0,0,24.75,5h-.14a1.2,1.2,0,0,0-1.2,1.2V9.36a15.6,15.6,0,0,0-8.8,3.88l-2.5-2.4a1.23,1.23,0,0,0-1.74,0l-.1.1a1.23,1.23,0,0,0,0,1.73l2.5,2.39a15.66,15.66,0,0,0-3.45,8.31H6.2A1.2,1.2,0,0,0,5,24.61v.14A1.2,1.2,0,0,0,6.2,26H9.33a15.55,15.55,0,0,0,3.2,8.58l-2.22,2.12a1.24,1.24,0,0,0,0,1.74l.1.1a1.24,1.24,0,0,0,1.74,0l2.16-2.08a15.6,15.6,0,0,0,9.14,4.19V43.8a1.2,1.2,0,0,0,1.2,1.2h.14A1.2,1.2,0,0,0,26,43.8V40.67a15.69,15.69,0,0,0,9.46-3.92l1.85,1.78a1.23,1.23,0,0,0,1.73,0l.1-.1a1.23,1.23,0,0,0,0-1.74l-1.84-1.77A15.63,15.63,0,0,0,40.67,26H43.8a1.2,1.2,0,0,0,1.2-1.2v-.14A1.2,1.2,0,0,0,43.8,23.41Zm-6.59,0H29.83a5,5,0,0,0-.61-1.28l5.24-5A12.38,12.38,0,0,1,37.21,23.41Zm-4.62-8.1-5.35,5.12A5,5,0,0,0,26,20V12.73A12.21,12.21,0,0,1,32.59,15.31Zm-9.18-2.52v7.38a5.07,5.07,0,0,0-1.06.48l-5.28-5.06A12.22,12.22,0,0,1,23.41,12.79Zm-8.14,4.68,5.29,5.06a4.62,4.62,0,0,0-.39.88H12.79A12.27,12.27,0,0,1,15.27,17.47ZM12.73,26H20a4.86,4.86,0,0,0,.34,1.1L15,32.16A12.18,12.18,0,0,1,12.73,26Zm4,8.15,5.23-5a5,5,0,0,0,1.45.75v7.38A12.21,12.21,0,0,1,16.73,34.1ZM26,37.27V30a5.14,5.14,0,0,0,1.72-.67L33,34.4A12.26,12.26,0,0,1,26,37.27Zm8.79-4.75-5.29-5.06A5,5,0,0,0,30,26h7.26A12.26,12.26,0,0,1,34.74,32.52Z"/></svg>