<svg id="icon" xmlns="http://www.w3.org/2000/svg" viewBox="0 0 50 50"><title>Mesa de trabajo 99</title><path d="M25.14,5A19.86,19.86,0,1,0,45,24.86,19.88,19.88,0,0,0,25.14,5Zm0,35.43A15.57,15.57,0,1,1,40.7,24.86,15.59,15.59,0,0,1,25.14,40.43Z"/><path d="M38.88,22.82c-2.61-6.34-7.48-8.52-12.62-9.72l-.21.25-.35.45a62.22,62.22,0,0,0,4.82,5,0,0,0,0,1,0,.07l-.53.58a.83.83,0,0,0-.09,1L25,25.49l-4.84-5.25a.81.81,0,0,0-.06-1l-.52-.59a0,0,0,0,1,0-.07,60.5,60.5,0,0,0,5-4.87l-.35-.46L24,13c-5.16,1.08-10.09,3.14-12.85,9.42a1.13,1.13,0,0,0,.17,1.24h0a25.88,25.88,0,0,0,2.08,2.23c-.19-.34,3-4.23,3.4-4.72a.06.06,0,0,1,.08,0l.46.55a.84.84,0,0,0,.75.28l5,5.45L17,33.77a1.38,1.38,0,1,0,2,1.91l6-6.2,5.78,6.27a1.38,1.38,0,1,0,2-1.86l-5.89-6.38L32,22.25a.81.81,0,0,0,.76-.27l.47-.53a.05.05,0,0,1,.08,0c.39.5,3.48,4.47,3.29,4.8a28,28,0,0,0,2.13-2.18h0A1.14,1.14,0,0,0,38.88,22.82Z"/></svg>