<svg id="icon" xmlns="http://www.w3.org/2000/svg" viewBox="0 0 50 50"><defs><style>.cls-1,.cls-2{fill:none;stroke:#000;stroke-miterlimit:10;}.cls-1{stroke-width:3.82px;}.cls-2{stroke-width:3px;}</style></defs><title>Mesa de trabajo 103</title><path class="cls-1" d="M27.67,43h8A1.35,1.35,0,0,0,37,41.66V31.59a.22.22,0,0,0,0-.12L25.82,22.22a1.27,1.27,0,0,0-1.64,0L13,31.47a.35.35,0,0,0,0,.06.18.18,0,0,0,0,.06V41.66A1.35,1.35,0,0,0,14.34,43H28.05"/><path d="M25,5a1.83,1.83,0,0,1,2,1.58V22.42A1.83,1.83,0,0,1,25,24a1.83,1.83,0,0,1-2-1.58V6.58A1.83,1.83,0,0,1,25,5Z"/><path class="cls-2" d="M32.48,11.6,26.21,7.19a1.09,1.09,0,0,0-1.71.89v8.83a1.09,1.09,0,0,0,1.71.89l6.27-4.42A1.09,1.09,0,0,0,32.48,11.6Z"/></svg>