<svg id="icon" xmlns="http://www.w3.org/2000/svg" viewBox="0 0 50 50"><defs><style>.cls-1{fill:#fff;}</style></defs><title>Artboard 125</title><path d="M37.1,19.9,41,9,30.17,11.83l1.72,2L30,15.77A14.48,14.48,0,0,0,9.77,36L5.88,39.88l3.45,3.45,3.92-3.92A14.48,14.48,0,0,0,33.41,19.25l1.93-1.93Zm-27,7.6A11.38,11.38,0,0,1,21.5,16.14,11.25,11.25,0,0,1,27.75,18L12,33.75A11.28,11.28,0,0,1,10.14,27.5Zm22.72,0A11.38,11.38,0,0,1,21.5,38.86a11.2,11.2,0,0,1-6-1.72L31.14,21.52A11.2,11.2,0,0,1,32.86,27.5Z"/><polygon class="cls-1" points="27.1 22.67 26.23 22.67 24.33 22.67 24 28 22.9 22.67 21 22.67 21 22.67 19.1 22.67 18.24 29 17.67 22.67 15.77 22.67 14.9 22.67 13 22.67 15.68 35 17.58 35 18.05 35 19.95 35 21 31.23 22.04 35 23.94 35 24.42 35 26.32 35 29 22.67 27.1 22.67"/><path d="M24.78,31.41l2.13-8.49h1.9L25.58,34H24l-2.71-8.42L18.7,34H17.16L13.94,22.92h1.89L18,31.24l2.58-8.32h1.54Z"/></svg>