<svg id="icon" xmlns="http://www.w3.org/2000/svg" viewBox="0 0 50 50"><title>076 copia 8</title><path d="M43,16v-.5h0V11.6a2.15,2.15,0,0,0-1.09-1.87l-3.18-1.8h0L33.91,5.21l-.4.64-.61,1L38.18,10V13.5a2.15,2.15,0,0,0,1.09,1.87l.73.41V38H36V16.5A1.5,1.5,0,0,0,34.5,15H28.19V8.84c0-2-1.33-3.63-3-3.63H10.74c-1.64,0-3,1.63-3,3.63V41.2H6.51a1,1,0,0,0-1,1v1.59a1,1,0,0,0,1,1H29.45a1,1,0,0,0,1-1V42.16a1,1,0,0,0-1-1H28.19V18a1.63,1.63,0,0,0,.31,0H33V40a1,1,0,0,0,1,1h8a1,1,0,0,0,1-1V16Zm-17.59.18a2.39,2.39,0,0,1-2.23,2.52H13.23A2.39,2.39,0,0,1,11,16.18V10.52A2.39,2.39,0,0,1,13.23,8h10a2.39,2.39,0,0,1,2.23,2.52Z"/></svg>