<svg id="icon" xmlns="http://www.w3.org/2000/svg" viewBox="0 0 50 50"><title>Artboard 106</title><path d="M36.9,10.38a1.54,1.54,0,0,0,.36-.42l2.53-4.4A.92.92,0,0,0,39.87,5l-.16-.14a.9.9,0,0,0-.6.12l-2.7,1.85A2.1,2.1,0,0,1,36,7a1.3,1.3,0,0,1-.56-.23L34,5.78a1.33,1.33,0,0,0-.52-.21c-.14,0-.4.35-.47.52l-1.8,4.59a.85.85,0,0,0,0,.61l.18.12a.84.84,0,0,0,.56-.22l1.91-1.87A1.91,1.91,0,0,1,34.25,9c.1,0,.45.12.6.22l1.4,1C36.4,10.29,36.8,10.45,36.9,10.38Z"/><path d="M26.89,10.7a.69.69,0,0,1,.13-.57A4.2,4.2,0,0,0,28,8a3,3,0,0,0-6,0,4.2,4.2,0,0,0,1,2.13.69.69,0,0,1,.13.57l-8.7,31.06a1.79,1.79,0,0,0,0,.65s.11.76.64.9,1-.44,1-.44a1.64,1.64,0,0,0,.3-.57l.25-.88a2.11,2.11,0,0,1,.1-.31l.14.08a4.23,4.23,0,0,0,.57.21l6.29,1.76a.46.46,0,0,1,.32.42v.09a1.7,1.7,0,0,0,.14.63s.31.7.86.7.86-.7.86-.7a1.64,1.64,0,0,0,.14-.61.94.94,0,0,1,0-.33,2.05,2.05,0,0,1,.37-.14l6.51-1.82a2.6,2.6,0,0,0,.37-.12s.13.1.18.28l.21.74a1.64,1.64,0,0,0,.3.57s.49.59,1,.44.64-.9.64-.9a1.79,1.79,0,0,0,0-.65ZM24,40.84a.24.24,0,0,1-.32.24l-1.37-.38c-.18-.05-.17-.11,0-.13l1.35-.14a.29.29,0,0,1,.33.3Zm0-2.79a.38.38,0,0,1-.33.37l-6.11.65a.21.21,0,0,1-.24-.28l.88-3.16c.05-.18.11-.31.14-.29a4,4,0,0,0,.44.14l4.9,1.38a.45.45,0,0,1,.32.42Zm0-3.51a.24.24,0,0,1-.32.24l-1.56-.44c-.18-.05-.18-.13,0-.18l1.56-.44A.24.24,0,0,1,24,34Zm0-3.31a.46.46,0,0,1-.32.42l-4.42,1.23c-.17,0-.28-.05-.23-.23l1-3.56a.3.3,0,0,1,.4-.21L23.64,30l.33.11a1.17,1.17,0,0,1,0,.33Zm0-3.55a.22.22,0,0,1-.31.22l-1.22-.43c-.17-.06-.17-.15,0-.2l1.2-.33a.24.24,0,0,1,.32.24Zm0-3.24a.46.46,0,0,1-.32.42l-2.35.66c-.18.05-.28-.05-.23-.23l.84-3a.23.23,0,0,1,.36-.14l1,.65.41.24a.59.59,0,0,1,.27.41Zm0-3.91c0,.18-.13.25-.28.15L23,20.2c-.16-.1-.14-.22,0-.27l.68-.19A.24.24,0,0,1,24,20Zm0-3.2c0,.18-.06.33-.14.33a2.31,2.31,0,0,0-.47.08c-.1,0-.15-.09-.1-.26l.62-2.23c.05-.18.09-.17.09,0Zm2-2.07c0-.18,0-.19.09,0l.62,2.23c.05.17,0,.29-.1.26l-.33-.07a.41.41,0,0,1-.28-.33ZM26,20a.24.24,0,0,1,.32-.24l.64.18c.18,0,.19.17,0,.26l-.72.46c-.15.1-.28,0-.28-.15Zm0,3.45c0-.18.05-.34.11-.36a2.56,2.56,0,0,0,.5-.27l1.08-.68a.22.22,0,0,1,.36.14l.85,3c.05.17,0,.28-.23.23l-2.35-.66a.46.46,0,0,1-.32-.42Zm0,3.75a.24.24,0,0,1,.32-.25l1.21.34c.18.05.18.14,0,.2l-1.23.43a.22.22,0,0,1-.31-.22Zm0,3.27a1.52,1.52,0,0,1,0-.34l.35-.11,3.2-1.12a.31.31,0,0,1,.4.21l1,3.46c0,.18-.06.28-.23.23l-4.39-1.23a.46.46,0,0,1-.32-.42Zm0,3.42a.24.24,0,0,1,.32-.24L28,34.1c.18,0,.18.12,0,.17l-1.67.47A.24.24,0,0,1,26,34.5Zm.32,7.3a.24.24,0,0,1-.32-.24v-.24a.29.29,0,0,1,.33-.29l1.66.17c.18,0,.18.08,0,.13Zm.06-2.78-.35,0A1.88,1.88,0,0,1,26,38v-.79a.46.46,0,0,1,.32-.42l4.77-1.34.42-.13a.27.27,0,0,1,.27.22l.89,3.18a.21.21,0,0,1-.24.29Z"/><path d="M17.22,9.87a.86.86,0,0,0-.44-.42l-2.5-.93a1.54,1.54,0,0,1-.45-.24,1.16,1.16,0,0,1-.06-.64L14,6a1.58,1.58,0,0,0,0-.54c0-.12-.44-.25-.62-.27L8.33,4.75a.88.88,0,0,0-.58.19l-.06.2a.89.89,0,0,0,.36.49l2.83,1.66a1.88,1.88,0,0,1,.4.29,1.3,1.3,0,0,1,0,.61L11,9.92a1.74,1.74,0,0,0,0,.57c0,.13.49.21.67.2l4.93-.33a.89.89,0,0,0,.54-.28Z"/><path d="M9.07,16.58a1.53,1.53,0,0,1-.34-.32,1.12,1.12,0,0,1,.14-.54l.5-1a1.45,1.45,0,0,0,.16-.47c0-.09-.3-.28-.47-.35L5.73,12.63a.83.83,0,0,0-.58,0c-.15.07,0,.46.16.6l1.5,1.64a1.73,1.73,0,0,1,.27.35,1.23,1.23,0,0,1-.15.52l-.53,1a1.38,1.38,0,0,0-.14.48c0,.11.33.26.51.3l3.4.74a.82.82,0,0,0,.58-.1c.14-.09-.12-.45-.26-.55Z"/><path d="M44.61,14.75a.85.85,0,0,0-.57-.09l-2.17.51a1.89,1.89,0,0,1-.44.06c-.07,0-.28-.23-.38-.38l-.65-1a1.4,1.4,0,0,0-.35-.37c-.09,0-.39.17-.51.3l-2.31,2.61A.84.84,0,0,0,37,17c0,.17.44.12.61.05l1.63-.72a1.75,1.75,0,0,1,.44-.13c.08,0,.31.23.41.38l.62.93a1.5,1.5,0,0,0,.34.36c.08.05.39-.11.53-.23l2.74-2.28C44.5,15.21,44.75,14.84,44.61,14.75Z"/></svg>