<svg id="icon" xmlns="http://www.w3.org/2000/svg" viewBox="0 0 50 50"><title>Mesa de trabajo 100</title><path d="M20.88,11.67a13.77,13.77,0,0,1,8,0L33.58,7A19.68,19.68,0,0,0,16.25,7Z"/><path d="M11.67,20.88,7,16.25A19.68,19.68,0,0,0,7,33.58l4.65-4.66a13.77,13.77,0,0,1,0-8Z"/><path d="M28.94,38.25a13.89,13.89,0,0,1-8.14,0L16.09,43a19.94,19.94,0,0,0,17.53-.06Z"/><path d="M38.25,28.93l4.69,4.69A19.94,19.94,0,0,0,43,16.09l-4.71,4.7a13.89,13.89,0,0,1,0,8.14Z"/><path d="M25,12.33A12.67,12.67,0,1,0,37.67,25,12.69,12.69,0,0,0,25,12.33Zm0,22.6A9.93,9.93,0,1,1,34.93,25,9.95,9.95,0,0,1,25,34.93Z"/></svg>