<svg id="icon" xmlns="http://www.w3.org/2000/svg" viewBox="0 0 50 50"><title>Artboard 110</title><path d="M44.74,43.77s0,0,0-.05a2.27,2.27,0,0,0,.12-.69,2.06,2.06,0,0,0-.42-1.24L27.32,6.14a2,2,0,0,0-2.68-.93,1.69,1.69,0,0,0-.36.23,2,2,0,0,0-.82.86L5.37,42a2.63,2.63,0,0,0-.17.52,2.1,2.1,0,0,0-.08.56,2,2,0,0,0,2,2h35.3a2,2,0,0,0,1.32-.15,2,2,0,0,0,.94-1ZM25.39,11.39,39.62,41H10.37Z"/><path d="M35.32,38.29v0a1,1,0,0,0,.07-.36,1.1,1.1,0,0,0-.22-.64l-9-18.65a1,1,0,0,0-1.4-.48.71.71,0,0,0-.18.12,1,1,0,0,0-.43.45L14.74,37.34a1,1,0,0,0-.09.27.93.93,0,0,0-.05.29A1.06,1.06,0,0,0,15.65,39H34.11a1,1,0,0,0,1.18-.61ZM25.2,21.36l7.44,15.47H17.35Z"/><path d="M28,32a3,3,0,1,0-3,3A3,3,0,0,0,28,32Z"/></svg>