<svg id="icon" xmlns="http://www.w3.org/2000/svg" viewBox="0 0 50 50"><defs><style>.cls-1{fill:#0b4ddb;}</style></defs><title>Artboard 112</title><path class="cls-1" d="M43.742,30.348a6.513,6.513,0,0,0-3.354-4.454c-1.444-.625-14.771-2.972-12.49-6.531.954-1.5,4.156-1.791,4.34-5.954.121-4.975-3.152-5.977-4.5-6.219-4.571-.824-7.488-.591-11.194.991-4.073,1.6-9.833,7.008-10.77,10.7a14.554,14.554,0,0,0-.836,3.88C4.4,30.039,8.9,36.018,12.447,38.5,16.182,41.136,21.062,43.773,30,43.2a.068.068,0,0,1,.038-.005c.619-.08,1.265-.176,1.925-.3.027-.007.043-.005.07-.014A22.905,22.905,0,0,0,38.448,40.4c1.39-.891,3.748-2.32,4.849-5.126A9.255,9.255,0,0,0,43.742,30.348ZM38.149,37.8A3.831,3.831,0,0,1,35.4,36.507c-.1-.1-.2-.212-.292-.327-.095.115-.193.223-.293.327a3.566,3.566,0,0,1-5.489,0c-.1-.1-.2-.212-.293-.327-.095.115-.192.223-.292.327a3.567,3.567,0,0,1-5.49,0c-.1-.1-.2-.212-.292-.327-.1.115-.193.223-.293.327A3.831,3.831,0,0,1,19.926,37.8a3.831,3.831,0,0,1-2.745-1.289c-.1-.1-.2-.212-.293-.327-.094.115-.192.223-.292.327A3.831,3.831,0,0,1,13.851,37.8c-.47,0-.851-.577-.851-1.289s.381-1.289.851-1.289a2.877,2.877,0,0,0,2.393-1.663.688.688,0,0,1,1.289,0,2.877,2.877,0,0,0,2.392,1.663,2.877,2.877,0,0,0,2.393-1.663.688.688,0,0,1,1.289,0A2.877,2.877,0,0,0,26,35.218a2.877,2.877,0,0,0,2.393-1.663.688.688,0,0,1,1.289,0,2.876,2.876,0,0,0,2.392,1.663,2.877,2.877,0,0,0,2.393-1.663.688.688,0,0,1,1.289,0,2.877,2.877,0,0,0,2.393,1.663c.47,0,.851.577.851,1.289S38.619,37.8,38.149,37.8Zm0-6.86A3.831,3.831,0,0,1,35.4,29.647c-.1-.1-.2-.212-.292-.327q-.142.172-.293.327a3.566,3.566,0,0,1-5.489,0q-.15-.154-.293-.327-.142.172-.292.327a3.567,3.567,0,0,1-5.49,0q-.15-.154-.292-.327-.143.172-.293.327a3.831,3.831,0,0,1-2.744,1.289,3.831,3.831,0,0,1-2.745-1.289q-.15-.154-.293-.327-.143.172-.292.327a3.831,3.831,0,0,1-2.745,1.289c-.47,0-.851-.577-.851-1.289s.381-1.289.851-1.289A2.877,2.877,0,0,0,16.244,26.7a.688.688,0,0,1,1.289,0,2.877,2.877,0,0,0,2.392,1.663A2.877,2.877,0,0,0,22.318,26.7a.688.688,0,0,1,1.289,0A2.877,2.877,0,0,0,26,28.358,2.877,2.877,0,0,0,28.393,26.7a.688.688,0,0,1,1.289,0,2.876,2.876,0,0,0,2.392,1.663A2.877,2.877,0,0,0,34.467,26.7a.688.688,0,0,1,1.289,0,2.877,2.877,0,0,0,2.393,1.663c.47,0,.851.577.851,1.289S38.619,30.936,38.149,30.936Z"/></svg>