<svg id="icon" xmlns="http://www.w3.org/2000/svg" viewBox="0 0 50 50"><defs><style>.cls-1{fill:#10c90f;}</style></defs><title>074 copia 7</title><path class="cls-1" d="M44.606,20.486a7.526,7.526,0,0,0-9.616-5.133,9.485,9.485,0,0,0-1.669.737,12.308,12.308,0,0,0,.186-2.077,8,8,0,0,0-7.995-7.995c-4.407,0-7.544,3.587-7.544,8a12.408,12.408,0,0,0,.185,2.077,9.435,9.435,0,0,0-1.667-.737,7.994,7.994,0,0,0-4.942,15.206,9.646,9.646,0,0,0,1.784.384A9.438,9.438,0,0,0,12.112,32.3,7.988,7.988,0,0,0,13.88,43.468,7.46,7.46,0,0,0,24.6,41.7a9.338,9.338,0,0,0,.916-1.577,9.409,9.409,0,0,0,.917,1.577,7.454,7.454,0,0,0,10.709,1.768A7.988,7.988,0,0,0,38.906,32.3a9.438,9.438,0,0,0-1.216-1.359,9.617,9.617,0,0,0,1.783-.384A7.989,7.989,0,0,0,44.606,20.486ZM35.64,24.748,31.158,26.2a5.486,5.486,0,0,1-1.446,4.471l2.765,3.807a1.142,1.142,0,0,1-1.847,1.343l-2.761-3.8a5.573,5.573,0,0,1-4.714,0l-2.761,3.8a1.142,1.142,0,0,1-1.847-1.343l2.766-3.807A5.669,5.669,0,0,1,19.8,26.838a5.767,5.767,0,0,1,.064-.634l-4.482-1.456a1.142,1.142,0,0,1,.7-2.173l4.481,1.456a5.681,5.681,0,0,1,3.785-2.788V16.56a1.15,1.15,0,0,1,2.3,0v4.683a5.709,5.709,0,0,1,3.8,2.788l4.48-1.456A1.142,1.142,0,0,1,35.64,24.748Z"/><circle class="cls-1" cx="25.512" cy="26.838" r="3.426"/></svg>