<svg id="icon" xmlns="http://www.w3.org/2000/svg" viewBox="0 0 50 50"><defs><style>.cls-1{fill:#010002;}</style></defs><title>Artboard 111</title><path class="cls-1" d="M41.54,23.8c-.82-1.68-2.15-1.68-3,0-.35.74-.81,1.68-1.27,2.65l-9-18.61c-1.13-2.34-3-2.34-4.12,0L18.73,19l-1.67-3.42c-1.14-2.34-3-2.34-4.13,0L6.52,28.75,5.21,31.44a1.09,1.09,0,0,0,1,1.56H44.27a1.09,1.09,0,0,0,1-1.56l-.73-1.51Z"/><polygon class="cls-1" points="46 29.8 46 29.8 46 29.8 46 29.8"/><path d="M8.33,37H41.67a3.34,3.34,0,0,1,0,6.67H8.33a3.34,3.34,0,0,1,0-6.67Z"/></svg>