<svg id="icon" xmlns="http://www.w3.org/2000/svg" viewBox="0 0 50 50"><title>Artboard 114</title><path d="M40.56,5H9.44A4.44,4.44,0,0,0,5,9.44V40.56A4.44,4.44,0,0,0,9.44,45H40.56A4.44,4.44,0,0,0,45,40.56V9.44A4.44,4.44,0,0,0,40.56,5ZM19.41,39.1l-2.82-2.82,2.58-2.57L22,36.52Zm-.5-27.65L21.49,14l-2.82,2.82-2.58-2.58Zm11-.19,3,3-2.77,2.77-3-3Zm5.9,11.44L33,19.88l2.76-2.77,2.82,2.82Zm4.75.91v3.83l-1.92-1.92ZM33,25.52l-2.82,2.82-2.82-2.82,2.82-2.81Zm-5.65-5.64L24.52,22.7l-3-3,2.81-2.82ZM21.7,25.52l-2.53,2.53-3-3,2.53-2.52Zm-5.86-5.85L13.31,22.2l-2.57-2.58,2.52-2.53ZM9.44,24l1.05,1-1.05,1Zm3.87,3.87,3,3-2.58,2.57-3-3Zm8.69,3,2.52-2.53,2.82,2.82L24.81,33.7ZM30.17,34l2.77,2.76-2.53,2.53-2.77-2.77ZM33,31.17l2.81-2.82,2.77,2.77-2.82,2.82Zm7.56-14.93-2-2,2-2Zm-4.8-4.79-2-2h4ZM24.31,11.2,22.56,9.44h3.5Zm-11,.24-2-2h4Zm-2.82,2.82-1,1v-2Zm-1,20.53,1.5,1.49-1.5,1.49Zm4.32,4.32,1.45,1.45H12.32Zm11,.24L26,40.56H23.61Zm11,.24,1,1H34.8Zm2.83-2.83,2-2v3.93Z"/></svg>