<?xml version="1.0" encoding="UTF-8" standalone="no"?>
<!-- Created with Inkscape (http://www.inkscape.org/) -->

<svg
   xmlns:dc="http://purl.org/dc/elements/1.1/"
   xmlns:cc="http://creativecommons.org/ns#"
   xmlns:rdf="http://www.w3.org/1999/02/22-rdf-syntax-ns#"
   xmlns:svg="http://www.w3.org/2000/svg"
   xmlns="http://www.w3.org/2000/svg"
   xmlns:sodipodi="http://sodipodi.sourceforge.net/DTD/sodipodi-0.dtd"
   xmlns:inkscape="http://www.inkscape.org/namespaces/inkscape"
   width="12"
   height="12"
   id="svg2"
   version="1.1"
   inkscape:version="0.48.4 r9939"
   sodipodi:docname="caserio.svg">
  <defs
     id="defs4" />
  <sodipodi:namedview
     id="base"
     pagecolor="#ffffff"
     bordercolor="#666666"
     borderopacity="1.0"
     inkscape:pageopacity="0.0"
     inkscape:pageshadow="2"
     inkscape:zoom="44.8"
     inkscape:cx="0.5736446"
     inkscape:cy="5.213193"
     inkscape:document-units="px"
     inkscape:current-layer="layer1"
     showgrid="false"
     inkscape:window-width="1600"
     inkscape:window-height="838"
     inkscape:window-x="-8"
     inkscape:window-y="32"
     inkscape:window-maximized="1" />
  <metadata
     id="metadata7">
    <rdf:RDF>
      <cc:Work
         rdf:about="">
        <dc:format>image/svg+xml</dc:format>
        <dc:type
           rdf:resource="http://purl.org/dc/dcmitype/StillImage" />
        <dc:title></dc:title>
      </cc:Work>
    </rdf:RDF>
  </metadata>
  <g
     inkscape:label="Capa 1"
     inkscape:groupmode="layer"
     id="layer1"
     transform="translate(0,-1040.3622)">
    <g
       id="g3797"
       transform="matrix(1.3545905,0,0,1.3545905,-1.9370537,-373.06798)">
      <path
         id="path3"
         d="m 7.7587465,1045.4812 -1.2928843,-1.1371 c -0.060245,-0.053 -0.1578433,-0.053 -0.2172873,0 l -1.2924825,1.1371 c -0.060245,0.053 -0.04418,0.096 0.036149,0.096 h 0.3988293 v 1.1643 c 0,0.063 0.052214,0.1161 0.1160747,0.1161 h 0.487993 v -0.766 c 0,-0.063 0.052214,-0.1161 0.1160747,-0.1161 H 6.604027 c 0.064263,0 0.1160747,0.051 0.1160747,0.1161 v 0.766 h 0.4879952 c 0.064263,0 0.1160748,-0.052 0.1160748,-0.1161 v -1.1647 H 7.723001 c 0.079125,0 0.095189,-0.043 0.035745,-0.096 z"
         inkscape:connector-curvature="0" />
      <path
         id="path3-4"
         d="m 9.8837464,1047.8204 -1.2928843,-1.1371 c -0.060245,-0.053 -0.1578433,-0.053 -0.2172873,0 l -1.2924825,1.1371 c -0.060245,0.053 -0.04418,0.096 0.036149,0.096 h 0.3988293 v 1.1643 c 0,0.063 0.052214,0.1161 0.1160747,0.1161 h 0.487993 v -0.7659 c 0,-0.063 0.052214,-0.1161 0.1160747,-0.1161 h 0.4928139 c 0.064263,0 0.1160747,0.051 0.1160747,0.1161 v 0.7659 h 0.4879952 c 0.064263,0 0.1160748,-0.052 0.1160748,-0.1161 v -1.1647 h 0.3988293 c 0.079125,0 0.095189,-0.043 0.035745,-0.096 z"
         inkscape:connector-curvature="0" />
      <path
         id="path3-5"
         d="m 4.6382107,1049.5393 -1.2928843,-1.1371 c -0.060245,-0.053 -0.1578433,-0.053 -0.2172873,0 l -1.2924825,1.1371 c -0.060245,0.053 -0.04418,0.096 0.036149,0.096 h 0.3988293 v 1.1643 c 0,0.063 0.052214,0.1161 0.1160747,0.1161 h 0.487993 v -0.7659 c 0,-0.063 0.052214,-0.1161 0.1160747,-0.1161 h 0.4928139 c 0.064263,0 0.1160747,0.051 0.1160747,0.1161 v 0.7659 h 0.4879952 c 0.064263,0 0.1160748,-0.052 0.1160748,-0.1161 v -1.1647 h 0.3988293 c 0.079125,0 0.095189,-0.043 0.035745,-0.096 z"
         inkscape:connector-curvature="0" />
      <path
         id="path3-51"
         d="m 7.5846393,1050.0525 -1.2928843,-1.137 c -0.060245,-0.053 -0.1578433,-0.053 -0.2172873,0 l -1.2924825,1.137 c -0.060245,0.053 -0.04418,0.096 0.036149,0.096 h 0.3988293 v 1.1643 c 0,0.063 0.052214,0.1161 0.1160747,0.1161 h 0.487993 v -0.7659 c 0,-0.063 0.052214,-0.1161 0.1160747,-0.1161 h 0.4928139 c 0.064263,0 0.1160747,0.051 0.1160747,0.1161 v 0.7659 h 0.4879952 c 0.064263,0 0.1160748,-0.052 0.1160748,-0.1161 v -1.1647 h 0.3988293 c 0.079125,0 0.095189,-0.043 0.035745,-0.096 z"
         inkscape:connector-curvature="0" />
      <path
         id="path3-7"
         d="m 5.1962465,1046.7267 -1.2928843,-1.1371 c -0.060245,-0.053 -0.1578433,-0.053 -0.2172873,0 l -1.2924825,1.1371 c -0.060245,0.053 -0.04418,0.096 0.036149,0.096 h 0.3988293 v 1.1643 c 0,0.063 0.052214,0.1161 0.1160747,0.1161 h 0.487993 v -0.7659 c 0,-0.063 0.052214,-0.1161 0.1160747,-0.1161 H 4.041527 c 0.064263,0 0.1160747,0.051 0.1160747,0.1161 v 0.7659 h 0.4879952 c 0.064263,0 0.1160748,-0.052 0.1160748,-0.1161 v -1.1647 H 5.160501 c 0.079125,0 0.095189,-0.043 0.035745,-0.096 z"
         inkscape:connector-curvature="0" />
    </g>
  </g>
</svg>
