<svg id="icon" xmlns="http://www.w3.org/2000/svg" viewBox="0 0 50 50"><title>088</title><path d="M37.31,5a7.46,7.46,0,0,0-4.79,1.74,5.61,5.61,0,0,0-7.27.49,4.35,4.35,0,0,0-5.69,2.25,3,3,0,0,0-.72-.1,2.77,2.77,0,0,0-2.62,1.89H16a1.85,1.85,0,0,0-1.84,1.84,2,2,0,0,0,1.43,1.78,10.27,10.27,0,0,0,3.23.06,3.72,3.72,0,0,0,1.69-.58,4.31,4.31,0,0,0,4.72.85A5.56,5.56,0,0,0,31,16.5,7.47,7.47,0,1,0,37.31,5Z"/><polygon points="20.83 23.68 22.77 23.68 23.54 32.53 20.06 32.53 20.83 23.68"/><polygon points="27.09 23.68 29.04 23.68 29.8 32.53 26.33 32.53 27.09 23.68"/><polygon points="33.35 23.68 35.3 23.68 36.06 32.53 32.59 32.53 33.35 23.68"/><path d="M44.2,43.83H41.11v-7.6H39.82a.59.59,0,1,1,0-1.17h1.25a.67.67,0,1,0,0-1.33H16a.67.67,0,0,0,0,1.33h21.3a.59.59,0,0,1,0,1.17H16v7.6h-1.2V35.77A1.83,1.83,0,0,1,16,32.56h1l-.35-15.74H14.06l-.6,27H12.32l.11-5.09h-2a.59.59,0,0,1,0-1.17h2.07l0-1.34H7.88a.67.67,0,1,0,0,1.34.59.59,0,0,1,0,1.17h0v5.09H5.37a.59.59,0,0,0,0,1.17H44.2a.59.59,0,1,0,0-1.17Zm-7.47-5.68a.59.59,0,0,1,1.17,0V39.4a.59.59,0,1,1-1.17,0Zm-2.51,0a.59.59,0,0,1,1.17,0V39.4a.59.59,0,1,1-1.17,0Zm-2.5,0a.59.59,0,0,1,1.17,0V39.4a.59.59,0,1,1-1.17,0Zm-2.51,0a.59.59,0,0,1,1.17,0V39.4a.59.59,0,1,1-1.17,0Zm-2.5,0a.59.59,0,0,1,1.17,0V39.4a.59.59,0,1,1-1.17,0Zm-2.51,0a.59.59,0,0,1,1.17,0V39.4a.59.59,0,1,1-1.17,0Zm-2.5,0a.59.59,0,0,1,1.17,0V39.4a.59.59,0,1,1-1.17,0Zm-2.51,0a.59.59,0,0,1,1.17,0V39.4a.59.59,0,1,1-1.17,0Z"/></svg>