<svg id="icon" xmlns="http://www.w3.org/2000/svg" viewBox="0 0 50 50"><title>Artboard 122</title><path d="M44.2,40H39a.68.68,0,0,0,0-.15V7a2,2,0,0,0-2-1.95H12.15a2,2,0,0,0-2,2v32.9a.68.68,0,0,0,0,.15H5.8a.8.8,0,0,0-.8.8v3.4a.8.8,0,0,0,.8.8H44.2a.8.8,0,0,0,.8-.8V40.8A.8.8,0,0,0,44.2,40ZM14.11,9.54a.1.1,0,0,1,.09-.1h8.71a.1.1,0,0,1,.09.1v8.7a.09.09,0,0,1-.09.09H14.2a.09.09,0,0,1-.09-.09Zm0,19.9v-8.7a.1.1,0,0,1,.09-.1h8.71a.1.1,0,0,1,.09.1v8.7a.09.09,0,0,1-.09.09H14.2A.09.09,0,0,1,14.11,29.44Zm21.33.18a.09.09,0,0,1-.09.09h-8.7a.09.09,0,0,1-.09-.09v-8.7a.09.09,0,0,1,.09-.1h8.7a.09.09,0,0,1,.09.1Zm0-11.2a.09.09,0,0,1-.09.09h-8.7a.09.09,0,0,1-.09-.09V9.72a.09.09,0,0,1,.09-.1h8.7a.09.09,0,0,1,.09.1Z"/></svg>