<svg id="icon" xmlns="http://www.w3.org/2000/svg" viewBox="0 0 50 50"><title>Artboard 124</title><path d="M37.83,5H12.17c-2,0-3.67,2-3.67,4.44V40.56C8.5,43,10.14,45,12.17,45H37.83c2,0,3.67-2,3.67-4.44V9.44C41.5,7,39.86,5,37.83,5ZM18.63,9.44h1.06v3.47l.15.09H30.08a.23.23,0,0,0,.23-.23V9.44h1.32v4.18a.38.38,0,0,1-.38.38H19a.37.37,0,0,1-.37-.38Zm2.44,0h8v2.09a.23.23,0,0,1-.23.24H21.31a.24.24,0,0,1-.24-.24Zm-4.69,0v6.41l.25.15H33.25a.38.38,0,0,0,.38-.38V9.44h4.2V24H29.9a5,5,0,0,0-9.8,0H12.17V9.44ZM21.53,24a3.6,3.6,0,0,1,6.94,0Zm6.94,2a3.6,3.6,0,0,1-6.94,0Zm3.16,14.56H30.31V36.23a.23.23,0,0,0-.23-.23H19.84l-.15.09v4.47H18.63V35.38A.37.37,0,0,1,19,35H31.25a.38.38,0,0,1,.38.38Zm-2.55,0h-8V37.47a.24.24,0,0,1,.24-.24h7.54a.23.23,0,0,1,.23.24Zm4.55,0V33.38a.38.38,0,0,0-.38-.38H16.63l-.25.15v7.41H12.17V26H20.1a5,5,0,0,0,9.8,0h7.93V40.56Z"/></svg>