<svg id="icon" xmlns="http://www.w3.org/2000/svg" viewBox="0 0 50 50"><title>Artboard 123</title><path d="M43.45,39.46H36.19V7a2,2,0,0,0-2-2H15.51a2,2,0,0,0-2,2V39.46H6.38A1.54,1.54,0,0,0,4.83,41v3a1.55,1.55,0,0,0,1.55,1.55H43.45A1.55,1.55,0,0,0,45,44V41A1.54,1.54,0,0,0,43.45,39.46ZM33,36.08a1.22,1.22,0,0,1-1.22,1.23H18.2A1.22,1.22,0,0,1,17,36.08V34.33a1.22,1.22,0,0,1,1.22-1.22H31.75A1.22,1.22,0,0,1,33,34.33ZM33,30a1.21,1.21,0,0,1-1.22,1.22H18.2A1.21,1.21,0,0,1,17,30V28.21A1.21,1.21,0,0,1,18.2,27H31.75A1.21,1.21,0,0,1,33,28.21Zm0-6.12a1.21,1.21,0,0,1-1.22,1.22H18.2A1.21,1.21,0,0,1,17,23.84V22.09a1.21,1.21,0,0,1,1.22-1.22H31.75A1.21,1.21,0,0,1,33,22.09Zm0-6.12a1.22,1.22,0,0,1-1.22,1.22H18.2A1.22,1.22,0,0,1,17,17.72V16a1.22,1.22,0,0,1,1.22-1.23H31.75A1.22,1.22,0,0,1,33,16Zm0-6.12a1.22,1.22,0,0,1-1.22,1.22H18.2A1.22,1.22,0,0,1,17,11.6V9.85A1.22,1.22,0,0,1,18.2,8.62H31.75A1.22,1.22,0,0,1,33,9.85Z"/></svg>