<svg id="icon" xmlns="http://www.w3.org/2000/svg" viewBox="0 0 50 50"><defs><style>.cls-1{fill:#c27c06;}</style></defs><title>Artboard 138</title><path class="cls-1" d="M26.833,22.507A.467.467,0,0,0,26.4,23V38a.467.467,0,0,0,.435.494h1.594A.467.467,0,0,0,28.862,38V23a.467.467,0,0,0-.435-.493Z"/><path class="cls-1" d="M32.092,22.507a.466.466,0,0,0-.434.493V38a.467.467,0,0,0,.434.494h1.595A.467.467,0,0,0,34.122,38V23a.467.467,0,0,0-.435-.493Z"/><path class="cls-1" d="M37.352,22.507a.467.467,0,0,0-.435.493V38a.467.467,0,0,0,.435.494h1.594A.467.467,0,0,0,39.381,38V23a.466.466,0,0,0-.435-.493Z"/><path class="cls-1" d="M44.057,42.859H5.942A1.015,1.015,0,0,0,5,43.929H5A1.015,1.015,0,0,0,5.942,45H44.057a1.079,1.079,0,0,0,0-2.141Z"/><path class="cls-1" d="M11.054,22.507a.466.466,0,0,0-.435.493V38a.467.467,0,0,0,.435.494h1.594A.467.467,0,0,0,13.083,38V23a.467.467,0,0,0-.435-.493Z"/><path class="cls-1" d="M16.313,22.507a.466.466,0,0,0-.434.493V38a.467.467,0,0,0,.434.494h1.6A.467.467,0,0,0,18.342,38V23a.466.466,0,0,0-.434-.493Z"/><path class="cls-1" d="M21.573,22.507a.467.467,0,0,0-.435.493V38a.467.467,0,0,0,.435.494h1.594A.467.467,0,0,0,23.6,38V23a.467.467,0,0,0-.435-.493Z"/><path class="cls-1" d="M8.444,21.707H41.556a1.079,1.079,0,0,0,0-2.14H8.444a1.079,1.079,0,0,0,0,2.14Z"/><path class="cls-1" d="M8.444,41.575H41.556a1.079,1.079,0,0,0,0-2.141H8.444a1.079,1.079,0,0,0,0,2.141Z"/><path class="cls-1" d="M8.941,18.71H40.572a.873.873,0,0,0,.368-1.591L25.369,5.129a.674.674,0,0,0-.387-.107V5a.6.6,0,0,0-.133.041.719.719,0,0,0-.079.024c-.025.012-.052.009-.075.024l-.063.04h0L9.768,16.665l-1.133.727A.724.724,0,0,0,8.941,18.71Zm3.488-2.5.857-.434,11.244-8.7h0l.048-.024a.475.475,0,0,1,.057-.014.584.584,0,0,1,.06-.015A.605.605,0,0,1,24.8,7v.013a.621.621,0,0,1,.293.064l11.78,8.974a.5.5,0,0,1-.279.949H12.66A.416.416,0,0,1,12.429,16.213Z"/><ellipse class="cls-1" cx="24.795" cy="13" rx="2.02" ry="2"/></svg>