<svg id="icon" xmlns="http://www.w3.org/2000/svg" viewBox="0 0 50 50"><defs><style>.cls-1{fill:#a1144d;}.cls-2{fill:#fff;}</style></defs><title>024 copia</title><circle class="cls-1" cx="25" cy="25" r="20"/><path class="cls-2" d="M34.32,20.75a8.65,8.65,0,0,0-2.24-3.26A10.13,10.13,0,0,0,25,15H17.07v3.47H25a10,10,0,0,1,2.15.24,5,5,0,0,1,2,1,5.13,5.13,0,0,1,1.49,2,8.55,8.55,0,0,1,.57,3.39,8.46,8.46,0,0,1-.57,3.38,5.54,5.54,0,0,1-1.47,2,4.8,4.8,0,0,1-2,1,9.66,9.66,0,0,1-2.18.25H20.92V24H17.07v7.71h0v3.42H25a11.84,11.84,0,0,0,3.94-.63,9,9,0,0,0,3.14-1.87,8.65,8.65,0,0,0,2.24-3.26,11.68,11.68,0,0,0,.75-4.3,11.6,11.6,0,0,0-.75-4.27"/></svg>