<svg id="icon" xmlns="http://www.w3.org/2000/svg" viewBox="0 0 50 50"><defs><style>.cls-1{fill:#030303;}</style></defs><title>Artboard 147</title><path class="cls-1" d="M42.005,28.454l-.537-2.43c-1.03-4.627-1.609-8.189.321-11.891a3.154,3.154,0,0,0-2.022-4.512,3.868,3.868,0,0,1-2.328-1.584,3.108,3.108,0,0,0-4.276-.831,3.611,3.611,0,0,1-1.621.337,7.635,7.635,0,0,1-4.594-1.918,3.234,3.234,0,0,0-3.895,0,7.644,7.644,0,0,1-4.6,1.919,3.584,3.584,0,0,1-1.614-.334,3.111,3.111,0,0,0-4.283.825,3.869,3.869,0,0,1-2.327,1.586,3.153,3.153,0,0,0-2.022,4.513c1.929,3.7,1.35,7.264.32,11.893L8,28.451a9.8,9.8,0,0,0,2,8.272,14.789,14.789,0,0,0,7.582,4.886,10.73,10.73,0,0,1,2.321.983l3.525,2.034a3.147,3.147,0,0,0,3.152,0L30.1,42.591a10.7,10.7,0,0,1,2.32-.982A14.792,14.792,0,0,0,40,36.723,9.8,9.8,0,0,0,42.005,28.454Zm-30.971.671.537-2.423c1.1-4.93,1.809-9.387-.573-14.063a6.925,6.925,0,0,0,4.1-2.831l.022,0,.086.056a6.513,6.513,0,0,0,3.248.8,10.843,10.843,0,0,0,6.566-2.586,10.607,10.607,0,0,0,6.518,2.585A7.109,7.109,0,0,0,34.9,9.836,7.327,7.327,0,0,0,39.027,12.7c-2.406,4.616-1.694,9.074-.6,14l.537,2.43A6.744,6.744,0,0,1,37.552,34.8a11.726,11.726,0,0,1-6.012,3.82A13.721,13.721,0,0,0,28.546,39.9L24.981,41.93,21.455,39.9a13.766,13.766,0,0,0-2.994-1.271A11.734,11.734,0,0,1,12.448,34.8,6.748,6.748,0,0,1,11.034,29.125Z"/><path class="cls-1" d="M16.464,26.938a2.452,2.452,0,0,1-.927-.2,6.141,6.141,0,0,1-1.128-.647l-.941,2.3a7.29,7.29,0,0,0,1.613.689,5.87,5.87,0,0,0,1.613.23,3.737,3.737,0,0,0,2.557-.863,2.823,2.823,0,0,0,.983-2.224,2.156,2.156,0,0,0-.488-1.422,2.328,2.328,0,0,0-1.333-.779l-.3-.067q-1.227-.264-1.227-.611a.322.322,0,0,1,.168-.288.911.911,0,0,1,.476-.1,2.31,2.31,0,0,1,.832.165,3.708,3.708,0,0,1,.854.479l.9-2.145a6.442,6.442,0,0,0-1.377-.56,5.311,5.311,0,0,0-1.389-.185,3.635,3.635,0,0,0-2.482.829,2.726,2.726,0,0,0-.946,2.151A2.117,2.117,0,0,0,14.4,25.1a2.6,2.6,0,0,0,1.406.8l.437.095q.869.18.868.521a.353.353,0,0,1-.174.31A.848.848,0,0,1,16.464,26.938Z"/><path class="cls-1" d="M24.109,26.378l1.434,2.7h3.305l-2.19-3.338a1.663,1.663,0,0,0,1.156-.661,2.316,2.316,0,0,0,.429-1.44,2.524,2.524,0,0,0-.851-2.05,3.754,3.754,0,0,0-2.465-.711H21.219v8.2h2.89Zm0-3.383h.46a.919.919,0,0,1,.647.21.779.779,0,0,1,.226.6.746.746,0,0,1-.226.585.937.937,0,0,1-.647.2h-.46Z"/><path class="cls-1" d="M32.382,26.664h.924a3.7,3.7,0,0,0,2.453-.67,2.658,2.658,0,0,0,.773-2.12,2.8,2.8,0,0,0-.86-2.274,4.211,4.211,0,0,0-2.719-.717H29.43v8.2h2.952Zm.011-3.5h.459a1,1,0,0,1,.639.182.61.61,0,0,1,.23.507.6.6,0,0,1-.224.5,1.028,1.028,0,0,1-.645.176h-.459Z"/></svg>