<svg id="icon" xmlns="http://www.w3.org/2000/svg" viewBox="0 0 50 50"><title>Artboard 145</title><rect x="8.9" y="37.49" width="32.2" height="3.33" rx="1.67"/><path d="M13.87,22.48V34.71a1.67,1.67,0,0,0,3.34,0V22.48a1.67,1.67,0,0,0-3.34,0Z"/><path d="M26.48,22.48V34.71a1.67,1.67,0,0,0,3.34,0V22.48a1.67,1.67,0,0,0-3.34,0Z"/><path d="M32.79,22.48V34.71a1.67,1.67,0,0,0,3.34,0V22.48a1.67,1.67,0,1,0-3.34,0Z"/><path d="M20.18,22.48V34.71a1.67,1.67,0,0,0,3.34,0V22.48a1.67,1.67,0,1,0-3.34,0Z"/><path d="M12.67,18.65H37.33A1.56,1.56,0,0,0,38.76,17h0a1.75,1.75,0,0,0-.6-1.35C37.24,9.62,31.7,5,25,5S12.76,9.62,11.84,15.64a1.75,1.75,0,0,0-.6,1.35h0A1.56,1.56,0,0,0,12.67,18.65Z"/><path d="M40.46,41.67H9.54a1.73,1.73,0,0,0-1.79,1.66h0A1.73,1.73,0,0,0,9.54,45H40.46a1.73,1.73,0,0,0,1.79-1.67h0A1.73,1.73,0,0,0,40.46,41.67Z"/></svg>