<?xml version="1.0" encoding="utf-8"?>
<!-- Generator: Adobe Illustrator 15.1.0, SVG Export Plug-In . SVG Version: 6.00 Build 0)  -->
<!DOCTYPE svg PUBLIC "-//W3C//DTD SVG 1.1//EN" "http://www.w3.org/Graphics/SVG/1.1/DTD/svg11.dtd">
<svg version="1.1" id="Capa_1" xmlns="http://www.w3.org/2000/svg" xmlns:xlink="http://www.w3.org/1999/xlink" x="0px" y="0px"
	 width="12px" height="12px" viewBox="0 0 12 12" enable-background="new 0 0 12 12" xml:space="preserve">
<g>
	<rect x="3.3" y="6.137" width="0.6" height="2.4"/>
	<rect x="4.5" y="6.137" width="0.6" height="2.4"/>
	<rect x="5.7" y="6.137" width="0.6" height="2.4"/>
	<rect x="6.899" y="6.137" width="0.601" height="2.4"/>
	<rect x="8.1" y="6.137" width="0.601" height="2.4"/>
	<path d="M3,5.538h6c0.165,0,0.3-0.135,0.3-0.3s-0.135-0.3-0.3-0.3H3c-0.166,0-0.3,0.135-0.3,0.3S2.834,5.538,3,5.538z"/>
	<path d="M6.3,2.263H5.7C4.553,2.392,3.624,3.232,3.372,4.337h5.256C8.376,3.232,7.446,2.392,6.3,2.263z"/>
	<rect x="2.7" y="9.137" width="6.6" height="0.6"/>
</g>
<path d="M12.5,12.5h-13v-13h13V12.5z M0.5,11.5h11v-11h-11V11.5z"/>
</svg>
