<svg id="icon" xmlns="http://www.w3.org/2000/svg" viewBox="0 0 50 50"><defs><style>.cls-1{fill:#c27c06;fill-rule:evenodd;}</style></defs><title>Artboard 132</title><path class="cls-1" d="M33.549,22.266a.788.788,0,0,1-.523-.179l-2.084-1.711.018-.014-1.426-1.268,1.113-.787A1.687,1.687,0,0,0,31,15.941h0a1.735,1.735,0,0,0-2.417-.121l-1.19.967-.018-.022-.322.259a3.361,3.361,0,0,0-2.477-.434l-7.025,1.788a5.721,5.721,0,0,0-1.1.509A2.887,2.887,0,0,0,15.2,20.453l-2.861,8.632.712-.356a.346.346,0,0,0,.294.151.351.351,0,0,0,.393.426c0,.565.463.53.463.53-.1.532.379.493.379.493-.12.413.369.488.369.488l.61-.5a1.193,1.193,0,0,0,.42.317,2.263,2.263,0,0,0,.979.039l.065,0c.236.017.5.027.827.019l8.95.123a16.858,16.858,0,0,0,3.773-.56c.024-.007.047-.014.071-.019a13.858,13.858,0,0,0,2.174-.648.806.806,0,0,1,.32-.078l1.349-.038a.041.041,0,0,0,.04-.042l-.183-7.186ZM17.325,24.849,17.98,22.5s.171-.588,1.5-.552l1.543-.076Zm6.488,1.389a10.214,10.214,0,0,1-3.734.752l-.415,0,5.459-4.431a2.793,2.793,0,0,1,.706,1.043,2.269,2.269,0,0,1,.151.645l.058-.046C26.056,24.58,25.863,25.336,23.813,26.238Z"/><path class="cls-1" d="M39.906,20.94a1.137,1.137,0,0,0-1.081-1.176l-2.8.069A1.138,1.138,0,0,0,35,21.06l.25,10.233a1.137,1.137,0,0,0,1.081,1.176l2.8-.069a1.138,1.138,0,0,0,1.022-1.227Z"/><path class="cls-1" d="M25,5A20,20,0,1,0,45,25,20.059,20.059,0,0,0,25,5Zm0,37A16.967,16.967,0,0,1,9.868,32.7a37.57,37.57,0,0,0,3.982-.933l-.611-1.345L11.9,29.394a36.235,36.235,0,0,0-2.051,3.274A16.986,16.986,0,1,1,25,42Z"/></svg>