<svg id="icon" xmlns="http://www.w3.org/2000/svg" viewBox="0 0 50 50"><defs><style>.cls-1{fill:#c27c06;}</style></defs><title>Artboard 134</title><path class="cls-1" d="M13.569,39H36.431a1.169,1.169,0,0,0,0-2.338H13.569a1.169,1.169,0,0,0,0,2.338Z"/><rect class="cls-1" x="13.723" y="33.545" width="22.554" height="2.338" rx="1.169"/><path class="cls-1" d="M16.917,23.025V31.6a1.169,1.169,0,1,0,2.338,0V23.025a1.169,1.169,0,0,0-2.338,0Z"/><path class="cls-1" d="M23.541,23.025V31.6a1.169,1.169,0,1,0,2.338,0V23.025a1.169,1.169,0,0,0-2.338,0Z"/><path class="cls-1" d="M30.165,23.025V31.6a1.169,1.169,0,1,0,2.338,0V23.025a1.169,1.169,0,0,0-2.338,0Z"/><path class="cls-1" d="M16.038,21.231H33.962a1.169,1.169,0,0,0,0-2.338H16.038a1.169,1.169,0,0,0,0,2.338Z"/><path class="cls-1" d="M15.485,18.114H34.438a.449.449,0,0,0,.221-.84l-9.331-6.206a.458.458,0,0,0-.231-.057V11a.4.4,0,0,0-.08.022.275.275,0,0,0-.047.013.23.23,0,0,0-.045.012l-.038.021h0l-8.906,5.966-.679.384A.372.372,0,0,0,15.485,18.114Zm3.738-1.5.4-.216,5.306-3.355.022-.012c.008,0,.018,0,.027-.007l.028-.007A.2.2,0,0,1,25.058,13v.006a.291.291,0,0,1,.138.032l5.558,3.49a.251.251,0,0,1-.132.472H19.332A.207.207,0,0,1,19.223,16.609Z"/><path class="cls-1" d="M45,6.5a1.35,1.35,0,0,0-.495-1.01A1.35,1.35,0,0,0,43.5,5a1.109,1.109,0,0,0-.141.018C43.288,5.011,43.218,5,43.145,5H6.855c-.073,0-.143.011-.214.018A1.109,1.109,0,0,0,6.5,5a1.353,1.353,0,0,0-1.008.492A1.351,1.351,0,0,0,5,6.5a1.109,1.109,0,0,0,.018.141C5.011,6.712,5,6.782,5,6.855v36.29A1.711,1.711,0,0,0,6.5,45a1.2,1.2,0,0,0,.317-.044,2.136,2.136,0,0,0,.42.044H43.163c.07,0,.135-.011.2-.017A1.2,1.2,0,0,0,43.5,45a1.33,1.33,0,0,0,.951-.434A1.378,1.378,0,0,0,45,43.5a1.109,1.109,0,0,0-.018-.141c.007-.072.018-.141.018-.214V6.855c0-.073-.011-.143-.018-.214A1.109,1.109,0,0,0,45,6.5ZM42,42H8V8H42Z"/></svg>