<svg id="icon" xmlns="http://www.w3.org/2000/svg" viewBox="0 0 50 50"><title>Artboard 131</title><path d="M45,6.5a1.35,1.35,0,0,0-.495-1.01A1.35,1.35,0,0,0,43.5,5a1.109,1.109,0,0,0-.141.018C43.288,5.011,43.218,5,43.145,5H6.855c-.073,0-.143.011-.214.018A1.109,1.109,0,0,0,6.5,5a1.353,1.353,0,0,0-1.008.492A1.351,1.351,0,0,0,5,6.5a1.109,1.109,0,0,0,.018.141C5.011,6.712,5,6.782,5,6.855v36.29A1.711,1.711,0,0,0,6.5,45a1.2,1.2,0,0,0,.317-.044,2.136,2.136,0,0,0,.42.044H43.163c.07,0,.135-.011.2-.017A1.2,1.2,0,0,0,43.5,45a1.33,1.33,0,0,0,.951-.434A1.378,1.378,0,0,0,45,43.5a1.109,1.109,0,0,0-.018-.141c.007-.072.018-.141.018-.214V6.855c0-.073-.011-.143-.018-.214A1.109,1.109,0,0,0,45,6.5ZM42,42H8V8H42Z"/><path d="M12.18,26.957a6.288,6.288,0,0,0,1.3-.1,2.119,2.119,0,0,0,.745-.326,1.925,1.925,0,0,0,.65-.765,2.652,2.652,0,0,0,0-2.129,1.929,1.929,0,0,0-.65-.764,2.106,2.106,0,0,0-.766-.33,7.529,7.529,0,0,0-1.486-.1h-.94v4.51H12.18Zm.07-3.5h.207a1.548,1.548,0,0,1,1.057.3,1.514,1.514,0,0,1,0,1.892,1.564,1.564,0,0,1-1.057.3H12.25Z"/><polygon points="18.629 25.947 17.064 25.947 17.064 25.186 18.541 25.186 18.541 24.219 17.064 24.219 17.064 23.438 18.629 23.438 18.629 22.447 15.867 22.447 15.867 26.957 18.629 26.957 18.629 25.947"/><path d="M20.287,26.717a1.92,1.92,0,0,0,.574.267,2.5,2.5,0,0,0,.682.088A2.375,2.375,0,0,0,22.129,27a2.943,2.943,0,0,0,.582-.211V25.441a1.753,1.753,0,0,1-.5.414,1.187,1.187,0,0,1-1.389-.224,1.271,1.271,0,0,1-.334-.9,1.346,1.346,0,0,1,.329-.943,1.1,1.1,0,0,1,.857-.363,1.155,1.155,0,0,1,.537.131,1.829,1.829,0,0,1,.5.412V22.623a3.086,3.086,0,0,0-.582-.213,2.472,2.472,0,0,0-.586-.07,2.358,2.358,0,0,0-.895.164,2.111,2.111,0,0,0-.722.492,2.3,2.3,0,0,0-.506.77,2.54,2.54,0,0,0-.168.939,2.47,2.47,0,0,0,.266,1.158A2.23,2.23,0,0,0,20.287,26.717Z"/><path d="M24.205,26.957h1.186V24.9l1.578-2.453H25.555l-.6,1.162c0,.008-.012.024-.025.047a1.193,1.193,0,0,0-.131.334,1.524,1.524,0,0,0-.133-.347c-.008-.016-.016-.028-.019-.034l-.606-1.162H22.627L24.205,24.9Z"/><path d="M28.324,25.469h.43a3.8,3.8,0,0,0,.83-.065,1.2,1.2,0,0,0,.449-.211,1.265,1.265,0,0,0,.383-.5,1.821,1.821,0,0,0,.129-.71,1.769,1.769,0,0,0-.131-.688,1.334,1.334,0,0,0-.381-.516,1.248,1.248,0,0,0-.517-.254,5.252,5.252,0,0,0-1.061-.074H27.172v4.51h1.152Zm0-2.051h.246a1.128,1.128,0,0,1,.61.121.456.456,0,0,1,.172.4.465.465,0,0,1-.176.414,1.116,1.116,0,0,1-.619.124h-.233Z"/><path d="M31.688,26.385a2.339,2.339,0,0,0,.777.511,2.431,2.431,0,0,0,1.846,0,2.475,2.475,0,0,0,.789-.511,2.341,2.341,0,0,0,0-3.346,2.366,2.366,0,0,0-.784-.512,2.457,2.457,0,0,0-1.851,0,2.329,2.329,0,0,0-.777,3.858Zm.857-2.619a1.126,1.126,0,0,1,1.685,0,1.5,1.5,0,0,1,.006,1.894,1.145,1.145,0,0,1-1.7,0,1.522,1.522,0,0,1,0-1.9Z"/><polygon points="39.326 25.904 37.799 25.904 37.799 22.447 36.57 22.447 36.57 26.957 39.326 26.957 39.326 25.904"/></svg>