<svg id="icon" xmlns="http://www.w3.org/2000/svg" viewBox="0 0 50 50"><title>Artboard 125</title><path d="M15.48,18.11h19a.45.45,0,0,0,.22-.84l-9.33-6.2A.46.46,0,0,0,25.1,11h0L25,11H25l0,0,0,0h0L16,17l-.68.39A.37.37,0,0,0,15.48,18.11Z"/><path d="M13.57,39H36.43a1.17,1.17,0,0,0,0-2.34H13.57a1.17,1.17,0,1,0,0,2.34Z"/><rect x="13.72" y="33.55" width="22.55" height="2.34" rx="1.17"/><path d="M16.92,23V31.6a1.17,1.17,0,0,0,2.34,0V23a1.17,1.17,0,0,0-2.34,0Z"/><path d="M23.54,23V31.6a1.17,1.17,0,1,0,2.34,0V23a1.17,1.17,0,0,0-2.34,0Z"/><path d="M30.16,23V31.6a1.17,1.17,0,0,0,2.34,0V23a1.17,1.17,0,0,0-2.34,0Z"/><path d="M16,21.23H34a1.17,1.17,0,1,0,0-2.34H16a1.17,1.17,0,1,0,0,2.34Z"/><path d="M45,6.5a1.36,1.36,0,0,0-.49-1,1.36,1.36,0,0,0-1-.49l-.14,0-.22,0H6.86L6.64,5,6.5,5a1.36,1.36,0,0,0-1,.49A1.36,1.36,0,0,0,5,6.5a.68.68,0,0,0,0,.14,1.5,1.5,0,0,0,0,.22V43.14A1.71,1.71,0,0,0,6.5,45a1.75,1.75,0,0,0,.32,0,2.72,2.72,0,0,0,.42,0H43.16l.21,0,.13,0a1.36,1.36,0,0,0,1-.43A1.39,1.39,0,0,0,45,43.5a.68.68,0,0,0,0-.14,1.5,1.5,0,0,0,0-.22V6.86a1.5,1.5,0,0,0,0-.22A.68.68,0,0,0,45,6.5ZM42,42H8V8H42Z"/></svg>