<svg id="icon" xmlns="http://www.w3.org/2000/svg" viewBox="0 0 50 50"><defs><style>.cls-1{fill:#030303;}</style></defs><title>Artboard 150</title><path class="cls-1" d="M42.005,28.454l-.537-2.43c-1.03-4.628-1.609-8.19.32-11.89a3.153,3.153,0,0,0-2.021-4.513A3.869,3.869,0,0,1,37.44,8.038a3.109,3.109,0,0,0-4.276-.833,3.588,3.588,0,0,1-1.622.338,7.639,7.639,0,0,1-4.594-1.918,3.237,3.237,0,0,0-3.895,0,7.644,7.644,0,0,1-4.6,1.919,3.651,3.651,0,0,1-1.619-.337,3.11,3.11,0,0,0-4.278.828,3.869,3.869,0,0,1-2.327,1.586,3.153,3.153,0,0,0-2.022,4.513c1.929,3.7,1.35,7.264.32,11.893L8,28.451a9.8,9.8,0,0,0,2,8.272,14.789,14.789,0,0,0,7.582,4.886,10.73,10.73,0,0,1,2.321.983l3.525,2.034a3.147,3.147,0,0,0,3.152,0L30.1,42.591a10.7,10.7,0,0,1,2.32-.982A14.792,14.792,0,0,0,40,36.723,9.8,9.8,0,0,0,42.005,28.454Zm-30.971.671.537-2.423c1.1-4.93,1.809-9.387-.572-14.062a6.939,6.939,0,0,0,4.1-2.832l.021,0,.091.059a6.467,6.467,0,0,0,3.244.794,10.85,10.85,0,0,0,6.567-2.585,10.611,10.611,0,0,0,6.517,2.584,6.488,6.488,0,0,0,3.258-.8l.06.009.039-.027A7.325,7.325,0,0,0,39.027,12.7c-2.406,4.616-1.694,9.074-.6,14l.537,2.43A6.744,6.744,0,0,1,37.552,34.8a11.726,11.726,0,0,1-6.012,3.82A13.721,13.721,0,0,0,28.546,39.9L24.981,41.93,21.455,39.9a13.766,13.766,0,0,0-2.994-1.271A11.734,11.734,0,0,1,12.448,34.8,6.748,6.748,0,0,1,11.034,29.125Z"/><path class="cls-1" d="M17.623,29.994a5.313,5.313,0,0,0,1.32.5,6.435,6.435,0,0,0,1.52.177,6.355,6.355,0,0,0,1.269-.129A7.069,7.069,0,0,0,23,30.156l.125-4.064a5.8,5.8,0,0,1-1.265.763,2.962,2.962,0,0,1-1.14.24,1.972,1.972,0,0,1-1.482-.568,2.085,2.085,0,0,1-.554-1.52,2.124,2.124,0,0,1,.579-1.56,2.056,2.056,0,0,1,1.531-.586,2.8,2.8,0,0,1,1.166.25,3.949,3.949,0,0,1,1.084.76v-4a6.155,6.155,0,0,0-2.538-.546,6.294,6.294,0,0,0-2.29.41,5.428,5.428,0,0,0-3.076,3.028,5.931,5.931,0,0,0-.417,2.242,5.658,5.658,0,0,0,.734,2.9A5.767,5.767,0,0,0,17.623,29.994Z"/><path class="cls-1" d="M27.825,29.028h2.929l.347,1.357h4.175L31.5,19.585H27.176l-3.851,10.8h4.168Zm.982-3.792q.243-.93.331-1.431a7.5,7.5,0,0,0,.111-.944h.067a7.491,7.491,0,0,0,.11.944q.088.5.332,1.431l.332,1.225H28.475Z"/></svg>