<svg id="icon" xmlns="http://www.w3.org/2000/svg" viewBox="0 0 50 50"><title>Artboard 131</title><path d="M45,6.5a1.36,1.36,0,0,0-.49-1,1.36,1.36,0,0,0-1-.49l-.14,0-.22,0H6.86L6.64,5,6.5,5a1.36,1.36,0,0,0-1,.49A1.36,1.36,0,0,0,5,6.5a.68.68,0,0,0,0,.14,1.5,1.5,0,0,0,0,.22V43.14A1.71,1.71,0,0,0,6.5,45a1.75,1.75,0,0,0,.32,0,2.72,2.72,0,0,0,.42,0H43.16l.21,0,.13,0a1.36,1.36,0,0,0,1-.43A1.39,1.39,0,0,0,45,43.5a.68.68,0,0,0,0-.14,1.5,1.5,0,0,0,0-.22V6.86a1.5,1.5,0,0,0,0-.22A.68.68,0,0,0,45,6.5ZM42,42H8V8H42Z"/><path d="M12.18,27a5.89,5.89,0,0,0,1.3-.1,2.16,2.16,0,0,0,.74-.32,2,2,0,0,0,.66-.77,2.69,2.69,0,0,0,0-2.13,1.93,1.93,0,0,0-.66-.76,1.87,1.87,0,0,0-.76-.33,7.34,7.34,0,0,0-1.49-.1H11V27h1.15Zm.07-3.5h.21a1.53,1.53,0,0,1,1,.3,1.23,1.23,0,0,1,.34.95,1.21,1.21,0,0,1-.34.94,1.53,1.53,0,0,1-1,.3h-.21Z"/><polygon points="18.63 25.95 17.06 25.95 17.06 25.19 18.54 25.19 18.54 24.22 17.06 24.22 17.06 23.44 18.63 23.44 18.63 22.45 15.87 22.45 15.87 26.96 18.63 26.96 18.63 25.95"/><path d="M20.29,26.72a1.64,1.64,0,0,0,.57.26,2.48,2.48,0,0,0,.68.09,2.32,2.32,0,0,0,.59-.07,3.38,3.38,0,0,0,.58-.21V25.44a1.86,1.86,0,0,1-.5.42,1.26,1.26,0,0,1-.54.13,1.1,1.1,0,0,1-.85-.36,1.29,1.29,0,0,1-.34-.9,1.33,1.33,0,0,1,.33-.94,1.09,1.09,0,0,1,.86-.37,1.26,1.26,0,0,1,.54.13,1.86,1.86,0,0,1,.5.42V22.62a3.38,3.38,0,0,0-.58-.21,2.54,2.54,0,0,0-1.48.09,2.08,2.08,0,0,0-.72.5,2.16,2.16,0,0,0-.51.77,2.54,2.54,0,0,0-.17.94,2.44,2.44,0,0,0,.27,1.15A2.19,2.19,0,0,0,20.29,26.72Z"/><path d="M24.21,27h1.18V24.9L27,22.45H25.55L25,23.61s0,0,0,.05a1.07,1.07,0,0,0-.13.33,1.42,1.42,0,0,0-.14-.35s0,0,0,0L24,22.45H22.63l1.58,2.45Z"/><path d="M28.32,25.47h.43a3.32,3.32,0,0,0,.83-.07,1,1,0,0,0,.45-.21,1.28,1.28,0,0,0,.39-.5,2,2,0,0,0,.12-.71,1.73,1.73,0,0,0-.13-.69,1.15,1.15,0,0,0-.38-.51,1.23,1.23,0,0,0-.51-.26,5.24,5.24,0,0,0-1.06-.07H27.17V27h1.15Zm0-2h.25a1.14,1.14,0,0,1,.61.12.46.46,0,0,1,.17.4.49.49,0,0,1-.17.42,1.18,1.18,0,0,1-.62.12h-.24Z"/><path d="M31.69,26.38a2.23,2.23,0,0,0,.77.52,2.48,2.48,0,0,0,.93.18,2.39,2.39,0,0,0,.92-.18,2.31,2.31,0,0,0,.79-.52,2.19,2.19,0,0,0,.52-.76,2.27,2.27,0,0,0,.18-.91,2.34,2.34,0,0,0-.18-.91A2.29,2.29,0,0,0,35.1,23a2.4,2.4,0,0,0-.78-.51,2.49,2.49,0,0,0-1.86,0,2.35,2.35,0,0,0-.77.51,2.32,2.32,0,0,0-.53.76,2.34,2.34,0,0,0-.18.91,2.31,2.31,0,0,0,.18.91A2.22,2.22,0,0,0,31.69,26.38Zm.85-2.61a1.08,1.08,0,0,1,.85-.38,1.06,1.06,0,0,1,.84.38,1.33,1.33,0,0,1,.34.94,1.39,1.39,0,0,1-.33.95,1.11,1.11,0,0,1-.85.38,1.08,1.08,0,0,1-.85-.38,1.52,1.52,0,0,1,0-1.89Z"/><polygon points="39.33 25.9 37.8 25.9 37.8 22.45 36.57 22.45 36.57 26.96 39.33 26.96 39.33 25.9"/></svg>