<svg id="icon" xmlns="http://www.w3.org/2000/svg" viewBox="0 0 50 50"><title>Artboard 146</title><path d="M42,28.45,41.47,26c-1-4.62-1.61-8.19.32-11.89a3.16,3.16,0,0,0-2-4.51A3.9,3.9,0,0,1,37.44,8a3.15,3.15,0,0,0-2-1.3,3.05,3.05,0,0,0-2.25.47,3.67,3.67,0,0,1-1.62.33A7.63,7.63,0,0,1,27,5.63a3.24,3.24,0,0,0-3.9,0,7.63,7.63,0,0,1-4.59,1.91,3.71,3.71,0,0,1-1.62-.33A3.11,3.11,0,0,0,12.56,8a3.9,3.9,0,0,1-2.33,1.58,3.16,3.16,0,0,0-2,4.51c1.93,3.71,1.35,7.27.32,11.9L8,28.45a9.78,9.78,0,0,0,2,8.27,14.81,14.81,0,0,0,7.58,4.89,11,11,0,0,1,2.32,1l3.52,2a3.18,3.18,0,0,0,3.16,0l3.52-2a11,11,0,0,1,2.32-1A14.81,14.81,0,0,0,40,36.72,9.78,9.78,0,0,0,42,28.45ZM37.55,34.8a11.7,11.7,0,0,1-6,3.82,13.41,13.41,0,0,0-3,1.28l-3.57,2-3.52-2a13.6,13.6,0,0,0-3-1.27,11.78,11.78,0,0,1-6-3.83A6.72,6.72,0,0,1,11,29.13l.54-2.43c1.1-4.93,1.81-9.38-.57-14.06a7,7,0,0,0,4.1-2.83h0l.09.06a6.46,6.46,0,0,0,3.25.8A10.87,10.87,0,0,0,25,8.07a10.58,10.58,0,0,0,6.51,2.59,6.39,6.39,0,0,0,3.26-.81h.06l0,0A7.35,7.35,0,0,0,39,12.7c-2.41,4.61-1.7,9.07-.6,14L39,29.13A6.72,6.72,0,0,1,37.55,34.8Z"/><polygon points="16.56 25.68 18.15 25.68 18.15 24.25 16.56 24.25 16.56 23.72 18.32 23.72 18.32 22.21 14.59 22.21 14.59 27.77 18.36 27.77 18.36 26.27 16.56 26.27 16.56 25.68"/><path d="M21.56,22.21H19.17v5.57h2V26.13h.62a2.55,2.55,0,0,0,1.67-.45A1.8,1.8,0,0,0,24,24.24a1.89,1.89,0,0,0-.58-1.54A2.82,2.82,0,0,0,21.56,22.21Zm.37,2.35a.67.67,0,0,1-.43.12h-.32v-.92h.32a.69.69,0,0,1,.43.12.42.42,0,0,1,.15.34A.41.41,0,0,1,21.93,24.56Z"/><path d="M28.32,24.08c0,.25,0,.46,0,.61s0,.3.05.43l-1.73-2.91h-2v5.57h1.93v-2c0-.18,0-.34,0-.48s0-.28,0-.4l1.71,2.89h2V22.21H28.32Z"/><path d="M34.17,26.08a1,1,0,0,1-.77-.29,1.24,1.24,0,0,1,0-1.59,1,1,0,0,1,.79-.3,1.38,1.38,0,0,1,.6.13,1.75,1.75,0,0,1,.55.39V22.36a2.4,2.4,0,0,0-.64-.21,3,3,0,0,0-.66-.07,3.22,3.22,0,0,0-1.18.21,2.57,2.57,0,0,0-1,.62,2.6,2.6,0,0,0-.63.94A3.09,3.09,0,0,0,31.08,25a3,3,0,0,0,.37,1.5,3,3,0,0,0,1.12,1.07,2.4,2.4,0,0,0,.68.26,3.33,3.33,0,0,0,.78.09,3.68,3.68,0,0,0,.66-.06,4,4,0,0,0,.65-.2l.07-2.1a3.52,3.52,0,0,1-.66.4A1.54,1.54,0,0,1,34.17,26.08Z"/></svg>