<svg id="icon" xmlns="http://www.w3.org/2000/svg" viewBox="0 0 50 50"><title>Artboard 144</title><path d="M8.92,22.51v15a2,2,0,1,0,4.08,0v-15a2,2,0,1,0-4.08,0Z"/><rect x="5" y="41" width="40" height="4" rx="1.45"/><path d="M8.4,18.29H41.46a.78.78,0,0,0,.39-1.46L25.57,6a.63.63,0,0,0-.4-.1v0a.7.7,0,0,0-.14,0L25,6s-.06,0-.08,0L24.8,6h0L9.27,16.41l-1.19.67A.65.65,0,0,0,8.4,18.29Z"/><path d="M36.92,22.51v15a2,2,0,0,0,4.08,0v-15a2,2,0,1,0-4.08,0Z"/><path d="M15.92,22.51v15a2,2,0,1,0,4.08,0v-15a2,2,0,1,0-4.08,0Z"/><path d="M22.92,22.51v15a2,2,0,0,0,4.08,0v-15a2,2,0,1,0-4.08,0Z"/><path d="M29.92,22.51v15a2,2,0,0,0,4.08,0v-15a2,2,0,1,0-4.08,0Z"/></svg>