<svg id="icon" xmlns="http://www.w3.org/2000/svg" viewBox="0 0 50 50"><defs><style>.cls-1{fill:#c27c06;}</style></defs><title>Artboard 135</title><path class="cls-1" d="M13.315,38.364h23.37a1.073,1.073,0,0,0,0-2.134H13.315a1.016,1.016,0,0,0-.961,1.067A1.054,1.054,0,0,0,13.315,38.364Z"/><path class="cls-1" d="M15.543,21.278v8.8a1.2,1.2,0,0,0,2.4,0v-8.8a1.2,1.2,0,0,0-2.4,0Z"/><rect class="cls-1" x="13.239" y="32.148" width="23.521" height="2.352" rx="0.851"/><path class="cls-1" d="M15.241,18.8H34.68a.46.46,0,0,0,.226-.861L25.337,11.57a.456.456,0,0,0-.238-.058V11.5a.389.389,0,0,0-.081.022l-.049.013a.347.347,0,0,0-.046.013l-.039.022h0L15.75,17.689l-.7.393A.382.382,0,0,0,15.241,18.8Z"/><path class="cls-1" d="M32.008,21.278v8.8a1.2,1.2,0,0,0,2.4,0v-8.8a1.2,1.2,0,0,0-2.4,0Z"/><path class="cls-1" d="M19.659,21.278v8.8a1.2,1.2,0,0,0,2.4,0v-8.8a1.2,1.2,0,0,0-2.4,0Z"/><path class="cls-1" d="M23.775,21.278v8.8a1.2,1.2,0,0,0,2.4,0v-8.8a1.2,1.2,0,0,0-2.4,0Z"/><path class="cls-1" d="M27.891,21.278v8.8a1.2,1.2,0,0,0,2.4,0v-8.8a1.2,1.2,0,0,0-2.4,0Z"/><path class="cls-1" d="M45,6.5a1.35,1.35,0,0,0-.495-1.01A1.35,1.35,0,0,0,43.5,5a1.109,1.109,0,0,0-.141.018C43.288,5.011,43.218,5,43.145,5H6.855c-.073,0-.143.011-.214.018A1.109,1.109,0,0,0,6.5,5a1.353,1.353,0,0,0-1.008.492A1.351,1.351,0,0,0,5,6.5a1.109,1.109,0,0,0,.018.141C5.011,6.712,5,6.782,5,6.855v36.29A1.711,1.711,0,0,0,6.5,45a1.2,1.2,0,0,0,.317-.044,2.136,2.136,0,0,0,.42.044H43.163c.07,0,.135-.011.2-.017A1.2,1.2,0,0,0,43.5,45a1.33,1.33,0,0,0,.951-.434A1.378,1.378,0,0,0,45,43.5a1.109,1.109,0,0,0-.018-.141c.007-.072.018-.141.018-.214V6.855c0-.073-.011-.143-.018-.214A1.109,1.109,0,0,0,45,6.5ZM42,42H8V8H42Z"/></svg>