<svg id="icon" xmlns="http://www.w3.org/2000/svg" viewBox="0 0 50 50"><title>Artboard 136</title><path d="M16.1,12.09,5.32,19.87c-.5.36-.41.65.2.65h4A.48.48,0,0,1,10,21V43.5a.49.49,0,0,0,.49.5H39a.51.51,0,0,0,.51-.52V21a.44.44,0,0,1,.43-.44H44.2c.62,0,.71-.3.2-.66L25.09,6.1a.62.62,0,0,0-.67,0L19.91,9.36M32.78,19.43a1.63,1.63,0,1,1-1.59,1.63A1.61,1.61,0,0,1,32.78,19.43ZM25.28,29a1.18,1.18,0,1,1-1.15,1.18A1.17,1.17,0,0,1,25.28,29Zm-7.67-9.61A1.63,1.63,0,1,1,16,21.05,1.61,1.61,0,0,1,17.61,19.43ZM36.25,32a.83.83,0,0,1-.82-.84V25.94a.09.09,0,0,0-.09-.09h-.17a.09.09,0,0,0-.09.09V40.45a1.07,1.07,0,1,1-2.13,0V31.91a.08.08,0,0,0-.09-.09h-.17a.08.08,0,0,0-.09.09v8.54a1.07,1.07,0,1,1-2.13,0V25.94a.09.09,0,0,0-.08-.09h-.18a.09.09,0,0,0-.09.09s-.67,4.19-.67,4.2a1.22,1.22,0,0,1-.1.23c-.18.33-1.87,3.72-1.87,3.72a.54.54,0,0,0-.05.16v6.34a1.09,1.09,0,0,1-1,.95,1,1,0,0,1-1-1V37.85a.09.09,0,0,0-.09-.09H25.2a.08.08,0,0,0-.08.09v2.66a1.1,1.1,0,0,1-1.08,1,1.06,1.06,0,0,1-1-1V34.15A.42.42,0,0,0,23,34l-1.87-3.6A1.28,1.28,0,0,1,21,30s-1.25-4.15-1.25-4.15a.13.13,0,0,0-.13-.09h-.17a.07.07,0,0,0-.07.09l2.47,8.29a.09.09,0,0,1-.08.13H20a.09.09,0,0,0-.09.09v6.05a1.07,1.07,0,1,1-2.13,0V34.4a.09.09,0,0,0-.09-.09h-.17a.09.09,0,0,0-.09.09v6.05a1.07,1.07,0,1,1-2.13,0V34.4a.09.09,0,0,0-.09-.09H13.49c-.09,0-.1-.08-.09-.13l2.47-8.29a.06.06,0,0,0-.06-.09h-.17a.13.13,0,0,0-.13.09L14.27,30a.83.83,0,0,1-1,.57.86.86,0,0,1-.55-1.06s1.23-4.13,1.24-4.15c.19-.67.65-2.2,2-2.2h3.48c1.39,0,1.75,1.53,1.94,2.2,0,0,1.25,4.2,1.26,4.22.2.37,1.07,2.21,1.07,2.21a.17.17,0,0,0,.13.08h2.89a.22.22,0,0,0,.21-.12l1-2.15c.14-1,.6-4.33.6-4.39a2,2,0,0,1,2-2h4.69a2,2,0,0,1,2,2v5.89A.83.83,0,0,1,36.25,32Z"/></svg>