<svg id="icon" xmlns="http://www.w3.org/2000/svg" viewBox="0 0 50 50"><defs><style>.cls-1{fill:#c27c06;}</style></defs><title>Artboard 133</title><path class="cls-1" d="M43.948,20h-1.9A1.052,1.052,0,0,0,41,21.052V41H9V9H29.948A1.052,1.052,0,0,0,31,7.948v-1.9A1.052,1.052,0,0,0,29.948,5H6.052A1.052,1.052,0,0,0,5,6.052v37.9A1.052,1.052,0,0,0,6.052,45h37.9A1.052,1.052,0,0,0,45,43.948v-22.9A1.052,1.052,0,0,0,43.948,20Z"/><path class="cls-1" d="M14.9,34.756a.344.344,0,0,0,.345.345h4.842L41.574,13.612,36.387,8.426,14.9,29.914Z"/><path class="cls-1" d="M44.61,10.389a1.327,1.327,0,0,0,0-1.879L41.49,5.39a1.327,1.327,0,0,0-1.879,0l-2.44,2.44,5,5Z"/></svg>