<svg id="icon" xmlns="http://www.w3.org/2000/svg" viewBox="0 0 50 50"><title>Artboard 126</title><path d="M13.18,40H36.82a.91.91,0,0,0,.91-.91v-.91a.91.91,0,0,0-.91-.91H32.21V32.08a.06.06,0,0,1,.06,0h1.9A1.38,1.38,0,0,0,35,31.8a.66.66,0,0,0,.34-.54v-.44a.14.14,0,0,0,0-.07L25.92,20.23s0,0,0,0a1.7,1.7,0,0,0-.34-.12V18.77L33.37,16a.32.32,0,0,0,0-.61l-7.55-2.7a1.52,1.52,0,0,0,.51-1.13A1.55,1.55,0,1,0,24,12.88v7.44L14.7,30.75a.08.08,0,0,1,0,0s0,0,0,0v.44a.66.66,0,0,0,.34.54,1.38,1.38,0,0,0,.81.23H18a.06.06,0,0,1,.06,0v5.19H13.18a.91.91,0,0,0-.91.91v.91A.91.91,0,0,0,13.18,40Z"/><path d="M45,6.5a1.36,1.36,0,0,0-.49-1,1.36,1.36,0,0,0-1-.49l-.14,0-.22,0H6.86L6.64,5,6.5,5a1.36,1.36,0,0,0-1,.49A1.36,1.36,0,0,0,5,6.5a.68.68,0,0,0,0,.14,1.5,1.5,0,0,0,0,.22V43.14A1.71,1.71,0,0,0,6.5,45a1.75,1.75,0,0,0,.32,0,2.72,2.72,0,0,0,.42,0H43.16l.21,0,.13,0a1.36,1.36,0,0,0,1-.43A1.39,1.39,0,0,0,45,43.5a.68.68,0,0,0,0-.14,1.5,1.5,0,0,0,0-.22V6.86a1.5,1.5,0,0,0,0-.22A.68.68,0,0,0,45,6.5ZM42,42H8V8H42Z"/></svg>