<svg id="icon" xmlns="http://www.w3.org/2000/svg" viewBox="0 0 50 50"><title>Artboard 130</title><path d="M14.667,31.765a5.867,5.867,0,0,0,1.734.8,7.6,7.6,0,0,0,2.061.265,7.391,7.391,0,0,0,1.767-.214,8.835,8.835,0,0,0,1.757-.641V27.914a5.461,5.461,0,0,1-1.52,1.251,3.452,3.452,0,0,1-1.623.4,3.367,3.367,0,0,1-2.572-1.08,3.819,3.819,0,0,1-1.008-2.715,4.086,4.086,0,0,1,.99-2.851,3.331,3.331,0,0,1,2.59-1.093,3.452,3.452,0,0,1,1.623.4,5.54,5.54,0,0,1,1.52,1.242V19.4a8.835,8.835,0,0,0-1.757-.641,7.391,7.391,0,0,0-1.767-.214,7.113,7.113,0,0,0-2.7.493,6.348,6.348,0,0,0-2.181,1.488,6.938,6.938,0,0,0-1.53,2.321,7.641,7.641,0,0,0-.507,2.84,7.527,7.527,0,0,0,.8,3.5A6.835,6.835,0,0,0,14.667,31.765Z"/><polygon points="26.041 32.49 29.752 32.49 29.752 22.093 32.803 22.093 32.803 18.874 22.99 18.874 22.99 22.093 26.041 22.093 26.041 32.49"/><rect x="34.71" y="18.874" width="3.748" height="13.616"/><path d="M45,6.5a1.35,1.35,0,0,0-.495-1.01A1.35,1.35,0,0,0,43.5,5a1.109,1.109,0,0,0-.141.018C43.288,5.011,43.218,5,43.145,5H6.855c-.073,0-.143.011-.214.018A1.109,1.109,0,0,0,6.5,5a1.353,1.353,0,0,0-1.008.492A1.351,1.351,0,0,0,5,6.5a1.109,1.109,0,0,0,.018.141C5.011,6.712,5,6.782,5,6.855v36.29A1.711,1.711,0,0,0,6.5,45a1.2,1.2,0,0,0,.317-.044,2.136,2.136,0,0,0,.42.044H43.163c.07,0,.135-.011.2-.017A1.2,1.2,0,0,0,43.5,45a1.33,1.33,0,0,0,.951-.434A1.378,1.378,0,0,0,45,43.5a1.109,1.109,0,0,0-.018-.141c.007-.072.018-.141.018-.214V6.855c0-.073-.011-.143-.018-.214A1.109,1.109,0,0,0,45,6.5ZM42,42H8V8H42Z"/></svg>