<svg id="icon" xmlns="http://www.w3.org/2000/svg" viewBox="0 0 50 50"><title>Artboard 130</title><path d="M14.67,31.76a5.84,5.84,0,0,0,1.73.81,7.94,7.94,0,0,0,3.83,0A9.14,9.14,0,0,0,22,32V27.91a5.6,5.6,0,0,1-1.52,1.26,3.53,3.53,0,0,1-1.63.39,3.36,3.36,0,0,1-2.57-1.08,3.82,3.82,0,0,1-1-2.71,4.05,4.05,0,0,1,1-2.85,3.34,3.34,0,0,1,2.59-1.1,3.42,3.42,0,0,1,1.63.4A5.68,5.68,0,0,1,22,23.46V19.4a9.86,9.86,0,0,0-1.76-.64,7.52,7.52,0,0,0-1.77-.21,7.09,7.09,0,0,0-2.7.49,6.38,6.38,0,0,0-2.18,1.49,7,7,0,0,0-1.53,2.32,8.1,8.1,0,0,0,.29,6.34A6.9,6.9,0,0,0,14.67,31.76Z"/><polygon points="26.04 32.49 29.75 32.49 29.75 22.09 32.8 22.09 32.8 18.87 22.99 18.87 22.99 22.09 26.04 22.09 26.04 32.49"/><rect x="34.71" y="18.87" width="3.75" height="13.62"/><path d="M45,6.5a1.36,1.36,0,0,0-.49-1,1.36,1.36,0,0,0-1-.49l-.14,0-.22,0H6.86L6.64,5,6.5,5a1.36,1.36,0,0,0-1,.49A1.36,1.36,0,0,0,5,6.5a.68.68,0,0,0,0,.14,1.5,1.5,0,0,0,0,.22V43.14A1.71,1.71,0,0,0,6.5,45a1.75,1.75,0,0,0,.32,0,2.72,2.72,0,0,0,.42,0H43.16l.21,0,.13,0a1.36,1.36,0,0,0,1-.43A1.39,1.39,0,0,0,45,43.5a.68.68,0,0,0,0-.14,1.5,1.5,0,0,0,0-.22V6.86a1.5,1.5,0,0,0,0-.22A.68.68,0,0,0,45,6.5ZM42,42H8V8H42Z"/></svg>