<svg id="icon" xmlns="http://www.w3.org/2000/svg" viewBox="0 0 50 50"><title>Artboard 143</title><path d="M42.005,28.454l-.537-2.43c-1.03-4.628-1.609-8.19.32-11.89a3.153,3.153,0,0,0-2.021-4.513A3.869,3.869,0,0,1,37.44,8.038a3.109,3.109,0,0,0-4.276-.833,3.588,3.588,0,0,1-1.622.338,7.639,7.639,0,0,1-4.594-1.918,3.237,3.237,0,0,0-3.895,0,7.644,7.644,0,0,1-4.6,1.919,3.651,3.651,0,0,1-1.619-.337,3.11,3.11,0,0,0-4.278.828,3.869,3.869,0,0,1-2.327,1.586,3.153,3.153,0,0,0-2.022,4.513c1.929,3.7,1.35,7.264.32,11.893L8,28.451a9.8,9.8,0,0,0,2,8.272,14.789,14.789,0,0,0,7.582,4.886,10.73,10.73,0,0,1,2.321.983l3.525,2.034a3.147,3.147,0,0,0,3.152,0L30.1,42.591a10.7,10.7,0,0,1,2.32-.982A14.792,14.792,0,0,0,40,36.723,9.8,9.8,0,0,0,42.005,28.454ZM37.552,34.8a11.726,11.726,0,0,1-6.012,3.82A13.721,13.721,0,0,0,28.546,39.9L24.981,41.93,21.455,39.9a13.766,13.766,0,0,0-2.994-1.271A11.734,11.734,0,0,1,12.448,34.8a6.748,6.748,0,0,1-1.414-5.678l.537-2.423c1.1-4.93,1.809-9.387-.572-14.062a6.939,6.939,0,0,0,4.1-2.832l.021,0,.091.059a6.467,6.467,0,0,0,3.244.794,10.85,10.85,0,0,0,6.567-2.585,10.611,10.611,0,0,0,6.517,2.584,6.488,6.488,0,0,0,3.258-.8l.06.009.039-.027A7.325,7.325,0,0,0,39.027,12.7c-2.406,4.616-1.694,9.074-.6,14l.537,2.43A6.744,6.744,0,0,1,37.552,34.8Z"/><path d="M19.615,25.252a2.062,2.062,0,0,1-.184,1.027.791.791,0,0,1-1.223.008,2.1,2.1,0,0,1-.178-1.035V20.935H15.184v4.3a7.4,7.4,0,0,0,.108,1.4,2.542,2.542,0,0,0,.346.9,3.105,3.105,0,0,0,1.3,1.136,4.671,4.671,0,0,0,3.76,0A3.1,3.1,0,0,0,22,27.534a2.575,2.575,0,0,0,.354-.914,7.18,7.18,0,0,0,.111-1.39v-4.3H19.615Z"/><path d="M30.307,24.992a2.237,2.237,0,0,0,.414-1.39,2.432,2.432,0,0,0-.823-1.98,3.622,3.622,0,0,0-2.38-.687H23.937v7.919h2.791V26.242l1.385,2.612h3.192L29.19,25.63A1.6,1.6,0,0,0,30.307,24.992Zm-2.51-.668a.9.9,0,0,1-.625.2h-.444V22.974h.444a.887.887,0,0,1,.625.2.753.753,0,0,1,.219.581A.723.723,0,0,1,27.8,24.324Z"/><rect x="31.922" y="20.935" width="2.894" height="7.92"/></svg>