<svg id="icon" xmlns="http://www.w3.org/2000/svg" viewBox="0 0 50 50"><defs><style>.cls-1{fill:#030303;}</style></defs><title>Artboard 148</title><path class="cls-1" d="M42.005,28.454l-.537-2.43c-1.03-4.628-1.609-8.19.32-11.89a3.153,3.153,0,0,0-2.021-4.513A3.869,3.869,0,0,1,37.44,8.038a3.109,3.109,0,0,0-4.276-.833,3.588,3.588,0,0,1-1.622.338,7.639,7.639,0,0,1-4.594-1.918,3.237,3.237,0,0,0-3.895,0,7.644,7.644,0,0,1-4.6,1.919,3.651,3.651,0,0,1-1.619-.337,3.11,3.11,0,0,0-4.278.828,3.869,3.869,0,0,1-2.327,1.586,3.153,3.153,0,0,0-2.022,4.513c1.929,3.7,1.35,7.264.32,11.893L8,28.451a9.8,9.8,0,0,0,2,8.272,14.789,14.789,0,0,0,7.582,4.886,10.73,10.73,0,0,1,2.321.983l3.525,2.034a3.147,3.147,0,0,0,3.152,0L30.1,42.591a10.7,10.7,0,0,1,2.32-.982A14.792,14.792,0,0,0,40,36.723,9.8,9.8,0,0,0,42.005,28.454Zm-30.971.671.537-2.423c1.1-4.93,1.809-9.387-.572-14.062a6.939,6.939,0,0,0,4.1-2.832l.021,0,.091.059a6.467,6.467,0,0,0,3.244.794,10.85,10.85,0,0,0,6.567-2.585,10.611,10.611,0,0,0,6.517,2.584,6.488,6.488,0,0,0,3.258-.8l.06.009.039-.027A7.325,7.325,0,0,0,39.027,12.7c-2.406,4.616-1.694,9.074-.6,14l.537,2.43A6.744,6.744,0,0,1,37.552,34.8a11.726,11.726,0,0,1-6.012,3.82A13.721,13.721,0,0,0,28.546,39.9L24.981,41.93,21.455,39.9a13.766,13.766,0,0,0-2.994-1.271A11.734,11.734,0,0,1,12.448,34.8,6.748,6.748,0,0,1,11.034,29.125Z"/><polygon class="cls-1" points="19.137 26.897 16.448 26.897 16.448 26.025 18.826 26.025 18.826 23.902 16.448 23.902 16.448 23.103 19.069 23.103 19.069 20.855 13.526 20.855 13.526 29.145 19.137 29.145 19.137 26.897"/><path class="cls-1" d="M23.327,26.7h.934a3.741,3.741,0,0,0,2.48-.677,2.689,2.689,0,0,0,.781-2.143,2.827,2.827,0,0,0-.869-2.3,4.257,4.257,0,0,0-2.749-.725H20.343v8.29h2.984Zm.011-3.539H23.8a1.013,1.013,0,0,1,.646.184.616.616,0,0,1,.232.512.608.608,0,0,1-.226.507,1.033,1.033,0,0,1-.652.178h-.464Z"/><path class="cls-1" d="M32.913,29.02a4.39,4.39,0,0,0,1.336-.4,4.185,4.185,0,0,0,1.653-1.5,4.216,4.216,0,0,0,0-4.246,4.158,4.158,0,0,0-1.65-1.5,4.351,4.351,0,0,0-1.322-.393,12.893,12.893,0,0,0-1.962-.128H28.553v8.29h2.191A14.926,14.926,0,0,0,32.913,29.02Zm-1.4-5.617h.131A1.993,1.993,0,0,1,33,23.8a1.531,1.531,0,0,1,.445,1.206,1.491,1.491,0,0,1-.465,1.214,2.3,2.3,0,0,1-1.472.394Z"/></svg>