<svg id="icon" xmlns="http://www.w3.org/2000/svg" viewBox="0 0 50 50"><defs><style>.cls-1{fill:#c27c06;}</style></defs><title>096 copia 8</title><path class="cls-1" d="M46.3,26.212a18.157,18.157,0,0,1-1.037,2.125,6.98,6.98,0,0,1-7.054,3.34,7.006,7.006,0,0,1-6.092-5,1.865,1.865,0,0,1,.168-1.378c1.631-2.816,3.321-5.6,4.99-8.392.146-.245.276-.5.485-.881H35.885q-2.976,0-5.952,0c-.99,0-1.364.372-1.366,1.391q-.011,5.775,0,11.55,0,4.265,0,8.529v1h3.052c1.362,0,2.725-.024,4.087.009s1.713.425,1.709,1.764c-.007,2.371-.11,2.475-2.514,2.475q-8.574,0-17.147,0a6.172,6.172,0,0,1-1.143-.108,1.073,1.073,0,0,1-.967-1.257c.027-.383.012-.77.011-1.155,0-1.307.374-1.7,1.76-1.717,1.836-.023,3.673-.007,5.509-.007h1.03c.026-.279.066-.506.066-.733q.006-10.128,0-20.256c0-1.152-.33-1.479-1.453-1.479q-3.376,0-6.753,0H14.793l3.4,5.679c.7,1.168,1.363,2.359,2.115,3.491a1.678,1.678,0,0,1,.149,1.656,7.364,7.364,0,0,1-13.782.233c-.115-.3-.248-.584-.373-.876v-.355l6.383-10.113a1.873,1.873,0,0,1-.489-2.332c.4-.811,1.148-.906,1.965-.9,2.872.019,5.744.024,8.616-.016a1.843,1.843,0,0,0,1.124-.475,3.408,3.408,0,0,1,4.8,0,1.968,1.968,0,0,0,1.211.479c2.961.041,5.922.013,8.883.027a1.663,1.663,0,0,1,1.781,2A6.492,6.492,0,0,1,40,15.885l6.3,9.972ZM8.276,25.851H18.765l-5.142-8.586Zm30.688-8.588-5.128,8.572h10.47Z"/></svg>