<svg id="icon" xmlns="http://www.w3.org/2000/svg" viewBox="0 0 50 50"><title>Artboard 142</title><path d="M42,28.45,41.47,26c-1-4.62-1.61-8.19.32-11.89a3.16,3.16,0,0,0-2-4.51A3.9,3.9,0,0,1,37.44,8a3.15,3.15,0,0,0-2-1.3,3.06,3.06,0,0,0-2.25.47,3.67,3.67,0,0,1-1.62.33A7.63,7.63,0,0,1,27,5.63a3.24,3.24,0,0,0-3.9,0,7.63,7.63,0,0,1-4.59,1.91,3.71,3.71,0,0,1-1.62-.33A3.11,3.11,0,0,0,12.56,8a3.9,3.9,0,0,1-2.33,1.58,3.16,3.16,0,0,0-2,4.51c1.93,3.71,1.35,7.27.32,11.9L8,28.45a9.78,9.78,0,0,0,2,8.27,14.81,14.81,0,0,0,7.58,4.89,11,11,0,0,1,2.32,1l3.52,2a3.18,3.18,0,0,0,3.16,0l3.52-2a11,11,0,0,1,2.32-1A14.81,14.81,0,0,0,40,36.72,9.78,9.78,0,0,0,42,28.45ZM29.45,27.34l1.05,6.12L25,30.57l-5.5,2.89,1.05-6.12L16.1,23l6.15-.89L25,16.54l2.75,5.57L33.9,23Z"/></svg>