<svg id="icon" xmlns="http://www.w3.org/2000/svg" viewBox="0 0 50 50"><defs><style>.cls-1{fill:#2c3d01;}</style></defs><title>Artboard 153</title><g id="layer1"><path id="path15" class="cls-1" d="M42.5,28.683V44.751a.25.25,0,0,1-.251.249H30.662a.25.25,0,0,1-.251-.249V42.244a.251.251,0,0,0-.251-.25H19.688a.251.251,0,0,0-.251.25v2.507a.25.25,0,0,1-.251.249H7.751a.25.25,0,0,1-.251-.249V28.683a.25.25,0,0,1,.251-.249h34.5A.25.25,0,0,1,42.5,28.683Zm-7.543-3.295a9.343,9.343,0,0,0-3.256-5.24,10.445,10.445,0,0,0-5.86-2.371H25.68V12.225c.139-.047.3-.047.515-.116.3-.1.622-.226.994-.357a9.508,9.508,0,0,1,1.064-.305A3.517,3.517,0,0,1,29,11.334a5.614,5.614,0,0,1,1.182.156c.473.113.98.24,1.494.384.533.164,1.013.28,1.472.388a5.168,5.168,0,0,0,1.135.146,6.158,6.158,0,0,0,1.387-.166.261.261,0,0,0,.2-.249V6.51a.253.253,0,0,0-.335-.234,4.152,4.152,0,0,1-1.254.186,4.686,4.686,0,0,1-1.135-.16c-.46-.087-.939-.226-1.472-.379-.514-.16-1-.277-1.448-.374a4.887,4.887,0,0,0-1.145-.16,9.6,9.6,0,0,0-3.4.715V5H24.451a.25.25,0,0,0-.251.249v12.53h-.086a10.489,10.489,0,0,0-5.855,2.372,9.681,9.681,0,0,0-3.211,5.042.239.239,0,0,1-.236.184A1.306,1.306,0,0,0,13.4,26.856H36.708c0-1.531-1.751-1.464-1.751-1.464Z"/></g></svg>