<svg id="icon" xmlns="http://www.w3.org/2000/svg" viewBox="0 0 50 50"><defs><style>.cls-1{fill:#2c3d01;}</style></defs><title>Artboard 151</title><path class="cls-1" d="M30.364,5.846a2.167,2.167,0,0,0-1.794.988L19.114,21.976H8.024a3.024,3.024,0,1,0,0,6.048h11.09L28.57,43.166a2.141,2.141,0,0,0,1.794.988,2.115,2.115,0,0,0,2.016-2.742L28.187,28.024H39.276L42,31.654a.966.966,0,0,0,.806.4h1.19a1.015,1.015,0,0,0,.968-1.291L43.308,25l1.654-5.766a1.015,1.015,0,0,0-.968-1.291H42.8a.966.966,0,0,0-.806.4l-2.722,3.63H28.187L32.38,8.588A2.115,2.115,0,0,0,30.364,5.846Z"/></svg>