<svg id="icon" xmlns="http://www.w3.org/2000/svg" viewBox="0 0 50 50"><defs><style>.cls-1{fill:#ef1d1c;fill-rule:evenodd;}</style></defs><title>Artboard 152</title><path class="cls-1" d="M30.993,24.529l-1.424-3.556a5.7,5.7,0,0,0-6.14-3.514,1.305,1.305,0,0,0-2.423.971,5.7,5.7,0,0,0-2.016,6.781l1.424,3.556A1.715,1.715,0,0,0,19.459,31l.45,1.124,13.766-5.514-.451-1.124A1.715,1.715,0,0,0,30.993,24.529Z"/><path class="cls-1" d="M24.952,31.194a2.481,2.481,0,0,0,4.433-1.776Z"/><path class="cls-1" d="M14.645,26.856a5.611,5.611,0,0,1-.315-3.079.626.626,0,0,0-1.232-.222,6.873,6.873,0,0,0,2.785,6.814.628.628,0,0,0,.6.07.618.618,0,0,0,.278-.22.625.625,0,0,0-.149-.872A5.6,5.6,0,0,1,14.645,26.856Z"/><path class="cls-1" d="M11.957,27.932a8.482,8.482,0,0,1-.477-4.666.665.665,0,1,0-1.309-.236,9.843,9.843,0,0,0,3.991,9.764.665.665,0,1,0,.769-1.085A8.487,8.487,0,0,1,11.957,27.932Z"/><path class="cls-1" d="M32.906,15.621a.626.626,0,1,0-.738,1.012,5.619,5.619,0,0,1,2.2,5.6.626.626,0,0,0,1.229.239,6.868,6.868,0,0,0-2.689-6.852Z"/><path class="cls-1" d="M37.988,17.506a9.814,9.814,0,0,0-3.326-4.286.666.666,0,0,0-.785,1.075,8.513,8.513,0,0,1,3.331,8.49.665.665,0,1,0,1.306.255A9.792,9.792,0,0,0,37.988,17.506Z"/><path class="cls-1" d="M25,5A20,20,0,1,0,45,25,20.059,20.059,0,0,0,25,5Zm0,37A17,17,0,1,1,42,25,17.017,17.017,0,0,1,25,42Z"/></svg>