<?xml version="1.0" encoding="utf-8"?>
<!-- Generator: Adobe Illustrator 15.1.0, SVG Export Plug-In . SVG Version: 6.00 Build 0)  -->
<!DOCTYPE svg PUBLIC "-//W3C//DTD SVG 1.1//EN" "http://www.w3.org/Graphics/SVG/1.1/DTD/svg11.dtd">
<svg version="1.1" id="Capa_1" xmlns="http://www.w3.org/2000/svg" xmlns:xlink="http://www.w3.org/1999/xlink" x="0px" y="0px"
	 width="12px" height="12px" viewBox="0 0 12 12" enable-background="new 0 0 12 12" xml:space="preserve">
<path d="M10.234,5.767v4.216c0,0.256-0.105,0.49-0.276,0.66v0.001c-0.169,0.169-0.403,0.275-0.662,0.275H2.703
	c-0.258,0-0.492-0.106-0.662-0.275c-0.17-0.169-0.275-0.404-0.275-0.661V5.767H1.089c-0.115,0-0.224-0.035-0.314-0.099
	C0.686,5.605,0.616,5.515,0.577,5.405C0.538,5.296,0.535,5.183,0.564,5.077c0.03-0.106,0.091-0.202,0.18-0.275L2.961,2.99
	l2.301-1.881C5.479,0.932,5.739,0.843,6,0.843s0.521,0.088,0.737,0.265l0.88,0.719v-0.23c0-0.112,0.045-0.214,0.119-0.288
	C7.808,1.235,7.909,1.19,8.022,1.19h1.37c0.112,0,0.214,0.045,0.287,0.119C9.755,1.383,9.8,1.484,9.8,1.597v2.015l1.454,1.19
	c0.09,0.073,0.151,0.169,0.181,0.275c0.03,0.106,0.028,0.219-0.012,0.327c-0.04,0.111-0.109,0.201-0.198,0.264
	s-0.198,0.099-0.313,0.099H10.234L10.234,5.767z"/>
<rect x="5.286" y="3.554" fill="#FFFFFF" width="1.43" height="6.479"/>
<rect x="3.602" y="5.366" fill="#FFFFFF" width="4.853" height="1.428"/>
</svg>
