<svg id="icon" xmlns="http://www.w3.org/2000/svg" viewBox="0 0 50 50"><title>Artboard 122</title><path d="M18.72,14H31.44c1.26,0,2-.81,1.28-1.41L26.36,7.44a2.33,2.33,0,0,0-2.56,0l-6.36,5.15C16.71,13.18,17.46,14,18.72,14Z"/><path d="M6.51,18h4.7c.46,0,.73-.32.47-.56l-2.35-2a.78.78,0,0,0-.94,0L6,17.44C5.77,17.68,6.05,18,6.51,18Z"/><path d="M38.51,18h4.7c.46,0,.73-.32.47-.56l-2.35-2a.78.78,0,0,0-.94,0l-2.35,2C37.77,17.68,38.05,18,38.51,18Z"/><path d="M17.61,23H20V20.1a2.1,2.1,0,1,1,4.2,0V23H26V20.1a2.1,2.1,0,1,1,4.2,0V23h2.19a.61.61,0,0,0,.61-.61V15.61a.61.61,0,0,0-.61-.61H17.61a.61.61,0,0,0-.61.61v6.78A.61.61,0,0,0,17.61,23Z"/><path d="M44.3,25h-.44V21a1,1,0,0,0-1-1h-4a1,1,0,0,0-1,1v4h-26V21a1,1,0,0,0-1-1h-4a1,1,0,0,0-1,1v4H5.7a.7.7,0,0,0-.7.7V44.3a.7.7,0,0,0,.7.7H19V37a6,6,0,0,1,12,0v8H44.3a.7.7,0,0,0,.7-.7V25.7A.7.7,0,0,0,44.3,25ZM10.36,25h-3V23.5a1.5,1.5,0,0,1,3,0Zm32,0h-3V23.5a1.5,1.5,0,0,1,3,0Z"/><path d="M25,33a4.49,4.49,0,0,0-4.5,4.5V45h9V37.5A4.49,4.49,0,0,0,25,33Z"/></svg>