<svg id="icon" xmlns="http://www.w3.org/2000/svg" viewBox="0 0 50 50"><defs><style>.cls-1{fill:#fff;}</style></defs><title>Artboard 156</title><path d="M39.36,5A5.41,5.41,0,0,0,34,10.47V43.78A1.21,1.21,0,0,0,35.21,45h8.31a1.2,1.2,0,0,0,1.18-1.22V10.47A5.41,5.41,0,0,0,39.36,5Zm4.16,38.78H35.21V10.34a4.16,4.16,0,1,1,8.31,0Z"/><path d="M33.43,14.65a4.15,4.15,0,0,0-4.15,4.15V44.07a.93.93,0,0,0,.92.93h6.46a.93.93,0,0,0,.92-.93V18.8A4.15,4.15,0,0,0,33.43,14.65Zm3.23,29.42H30.2V18.7a3.23,3.23,0,1,1,6.46,0Z"/><path class="cls-1" d="M36.66,44.07H30.2V18.7a3.23,3.23,0,1,1,6.46,0Z"/><path d="M23.66,45H33.84V30.88l0,0L35.64,29a.58.58,0,0,0,0-.84l-14-14a1.66,1.66,0,0,0-2.27,0L5.12,28.32a.36.36,0,0,0,0,.49l2,2,0,0V45H17.27"/></svg>