<svg id="icon" xmlns="http://www.w3.org/2000/svg" viewBox="0 0 50 50"><title>Artboard 164</title><path d="M28.88,18.34a1.48,1.48,0,0,1,.08.81c.17,0,.19.48.22.36s.7-1.8.7-1.8a9,9,0,0,0-1.43-.65C28.75,17.21,28.88,18.34,28.88,18.34Z"/><path d="M25.2,31.77l.49.1c-.17-.17-.51-.59-.51-.59Z"/><path d="M44.69,25.31,26.37,6.55a1.91,1.91,0,0,0-2.68,0L5.26,25.43a.88.88,0,0,0,0,1.24l1.41,1.44a.92.92,0,0,0,1.32,0l1.23-1.26V44H40.86V26.86L42,28a1.11,1.11,0,0,0,1.59,0l1.15-1.18A1.07,1.07,0,0,0,44.69,25.31ZM31.12,17.78a8.76,8.76,0,0,1-1.46,3.27c-.29.58.39,1.56.39,1.56a2.63,2.63,0,0,1,.44-2.07c.15-.25.17,0,.17,0s.1.39.1.39.07.27.07.27a2,2,0,0,0-.12.63,1.75,1.75,0,0,1-.1,1.17,11.45,11.45,0,0,0-.8.93,19.75,19.75,0,0,1-1.12,2.29,12,12,0,0,1-.64,1.36,1.46,1.46,0,0,1-.78.66.35.35,0,0,0-.09-.41l-.22.27c0,.36-.08.43-.08.43.05.37-.26.39-.26.39a18.33,18.33,0,0,1,1.31,3.59c.17.56-.46,1-.46,1-.29.49-2.46,0-2.46,0a16.25,16.25,0,0,0-.61,1.73,20.09,20.09,0,0,1-.71,3.19,7.59,7.59,0,0,0-.12,1.71,8.81,8.81,0,0,0,.27,1.51.76.76,0,0,0,.83.44c.24,0,.12.31.12.31l-.78.13c-.88,0-.85-.18-.85-.18-.1-.19-.49-.87-.49-.87-.32-.34-.32.17-.32.17a8.59,8.59,0,0,0,0,.9l-.17,0A5.68,5.68,0,0,0,22,41c-.27-.58.08-.78.08-.78.58-.61.58-2.94.58-2.94a4.33,4.33,0,0,1,.24-2.37,10,10,0,0,0,.37-2.14,12.33,12.33,0,0,0-2-.29,12,12,0,0,1-1.42,0,.87.87,0,0,0-.75.31.23.23,0,0,1-.34-.17c.51-1.36.9-1.26.9-1.26a1.45,1.45,0,0,0,1-.2c.2-.15-.14-.29-.14-.29a2.67,2.67,0,0,0-.73-.15l.05-.19,1.38.14a.42.42,0,0,1,.42.17,2.75,2.75,0,0,0,.85.76,4.28,4.28,0,0,0,.85.05c.1-.68.13-2.61.13-2.61a1,1,0,0,1-.39-.24l0-.22a2.39,2.39,0,0,1,2.37-2.88c.12-.46.83-.83.83-.83a1.89,1.89,0,0,0-.3-1.85c-.21.25-1.09.32-1.09.32a1.43,1.43,0,0,0,1-.66,6.19,6.19,0,0,0,.05-1.29c-.15.41-1,.63-1,.63a.89.89,0,0,0,.71-1.12,3.29,3.29,0,0,1-2.4.34,2.42,2.42,0,0,0,1.72-.78c-1.34.56-1.37-.48-1.37-.48-.95,0-1.46,1.14-1.46,1.14a2.34,2.34,0,0,1,.39-.75c.78-1,1.41-.71,1.41-.71a.89.89,0,0,1,.08-.95,2.61,2.61,0,0,1,1-.85.37.37,0,0,0-.39.09c.35-.56.7-.62.77-.63a.5.5,0,0,1-.38-.12,1,1,0,0,0,1-.61l.68-.29a1.07,1.07,0,0,1,1.24-.08,17.79,17.79,0,0,1,3.24.91C31.49,17.32,31.12,17.78,31.12,17.78Z"/></svg>