<svg id="icon" xmlns="http://www.w3.org/2000/svg" viewBox="0 0 50 50"><title>Artboard 160</title><path d="M44.69,25.31,26.37,6.55a1.91,1.91,0,0,0-2.68,0L5.26,25.43a.88.88,0,0,0,0,1.24l1.41,1.44a.92.92,0,0,0,1.32,0l1.23-1.26V44H40.86V26.86L42,28a1.11,1.11,0,0,0,1.59,0l1.15-1.18A1.07,1.07,0,0,0,44.69,25.31ZM19.81,23.5a2,2,0,0,1,2.26,2.18c0,1.61-1,2.9-2.26,2.9s-2.26-1.33-2.26-2.9A2,2,0,0,1,19.81,23.5Zm3.5,13a.94.94,0,0,1-.87,1h-.88v2a1.89,1.89,0,0,1-1.75,2,1.89,1.89,0,0,1-1.75-2v-2h-.87a.94.94,0,0,1-.88-1v-4a2.83,2.83,0,0,1,2.63-3h1.75a2.83,2.83,0,0,1,2.62,3Zm6.25-16a2,2,0,0,1,2.26,2.18c0,1.61-1,2.9-2.26,2.9s-2.26-1.33-2.26-2.9A2,2,0,0,1,29.56,20.5Zm3,17h-1v2a2,2,0,0,1-2.34,2,2.07,2.07,0,0,1-1.66-2.08V37.5h-1c-.55,0-1.11-.46-1-1a25.54,25.54,0,0,1,1.55-3.61A2.36,2.36,0,0,0,27.3,32V28.87a2.38,2.38,0,0,1,4.76,0V32a2.29,2.29,0,0,0,.15.82,28.4,28.4,0,0,1,1.35,3.66C33.66,37,33.11,37.5,32.56,37.5Z"/></svg>