<svg id="icon" xmlns="http://www.w3.org/2000/svg" viewBox="0 0 50 50"><title>Artboard 163</title><path d="M44.69,26.31,26.37,7.55a1.91,1.91,0,0,0-2.68,0L5.26,26.43a.88.88,0,0,0,0,1.24l1.41,1.44a.92.92,0,0,0,1.32,0l1.23-1.26V45H40.86V27.86L42,29a1.11,1.11,0,0,0,1.59,0l1.15-1.18A1.07,1.07,0,0,0,44.69,26.31ZM23.16,34.06a3.82,3.82,0,0,1-.68-.06l-1,4.15a1.57,1.57,0,0,1-.76,1,1.55,1.55,0,0,1-1.26.15l-2.22-.69a1.59,1.59,0,0,1-1.05-2l1.9-6.07-1.49.07a.71.71,0,0,1-.56-.24.68.68,0,0,1-.16-.58l.5-2.72A1.58,1.58,0,0,1,18,25.78h.07l5.14,5.15-.41,1.8a2.37,2.37,0,0,0,1.78-.43l.93.92A3.63,3.63,0,0,1,23.16,34.06Zm11.37,4.77-.31.3a1.11,1.11,0,0,1-1.59,0L16.26,22.76a1.12,1.12,0,0,1,0-1.59l.3-.3a1.12,1.12,0,0,1,1.6,0L34.53,37.23a1.15,1.15,0,0,1,.33.8A1.14,1.14,0,0,1,34.53,38.83Zm1.56-10.65a.43.43,0,0,1-.42.42h-.81v.52a.68.68,0,0,1-.65.69l-5.62.26-4.28-4.29h9.88a.69.69,0,0,1,.67.58h.81a.41.41,0,0,1,.42.4Z"/></svg>