<svg id="icon" xmlns="http://www.w3.org/2000/svg" viewBox="0 0 50 50"><title>Artboard 162</title><path d="M44.69,25.31,26.37,6.55a1.91,1.91,0,0,0-2.68,0L5.26,25.43a.88.88,0,0,0,0,1.24l1.41,1.44a.92.92,0,0,0,1.32,0l1.23-1.26V44H40.86V26.86L42,28a1.11,1.11,0,0,0,1.59,0l1.15-1.18A1.07,1.07,0,0,0,44.69,25.31ZM26.17,15.76a2.35,2.35,0,1,1-2.34,2.35A2.35,2.35,0,0,1,26.17,15.76Zm5.12,13.39a8.59,8.59,0,0,1-5.12-2.82l-.7,3.52,1.74,1.65a2.34,2.34,0,0,1,.72,1.7v6.63a1.17,1.17,0,0,1-2.34,0V34l-2.47-2.35-1.9,8.47a1.19,1.19,0,0,1-1.15.92H20a1.18,1.18,0,0,1-1.16-1.4l3-15.15-2.11.82v2.82a1.18,1.18,0,0,1-2.35,0V25.3a2.36,2.36,0,0,1,1.43-2.17l4.5-1.9a2.52,2.52,0,0,1,3.11,1l1.17,1.87a5.71,5.71,0,0,0,4.05,2.74,1.17,1.17,0,0,1-.34,2.32Z"/></svg>