<svg id="icon" xmlns="http://www.w3.org/2000/svg" viewBox="0 0 50 50"><defs><style>.cls-1{fill:#71bd43;}.cls-1,.cls-2{fill-rule:evenodd;}</style></defs><title>Artboard 159</title><path class="cls-1" d="M24.357,33.9a5.814,5.814,0,0,0-1.707-3.568c-.509-.635-3.09-3.154-3.724-3.789-1.214-1.215-3.079-3.135-4.267-4.234a6.751,6.751,0,0,0-1.145-.958,1.712,1.712,0,0,0-1.641-.236c-1.1.587-.618,2.121.053,2.939,1.105,1.348,2.2,2.8,3.3,4.129.155.188.341.4.477.595.46.669-.13,1.149-.618.662-.178-.178-1.636-1.932-1.961-2.333L10.2,23.633c-.741-1.018-.079-2.408.271-3.4.371-1.057,2.117-5.642,2.117-6.419,0-.521-.426-.789-.864-.892.074-.7.3-1.094-.2-1.6a2.969,2.969,0,0,0-1.33-.661C10,10.917,6,21.167,5.56,22.272A5.011,5.011,0,0,0,5.125,24.2a7.723,7.723,0,0,0,2.4,5.152c.766.721,3.069,3.388,3.576,4.022a41.557,41.557,0,0,1,3.168,4.387,11.879,11.879,0,0,1,2.083,5.516l8.188.009c-.02-1.694-.068-3.594-.059-5.264A33.035,33.035,0,0,0,24.357,33.9Z"/><path class="cls-1" d="M44.319,21.631l-2.605-6.584c-.159-.389-1.631-4.158-1.77-4.381a2.932,2.932,0,0,0-1.361.67c-.495.526-.256.894-.185,1.583-1.329.361-.828,1.389-.438,2.53l1.659,4.7c.315.908,1.02,2.358.393,3.35-.113.177-2.591,3.109-2.886,3.467-.159.194-.317.386-.471.559-.18.2-.316.389-.488.585s-.292.356-.47.561c-.347.4-.738,1.058-1.142.954a.428.428,0,0,1-.244-.665c.136-.275,3.3-4.136,3.74-4.718a3.491,3.491,0,0,0,.757-1.346,1.513,1.513,0,0,0-.3-1.59c-.963-.895-2.27.278-2.821.784-.39.359-3.083,3-3.711,3.674-.808.86-1.817,1.811-2.642,2.637a18.5,18.5,0,0,0-2.943,3.412c-.877,1.5-.727,4.019-.739,5.74l-.074,5.729.243.009,7.955-.01c.13-2.4,1.448-4.6,2.683-6.468a45.739,45.739,0,0,1,2.936-3.89c.134-.158.235-.265.355-.416l.711-.836c.266-.275.447-.518.716-.786l.734-.811c.506-.571,1.005-.965,1.483-1.609a7.222,7.222,0,0,0,1.6-4.476A7.476,7.476,0,0,0,44.319,21.631Z"/><path class="cls-2" d="M26.226,30.144a24.746,24.746,0,0,1,2.484-2.623c.231-.229.332-.183.317-.659l-.085-3c-.043-1.312.015-2.691-.13-3.978a10.421,10.421,0,0,0-2.329-5.828,3.108,3.108,0,0,0-4.319-.544,4.13,4.13,0,0,0-1.019,1.041,4.632,4.632,0,0,1,1.378,1.272,7.649,7.649,0,0,1,.936,1.726,11.966,11.966,0,0,1,.774,4.594c-.044,2.475.073,5.336.072,7.9,0,.748-.022.55.285,1.057.177.292.3.582.463.909a6.579,6.579,0,0,0,.333-.639A7.013,7.013,0,0,1,26,30.434C26.116,30.292,26.132,30.27,26.226,30.144Z"/><path class="cls-2" d="M16.447,22.582l4.069,4.045c.405.4.991,1,1.354,1.35.239.229.44.427.672.659a4.918,4.918,0,0,0,.725.7c-.041-1.783-.055-3.614-.054-5.393a19.472,19.472,0,0,0-.375-5.043c-1.511-5.7-6.359-4.722-7.026,1.69C15.651,22.135,15.689,21.83,16.447,22.582Z"/><path class="cls-2" d="M30.926,13.942a2.715,2.715,0,0,0-1.623-.168,2.667,2.667,0,0,0-1.233.64A12.936,12.936,0,0,1,29.8,19.5c.227,1.63.15,4.8.231,6.656l1.044-1.085c.334-.358.6-.652,1.055-1.091l2.186-2.1C34.417,19.177,33.4,15.062,30.926,13.942Z"/><path class="cls-2" d="M24.448,12.186A2.755,2.755,0,1,0,21.294,9.93,2.753,2.753,0,0,0,24.448,12.186Z"/><path class="cls-2" d="M30.112,13.118a2.507,2.507,0,1,0-2.753-2.265A2.509,2.509,0,0,0,30.112,13.118Z"/><path class="cls-2" d="M19.845,14.614a2.1,2.1,0,1,0-2.433-1.707A2.085,2.085,0,0,0,19.845,14.614Z"/></svg>