<?xml version="1.0" encoding="utf-8"?>
<!-- Generator: Adobe Illustrator 15.1.0, SVG Export Plug-In . SVG Version: 6.00 Build 0)  -->
<!DOCTYPE svg PUBLIC "-//W3C//DTD SVG 1.1//EN" "http://www.w3.org/Graphics/SVG/1.1/DTD/svg11.dtd">
<svg version="1.1" id="Capa_1" xmlns="http://www.w3.org/2000/svg" xmlns:xlink="http://www.w3.org/1999/xlink" x="0px" y="0px"
	 width="12px" height="12px" viewBox="0 0 12 12" enable-background="new 0 0 12 12" xml:space="preserve">
<path fill="none" stroke="#FF0000" stroke-width="0.5" stroke-miterlimit="10" d="M10.234,5.767v4.215
	c0,0.257-0.105,0.49-0.276,0.66v0.002c-0.169,0.168-0.403,0.274-0.662,0.274H2.703c-0.258,0-0.492-0.106-0.662-0.274
	c-0.17-0.17-0.275-0.404-0.275-0.662V5.767H1.089c-0.115,0-0.224-0.035-0.314-0.099C0.686,5.605,0.616,5.515,0.577,5.405
	C0.538,5.296,0.535,5.183,0.564,5.077c0.03-0.106,0.091-0.202,0.18-0.275L2.961,2.99l2.301-1.881C5.479,0.932,5.739,0.843,6,0.843
	s0.521,0.088,0.736,0.265l0.881,0.719v-0.23c0-0.112,0.045-0.214,0.119-0.288C7.809,1.235,7.909,1.19,8.021,1.19h1.371
	c0.111,0,0.213,0.045,0.287,0.119C9.755,1.383,9.8,1.484,9.8,1.597v2.015l1.454,1.19c0.09,0.073,0.15,0.169,0.182,0.275
	c0.029,0.106,0.027,0.219-0.013,0.327c-0.04,0.111-0.108,0.201-0.198,0.264c-0.089,0.063-0.197,0.099-0.313,0.099H10.234
	L10.234,5.767z"/>
</svg>
