<svg id="icon" xmlns="http://www.w3.org/2000/svg" viewBox="0 0 50 50"><title>Artboard 161</title><polygon points="23.93 26.57 24.07 26.48 24.51 25.31 24.13 24.66 23.93 26.57"/><path d="M44.69,25.31,26.37,6.55a1.91,1.91,0,0,0-2.68,0L5.26,25.43a.88.88,0,0,0,0,1.24l1.41,1.44a.92.92,0,0,0,1.32,0l1.23-1.26V44H40.86V26.86L42,28a1.11,1.11,0,0,0,1.59,0l1.15-1.18A1.07,1.07,0,0,0,44.69,25.31ZM23,17.26a2.13,2.13,0,1,1-.91,2.9A2.15,2.15,0,0,1,23,17.26Zm8.48,18.62.68,4.6a1.18,1.18,0,1,1-2.35,0l-.68-4.6a2.25,2.25,0,0,1,0-.58l.26-2.13-1.14,1.61a2.91,2.91,0,0,0-.54,1.67l0,4.4A1.15,1.15,0,0,1,26.48,42h0a1.16,1.16,0,0,1-1.15-1.16l0-4.7a4.29,4.29,0,0,1,.77-2.42l1.79-2.56L25.49,27l-.09.23a.7.7,0,0,1-.19.28.55.55,0,0,1-.2.17L21,30a.75.75,0,0,1-1-.27,1.46,1.46,0,0,1-.07-.19l-.64.2V41.66a.31.31,0,0,1-.32.31.3.3,0,0,1-.31-.31V29.88a.77.77,0,0,1-.22-1.51l2.94-.92a1.55,1.55,0,0,0,1.07-1.32l.35-3.2a.8.8,0,0,1,.48-.63l3.37-1.83a1,1,0,0,1,1.29.37c1.15,2,4.05,7.1,4.05,7.12a1.71,1.71,0,0,1,.09,1.25,1.22,1.22,0,0,1,.08.43l-.68,5.66A2.25,2.25,0,0,0,31.45,35.88Z"/></svg>