<?xml version="1.0" encoding="utf-8"?>
<!-- Generator: Adobe Illustrator 15.1.0, SVG Export Plug-In . SVG Version: 6.00 Build 0)  -->
<!DOCTYPE svg PUBLIC "-//W3C//DTD SVG 1.1//EN" "http://www.w3.org/Graphics/SVG/1.1/DTD/svg11.dtd">
<svg version="1.1" id="Capa_1" xmlns="http://www.w3.org/2000/svg" xmlns:xlink="http://www.w3.org/1999/xlink" x="0px" y="0px"
	 width="12px" height="12px" viewBox="0 0 12 12" enable-background="new 0 0 12 12" xml:space="preserve">
<path fill-rule="evenodd" clip-rule="evenodd" d="M11.307,4.511c0,0.048,0,0.096,0,0.144c-0.191,0-0.384,0-0.576,0
	c0,0.432,0,0.864,0,1.297c0,0.432,0,0.864,0,1.296c0,0.433,0,0.865,0,1.297c0,0.448,0,0.896,0,1.345c-0.016,0-0.032,0-0.048,0
	c-0.013,0-0.036-0.005-0.048,0c-0.005,0.002,0.003,0.044,0,0.049c-0.003,0.003-0.043,0-0.048,0c-0.014,0-0.035-0.005-0.048,0
	c-0.014,0.003-0.034,0-0.049,0c-0.013,0-0.036-0.005-0.048,0c-0.005,0.001,0.004,0.043,0,0.047c-0.003,0.004-0.042,0-0.048,0
	c-0.014,0-0.035-0.004-0.048,0c-0.009,0.003-0.042-0.006-0.048,0c-0.006,0.005,0.006,0.046,0,0.048c-0.011,0.005-0.037,0-0.049,0
	c-0.016,0-0.032,0-0.048,0c-0.013,0-0.035-0.004-0.048,0c-0.004,0.002,0.004,0.044,0,0.049c-0.003,0.003-0.042,0-0.048,0
	c-0.014,0-0.034-0.004-0.048,0c-0.014,0.003-0.033-0.002-0.049,0c-0.007,0-0.043-0.005-0.047,0c-0.005,0.004,0.004,0.046,0,0.048
	c-0.013,0.004-0.035,0-0.049,0c-0.015,0-0.033-0.003-0.048,0c-0.011,0.002-0.039-0.006-0.048,0c-0.008,0.005,0.007,0.041,0,0.048
	c-0.006,0.006-0.039-0.003-0.048,0c-0.014,0.004-0.034,0-0.048,0c-0.007,0-0.044-0.005-0.049,0c-0.004,0.004,0.005,0.047,0,0.048
	c-0.013,0.003-0.033,0-0.048,0c-0.016,0-0.031,0-0.048,0c-0.013,0-0.035-0.005-0.048,0c-0.005,0.002,0.005,0.044,0,0.048
	c-0.007,0.007-0.038-0.004-0.048,0c-0.012,0.005-0.035-0.001-0.049,0c-0.007,0.001-0.043-0.004-0.047,0
	c-0.005,0.005,0.005,0.046,0,0.048c-0.013,0.005-0.035,0-0.049,0c-0.016,0-0.032,0-0.048,0c-0.014,0-0.034-0.003-0.048,0
	c-0.005,0.002,0.003,0.045,0,0.049s-0.043,0-0.048,0c-0.014,0-0.035-0.004-0.048,0c-0.01,0.003-0.042-0.007-0.049,0
	c-0.005,0.004,0.007,0.045,0,0.048c-0.01,0.005-0.036,0-0.048,0c-0.017,0-0.032,0-0.048,0c-0.014,0-0.035-0.004-0.048,0
	c-0.005,0.001,0.004,0.044,0,0.048c-0.007,0.006-0.039-0.002-0.048,0c-0.014,0.004-0.035,0-0.049,0c-0.016,0-0.032,0-0.048,0
	c-0.013,0-0.035-0.004-0.048,0c-0.005,0.002,0.005,0.044,0,0.048c-0.007,0.007-0.038-0.003-0.048,0c-0.012,0.005-0.035,0-0.048,0
	c-0.007,0-0.044-0.005-0.048,0s0.005,0.047,0,0.049c-0.012,0.004-0.036,0-0.048,0c-0.017,0-0.032,0-0.049,0
	c-0.014,0-0.034-0.004-0.048,0c-0.004,0,0.003,0.043,0,0.047s-0.042,0-0.048,0c-0.014,0-0.035-0.004-0.048,0
	c-0.014,0.004-0.035,0-0.048,0c-0.014,0-0.036-0.004-0.049,0c-0.005,0.003,0.004,0.043,0,0.048c-0.003,0.005-0.042,0-0.048,0
	c-0.014,0-0.034-0.003-0.048,0c-0.014,0.004-0.033,0-0.048,0c-0.007,0.001-0.044-0.005-0.048,0s0.004,0.047,0,0.049
	c-0.014,0.003-0.034,0-0.049,0c-0.016,0-0.031,0-0.047,0s-0.035-0.003-0.049,0c-0.008,0.001-0.042-0.007-0.048,0
	c-0.006,0.005,0.007,0.045,0,0.049c-0.011,0.004-0.037,0-0.048,0c-0.017,0-0.032,0-0.048,0s-0.034-0.004-0.048,0
	c-0.015,0.002-0.034,0-0.049,0c-0.016,0-0.032,0-0.048,0c-0.014,0-0.035-0.005-0.048,0c-0.004,0,0.004,0.043,0,0.047
	s-0.043,0-0.048,0c-0.016,0-0.032-0.001-0.048,0s-0.033,0-0.049,0c-0.031,0-0.063,0-0.096,0c-0.063,0-0.128,0-0.191,0
	c-0.113,0-0.225,0-0.337,0c-0.048,0-0.096,0-0.144,0c-0.064,0-0.128,0-0.192,0c-0.064,0-0.128,0-0.192,0c-0.064,0-0.128,0-0.191,0
	c-0.113,0-0.225,0-0.336,0c-0.112,0-0.224,0-0.336,0c-0.113,0-0.225,0-0.336,0c-0.128,0-0.256,0-0.384,0c-0.113,0-0.225,0-0.336,0
	c-0.112,0-0.224,0-0.336,0c-0.113,0-0.225,0-0.336,0c-0.128,0-0.256,0-0.384,0c-0.113,0-0.225,0-0.336,0c-0.112,0-0.224,0-0.336,0
	c-0.113,0-0.225,0-0.336,0c-0.128,0-0.256,0-0.384,0c-0.048,0-0.096,0-0.145,0c0-0.063,0-0.128,0-0.192c0-0.063,0-0.127,0-0.191
	c0-0.128,0-0.256,0-0.385c0-0.24,0-0.479,0-0.72c0-0.497,0-0.992,0-1.489c0-0.239,0-0.479,0-0.72s0-0.48,0-0.721
	c0-0.496,0-0.992,0-1.489c-0.176,0-0.352,0-0.528,0c-0.192,0-0.385,0-0.576,0c0.006-0.009-0.008-0.04,0-0.047
	c0.008-0.008,0.04,0.008,0.047,0c0.008-0.008-0.008-0.041,0-0.048s0.041,0.008,0.049,0c0.008-0.008-0.009-0.04,0-0.048
	c0.007-0.007,0.041,0.008,0.047,0c0.008-0.009-0.007-0.038,0-0.048c0.006-0.007,0.042,0.007,0.048,0
	c0.008-0.008-0.008-0.041,0-0.048c0.009-0.008,0.04,0.008,0.048,0c0.008-0.007-0.008-0.041,0-0.048c0.01-0.008,0.038,0.007,0.048,0
	c0.008-0.005-0.006-0.042,0-0.048c0.009-0.008,0.039,0.006,0.048,0c0.01-0.007,0.04,0.008,0.048,0s-0.008-0.042,0-0.048
	c0.009-0.008,0.038,0.007,0.048,0c0.008-0.005-0.006-0.042,0-0.048c0.008-0.008,0.04,0.008,0.048,0c0.008-0.008-0.008-0.041,0-0.048
	c0.008-0.007,0.042,0.008,0.048,0c0.008-0.009-0.007-0.038,0-0.048c0.005-0.007,0.042,0.007,0.048,0c0.008-0.008-0.009-0.04,0-0.048
	c0.008-0.008,0.04,0.008,0.048,0s-0.008-0.042,0-0.048c0.009-0.008,0.037,0.006,0.048,0c0.007-0.005-0.007-0.042,0-0.048
	c0.008-0.008,0.04,0.008,0.048,0c0.008-0.008-0.008-0.04,0-0.048s0.041,0.008,0.047,0c0.009-0.01-0.007-0.038,0-0.048
	c0.005-0.007,0.042,0.007,0.049,0c0.008-0.008-0.008-0.04,0-0.048s0.04,0.008,0.047,0s-0.008-0.041,0-0.048
	c0.009-0.008,0.038,0.007,0.049,0c0.007-0.005-0.007-0.042,0-0.048c0.008-0.008,0.039,0.008,0.047,0c0.008-0.008-0.008-0.04,0-0.048
	c0.008-0.007,0.042,0.008,0.048,0c0.008-0.009-0.006-0.038,0-0.048c0.005-0.008,0.042,0.006,0.048,0c0.008-0.008-0.008-0.04,0-0.048
	c0.008-0.008,0.04,0.008,0.048,0c0.008-0.007-0.008-0.041,0-0.048c0.009-0.008,0.038,0.007,0.048,0c0.008-0.005-0.007-0.042,0-0.048
	c0.008-0.008,0.039,0.007,0.048,0c0.008-0.008,0.04,0.008,0.048,0c0.007-0.008-0.009-0.042,0-0.048c0.009-0.008,0.038,0.007,0.048,0
	c0.008-0.005-0.007-0.041,0-0.048c0.008-0.008,0.04,0.008,0.047,0c0.009-0.008-0.008-0.04,0-0.048c0.008-0.007,0.042,0.008,0.049,0
	c0.008-0.009-0.007-0.037,0-0.048c0.004-0.007,0.042,0.007,0.047,0c0.008-0.008-0.008-0.041,0-0.048c0.009-0.008,0.04,0.008,0.049,0
	c0.007-0.007-0.009-0.041,0-0.047c0.009-0.008,0.038,0.006,0.047,0c0.008-0.005-0.007-0.042,0-0.048c0.008-0.008,0.04,0.008,0.048,0
	c0.009-0.008-0.008-0.04,0-0.048c0.008-0.007,0.042,0.008,0.048,0c0.008-0.009-0.007-0.038,0-0.048c0.005-0.008,0.042,0.007,0.048,0
	c0.008-0.008-0.008-0.04,0-0.048c0.008-0.008,0.04,0.008,0.048,0c0.007-0.007-0.008-0.041,0-0.048c0.01-0.008,0.038,0.007,0.048,0
	c0.008-0.005-0.007-0.041,0-0.047c0.008-0.008,0.04,0.008,0.048,0c0.008-0.008-0.008-0.041,0-0.048s0.042,0.008,0.048,0
	c0.008-0.009-0.007-0.038,0-0.048c0.005-0.008,0.042,0.006,0.048,0c0.008-0.008-0.008-0.041,0-0.048c0.008-0.008,0.04,0.008,0.048,0
	c0.008-0.008-0.008-0.04,0-0.048c0.008-0.008,0.04,0.008,0.048,0c0.007-0.007-0.008-0.042,0-0.048c0.006-0.004,0.04,0,0.048,0
	c0.011,0,0.038,0.005,0.048,0c0.005-0.002-0.004-0.042,0-0.047c0.005-0.008,0.041,0.006,0.047,0c0.008-0.008-0.008-0.041,0-0.048
	c0.009-0.008,0.04,0.008,0.049,0c0.008-0.008-0.009-0.042,0-0.048c0.009-0.008,0.037,0.007,0.047,0c0.008-0.005-0.006-0.042,0-0.048
	c0.008-0.008,0.04,0.008,0.048,0c0.008-0.008-0.008-0.04,0-0.048c0.007-0.008,0.041,0.008,0.048,0c0.008-0.01-0.007-0.038,0-0.048
	c0.005-0.008,0.042,0.007,0.048,0c0.008-0.008-0.008-0.04,0-0.048c0.008-0.008,0.041,0.008,0.048,0s-0.008-0.042,0-0.048
	c0.009-0.008,0.038,0.007,0.048,0c0.008-0.005-0.006-0.042,0-0.048c0.008-0.008,0.04,0.008,0.048,0c0.008-0.008-0.009-0.04,0-0.048
	c0.007-0.007,0.041,0.008,0.048,0c0.008-0.009-0.007-0.038,0-0.048c0.005-0.008,0.042,0.007,0.048,0
	c0.008-0.008-0.009-0.041,0-0.048c0.008-0.008,0.04,0.008,0.048,0s-0.008-0.042,0-0.048c0.009-0.008,0.038,0.007,0.047,0
	c0.008-0.005-0.006-0.041,0-0.048c0.009-0.008,0.039,0.007,0.049,0c0.008-0.007-0.008-0.041,0-0.048s0.04,0.008,0.047,0
	c0.009-0.008-0.007-0.039,0-0.048c0.003-0.003,0.042,0,0.049,0c0.007,0,0.043,0.005,0.047,0c0.008-0.007-0.008-0.04,0-0.048
	s0.042,0.008,0.048,0c0.009-0.01-0.006-0.038,0-0.048c0.005-0.008,0.042,0.006,0.048,0c0.008-0.008-0.008-0.041,0-0.048
	s0.04,0.008,0.048,0s-0.008-0.042,0-0.048c0.009-0.008,0.038,0.007,0.048,0c0.008-0.005-0.007-0.042,0-0.048
	c0.008-0.008,0.04,0.008,0.048,0c0.008-0.008-0.008-0.04,0-0.048c0.008-0.007,0.042,0.008,0.048,0c0.008-0.009-0.007-0.038,0-0.048
	c0.005-0.007,0.041,0.007,0.048,0c0.008-0.008-0.008-0.04,0-0.047c0.008-0.008,0.04,0.008,0.048,0S4,1.733,4.008,1.726
	c0.009-0.008,0.037,0.007,0.048,0c0.008-0.005-0.007-0.042,0-0.048c0.008-0.008,0.04,0.008,0.048,0s-0.008-0.041,0-0.048
	c0.008-0.007,0.041,0.008,0.048,0c0.008-0.009-0.007-0.038,0-0.048c0.004-0.007,0.041,0.006,0.048,0c0.008-0.008-0.008-0.04,0-0.048
	c0.008-0.008,0.04,0.008,0.047,0c0.008-0.007-0.008-0.041,0-0.047c0.01-0.008,0.039,0.006,0.048,0c0.008-0.005-0.007-0.042,0-0.048
	c0.008-0.008,0.04,0.008,0.048,0c0.009-0.007-0.008-0.04,0-0.048c0.009-0.008,0.04,0.008,0.048,0c0.008-0.008-0.008-0.039,0-0.048
	c0.003-0.004,0.042,0,0.048,0c0.008,0,0.042,0.005,0.048,0c0.008-0.006-0.007-0.041,0-0.048c0.008-0.007,0.042,0.008,0.048,0
	c0.008-0.009-0.007-0.038,0-0.048c0.005-0.007,0.042,0.007,0.048,0c0.008-0.008-0.006-0.038,0-0.047c0.016,0,0.032,0,0.048,0
	c0.016,0,0.032-0.002,0.048,0c0.016,0.001,0.033,0,0.048,0c0.015,0,0.033-0.003,0.048,0c0.011,0.002,0.039-0.006,0.047,0
	c0.008,0.005-0.006,0.041,0,0.047c0.006,0.005,0.041,0,0.049,0c0.015,0.002,0.033,0,0.047,0c0.017,0,0.032,0,0.049,0
	c0.016,0,0.032,0,0.047,0c0.017,0,0.032,0,0.048,0s0.033-0.001,0.048,0c0.016,0.002,0.032,0,0.048,0c0.017,0,0.032,0,0.048,0
	c0.016,0.001,0.032,0,0.048,0c0.007,0,0.044-0.004,0.048,0c0.003,0.003-0.004,0.048,0,0.048c0.015,0.002,0.032,0,0.048,0
	c0.048,0,0.096,0,0.144,0c0.016,0,0.032,0,0.048,0c0.016,0,0.032-0.001,0.047,0c0.016,0.001,0.032,0,0.048,0
	c0.017,0,0.032,0,0.048,0c0.016,0,0.032,0,0.048,0c0.017,0,0.032,0,0.048,0c0.015,0,0.033-0.002,0.048,0
	c0.003,0-0.002,0.045,0,0.048c0.003,0.004,0.042,0,0.048,0c0.015,0,0.032-0.002,0.048,0s0.032,0,0.048,0c0.016,0,0.032,0,0.048,0
	c0.016,0,0.032-0.001,0.048,0s0.033,0,0.048,0s0.032,0,0.048,0s0.032,0,0.047,0c0.017,0,0.032,0,0.049,0
	c0.016,0,0.033-0.002,0.047,0c0.011,0.001,0.04-0.005,0.049,0c0.008,0.005-0.007,0.042,0,0.048c0.005,0.005,0.039-0.002,0.047,0
	c0.014,0.003,0.034,0,0.048,0c0.017,0,0.032,0,0.048,0c0.016,0,0.032-0.001,0.048,0c0.016,0.001,0.033,0,0.049,0s0.031,0,0.047,0
	c0.018,0,0.033,0,0.049,0s0.032,0,0.048,0s0.032-0.002,0.048,0c0.016,0.001,0.033-0.001,0.048,0c0.008,0,0.043-0.005,0.048,0
	c0.004,0.004-0.005,0.047,0,0.048c0.014,0.003,0.034,0,0.049,0c0.016,0,0.032,0,0.048,0s0.032-0.001,0.048,0s0.032,0,0.048,0
	s0.032,0,0.048,0c0.017,0,0.032,0,0.049,0c0.016,0,0.032,0,0.048,0s0.031,0,0.048,0c0.016,0.001,0.032,0,0.048,0s0.032,0,0.048,0
	c0.015,0,0.034-0.003,0.048,0c0.012,0.002,0.039-0.006,0.048,0c0.008,0.005-0.006,0.041,0,0.048c0.005,0.004,0.041-0.001,0.049,0
	c0.016,0.001,0.032,0,0.048,0c0.063,0,0.128,0,0.192,0c0.063,0,0.127,0,0.191,0c0.017,0,0.032,0,0.049,0
	c0.016,0,0.031-0.001,0.047,0c0.008,0,0.044-0.005,0.049,0s-0.006,0.045,0,0.047c0.01,0.005,0.036,0,0.048,0
	c0.016,0,0.032,0,0.048,0s0.032-0.001,0.048,0c0.016,0.002,0.032,0,0.048,0c0.049,0,0.097,0,0.145,0c0.016,0,0.031,0,0.048,0
	c0.016,0,0.032,0,0.048,0c0.017,0,0.032,0,0.049,0c0.006,0.01-0.009,0.041,0,0.048c0.007,0.008,0.04-0.008,0.048,0
	c0.008,0.01-0.008,0.038,0,0.048c0.005,0.008,0.041-0.006,0.048,0c0.008,0.008-0.009,0.04,0,0.048c0.008,0.008,0.04-0.008,0.048,0
	c0.008,0.007-0.008,0.041,0,0.048c0.01,0.008,0.037-0.007,0.048,0c0.008,0.005-0.007,0.041,0,0.048c0.008,0.008,0.04-0.008,0.048,0
	s-0.008,0.04,0,0.047s0.041-0.008,0.048,0c0.008,0.01-0.007,0.038,0,0.048c0.006,0.008,0.042-0.007,0.049,0
	c0.008,0.008-0.007,0.039,0,0.048c0.006,0.008,0.041-0.007,0.048,0c0.008,0.008-0.007,0.039,0,0.048
	c0.007,0.011-0.007,0.037,0,0.048c0.005,0.008,0.041-0.006,0.048,0c0.008,0.008-0.008,0.04,0,0.048c0.008,0.008,0.04-0.008,0.048,0
	c0.008,0.007-0.008,0.041,0,0.048c0.01,0.008,0.038-0.007,0.048,0c0.008,0.005-0.006,0.041,0,0.048c0.009,0.008,0.04-0.008,0.049,0
	c0.008,0.008-0.009,0.04,0,0.048c0.007,0.008,0.04-0.008,0.048,0c0.008,0.01-0.008,0.038,0,0.048c0.005,0.008,0.041-0.007,0.048,0
	c0.008,0.008-0.009,0.04,0,0.048c0.008,0.008,0.04-0.008,0.048,0s-0.008,0.042,0,0.048c0.01,0.008,0.038-0.007,0.048,0
	c0.008,0.005-0.006,0.041,0,0.048c0.009,0.008,0.04-0.008,0.049,0c0.008,0.008-0.007,0.039,0,0.048c0.004,0.008,0.041-0.007,0.047,0
	c0.008,0.008-0.008,0.041,0,0.048s0.039-0.006,0.049,0c0.007,0.005-0.007,0.041,0,0.048c0.008,0.008,0.038-0.007,0.048,0
	c0-0.032,0-0.064,0-0.096s0-0.064,0-0.096c0-0.048,0-0.096,0-0.145c0-0.048,0-0.096,0-0.144c0.032,0,0.064,0,0.096,0
	c0.032,0,0.064,0,0.097,0c0.048,0,0.096,0,0.144,0c0.097,0,0.192,0,0.288,0c0,0.032,0,0.063,0,0.096s0,0.064,0,0.096
	c0,0.048,0,0.096,0,0.144c0,0.032,0,0.064,0,0.096c0,0.048,0,0.096,0,0.144c0,0.032,0,0.064,0,0.096c0,0.048,0,0.096,0,0.145
	c0,0.047,0,0.096,0,0.144c0,0.016,0,0.032,0,0.048c0,0.016-0.001,0.032,0,0.048c0.001,0.007-0.005,0.043,0,0.048
	c0.009,0.008,0.039-0.007,0.048,0c0.007,0.009-0.008,0.04,0,0.047c0.006,0.006,0.044-0.006,0.048,0c0.006,0.01,0,0.038,0,0.048
	c0.001,0.007-0.005,0.044,0,0.048c0.008,0.007,0.043-0.008,0.049,0c0.007,0.01-0.009,0.04,0,0.048c0.007,0.007,0.041-0.008,0.048,0
	c0.008,0.009-0.007,0.038,0,0.048c0.005,0.008,0.041-0.006,0.048,0c0.008,0.008-0.008,0.039,0,0.048c0.007,0.008,0.04-0.007,0.048,0
	c0.008,0.008-0.008,0.04,0,0.047c0.008,0.008,0.039-0.007,0.048,0c0.004,0.003,0,0.043,0,0.048c0,0.008-0.005,0.042,0,0.048
	c0.007,0.008,0.04-0.005,0.049,0c0.008,0.005-0.007,0.042,0,0.048c0.008,0.008,0.04-0.008,0.048,0c0.008,0.008-0.007,0.038,0,0.048
	c0.005,0.008,0.041-0.006,0.048,0c0.008,0.008-0.008,0.039,0,0.048c0.007,0.008,0.04-0.008,0.048,0s-0.006,0.038,0,0.048
	c0.007,0.011-0.007,0.037,0,0.048c0.006,0.008,0.042-0.007,0.048,0c0.009,0.008-0.007,0.04,0,0.048c0.007,0.008,0.041-0.008,0.049,0
	c0.008,0.007-0.009,0.041,0,0.048c0.009,0.008,0.037-0.007,0.047,0c0.008,0.005-0.006,0.042,0,0.048
	c0.008,0.008,0.042-0.008,0.049,0c0.007,0.009-0.009,0.04,0,0.048c0.006,0.006,0.044-0.007,0.048,0c0.005,0.009-0.001,0.037,0,0.048
	c0.001,0.007-0.005,0.043,0,0.048c0.007,0.007,0.042-0.008,0.048,0c0.008,0.01-0.007,0.038,0,0.048c0.005,0.008,0.041-0.007,0.048,0
	c0.008,0.008-0.008,0.04,0,0.048c0.008,0.008,0.039-0.006,0.048,0c0.008,0.005-0.006,0.042,0,0.048c0.009,0.008,0.038-0.007,0.049,0
	c0.001,0.016-0.001,0.032,0,0.048c0,0.007-0.005,0.043,0,0.048c0.006,0.007,0.043-0.007,0.048,0c0.006,0.01-0.008,0.04,0,0.048
	c0.008,0.008,0.04-0.008,0.048,0c0.008,0.008-0.008,0.041,0,0.048c0.008,0.008,0.039-0.007,0.048,0c0.008,0.006-0.007,0.041,0,0.048
	C11.267,4.519,11.297,4.505,11.307,4.511z M2.664,5.328c0,0.112,0,0.224,0,0.336c0,0.127,0,0.256,0,0.384c0,0.112,0,0.224,0,0.336
	c0,0.128,0,0.256,0,0.385c0.032,0,0.064,0,0.096,0c0.063,0,0.127,0,0.191,0c0.032,0,0.064,0,0.096,0c0.048,0,0.096,0,0.144,0
	c0.192,0,0.385,0,0.576,0c0-0.257,0-0.512,0-0.769c0-0.128,0-0.256,0-0.384c0-0.144,0-0.288,0-0.432c-0.032,0-0.064,0-0.096,0
	c-0.144,0-0.288,0-0.432,0c-0.032,0-0.064,0-0.096,0c-0.048,0-0.096,0-0.144,0c-0.096,0-0.192,0-0.288,0c-0.016,0-0.032,0-0.048,0
	C2.664,5.231,2.664,5.279,2.664,5.328z M5.016,5.328c0,0.24,0,0.48,0,0.72s0,0.48,0,0.721c0.032,0,0.064,0,0.096,0
	c0.064,0,0.128,0,0.192,0c0.031,0,0.063,0,0.096,0c0.048,0,0.096,0,0.145,0c0.191,0,0.384,0,0.576,0c0-0.257,0-0.512,0-0.769
	c0-0.128,0-0.256,0-0.384c0-0.064,0-0.128,0-0.192c0-0.032,0-0.064,0-0.096c0-0.048,0-0.096,0-0.144c-0.032,0-0.064,0-0.096,0
	c-0.144,0-0.289,0-0.433,0c-0.192,0-0.384,0-0.576,0C5.016,5.231,5.016,5.279,5.016,5.328z M6.025,8.017c-0.144,0-0.289,0-0.433,0
	c-0.192,0-0.384,0-0.576,0c0,0.048,0,0.097,0,0.145c0,0.416,0,0.832,0,1.248c0,0.432,0,0.864,0,1.297c0.032,0,0.064,0,0.096,0
	c0.144,0,0.288,0,0.433,0c0.191,0,0.384,0,0.576,0c0-0.449,0-0.896,0-1.345s0-0.896,0-1.345C6.089,8.017,6.057,8.017,6.025,8.017z
	 M2.664,8.353c0,0.479,0,0.961,0,1.44c0.032,0,0.064,0,0.096,0c0.063,0,0.127,0,0.191,0c0.032,0,0.064,0,0.096,0
	c0.048,0,0.096,0,0.144,0c0.192,0,0.385,0,0.576,0c0-0.527,0-1.056,0-1.584c-0.176,0-0.352,0-0.528,0c-0.032,0-0.064,0-0.096,0
	c-0.048,0-0.096,0-0.144,0c-0.096,0-0.192,0-0.288,0c-0.016,0-0.032,0-0.048,0C2.664,8.257,2.664,8.305,2.664,8.353z"/>
<rect fill-rule="evenodd" clip-rule="evenodd" fill="none" stroke="#000000" stroke-width="0.75" stroke-miterlimit="10" width="12" height="12"/>
</svg>
