<?xml version="1.0" encoding="utf-8"?>
<!-- Generator: Adobe Illustrator 15.1.0, SVG Export Plug-In . SVG Version: 6.00 Build 0)  -->
<!DOCTYPE svg PUBLIC "-//W3C//DTD SVG 1.1//EN" "http://www.w3.org/Graphics/SVG/1.1/DTD/svg11.dtd">
<svg version="1.1" id="Capa_1" xmlns="http://www.w3.org/2000/svg" xmlns:xlink="http://www.w3.org/1999/xlink" x="0px" y="0px"
	 width="12px" height="12px" viewBox="0 0 12 12" enable-background="new 0 0 12 12" xml:space="preserve">
<g>
	<ellipse cx="3.919" cy="1.573" rx="0.92" ry="0.92"/>
	<path d="M8.54,4.011L6.188,2.214c-0.364-0.278-0.855-0.192-1.134,0.15c0,0-0.599,0.77-0.62,0.834L3.834,4.225L2.829,4.632
		C2.593,4.717,2.486,4.996,2.572,5.23c0,0.021,0.021,0.043,0.043,0.064H2.55c-0.128,0-0.235,0.107-0.235,0.236
		S2.422,5.765,2.55,5.765H3v4.857c0,0.128,0.107,0.235,0.236,0.235c0.128,0,0.235-0.107,0.235-0.235V5.744h0.449
		c0.128,0,0.236-0.106,0.236-0.235S4.048,5.273,3.919,5.273H3.663l0.791-0.321l0.599-1.005l2.311,1.776l-1.113,2.16l-0.022,2.503
		c-0.042,0.258,0.15,0.535,0.449,0.535c0.216,0,0.407-0.149,0.449-0.385L7.107,8.291L7.6,7.263L7.364,8.312l0.449,2.16
		c0,0.257,0.214,0.472,0.449,0.472c0.257,0,0.449-0.215,0.449-0.472L8.263,8.461L8.926,5.53c0-0.021,0.022-0.064,0.022-0.086
		C9.14,4.931,8.989,4.354,8.54,4.011z"/>
</g>
</svg>
