<svg id="icon" xmlns="http://www.w3.org/2000/svg" viewBox="0 0 50 50"><title>Artboard 158</title><path d="M44.69,25.31,26.37,6.55a1.91,1.91,0,0,0-2.68,0L5.26,25.43a.88.88,0,0,0,0,1.24l1.41,1.44a.92.92,0,0,0,1.32,0l1.23-1.26V44H40.86V26.86L42,28a1.11,1.11,0,0,0,1.59,0l1.15-1.18A1.07,1.07,0,0,0,44.69,25.31ZM23.7,19a2.22,2.22,0,1,1-2.22,2.22A2.22,2.22,0,0,1,23.7,19Zm6.56,13.28a2.2,2.2,0,0,1-1.93-1l-.17,0a4,4,0,0,1-.57-.22c0,.17.07.35.11.52a2.24,2.24,0,0,1,0,1c.53,2.55,1.16,5.08,1.87,7.59a1.31,1.31,0,0,1-2.53.7q-.91-3.23-1.63-6.49h-.11a8.1,8.1,0,0,0-1.5,6c.25,1.65-2.27,2.36-2.53.69a11,11,0,0,1,2.08-8.39,29.77,29.77,0,0,1-.61-3.84,12.89,12.89,0,0,1-3.53,1.79c-1.61.52-2.3-2-.69-2.53a9.71,9.71,0,0,0,4.16-2.66,2.29,2.29,0,0,1,4.22-.16l.14,0a3.5,3.5,0,0,1,1.64,0,2.18,2.18,0,0,1,1.09-.36A2.24,2.24,0,0,1,32.13,27l.24,3A2.25,2.25,0,0,1,30.26,32.28Z"/><path d="M27.77,26.44a1.73,1.73,0,0,0-.68.15,25.06,25.06,0,0,0,.21,2.76,2.79,2.79,0,0,0,.59.43l-.21-2.58A1.94,1.94,0,0,1,27.77,26.44Z"/></svg>