<svg id="icon" xmlns="http://www.w3.org/2000/svg" viewBox="0 0 50 50"><defs><style>.cls-1{fill:#71bd43;}</style></defs><title>094 copia 8</title><path class="cls-1" d="M24.679,6.383A19.309,19.309,0,1,0,44,25.691,19.295,19.295,0,0,0,24.679,6.383ZM40.136,25.691a15.549,15.549,0,0,1-.187,2.409L33.526,13.018A15.427,15.427,0,0,1,40.136,25.691ZM24.691,10.244a15.373,15.373,0,0,1,8.462,2.522L25.294,31.513,17.139,12.365,9.811,29.845a15.463,15.463,0,0,1,14.88-19.6ZM10.537,31.881l5.083.021V38.2A15.482,15.482,0,0,1,10.537,31.881Zm8.279,8.1V31.915l6.3.026-.009.021,6.66.027v7.437a15.5,15.5,0,0,1-12.95.554Zm16.146-2.751V32l3.825.016A15.473,15.473,0,0,1,34.962,37.229Z"/></svg>