<svg id="icon" xmlns="http://www.w3.org/2000/svg" viewBox="0 0 50 50"><title>Artboard 165</title><path d="M44.69,25.31,26.37,6.55a1.91,1.91,0,0,0-2.68,0L5.26,25.43a.88.88,0,0,0,0,1.24l1.41,1.44a.92.92,0,0,0,1.32,0l1.23-1.26V44H40.86V26.86L42,28a1.11,1.11,0,0,0,1.59,0l1.15-1.18A1.07,1.07,0,0,0,44.69,25.31ZM29.2,36.25a6.27,6.27,0,0,1-2.54,1.17v1a1.62,1.62,0,0,1-3.23,0v-.79A11.72,11.72,0,0,1,20.09,37,1.63,1.63,0,0,1,19,35.48v-.1a1.64,1.64,0,0,1,2.19-1.55,9.23,9.23,0,0,0,1,.29,9.14,9.14,0,0,0,2.36.34,3.3,3.3,0,0,0,2-.49,1.66,1.66,0,0,0,.69-1.46,1.61,1.61,0,0,0-.3-1,3.39,3.39,0,0,0-.89-.81,24.32,24.32,0,0,0-2.38-1.25A10.72,10.72,0,0,1,21.07,28a5.7,5.7,0,0,1-1.35-1.7,4.89,4.89,0,0,1-.5-2.26,4.76,4.76,0,0,1,1.65-3.84A5.78,5.78,0,0,1,23.39,19V17.61a1.61,1.61,0,0,1,3.22,0v1.23a8.88,8.88,0,0,1,1.57.28c.36.09.72.2,1.08.32a1.65,1.65,0,1,1-1.05,3.12,9.7,9.7,0,0,0-1-.3A7.77,7.77,0,0,0,25.32,22a2.49,2.49,0,0,0-1.7.52A1.7,1.7,0,0,0,23,23.88a1.63,1.63,0,0,0,.24.9,2.58,2.58,0,0,0,.76.75,26.26,26.26,0,0,0,2.47,1.28A9.93,9.93,0,0,1,30,29.29a4.8,4.8,0,0,1,.95,3A4.73,4.73,0,0,1,29.2,36.25Z"/></svg>