<svg id="icon" xmlns="http://www.w3.org/2000/svg" viewBox="0 0 50 50"><title>Artboard 168</title><path d="M38.22,5H11.78C9.69,5,8,7,8,9.44V40.56C8,43,9.69,45,11.78,45H38.22C40.31,45,42,43,42,40.56V9.44C42,7,40.31,5,38.22,5Zm-9.8,4.82a3.42,3.42,0,0,1-6.84,0c0-.13,0-.25,0-.38h6.76C28.39,9.57,28.42,9.69,28.42,9.82Zm-7.74-.38c0,.13,0,.25,0,.38a4.36,4.36,0,0,0,8.72,0c0-.13,0-.25,0-.38h8.9V24H34V15.26a.76.76,0,0,0-.76-.76H16.76a.76.76,0,0,0-.76.76V24H11.78V9.44ZM18,26h2.77a4.34,4.34,0,0,0,8.46,0H32v7.5H18Zm10.25,0a3.39,3.39,0,0,1-6.5,0Zm-6.5-2a3.39,3.39,0,0,1,6.5,0Zm7.48,0a4.34,4.34,0,0,0-8.46,0H18V16.5H32V24ZM21.61,40.56a3.41,3.41,0,0,1,6.78,0Zm7.72,0a4.35,4.35,0,0,0-8.66,0H11.78V26H16v8.74a.76.76,0,0,0,.76.76H33.24a.76.76,0,0,0,.76-.76V26h4.22V40.56Z"/></svg>