<svg id="icon" xmlns="http://www.w3.org/2000/svg" viewBox="0 0 50 50"><title>Artboard 169</title><path d="M39.56,14.36v-3l1.86-.8a.56.56,0,0,0,0-1L38.2,8.09a.52.52,0,0,0-.71.51v5.09a37.42,37.42,0,0,0-4.69-1V9.82L34.66,9a.56.56,0,0,0,0-1l-3.23-1.4a.52.52,0,0,0-.71.51v5.34c-1.49-.16-3.06-.25-4.68-.29V8.77L27.9,8a.56.56,0,0,0,0-1L24.67,5.54a.52.52,0,0,0-.71.51v6.11c-1.63,0-3.22.13-4.73.29V9.82L21.09,9a.56.56,0,0,0,0-1L17.87,6.59a.52.52,0,0,0-.71.51v5.61a39.29,39.29,0,0,0-4.69,1V11.32l1.86-.8a.56.56,0,0,0,0-1L11.11,8.09a.52.52,0,0,0-.71.51v5.78C7.05,15.64,5,17.32,5,19.18H5V37.47c0,3.88,9,7,20,7s20-3.15,20-7V19.18h0C45,17.32,42.93,15.62,39.56,14.36ZM11.19,36.68a20.72,20.72,0,0,1-3.54-1.49v-2.5a1.23,1.23,0,0,1,.26.12,9.31,9.31,0,0,0,.9.53,19.32,19.32,0,0,0,2.38,1v2.32Zm0-7a20,20,0,0,1-3.54-1.48v-2.5a.68.68,0,0,1,.26.12,14.78,14.78,0,0,0,3.28,1.54v2.32Zm27.58-2.3a15.54,15.54,0,0,0,3.16-1.45.7.7,0,0,1,.23-.11v2.48a20.39,20.39,0,0,1-3.39,1.39V27.34ZM14.38,30.49c-.39-.08-.76-.17-1.12-.26V28c.49.13,1,.25,1.53.37.86.18,1.77.34,2.7.48V31l-.31,0C16.22,30.85,15.28,30.68,14.38,30.49Zm5.19.21V29.06c1.42.15,2.9.23,4.39.26v2.21c-1.49,0-3-.11-4.39-.25ZM26,30.45V29.32c1.49,0,2.95-.11,4.35-.25v2.22c-1.42.13-2.88.22-4.35.24V30.45Zm6.43.49V28.82A39.08,39.08,0,0,0,36.7,28v2.26l-1.25.29c-.85.17-1.73.33-2.63.46l-.35.05Zm6.3,3.44a17.92,17.92,0,0,0,2.43-1l.73-.42a1,1,0,0,1,.24-.11v2.48a20.15,20.15,0,0,1-3.4,1.4V34.38Zm1.95-14.52A17.28,17.28,0,0,1,37,21.38,44.2,44.2,0,0,1,25,22.9a44.2,44.2,0,0,1-12-1.52,17.28,17.28,0,0,1-3.69-1.52,5.64,5.64,0,0,1-.94-.68,6.29,6.29,0,0,1,.94-.68A17.28,17.28,0,0,1,13,17a44.2,44.2,0,0,1,12-1.52A44.2,44.2,0,0,1,37,17a17.28,17.28,0,0,1,3.69,1.52,5.64,5.64,0,0,1,.94.68A5.11,5.11,0,0,1,40.72,19.86ZM14.13,37.47l-.87-.21V35q.74.19,1.53.36c.86.19,1.77.35,2.7.49v2.22c-1.07-.15-2.12-.33-3.11-.55A1.87,1.87,0,0,1,14.13,37.47Zm5.44,0V36.09c1.42.15,2.9.23,4.39.26v2.21c-1.49,0-3-.11-4.39-.25Zm6.47,0V36.35c1.49,0,2.95-.11,4.35-.25v2.21c-1.42.14-2.88.23-4.35.25V37.47Zm9.41.09c-1,.2-2,.37-3,.52V35.85A39.08,39.08,0,0,0,36.7,35v2.27l-.83.19Z"/></svg>