<svg id="icon" xmlns="http://www.w3.org/2000/svg" viewBox="0 0 50 50"><title>Artboard 171</title><path d="M25,5A20,20,0,1,0,45,25,20,20,0,0,0,25,5Zm1.27,6.5,5.14-2.77a17.69,17.69,0,0,1,7.23,5.33l-1.23,5.65-3.92,1.93-7.22-5.26ZM18.63,8.72l5.14,2.77v4.89l-7.21,5.26-3.94-1.93L11.39,14A17.65,17.65,0,0,1,18.63,8.72Zm-8,26.17a17.31,17.31,0,0,1-3-8.19l4.23-4.6L15.68,24l2.91,8.26-2.46,2.94Zm18.88,7a17.32,17.32,0,0,1-4.46.6,17.57,17.57,0,0,1-5.35-.84l-1.57-4.9,2.51-3h8.83l2.46,2.92Zm4.38-6.79-2.42-2.86L34.37,24l3.84-1.88,4.2,4.59a17.32,17.32,0,0,1-2.36,7.18Z"/></svg>