<svg id="icon" xmlns="http://www.w3.org/2000/svg" viewBox="0 0 50 50"><title>Artboard 167</title><path d="M23.26,16.26a2.63,2.63,0,1,0-2.63-2.63A2.64,2.64,0,0,0,23.26,16.26Z"/><path d="M14.72,26.11A1.31,1.31,0,0,0,16,24.8V21.64l2.37-.92L15,37.69a1.31,1.31,0,0,0,1.28,1.56h.11a1.33,1.33,0,0,0,1.29-1l2.13-9.49,2.75,2.63v6.57a1.32,1.32,0,0,0,2.63,0V30.53a2.63,2.63,0,0,0-.81-1.91l-2-1.85.79-3.94A9.67,9.67,0,0,0,29,26a1.31,1.31,0,0,0,.38-2.6,6.38,6.38,0,0,1-4.53-3.06l-1.32-2.1A2.81,2.81,0,0,0,20,17.12l-5,2.13a2.65,2.65,0,0,0-1.6,2.43V24.8A1.31,1.31,0,0,0,14.72,26.11Z"/><circle cx="31.5" cy="34.5" r="3.5"/><path d="M45,6.5a1.36,1.36,0,0,0-.49-1,1.36,1.36,0,0,0-1-.49l-.14,0-.22,0H6.86L6.64,5,6.5,5a1.36,1.36,0,0,0-1,.49A1.36,1.36,0,0,0,5,6.5a.68.68,0,0,0,0,.14,1.5,1.5,0,0,0,0,.22V43.14A1.71,1.71,0,0,0,6.5,45a1.75,1.75,0,0,0,.32,0,2.72,2.72,0,0,0,.42,0H43.16l.21,0,.13,0a1.36,1.36,0,0,0,1-.43A1.39,1.39,0,0,0,45,43.5a.68.68,0,0,0,0-.14,1.5,1.5,0,0,0,0-.22V6.86a1.5,1.5,0,0,0,0-.22A.68.68,0,0,0,45,6.5ZM42,42H8V8H42Z"/></svg>