<?xml version="1.0" encoding="utf-8"?>
<!-- Generator: Adobe Illustrator 15.1.0, SVG Export Plug-In . SVG Version: 6.00 Build 0)  -->
<!DOCTYPE svg PUBLIC "-//W3C//DTD SVG 1.1//EN" "http://www.w3.org/Graphics/SVG/1.1/DTD/svg11.dtd">
<svg version="1.1" id="Capa_1" xmlns="http://www.w3.org/2000/svg" xmlns:xlink="http://www.w3.org/1999/xlink" x="0px" y="0px"
	 width="24.5px" height="12px" viewBox="-12.5 0 24.5 12" enable-background="new -12.5 0 24.5 12" xml:space="preserve">
<path d="M4.542,10.833H-5.5c-2.895,0-5.25-2.178-5.25-4.854s2.355-4.854,5.25-4.854H4.542c2.895,0,5.25,2.178,5.25,4.854
	S7.437,10.833,4.542,10.833z M-5.5,1.625c-2.619,0-4.75,1.953-4.75,4.354s2.131,4.354,4.75,4.354H4.542
	c2.619,0,4.75-1.953,4.75-4.354s-2.131-4.354-4.75-4.354H-5.5z"/>
<path d="M0.296,3.728c0.354,0,0.642-0.286,0.642-0.64S0.651,2.446,0.296,2.446c-0.353,0-0.642,0.288-0.642,0.642
	C-0.344,3.441-0.057,3.728,0.296,3.728z M0.324,5.284h1.24c0.383,0,0.383-0.501,0-0.501l-1.07,0.002l-0.705-1.104
	c0,0-0.149-0.248-0.433-0.248c0,0-0.235-0.031-0.402,0.16l-1.357,1.358C-2.491,5.046-2.54,5.172-2.54,5.311
	c0,0.2,0.111,0.377,0.276,0.468l1.381,0.768v1.444c0,0.205,0.165,0.371,0.369,0.371s0.371-0.166,0.371-0.371V6.187
	c0,0,0.049-0.288-0.279-0.445l-0.797-0.419l0.859-0.852l0.417,0.652C0.13,5.239,0.231,5.286,0.324,5.284L0.324,5.284z M2.031,6.014
	c-0.966,0-1.75,0.78-1.75,1.747c0,0.969,0.784,1.75,1.75,1.75c0.964,0,1.748-0.781,1.748-1.75C3.779,6.794,2.996,6.014,2.031,6.014z
	 M2.03,9.034c-0.701,0-1.272-0.57-1.272-1.273c0-0.701,0.57-1.271,1.272-1.271c0.701,0,1.272,0.569,1.272,1.271
	C3.302,8.464,2.731,9.034,2.03,9.034z M-2.99,6.014c-0.963,0-1.748,0.78-1.748,1.747c0,0.969,0.784,1.75,1.748,1.75
	c0.967,0,1.75-0.781,1.75-1.75C-1.24,6.794-2.023,6.014-2.99,6.014z M-2.99,9.034c-0.701,0-1.271-0.57-1.27-1.273
	c0-0.701,0.569-1.271,1.27-1.271c0.703,0,1.273,0.569,1.273,1.271C-1.717,8.464-2.287,9.034-2.99,9.034z"/>
</svg>
