<svg id="icon" xmlns="http://www.w3.org/2000/svg" viewBox="0 0 50 50"><defs><style>.cls-1{fill:#020001;}</style></defs><title>Artboard 174</title><path class="cls-1" d="M45.27,26a3.4,3.4,0,0,0-4.08-2.53L7.4,30.73a3.34,3.34,0,1,0,1.41,6.52l6.82-1.47A19.06,19.06,0,0,0,10.27,44a.93.93,0,0,0,.88,1.22l2.65,0,2.84,0,18.5-.24,3.18,0,2.65,0a.91.91,0,0,0,.84-1.23A18,18,0,0,0,30.9,32.48L42.6,30A3.41,3.41,0,0,0,45.27,26ZM35.44,40.12l-18.89.25a12.61,12.61,0,0,1,9.39-4.57A12.64,12.64,0,0,1,35.44,40.12Z"/><path class="cls-1" d="M9.76,19.25A3.8,3.8,0,1,0,6.58,15,3.78,3.78,0,0,0,9.76,19.25Z"/><path class="cls-1" d="M12.93,19.33l-3.9.9a1.28,1.28,0,0,0-.91,1.66l2,5.71a1.25,1.25,0,0,0,1.46.82l2.56-.6a1.26,1.26,0,0,0,1-1.37l-.61-6A1.25,1.25,0,0,0,12.93,19.33Z"/><path class="cls-1" d="M36.76,13.25A3.8,3.8,0,1,0,33.58,9,3.78,3.78,0,0,0,36.76,13.25Z"/><path class="cls-1" d="M39.93,13.33l-3.9.9a1.28,1.28,0,0,0-.91,1.66l2,5.71a1.25,1.25,0,0,0,1.46.82l2.56-.6a1.26,1.26,0,0,0,1-1.37l-.61-6A1.25,1.25,0,0,0,39.93,13.33Z"/></svg>