<svg id="icon" xmlns="http://www.w3.org/2000/svg" viewBox="0 0 50 50"><title>Artboard 170</title><g id="directions-bike"><path d="M31.78,13.251a3.013,3.013,0,1,0-3.013-3.013A3,3,0,0,0,31.78,13.251ZM36.8,25.3a8.369,8.369,0,1,0,8.369,8.369A8.287,8.287,0,0,0,36.8,25.3Zm0,14.227a5.858,5.858,0,1,1,5.859-5.858A5.93,5.93,0,0,1,36.8,39.529ZM29.772,21.955H36.8V18.942H31.445l-3.18-5.524a2.938,2.938,0,0,0-4.519-.5l-6.193,6.193a2.773,2.773,0,0,0-.837,2.009,2.95,2.95,0,0,0,1.339,2.51l5.691,3.348v8.369h3.013V24.465L23.077,21.62l3.849-3.85ZM13.369,25.3a8.369,8.369,0,0,0,0,16.738,8.369,8.369,0,0,0,0-16.738Zm0,14.227a5.858,5.858,0,1,1,0-11.716,5.858,5.858,0,0,1,0,11.716Z"/></g></svg>