<svg id="icon" xmlns="http://www.w3.org/2000/svg" viewBox="0 0 50 50"><title>Artboard 173</title><path d="M45,15.81c0-2.38-8.88-4.31-19.84-4.31S5.32,13.43,5.32,15.81V34.18c0,2.39,8.88,4.32,19.84,4.32S45,36.57,45,34.18Zm-3.14,4,.86-.24V20.9l-.86.24ZM7.44,19.49l.88.25v1.32l-.88-.25ZM8.77,34.56,7,34.06V30.13s.12-1.12.91-.89.89,1.41.89,1.41Zm0-7c-.7-.19-1.06-.29-1.8-.51V23.18s.12-1.12.91-.9.89,1.41.89,1.41Zm4.77,8c-.72-.13-1.07-.19-1.75-.35V31.38s.09-1.13.86-1,.89,1.33.89,1.33Zm0-7c-.72-.12-1.07-.18-1.75-.33V24.43s.09-1.13.86-1,.89,1.33.89,1.33ZM12.23,22V20.7l.86.16v1.32Zm6.89,14.25c-1-.05-1.41-.09-2.23-.17V32.17S17,31,18,31.11s1.16,1.24,1.16,1.24Zm0-7c-1-.06-1.41-.08-2.23-.16V25.22S17,24.08,18,24.15s1.17,1.24,1.17,1.24v3.92Zm-1.69-6.54V21.44l1.09.09v1.32Zm9,13.65c-1.09,0-1.65,0-2.73,0V32.5A1.33,1.33,0,0,1,25,31.35a1.38,1.38,0,0,1,1.38,1.15Zm0-6.94H23.65V25.55A1.34,1.34,0,0,1,25,24.4a1.39,1.39,0,0,1,1.38,1.15Zm-2-6.43V21.73h1.33v1.32Zm8.9,13.07c-.85.08-1.32.11-2.3.17V32.37s.17-1.16,1.18-1.24,1.12,1.07,1.12,1.07v3.92Zm0-6.95c-.85.08-1.32.12-2.3.17V25.42s.17-1.17,1.18-1.24,1.12,1.07,1.12,1.07v3.92Zm-1.68-6.3V21.55l1.12-.07V22.8Zm6.83,12.49c-.69.14-1,.22-1.76.33V31.77s.1-1.16.88-1.31.88,1,.88,1v3.92Zm0-6.94c-.69.14-1,.2-1.76.32V24.82s.1-1.16.88-1.31.88,1,.88,1v3.93Zm-1.3-6.18V20.92l.86-.17v1.33ZM25.16,19.39c-9.09,0-16.45-1.6-16.45-3.58s7.36-3.58,16.45-3.58,16.45,1.61,16.45,3.58S34.25,19.39,25.16,19.39Zm18,14.75c-.73.22-1.08.32-1.78.5V30.72s.1-1.18.87-1.4.91.9.91.9v3.92Zm0-6.95-1.78.5V23.77s.1-1.18.87-1.4.91.9.91.9v3.92Z"/></svg>