<svg id="icon" xmlns="http://www.w3.org/2000/svg" viewBox="0 0 50 50"><title>Artboard 176</title><rect x="5.4" y="36.34" width="2.07" height="3.04" rx="0.65"/><rect x="8.5" y="36.34" width="2.78" height="5.36" rx="1.1"/><rect x="12.62" y="36.34" width="2.78" height="6.33" rx="1.1"/><rect x="16.61" y="36.34" width="2.78" height="8.79" rx="1.1"/><rect x="42.53" y="36.34" width="2.07" height="3.04" rx="0.65"/><rect x="38.72" y="36.34" width="2.78" height="5.36" rx="1.1"/><rect x="34.6" y="36.34" width="2.78" height="6.33" rx="1.1"/><rect x="30.61" y="36.34" width="2.78" height="8.79" rx="1.1"/><path d="M6.5,35h37a1.5,1.5,0,0,0,0-3H32.21V27.08a.06.06,0,0,1,.06,0h1.9A1.38,1.38,0,0,0,35,26.8a.66.66,0,0,0,.34-.54v-.44a.14.14,0,0,0,0-.07L25.92,15.23l0,0a1.7,1.7,0,0,0-.34-.12V13.77L33.37,11a.32.32,0,0,0,0-.61l-7.55-2.7a1.52,1.52,0,0,0,.51-1.13A1.55,1.55,0,1,0,24,7.88v7.44L14.7,25.75a.08.08,0,0,1,0,0s0,0,0,0v.44a.66.66,0,0,0,.34.54,1.38,1.38,0,0,0,.81.23H18a.06.06,0,0,1,.06,0V32H6.5a1.5,1.5,0,0,0,0,3Z"/></svg>