<svg id="icon" xmlns="http://www.w3.org/2000/svg" viewBox="0 0 50 50"><title>Artboard 172</title><path d="M24.87,16.62a3,3,0,1,0-3-3A3,3,0,0,0,24.87,16.62Z"/><path d="M43.23,5.34h-.67a1.78,1.78,0,0,0-1.77,1.78V8.65H9.21V7.12A1.78,1.78,0,0,0,7.44,5.34H6.77A1.78,1.78,0,0,0,5,7.12v4.67a1.77,1.77,0,0,0,1.77,1.77h.67a1.77,1.77,0,0,0,1.77-1.77V10.25h3.55A1.52,1.52,0,0,0,13,11.94l7.8,7.81V43a1.69,1.69,0,1,0,3.37,0V31.6h1.37V43A1.69,1.69,0,1,0,29,43V19.75l7.8-7.81A1.52,1.52,0,0,0,37,10.25h3.76v1.54a1.77,1.77,0,0,0,1.77,1.77h.67A1.77,1.77,0,0,0,45,11.79V7.12A1.78,1.78,0,0,0,43.23,5.34Zm-16.12,12H22.73l-7-7H34.1Z"/></svg>