<svg id="icon" xmlns="http://www.w3.org/2000/svg" viewBox="0 0 50 50"><defs><style>.cls-1{fill:#040305;}</style></defs><title>Artboard 190</title><path class="cls-1" d="M41.4,22.56H24v-8l.26-.06,1.2-.43a12,12,0,0,1,1.28-.37,4.6,4.6,0,0,1,.91-.13,7.11,7.11,0,0,1,1.42.18c.57.14,1.18.29,1.8.47s1.22.33,1.77.46A5.86,5.86,0,0,0,34,14.9a7.36,7.36,0,0,0,1.67-.2.31.31,0,0,0,.24-.3V7.79a.3.3,0,0,0-.4-.28A4.88,4.88,0,0,1,34,7.74a5.51,5.51,0,0,1-1.37-.2c-.55-.1-1.13-.27-1.77-.45a16.17,16.17,0,0,0-1.75-.45,5.51,5.51,0,0,0-1.38-.2A11.27,11.27,0,0,0,24,7.18V6a1,1,0,0,0-1-1H22a1,1,0,0,0-1,1V22.56H7.75c-.14,0-.25.15-.25.34V44.66c0,.19.11.34.25.34H18.9c.14,0,.25-.15.25-.34V41.27c0-.19.11-.34.24-.34H29.61c.13,0,.24.15.24.34v3.39c0,.19.11.34.25.34H41.4c.14,0,.25-.15.25-.34V22.9C41.65,22.71,41.54,22.56,41.4,22.56Z"/></svg>