<svg id="icon" xmlns="http://www.w3.org/2000/svg" viewBox="0 0 50 50"><title>Artboard 180</title><path d="M44.37,19.15a1,1,0,0,0-.51-.65,1,1,0,0,0-.81-.06,32.81,32.81,0,0,1-10.14,1.37c-1,0-2,0-2.89-.1a22.1,22.1,0,0,1-2.24,5.95h.14c1.28,0,2.31-.11,2.31.75a2.67,2.67,0,0,1-2.31,2.36,2.84,2.84,0,0,1-1.82-.6,13.71,13.71,0,0,1-4.41,3.66c1.85,6.23,6.18,10.6,11.22,10.6,6.73,0,12.19-7.78,12.19-17.38A23.82,23.82,0,0,0,44.37,19.15Zm-6.6,18.19a.26.26,0,0,1-.18.2.27.27,0,0,1-.26,0,7,7,0,0,0-4.42-1.33,7,7,0,0,0-4.41,1.33.27.27,0,0,1-.26,0,.26.26,0,0,1-.18-.2,4.34,4.34,0,0,1-.13-1,5,5,0,1,1,10,0A4.34,4.34,0,0,1,37.77,37.34Zm.14-8.58a2.68,2.68,0,0,1-2.32-2.36c0-.86,1-.75,2.32-.75s2.31.7,2.31,1.56S39.18,28.76,37.91,28.76Z"/><path d="M29.27,14.24a24.3,24.3,0,0,0-.72-5.89,1,1,0,0,0-1-.77,1,1,0,0,0-.34.06A32.73,32.73,0,0,1,17.09,9,32.81,32.81,0,0,1,7,7.64a.92.92,0,0,0-.33-.06,1,1,0,0,0-.48.12,1,1,0,0,0-.51.65,23.82,23.82,0,0,0-.73,5.89c0,9.6,5.46,17.38,12.19,17.38S29.27,23.84,29.27,14.24ZM17.09,28.33a5,5,0,0,1-5-5,4.49,4.49,0,0,1,.13-1,.27.27,0,0,1,.18-.19.25.25,0,0,1,.26.05,7.09,7.09,0,0,0,4.42,1.32,7.08,7.08,0,0,0,4.41-1.32.27.27,0,0,1,.44.14,4.49,4.49,0,0,1,.13,1A5,5,0,0,1,17.09,28.33ZM14.37,15.88a2.66,2.66,0,1,1-2.65-2.65A2.65,2.65,0,0,1,14.37,15.88Zm9.6,0a2.66,2.66,0,1,1-2.65-2.65A2.66,2.66,0,0,1,24,15.88Z"/></svg>