<svg id="icon" xmlns="http://www.w3.org/2000/svg" viewBox="0 0 50 50"><title>Artboard 186</title><path d="M25,5A20,20,0,1,0,45,25,20.06,20.06,0,0,0,25,5Zm0,37A17,17,0,1,1,42,25,17,17,0,0,1,25,42Z"/><path d="M30,16.74a10.83,10.83,0,0,1-2.8-2.37L27,14.2a4.6,4.6,0,0,1-1-1.76,1.06,1.06,0,0,0-2.1.15v18.8a6,6,0,0,0-3.16-.87c-2.91,0-5.28,1.9-5.28,4.22S17.87,39,20.78,39s5.27-1.89,5.27-4.22V22.45a7.55,7.55,0,0,1,4.89,5.75,5.89,5.89,0,0,1-.41.57,1.06,1.06,0,0,0,1.59,1.39,8,8,0,0,0,.77-1.08A.61.61,0,0,0,33,29a11.44,11.44,0,0,0,1.53-5,7,7,0,0,0-.74-3.48A10,10,0,0,0,30,16.74Z"/></svg>