<svg id="icon" xmlns="http://www.w3.org/2000/svg" viewBox="0 0 50 50"><defs><style>.cls-1{fill:#cca300;}</style></defs><title>098 copia 8</title><path class="cls-1" d="M12.822,36c.008.07.015.141.024.212a9.121,9.121,0,0,0,4.347,6.676,5.558,5.558,0,0,1,.874.734.964.964,0,0,1,.243,1.159c-.244.543-.125.651.662.653q2.8,0,5.609,0c1.889,0,3.777,0,5.665,0,.738,0,.868-.126.64-.644a1.043,1.043,0,0,1,.348-1.3c.294-.261.643-.488.943-.745A17.181,17.181,0,0,0,34.258,40.9,8.982,8.982,0,0,0,36.405,36Z"/><path class="cls-1" d="M35.69,31.383a16.629,16.629,0,0,0-4.66-6.07,11.846,11.846,0,0,1-3.33-4.519c-.687-1.836-1.194-3.684-.394-5.577q.574-1.364,1.175-2.72c.278-.627-.119-1.056-1.019-1.058q-2.86-.006-5.721,0c-.938,0-1.327.426-1.024,1.084s.623,1.309.889,1.974a6.524,6.524,0,0,1,.615,3.651,11.3,11.3,0,0,1-3.077,6.216c-.972.976-2.008,1.919-2.937,2.917A13.083,13.083,0,0,0,13.256,32H35.909Q35.808,31.693,35.69,31.383Z"/><circle class="cls-1" cx="24.614" cy="7.937" r="2.5"/><circle class="cls-1" cx="30.114" cy="7.937" r="2.5"/><circle class="cls-1" cx="19.114" cy="7.937" r="2.5"/></svg>