<svg id="icon" xmlns="http://www.w3.org/2000/svg" viewBox="0 0 50 50"><title>Artboard 184</title><path d="M10.91,37.87H39.09c.23,0,.41-.25.41-.55V35.9a.5.5,0,0,0-.36-.53c-.82-14-6.83-23.24-14.14-23.24S11.68,21.38,10.86,35.37a.5.5,0,0,0-.36.53v1.42C10.5,37.62,10.68,37.87,10.91,37.87ZM25,13.83c5.94,0,9.54,8.49,10.11,21.52H14.41C15,22.32,19.07,13.83,25,13.83Z"/><path d="M45,6.5a1.36,1.36,0,0,0-.49-1,1.36,1.36,0,0,0-1-.49l-.14,0-.22,0H6.86L6.64,5,6.5,5a1.36,1.36,0,0,0-1,.49A1.36,1.36,0,0,0,5,6.5a.68.68,0,0,0,0,.14,1.5,1.5,0,0,0,0,.22V43.14A1.71,1.71,0,0,0,6.5,45a1.75,1.75,0,0,0,.32,0,2.72,2.72,0,0,0,.42,0H43.16l.21,0,.13,0a1.36,1.36,0,0,0,1-.43A1.39,1.39,0,0,0,45,43.5a.68.68,0,0,0,0-.14,1.5,1.5,0,0,0,0-.22V6.86a1.5,1.5,0,0,0,0-.22A.68.68,0,0,0,45,6.5ZM42,42H8V8H42Z"/><path d="M29.37,23.75H20.26a4.87,4.87,0,0,0,4.55,5.07A4.87,4.87,0,0,0,29.37,23.75Z"/><rect x="18.46" y="27.09" width="1.65" height="4.95" rx="0.8" transform="translate(-15.26 22.33) rotate(-45.05)"/><rect x="22.07" y="30.35" width="4.95" height="1.65" rx="0.8"/><rect x="27.52" y="28.74" width="4.95" height="1.65" rx="0.8" transform="translate(-12.12 29.83) rotate(-44.95)"/></svg>