<svg id="icon" xmlns="http://www.w3.org/2000/svg" viewBox="0 0 50 50"><defs><style>.cls-1{fill:#cca300;}</style></defs><title>Artboard 181</title><path class="cls-1" d="M26.775,38.342a.834.834,0,0,0,.733-.906V21.29a.834.834,0,0,0-.733-.906H23.36a.834.834,0,0,0-.733.906V37.436a.834.834,0,0,0,.733.906Z"/><path class="cls-1" d="M36,16.126a5.361,5.361,0,0,1-.656-.041,5.057,5.057,0,0,1-1.3-.344,4.913,4.913,0,0,1-1.132-.656,4.767,4.767,0,0,1-.895-.905c-.023-.029-.044-.06-.066-.09H18.046c-.022.03-.043.061-.066.09a4.767,4.767,0,0,1-.895.905,4.913,4.913,0,0,1-1.132.656,5.057,5.057,0,0,1-1.3.344,5.23,5.23,0,0,1-1.381-.01,5.6,5.6,0,0,1-.648-.134v2.12a.968.968,0,0,0,.967.967H36.41a.968.968,0,0,0,.967-.967v-2.12a5.6,5.6,0,0,1-.648.134A5.145,5.145,0,0,1,36,16.126Z"/><path class="cls-1" d="M39.522,9.733A4.261,4.261,0,0,0,39.2,8.656a4.432,4.432,0,0,0-.612-.986,4.569,4.569,0,0,0-.876-.817,4.736,4.736,0,0,0-1.09-.577A4.824,4.824,0,0,0,35.422,6H14.578a4.824,4.824,0,0,0-1.2.276,4.736,4.736,0,0,0-1.09.577,4.569,4.569,0,0,0-.876.817,4.432,4.432,0,0,0-.612.986,4.249,4.249,0,0,0-.323,1.077,4.108,4.108,0,0,0-.029,1.087,3.951,3.951,0,0,0,.248,1.022,3.867,3.867,0,0,0,.488.889,3.765,3.765,0,0,0,.68.7,3.634,3.634,0,0,0,.808.483,3.476,3.476,0,0,0,.872.243,3.273,3.273,0,0,0,.868,0,3.189,3.189,0,0,0,.8-.213,3.056,3.056,0,0,0,.688-.4,2.908,2.908,0,0,0,.533-.541,2.735,2.735,0,0,0,.353-.629,2.643,2.643,0,0,0,.166-.666,2.479,2.479,0,0,0-.016-.648A2.141,2.141,0,0,0,15.818,9.5a1.61,1.61,0,0,0-1.307-.085c-.491.2-1.016.842-.663,1.37.274.406.784.425.765,1.059a.971.971,0,0,1-.593.85,1.408,1.408,0,0,1-1.446-.425,2.765,2.765,0,0,1-.513-3.033,3.325,3.325,0,0,1,3.227-1.851,3.71,3.71,0,0,1,.968.2,3.842,3.842,0,0,1,.912.465,4.043,4.043,0,0,1,.781.716,4.161,4.161,0,0,1,.58.928,4.312,4.312,0,0,1,.324,1.082,4.492,4.492,0,0,1,.038,1.041H31.109a4.492,4.492,0,0,1,.038-1.041,4.271,4.271,0,0,1,.324-1.082,4.161,4.161,0,0,1,.58-.928,4.043,4.043,0,0,1,.781-.716,3.842,3.842,0,0,1,.912-.465,3.71,3.71,0,0,1,.968-.2,3.325,3.325,0,0,1,3.227,1.851,2.765,2.765,0,0,1-.513,3.033,1.408,1.408,0,0,1-1.446.425.971.971,0,0,1-.593-.85c-.019-.634.491-.653.765-1.059.353-.528-.172-1.173-.663-1.37a1.61,1.61,0,0,0-1.307.085,2.141,2.141,0,0,0-1.123,1.572,2.485,2.485,0,0,0-.016.649,2.646,2.646,0,0,0,.166.665,2.773,2.773,0,0,0,.353.629,2.878,2.878,0,0,0,.533.541,3.056,3.056,0,0,0,.688.4,3.147,3.147,0,0,0,.8.213,3.273,3.273,0,0,0,.868,0,3.476,3.476,0,0,0,.872-.243,3.669,3.669,0,0,0,.808-.482,3.8,3.8,0,0,0,.68-.7,3.909,3.909,0,0,0,.489-.889,3.99,3.99,0,0,0,.247-1.022A4.108,4.108,0,0,0,39.522,9.733Z"/><path class="cls-1" d="M35.2,38.342a.834.834,0,0,0,.733-.906V21.29a.834.834,0,0,0-.733-.906H31.783a.834.834,0,0,0-.733.906V37.436a.834.834,0,0,0,.733.906Z"/><path class="cls-1" d="M18.352,38.342a.834.834,0,0,0,.733-.906V21.29a.834.834,0,0,0-.733-.906H14.937a.834.834,0,0,0-.733.906V37.436a.834.834,0,0,0,.733.906Z"/><rect class="cls-1" x="12.623" y="39.435" width="24.754" height="4.565" rx="0.9"/></svg>