<svg id="icon" xmlns="http://www.w3.org/2000/svg" viewBox="0 0 50 50"><title>095 copia 7</title><path d="M25,5.11a20,20,0,0,0,0,40,3.33,3.33,0,0,0,3.33-3.33,3.38,3.38,0,0,0-.86-2.25A3.31,3.31,0,0,1,30,34h3.93A11.12,11.12,0,0,0,45,22.89C45,13.07,36,5.11,25,5.11Zm-12.22,20a3.34,3.34,0,1,1,3.33-3.33A3.33,3.33,0,0,1,12.78,25.11Zm6.66-8.89a3.33,3.33,0,1,1,3.34-3.33A3.33,3.33,0,0,1,19.44,16.22Zm11.12,0a3.33,3.33,0,1,1,3.33-3.33A3.33,3.33,0,0,1,30.56,16.22Zm6.66,8.89a3.34,3.34,0,1,1,3.34-3.33A3.33,3.33,0,0,1,37.22,25.11Z"/></svg>