<svg id="icon" xmlns="http://www.w3.org/2000/svg" viewBox="0 0 50 50"><title>Artboard 183</title><path d="M45,6.5a1.36,1.36,0,0,0-.49-1,1.36,1.36,0,0,0-1-.49l-.14,0-.22,0H6.86L6.64,5,6.5,5a1.36,1.36,0,0,0-1,.49A1.36,1.36,0,0,0,5,6.5a.68.68,0,0,0,0,.14,1.5,1.5,0,0,0,0,.22V43.14A1.71,1.71,0,0,0,6.5,45a1.75,1.75,0,0,0,.32,0,2.72,2.72,0,0,0,.42,0H43.16l.21,0,.13,0a1.36,1.36,0,0,0,1-.43A1.39,1.39,0,0,0,45,43.5a.68.68,0,0,0,0-.14,1.5,1.5,0,0,0,0-.22V6.86a1.5,1.5,0,0,0,0-.22A.68.68,0,0,0,45,6.5ZM42,42H8V8H42Z"/><path d="M25.34,26.63c5,0,9.1-4.58,9.1-10.13H16.24C16.24,22.05,20.36,26.63,25.34,26.63Z"/><rect x="12.64" y="23.18" width="3.31" height="9.91" rx="1.61" transform="translate(-15.71 18.36) rotate(-45.03)"/><rect x="19.85" y="29.69" width="9.91" height="3.31" rx="1.61"/><rect x="30.75" y="26.48" width="9.91" height="3.31" rx="1.61" transform="translate(-9.44 33.47) rotate(-44.97)"/></svg>