<svg id="icon" xmlns="http://www.w3.org/2000/svg" viewBox="0 0 50 50"><title>Artboard 178</title><path d="M8.46,41H40.8a.52.52,0,0,0,.46-.55V39a.52.52,0,0,0-.46-.55H8.46A.52.52,0,0,0,8,39v1.44A.52.52,0,0,0,8.46,41Z"/><path d="M43.52,42.46H5.74a.82.82,0,0,0-.74.88v.78a.82.82,0,0,0,.74.88H43.52a.82.82,0,0,0,.74-.88v-.78A.82.82,0,0,0,43.52,42.46Z"/><path d="M8.77,17.55H40.49a.85.85,0,0,0,.77-.92v-.7a.85.85,0,0,0-.77-.92H8.77a.85.85,0,0,0-.77.92v.7A.85.85,0,0,0,8.77,17.55Z"/><path d="M8.75,13.58H40.51c.17,0,.22-.28.06-.36L24.69,5a.09.09,0,0,0-.12,0L8.69,13.22C8.53,13.3,8.58,13.58,8.75,13.58Zm15.88-6.2a2.12,2.12,0,0,1,1.92,2.28,2.12,2.12,0,0,1-1.92,2.28,2.12,2.12,0,0,1-1.92-2.28A2.12,2.12,0,0,1,24.63,7.38Z"/><path d="M11,21V35a2,2,0,0,0,4,0V21a2,2,0,0,0-4,0Z"/><path d="M18.67,21V35a2,2,0,0,0,4,0V21a2,2,0,0,0-4,0Z"/><path d="M26.33,21V35a2,2,0,0,0,4,0V21a2,2,0,0,0-4,0Z"/><path d="M34,21V35a2,2,0,0,0,4,0V21a2,2,0,0,0-4,0Z"/></svg>