<svg id="icon" xmlns="http://www.w3.org/2000/svg" viewBox="0 0 50 50"><title>Artboard 188</title><path d="M25,13.63c5.83,0,9.24,9.08,9.46,22.81h3.76C38,21.82,32.14,12,25,12S12,21.82,11.78,36.44h3.31C15.32,22.71,19.17,13.63,25,13.63Z"/><path d="M45,6.5a1.36,1.36,0,0,0-.49-1,1.36,1.36,0,0,0-1-.49l-.14,0-.22,0H6.86L6.64,5,6.5,5a1.36,1.36,0,0,0-1,.49A1.36,1.36,0,0,0,5,6.5a.68.68,0,0,0,0,.14,1.5,1.5,0,0,0,0,.22V43.14A1.71,1.71,0,0,0,6.5,45a1.75,1.75,0,0,0,.32,0,2.72,2.72,0,0,0,.42,0H43.16l.21,0,.13,0a1.36,1.36,0,0,0,1-.43A1.39,1.39,0,0,0,45,43.5a.68.68,0,0,0,0-.14,1.5,1.5,0,0,0,0-.22V6.86a1.5,1.5,0,0,0,0-.22A.68.68,0,0,0,45,6.5ZM42,42H8V8H42Z"/></svg>