<svg id="icon" xmlns="http://www.w3.org/2000/svg" viewBox="0 0 50 50"><title>Artboard 175</title><path d="M25,5C14,5,5,13.77,5,24.5S14,44,25,44s20-8.78,20-19.5S36,5,25,5Zm0,36.07A16.8,16.8,0,0,1,8,24.5,16.81,16.81,0,0,1,25,7.92,16.81,16.81,0,0,1,42,24.5,16.8,16.8,0,0,1,25,41.07Z"/><path d="M25.63,32.75c.87-.54,1.67-1.13,2.55-1.56a10.58,10.58,0,0,1,4.58-1c.75,0,1.05-.3,1.05-1q0-6,0-12c0-.7-.3-1-1-1a14.26,14.26,0,0,0-1.73.16,7.69,7.69,0,0,0-4.85,2.53,2.33,2.33,0,0,0-.6,1.63c0,3.9,0,7.8,0,11.7Z"/><path d="M24.11,19.43A9.32,9.32,0,0,0,22.84,18a8.93,8.93,0,0,0-5.45-1.81c-.91-.05-1.2.23-1.2,1.15,0,3.88,0,7.77,0,11.65,0,.94.23,1.18,1.17,1.2a10.17,10.17,0,0,1,4.19.85c1,.47,1.87,1.09,2.81,1.65,0,0,0,0,0-.08,0-4.16,0-8.31,0-12.47A1.25,1.25,0,0,0,24.11,19.43Z"/><path d="M35.08,19.13v.59c0,3.18,0,6.37,0,9.55a2.06,2.06,0,0,1-2.21,2.21,10.75,10.75,0,0,0-4,.75,6,6,0,0,0-2,1.3c1-.11,1.86-.25,2.75-.29a20.83,20.83,0,0,1,5.45.46c1.09.23,1.42-.06,1.42-1.16V20.27C36.51,19.26,36.14,19,35.08,19.13Z"/><path d="M22.59,33.08a9.25,9.25,0,0,0-5.37-1.6,2.07,2.07,0,0,1-2.29-2.33c0-3.15,0-6.3,0-9.45v-.59c-1.11-.13-1.43.15-1.43,1.17V30.45c0,.8,0,1.61,0,2.41a.82.82,0,0,0,1,.9l.5-.08a20.23,20.23,0,0,1,6.49-.35c.5.06,1,.14,1.49.22A1.27,1.27,0,0,0,22.59,33.08Z"/></svg>