<svg id="icon" xmlns="http://www.w3.org/2000/svg" viewBox="0 0 50 50"><defs><style>.cls-1{fill:none;}.cls-2{fill:#fff;}</style></defs><title>Artboard 177</title><path class="cls-1" d="M25.24,37.08A10.15,10.15,0,0,0,35.38,27c0-.35,0-.7-.05-1A6,6,0,0,1,31.92,28a5.86,5.86,0,0,1-3.24-.28A6.69,6.69,0,0,1,26.05,31v0a2.19,2.19,0,0,1-.57.16H25a2.19,2.19,0,0,1-.57-.16v0a6.73,6.73,0,0,1-2.62-3.31,5.79,5.79,0,0,1-3.27.27,5.9,5.9,0,0,1-3.38-2.08c0,.34-.05.69-.05,1A10.15,10.15,0,0,0,25.24,37.08Z"/><path class="cls-1" d="M35.29,11.5a16.89,16.89,0,0,0-20.35-.18c1,.73,3.93,2.37,10.32,2.43C31.15,13.7,34.1,12.28,35.29,11.5Z"/><path class="cls-1" d="M38.5,14.71l-.14.21a2.16,2.16,0,0,1,.08.67,11.85,11.85,0,0,1-1.55,4.78,2.2,2.2,0,0,1-.3.37,3.89,3.89,0,0,1,.09.47,12.8,12.8,0,1,1-22.88,0c0-.16.06-.31.1-.46a1.79,1.79,0,0,1-.3-.38,11.85,11.85,0,0,1-1.55-4.78,1.89,1.89,0,0,1,.07-.67c-.13-.2-.24-.4-.34-.58a17,17,0,1,0,26.72.37Z"/><path d="M36.1,24.74a7.17,7.17,0,0,1-.77,1.17c0,.34.05.69.05,1a10.14,10.14,0,0,1-20.27,0c0-.35,0-.7.05-1a6.19,6.19,0,0,1-.8-1.21,5.64,5.64,0,0,1-.56-3.49,12.81,12.81,0,1,0,22.88,0A5.51,5.51,0,0,1,36.1,24.74Z"/><path class="cls-2" d="M12.05,15.59a11.85,11.85,0,0,0,1.55,4.78,1.79,1.79,0,0,0,.3.38c0,.15-.07.3-.1.46a5.64,5.64,0,0,0,.56,3.49,6.19,6.19,0,0,0,.8,1.21A5.9,5.9,0,0,0,18.54,28a5.79,5.79,0,0,0,3.27-.27A6.73,6.73,0,0,0,24.43,31v0a2.19,2.19,0,0,0,.57.16h.49a2.19,2.19,0,0,0,.57-.16v0a6.69,6.69,0,0,0,2.63-3.31,5.86,5.86,0,0,0,3.24.28,6,6,0,0,0,3.41-2.09,7.17,7.17,0,0,0,.77-1.17,5.51,5.51,0,0,0,.58-3.53,3.89,3.89,0,0,0-.09-.47,2.2,2.2,0,0,0,.3-.37,11.85,11.85,0,0,0,1.55-4.78,2.16,2.16,0,0,0-.08-.67l.14-.21a16.83,16.83,0,0,0-3.21-3.21c-1.19.78-4.14,2.2-10,2.25-6.39-.06-9.33-1.7-10.32-2.43a16.75,16.75,0,0,0-3.16,3c.1.18.21.38.34.58A1.89,1.89,0,0,0,12.05,15.59Zm2.89,3.06a10.51,10.51,0,0,1-.67-1.78.48.48,0,0,1,.76-.48,6.65,6.65,0,0,0,1.47.88.47.47,0,0,1,.08.84,4.47,4.47,0,0,0-.87.68A.48.48,0,0,1,14.94,18.65ZM18.8,26a4,4,0,0,1-3-3,4,4,0,0,1,4.81-4.81,4,4,0,0,1,3,3A4,4,0,0,1,18.8,26Zm15.87-3a4,4,0,0,1-3,3,4,4,0,0,1-4.81-4.81,4,4,0,0,1,3-3A4,4,0,0,1,34.67,23Zm1.54-6.14a10.48,10.48,0,0,1-.66,1.75.49.49,0,0,1-.78.14,4.34,4.34,0,0,0-.84-.67.48.48,0,0,1,.08-.86,6.76,6.76,0,0,0,1.43-.85A.48.48,0,0,1,36.21,16.9ZM14.49,13.41c1.67,1,5,2.27,10.75,2.32,5.62-.05,8.87-1.25,10.58-2.22a.48.48,0,0,1,.63.69,7.36,7.36,0,0,1-5.68,3c-5.57.38-5.14,6.37-5.14,6.37a2.21,2.21,0,0,1,1.58,2.25,6.33,6.33,0,0,1-2,3.45,6.39,6.39,0,0,1-2-3.45,2.21,2.21,0,0,1,1.58-2.25s.43-6-5.15-6.37A7.36,7.36,0,0,1,13.92,14,.43.43,0,0,1,14.49,13.41Z"/><path class="cls-2" d="M19.23,19.11a3.06,3.06,0,1,0,3.5,3.5A3.06,3.06,0,0,0,19.23,19.11Zm.58,4.43h-.1a1.41,1.41,0,0,1-1.41-1.41.07.07,0,0,1,0-.05.11.11,0,0,1,0,0,1.51,1.51,0,1,1,1.51,1.51Z"/><path class="cls-2" d="M31.26,19.11a3.06,3.06,0,1,0,2.54,2.53A3.06,3.06,0,0,0,31.26,19.11Zm-.49,4.49A1.58,1.58,0,1,1,32.35,22,1.57,1.57,0,0,1,30.77,23.6Z"/><path d="M23.61,21.21a4,4,0,0,0-3-3A4,4,0,0,0,15.82,23a4,4,0,0,0,3,3A4,4,0,0,0,23.61,21.21Zm-.88,1.4a3.06,3.06,0,1,1-3.5-3.5A3.07,3.07,0,0,1,22.73,22.61Z"/><path d="M16.5,17.27A6.65,6.65,0,0,1,15,16.39a.48.48,0,0,0-.76.48,10.51,10.51,0,0,0,.67,1.78.48.48,0,0,0,.77.14,4.47,4.47,0,0,1,.87-.68A.47.47,0,0,0,16.5,17.27Z"/><path d="M29.86,18.23a4,4,0,0,0-3,3A4,4,0,0,0,31.69,26a4,4,0,0,0,3-3A4,4,0,0,0,29.86,18.23Zm.43,6.92a3.06,3.06,0,1,1,3.51-3.51A3.08,3.08,0,0,1,30.29,25.15Z"/><path d="M19.71,17.17c5.58.38,5.15,6.37,5.15,6.37a2.21,2.21,0,0,0-1.58,2.25,6.39,6.39,0,0,0,2,3.45,6.33,6.33,0,0,0,2-3.45,2.21,2.21,0,0,0-1.58-2.25s-.43-6,5.14-6.37a7.36,7.36,0,0,0,5.68-3,.48.48,0,0,0-.63-.69c-1.71,1-5,2.17-10.58,2.22-5.8-.05-9.08-1.33-10.75-2.32a.43.43,0,0,0-.57.63A7.36,7.36,0,0,0,19.71,17.17Z"/><path d="M35.44,16.41a6.76,6.76,0,0,1-1.43.85.48.48,0,0,0-.08.86,4.34,4.34,0,0,1,.84.67.49.49,0,0,0,.78-.14,10.48,10.48,0,0,0,.66-1.75A.48.48,0,0,0,35.44,16.41Z"/><path d="M19.81,20.51A1.52,1.52,0,0,0,18.3,22a.11.11,0,0,0,0,0,.07.07,0,0,0,0,.05,1.41,1.41,0,0,0,1.41,1.41h.1a1.52,1.52,0,0,0,0-3Z"/><circle cx="30.77" cy="22.03" r="1.58"/><path d="M25,5A20,20,0,1,0,45,25,20.06,20.06,0,0,0,25,5Zm0,37A17,17,0,0,1,11.78,14.34,16.92,16.92,0,0,1,35.29,11.5,17.06,17.06,0,0,1,42,25,17,17,0,0,1,25,42Z"/></svg>