<svg id="icon" xmlns="http://www.w3.org/2000/svg" viewBox="0 0 50 50"><defs><style>.cls-1{fill:#2497e5;fill-rule:evenodd;}</style></defs><title>Artboard 189</title><path class="cls-1" d="M37.018,28.4,35.58,25.856a.965.965,0,0,0-1.676,0l-1.5,2.641a.7.7,0,0,0,.616,1.047h.624a7.691,7.691,0,0,1-2.463,4.6,8.758,8.758,0,0,1-3.288,1.9,1.087,1.087,0,0,1-1.419-1.008l-.247-12.991h.539a.278.278,0,0,0,.279-.277V20.112a.278.278,0,0,0-.279-.277h-.581l-.02-1.081h.6a.279.279,0,0,0,.279-.278V16.82a.278.278,0,0,0-.279-.277h-.643L26.1,15.354a2.857,2.857,0,1,0-2.079,0L24,16.543h-.643a.278.278,0,0,0-.279.277v1.656a.279.279,0,0,0,.279.278h.6l-.02,1.081h-.581a.278.278,0,0,0-.279.277v1.657a.278.278,0,0,0,.279.277H23.9l-.247,12.991a1.087,1.087,0,0,1-1.419,1.008,8.758,8.758,0,0,1-3.288-1.9,7.691,7.691,0,0,1-2.463-4.6h.552a.744.744,0,0,0,.652-1.109L16.39,26.148a1.155,1.155,0,0,0-2.007,0l-1.541,2.721a.453.453,0,0,0,.4.675h.881a9.392,9.392,0,0,0,.809,2.911,10.088,10.088,0,0,0,2.357,3.218,11.053,11.053,0,0,0,3.5,2.17c.207.081.417.155.628.224a5.822,5.822,0,0,1,2.334,1.378l.242.24a1.532,1.532,0,0,0,2.157,0l.242-.24a5.822,5.822,0,0,1,2.334-1.378c.211-.069.42-.143.628-.224a11.053,11.053,0,0,0,3.5-2.17A10.088,10.088,0,0,0,35.2,32.455a9.419,9.419,0,0,0,.809-2.911h.334A.77.77,0,0,0,37.018,28.4ZM24.7,14.128a1.465,1.465,0,1,1,1.793-1.782A1.46,1.46,0,0,1,24.7,14.128Z"/><path class="cls-1" d="M25,5A20,20,0,1,0,45,25,20.059,20.059,0,0,0,25,5Zm0,37A17,17,0,1,1,42,25,17.017,17.017,0,0,1,25,42Z"/></svg>