<svg id="icon" xmlns="http://www.w3.org/2000/svg" viewBox="0 0 50 50"><defs><style>.cls-1{fill:#2497e5;}</style></defs><title>Artboard 166</title><path class="cls-1" d="M35.055,12.82A.825.825,0,0,0,34,12.856L29.292,16.98c-.568-2.554-2.166-4.4-4.053-4.4-1.973,0-3.63,2.016-4.123,4.754L16,12.856a.825.825,0,0,0-1.056-.036.6.6,0,0,0,.041.925l5.978,5.235c0,.016,0,.032,0,.048a8.471,8.471,0,0,0,1.093,4.292l-7.069,6.192a.6.6,0,0,0-.041.924A.825.825,0,0,0,16,30.4l6.864-6.013a3.97,3.97,0,0,0,.941.706v8.356l-4.3,2.542v1.426l4.525-1.762h2.423l4.524,1.762V35.992l-4.3-2.542V25.094a3.765,3.765,0,0,0,.707-.493L34,30.4a.824.824,0,0,0,1.055.037.6.6,0,0,0-.041-.925l-6.756-5.919a8.325,8.325,0,0,0,1.258-4.565c0-.153-.007-.3-.015-.454l5.513-4.829A.6.6,0,0,0,35.055,12.82Z"/><path class="cls-1" d="M25,5A20,20,0,1,0,45,25,20.059,20.059,0,0,0,25,5Zm0,37A17,17,0,1,1,42,25,17.017,17.017,0,0,1,25,42Z"/></svg>