<svg id="icon" xmlns="http://www.w3.org/2000/svg" viewBox="0 0 50 50"><defs><style>.cls-1{fill:#2497e5;}</style></defs><title>Artboard 187</title><path class="cls-1" d="M25,5A20,20,0,1,0,45,25,20.059,20.059,0,0,0,25,5Zm0,37A17,17,0,1,1,42,25,17.017,17.017,0,0,1,25,42Z"/><path class="cls-1" d="M35.9,27.142l-9.085-5.674V14.815a1.815,1.815,0,1,0-3.63,0v6.653L14.1,27.142a1.284,1.284,0,0,0-.592,1.076,1.269,1.269,0,0,0,1.645,1.21l8.032-2.516v6.653L21.008,35.2a.579.579,0,0,0-.242.483V36.4a.609.609,0,0,0,.774.581L25,35.985l3.46.992a.609.609,0,0,0,.774-.581v-.714a.579.579,0,0,0-.242-.483l-2.177-1.634V26.912l8.032,2.516a1.269,1.269,0,0,0,1.645-1.21A1.3,1.3,0,0,0,35.9,27.142Z"/></svg>