<svg id="icon" xmlns="http://www.w3.org/2000/svg" viewBox="0 0 50 50"><defs><style>.cls-1{fill:#2497e5;}</style></defs><title>Artboard 185</title><path class="cls-1" d="M35.081,17.675H33.817V15.4a4.444,4.444,0,0,0-4.412-4.478H11.6A4.445,4.445,0,0,0,7.182,15.4v2.279H5.919A.926.926,0,0,0,5,18.608v5.165a.925.925,0,0,0,.919.932H7.182V35.839a2.453,2.453,0,0,0-.8,1.819v1.725a2.426,2.426,0,0,0,2.407,2.443h.3v2.455A.714.714,0,0,0,9.794,45H13.05a.714.714,0,0,0,.708-.719V41.826H27.242v2.455A.714.714,0,0,0,27.95,45h3.256a.714.714,0,0,0,.708-.719V41.826h.3a2.426,2.426,0,0,0,2.407-2.443V37.658a2.453,2.453,0,0,0-.8-1.819V24.705h1.263A.925.925,0,0,0,36,23.773V18.608A.926.926,0,0,0,35.081,17.675Zm-19.26-4.423h9.358a1.195,1.195,0,0,1,0,2.389H15.821a1.195,1.195,0,0,1,0-2.389ZM14.112,33.974a1.17,1.17,0,0,1-1.16,1.177H11.038a1.169,1.169,0,0,1-1.159-1.177v-1.31a1.169,1.169,0,0,1,1.159-1.177h1.914a1.17,1.17,0,0,1,1.16,1.177ZM19.3,29.058H9.911V18.04H19.3ZM21.7,18.04h9.386V29.058H21.7Zm9.418,15.934a1.169,1.169,0,0,1-1.159,1.177H28.048a1.17,1.17,0,0,1-1.16-1.177v-1.31a1.17,1.17,0,0,1,1.16-1.177h1.914a1.169,1.169,0,0,1,1.159,1.177Z"/><path class="cls-1" d="M42,4.926H40a3.009,3.009,0,0,0-3,3v4.667a3.011,3.011,0,0,0,2.371,2.93V43.472c0,1.572.57,1.528,1.629,1.528s2.222.044,2.222-1.528V15.325A3.006,3.006,0,0,0,45,12.593V7.926A3.009,3.009,0,0,0,42,4.926Z"/></svg>