<svg id="icon" xmlns="http://www.w3.org/2000/svg" viewBox="0 0 50 50"><defs><style>.cls-1{fill:#2497e5;}</style></defs><title>Artboard 191</title><path class="cls-1" d="M24.657,16.836l-4.9,1.722a1.036,1.036,0,0,0-.694.979v3.252a1.3,1.3,0,0,0-.983,1.259v1.664h3.882l.8.71h-4.68v2.2a2.594,2.594,0,0,0,2.6,2.594h8.648a2.594,2.594,0,0,0,2.591-2.594v-2.2H27.241l.8-.71h3.878V24.048a1.3,1.3,0,0,0-.983-1.259V19.537a1.036,1.036,0,0,0-.694-.979l-4.9-1.722A1.047,1.047,0,0,0,24.657,16.836Zm-3.723,5.912a.78.78,0,0,1-.78-.779V20.718a.776.776,0,0,1,.69-.771l2.96-.341a.775.775,0,0,1,.869.771v1.592a.779.779,0,0,1-.779.779ZM25,26.272a1.362,1.362,0,1,1,1.36-1.364A1.361,1.361,0,0,1,25,26.272Zm4.158-6.325a.776.776,0,0,1,.69.771v1.251a.779.779,0,0,1-.776.779H26.111a.78.78,0,0,1-.78-.779V20.377a.8.8,0,0,1,.26-.581.791.791,0,0,1,.609-.19Z"/><path class="cls-1" d="M44.312,24.582c-.024-.024-.052-.041-.078-.063-.032-.039-.061-.08-.1-.118L26.266,5.9c-.037-.038-.077-.068-.115-.1a.794.794,0,0,0-.06-.08,1.223,1.223,0,0,0-1.5-.027.948.948,0,0,0-.063.079,1.337,1.337,0,0,0-.118.1L5.9,23.734a1.213,1.213,0,0,0-.207,1.678.82.82,0,0,0,.178.14,1.511,1.511,0,0,0,.185.236L23.747,44.109c.035.036.072.064.109.1a.836.836,0,0,0,.057.076.943.943,0,0,0,.69.271.973.973,0,0,0,.814-.245.672.672,0,0,0,.063-.078,1.35,1.35,0,0,0,.118-.1L32.156,37.8h.094l-.036-.057L44.1,26.261a1.362,1.362,0,0,0,.1-.115.77.77,0,0,0,.081-.06,1.225,1.225,0,0,0,.026-1.5ZM24.705,42.039,20.611,37.8h8.483Zm6.357-6.14L28.625,32H22.1L19,36.132,7.96,24.7,25.3,7.956,42.043,25.3Z"/></svg>