<svg id="icon" xmlns="http://www.w3.org/2000/svg" viewBox="0 0 50 50"><defs><style>.cls-1{fill:#2497e5;}</style></defs><title>Artboard 182</title><path class="cls-1" d="M34.1,18.2a4.724,4.724,0,0,0-4.707-4.285H20.772A4.834,4.834,0,0,0,15.955,18.3l-.481,5.185c-.008.084-.012.169-.012.254v6.538a2.759,2.759,0,0,0,2.761,2.757H31.838A2.759,2.759,0,0,0,34.6,30.278V23.74c0-.085,0-.17-.012-.254ZM18.7,18.273A1.29,1.29,0,0,1,19.989,17.1H30.073a1.289,1.289,0,0,1,1.285,1.177l.37,4.229h-13.4Zm.165,11.475A1.253,1.253,0,1,1,20.122,28.5,1.253,1.253,0,0,1,18.868,29.748Zm12.633.2a1.253,1.253,0,1,1,1.254-1.253A1.253,1.253,0,0,1,31.5,29.943Z"/><path class="cls-1" d="M17.608,35.509a.575.575,0,0,0,.575.574h1.395a.575.575,0,0,0,.576-.574V33.542H17.608Z"/><path class="cls-1" d="M30.228,35.509a.575.575,0,0,0,.576.574H32.2a.575.575,0,0,0,.576-.574V33.542H30.228Z"/><path class="cls-1" d="M25.031,5a20,20,0,1,0,20.03,20A20.074,20.074,0,0,0,25.031,5Zm0,37A17,17,0,1,1,42.057,25,17.03,17.03,0,0,1,25.031,42Z"/><rect class="cls-1" x="21.221" y="11.128" width="7.618" height="1.223" rx="0.597"/></svg>