<svg id="icon" xmlns="http://www.w3.org/2000/svg" viewBox="0 0 50 50"><defs><style>.cls-1{fill:#2497e5;}</style></defs><title>Artboard 194</title><path class="cls-1" d="M40.556,5H9.444A4.443,4.443,0,0,0,5,9.444V40.556A4.443,4.443,0,0,0,9.444,45H40.556A4.443,4.443,0,0,0,45,40.556V9.444A4.443,4.443,0,0,0,40.556,5Zm0,35.556H9.444V9.444H40.556Z"/><path class="cls-1" d="M12.938,22.309h1.046v9.209a2.028,2.028,0,0,0-.663,1.505V34.45a2.006,2.006,0,0,0,1.991,2.021h.246V38.5a.591.591,0,0,0,.586.595h2.693a.59.59,0,0,0,.586-.595V36.471H30.577V38.5a.59.59,0,0,0,.586.595h2.693a.591.591,0,0,0,.586-.595V36.471h.246a2.006,2.006,0,0,0,1.991-2.021V33.023a2.028,2.028,0,0,0-.663-1.505V22.309h1.046a.767.767,0,0,0,.76-.772V17.265a.767.767,0,0,0-.76-.772H36.016V14.608a3.678,3.678,0,0,0-3.65-3.7H17.633a3.678,3.678,0,0,0-3.649,3.705v1.885H12.938a.767.767,0,0,0-.76.772v4.272A.767.767,0,0,0,12.938,22.309Zm20.848,7.667a.968.968,0,0,1-.959.974H31.244a.968.968,0,0,1-.959-.974V28.893a.967.967,0,0,1,.959-.974h1.583a.968.968,0,0,1,.959.974ZM33.759,16.8V25.91H26V16.8Zm-12.63-3.96h7.742a.988.988,0,0,1,0,1.975H21.129a.988.988,0,0,1,0-1.975ZM16.241,16.8h7.764V25.91H16.241Zm-.027,12.1a.968.968,0,0,1,.959-.974h1.583a.968.968,0,0,1,.96.974v1.083a.968.968,0,0,1-.96.974H17.173a.968.968,0,0,1-.959-.974Z"/></svg>