<svg id="icon" xmlns="http://www.w3.org/2000/svg" viewBox="0 0 50 50"><defs><style>.cls-1{fill:#0833a1;}</style></defs><title>Artboard 200</title><path class="cls-1" d="M35.575,45V37.389a.082.082,0,0,1,.088-.073h2.786a2.065,2.065,0,0,0,1.182-.336.957.957,0,0,0,.5-.794V35.54a.176.176,0,0,0-.027-.1L26.35,20a.085.085,0,0,0-.028-.022,2.459,2.459,0,0,0-.5-.188V17.869L37.28,13.782a.477.477,0,0,0,0-.9L26.2,8.932a2.237,2.237,0,0,0,.747-1.659,2.273,2.273,0,1,0-3.42,1.952V20.143L9.9,35.435a.17.17,0,0,1-.013.053.162.162,0,0,0-.014.052v.646a.956.956,0,0,0,.5.794,2.063,2.063,0,0,0,1.182.336h3.111a.082.082,0,0,1,.088.073V45"/></svg>