<svg id="icon" xmlns="http://www.w3.org/2000/svg" viewBox="0 0 50 50"><defs><style>.cls-1{fill:#0833a1;fill-rule:evenodd;}</style></defs><title>Artboard 198</title><path class="cls-1" d="M35.924,28H26.25V23.806L36.5,17.5a2.124,2.124,0,0,0-.01-3L27.4,8.165A2.5,2.5,0,1,0,23.75,9.653V28H14.076a3.137,3.137,0,0,0-3.219,3.04V41.96A3.137,3.137,0,0,0,14.076,45H35.924a3.137,3.137,0,0,0,3.219-3.04V31.04A3.137,3.137,0,0,0,35.924,28Zm.647,13.96a.63.63,0,0,1-.647.611H14.076a.63.63,0,0,1-.647-.611V31.04a.63.63,0,0,1,.647-.611H35.924a.63.63,0,0,1,.647.611Z"/></svg>