<svg id="icon" xmlns="http://www.w3.org/2000/svg" viewBox="0 0 50 50"><defs><style>.cls-1{fill:#0833a1;}</style></defs><title>Artboard 199</title><path class="cls-1" d="M43.734,6.191H26.467A1.5,1.5,0,0,0,23.5,6.5V24.35a10.383,10.383,0,1,0,3,0v-4.54H43.734a1.075,1.075,0,0,0,1.075-1.075V7.266A1.075,1.075,0,0,0,43.734,6.191ZM32.99,34.614a7.99,7.99,0,1,1-9.49-7.843v5.74a2.5,2.5,0,1,0,3,0v-5.74A8,8,0,0,1,32.99,34.614Zm9.2-18.5a1.074,1.074,0,0,1-1.074,1.074H27.883a1.074,1.074,0,0,1-1.074-1.074V9.883a1.074,1.074,0,0,1,1.074-1.074H41.117a1.074,1.074,0,0,1,1.074,1.074Z"/></svg>