<svg id="icon" xmlns="http://www.w3.org/2000/svg" viewBox="0 0 50 50"><defs><style>.cls-1{fill:#0063ff;}</style></defs><title>Artboard 201</title><path class="cls-1" d="M25,5A20,20,0,1,0,45,25,20.059,20.059,0,0,0,25,5Zm0,37A17,17,0,1,1,42,25,17.017,17.017,0,0,1,25,42Z"/><path class="cls-1" d="M38.962,21.741a4.352,4.352,0,0,0-3.648-1.9H30.156V14.685a4.351,4.351,0,0,0-1.9-3.647,5.242,5.242,0,0,0-8.414,4.118v4.688H14.686a4.352,4.352,0,0,0-3.648,1.9,5.242,5.242,0,0,0,4.118,8.415h4.688v5.158a4.354,4.354,0,0,0,1.9,3.648,5.242,5.242,0,0,0,8.415-4.118V30.156h4.688A5.242,5.242,0,0,0,38.962,21.741Z"/></svg>