<?xml version="1.0" encoding="utf-8"?>
<!-- Generator: Adobe Illustrator 15.1.0, SVG Export Plug-In . SVG Version: 6.00 Build 0)  -->
<!DOCTYPE svg PUBLIC "-//W3C//DTD SVG 1.1//EN" "http://www.w3.org/Graphics/SVG/1.1/DTD/svg11.dtd">
<svg version="1.1" id="Capa_1" xmlns="http://www.w3.org/2000/svg" xmlns:xlink="http://www.w3.org/1999/xlink" x="0px" y="0px"
	 width="12px" height="12px" viewBox="0 0 12 12" enable-background="new 0 0 12 12" xml:space="preserve">
<g>
	<g>
		<path fill="#515151" d="M5.813,2.235C6.292,2.098,6.46,2.824,6.035,2.926C5.818,2.979,5.519,2.835,5.567,2.502
			C5.582,2.404,5.649,2.281,5.813,2.235z"/>
		<path fill="#515151" d="M5.746,3.483c0.061,0.095,0.119,0.193,0.156,0.313C5.685,3.782,5.413,3.824,5.233,3.773
			c0.006-0.046,0.083-0.021,0.089-0.067c-0.261,0.097-0.39-0.09-0.557-0.156C4.794,3.506,4.864,3.5,4.92,3.483
			C4.667,3.486,4.447,3.48,4.296,3.327c0.053-0.073,0.178-0.075,0.268-0.111C4.237,3.233,3.54,3.371,3.382,3.038
			C3.549,2.879,3.81,2.736,4.096,2.592c0.179-0.09,0.872-0.436,1.07-0.134c0.085,0.13,0.015,0.319,0.022,0.49
			C5.202,3.282,5.324,3.492,5.746,3.483z"/>
		<path fill="#515151" d="M6.481,3.796c-0.179,0-0.357,0-0.535,0C5.961,3.663,6.04,3.592,6.08,3.483
			c0.591,0.035,0.531-0.355,0.536-0.78c0.003-0.252,0.146-0.387,0.468-0.356c0.484,0.045,0.994,0.47,1.382,0.669
			c-0.149,0.343-0.819,0.25-1.202,0.178c0.073,0.044,0.163,0.073,0.268,0.089C7.443,3.487,7.186,3.507,6.904,3.461
			C6.947,3.5,7.021,3.508,7.083,3.528c-0.146,0.118-0.347,0.233-0.579,0.2L6.471,3.754L6.481,3.796z"/>
		<path fill="#515151" d="M5.656,2.926c0.181,0.026,0.354,0.026,0.535,0c-0.03,0.111-0.093,0.189-0.223,0.201
			c0.007,0.068,0.1,0.049,0.112,0.111c0.009,0.217-0.072,0.344-0.178,0.446c-0.033-0.161-0.17-0.217-0.134-0.446
			c0.04-0.02,0.028-0.091,0.111-0.067C5.799,3.095,5.674,3.064,5.656,2.926z"/>
		<path fill="#515151" d="M3.784,3.395C3.255,3.587,2.44,3.938,1.71,3.885C1.423,3.864,1.175,3.773,1.042,3.55
			C1.825,3.427,2.6,3.295,3.271,3.06c0.081,0.179,0.276,0.244,0.513,0.268L3.772,3.361L3.784,3.395z"/>
		<path fill="#515151" d="M8.063,3.328c0.197-0.05,0.451-0.042,0.47-0.268c0.704,0.203,1.422,0.391,2.252,0.468
			c-0.525,0.745-2.022,0.109-2.722-0.134L8.075,3.36L8.063,3.328z"/>
		<path fill="#515151" d="M4.475,3.506C4.018,3.829,3.353,4.219,2.468,4.152c-0.209-0.015-0.451-0.053-0.557-0.2
			c0.71-0.105,1.583-0.301,2.118-0.624C4.208,3.219,4.344,3.528,4.475,3.506z"/>
		<path fill="#515151" d="M9.803,4.019c-0.88,0.364-1.871-0.11-2.43-0.49c0.126-0.091,0.229-0.213,0.4-0.201
			C7.9,3.336,8.08,3.467,8.242,3.528c0.449,0.17,1.045,0.331,1.561,0.423L9.792,3.985L9.803,4.019z"/>
		<path fill="#515151" d="M4.988,3.796c-0.521,0.253-1.329,0.852-2.03,0.423C3.514,4.14,4.104,3.787,4.541,3.573
			C4.653,3.518,4.914,3.668,4.988,3.796z"/>
		<path fill="#515151" d="M8.889,4.197c-0.617,0.47-1.529-0.129-2.027-0.401c0.091-0.145,0.271-0.24,0.423-0.223
			c0.098,0.01,0.226,0.133,0.356,0.2C7.984,3.95,8.453,4.135,8.889,4.197z"/>
		<path fill="#515151" d="M4.519,4.175C4.461,4.257,4.373,4.311,4.341,4.42C4.252,4.405,4.147,4.406,4.074,4.375l0.011-0.034
			L4.074,4.309c0.12-0.066,0.244-0.127,0.379-0.178L4.481,4.16L4.519,4.175z"/>
		<path fill="#515151" d="M7.352,4.108c0.184,0.06,0.318,0.171,0.512,0.223C7.809,4.417,7.626,4.376,7.529,4.42
			C7.434,4.368,7.396,4.254,7.328,4.175l0.031-0.027L7.352,4.108z"/>
		<path fill="#515151" d="M5.901,3.84C5.908,3.958,5.9,4.062,5.857,4.13c-0.089-0.067-0.155-0.157-0.268-0.2
			C5.638,3.844,5.759,3.832,5.901,3.84z"/>
		<path fill="#515151" d="M6.259,3.929C6.187,4.014,6.065,4.048,6.013,4.152c-0.077-0.049-0.07-0.182-0.089-0.29
			C6.038,3.802,6.207,3.856,6.259,3.929z"/>
		<path fill="#515151" d="M6.437,6.538c0.209-0.054,0.5-0.271,0.267-0.558C6.602,5.855,6.357,5.779,6.102,5.758
			C5.571,5.713,4.997,5.73,4.631,5.423C4.416,5.243,4.208,4.762,4.43,4.375c0.178-0.309,0.785-0.543,1.092-0.424
			c0.09,0.035,0.282,0.126,0.29,0.268C5.726,4.354,5.584,4.398,5.434,4.398C5.313,4.397,5.217,4.314,5.099,4.331
			C4.9,4.358,4.71,4.653,4.809,4.933c0.077,0.216,0.463,0.351,0.847,0.379c0.536,0.039,1.126,0.055,1.404,0.423
			c0.248,0.328,0.148,0.919-0.244,1.07C6.693,6.741,6.59,6.658,6.46,6.604L6.448,6.57L6.437,6.538z M5.411,4.085
			c0.065,0.033,0.065-0.1,0-0.067C5.411,4.041,5.411,4.063,5.411,4.085z"/>
		<path fill="#515151" d="M6.525,5.267C6.736,5.166,7.005,5.12,7.061,4.911c0.065-0.249-0.067-0.535-0.269-0.58
			c-0.12-0.027-0.219,0.063-0.356,0.067C6.25,4.403,6.132,4.332,6.035,4.219c0.14-0.425,0.873-0.34,1.227-0.044
			c0.452,0.379,0.276,1.174-0.244,1.382C6.841,5.495,6.698,5.399,6.525,5.334l0.011-0.033L6.525,5.267z M6.459,4.085
			C6.46,4.047,6.441,4.028,6.415,4.019C6.383,4.051,6.382,4.105,6.459,4.085z"/>
		<path fill="#515151" d="M5.901,4.13C6.13,4.324,6.04,4.838,6.057,5.244c-0.089,0-0.178,0-0.267,0C5.8,4.797,5.733,4.4,5.901,4.13z
			"/>
		<path fill="#515151" d="M5.344,5.847c-0.142,0.091-0.307,0.178-0.29,0.379c0.03,0.359,0.61,0.329,1.092,0.379
			C6.757,6.667,7.25,7.326,6.66,7.854C6.52,7.807,6.441,7.7,6.28,7.675C6.396,7.57,6.563,7.579,6.592,7.43
			c0.044-0.211-0.181-0.41-0.378-0.445c-0.121-0.021-0.254,0.007-0.379,0C5.056,6.945,4.252,6.478,4.876,5.668
			C5.027,5.711,5.171,5.76,5.322,5.802L5.311,5.836L5.344,5.847z"/>
		<path fill="#515151" d="M5.79,5.824c0.089,0,0.178,0,0.267,0c0.018,0.263-0.033,0.458-0.022,0.714c-0.082,0-0.163,0-0.245,0
			C5.79,6.3,5.79,6.062,5.79,5.824z"/>
		<path fill="#515151" d="M5.5,7.006C5.373,7.126,5.239,7.244,5.277,7.43c0.052,0.252,0.396,0.207,0.758,0.245
			C6.6,7.736,6.977,8.445,6.415,8.813C6.301,8.77,6.219,8.693,6.058,8.7C6.225,8.589,6.46,8.57,6.415,8.277
			C6.368,7.98,6.079,8.018,5.701,7.986C5.342,7.959,5.064,7.832,4.943,7.542C4.915,7.246,4.98,7.044,5.099,6.895
			C5.239,6.925,5.332,7.003,5.5,7.006z"/>
		<path fill="#515151" d="M5.813,7.027c0.074,0,0.148,0,0.223,0c0,0.209,0,0.418,0,0.625c-0.074,0-0.148,0-0.223,0
			C5.813,7.445,5.813,7.236,5.813,7.027z"/>
		<path fill="#515151" d="M5.589,8.055c-0.102,0.074-0.16,0.19-0.156,0.289c0.019,0.473,0.971,0.223,1.048,0.758
			c0.024,0.174-0.04,0.426-0.29,0.514c-0.05-0.038-0.125-0.053-0.178-0.09c0.208-0.07,0.34-0.291,0.222-0.467
			C6.132,8.902,5.873,8.975,5.634,8.9c-0.34-0.104-0.649-0.549-0.357-0.937C5.405,7.971,5.478,8.032,5.589,8.055z"/>
		<path fill="#515151" d="M5.813,8.009c0.067,0,0.134,0,0.201,0c0,0.209,0,0.417,0,0.625c-0.06,0-0.119,0-0.179,0
			C5.805,8.448,5.813,8.225,5.813,8.009z"/>
		<path fill="#515151" d="M6.147,10.217C6.362,9.666,5.719,9.753,5.5,9.525C5.355,9.375,5.34,9.134,5.456,8.9
			c0.117-0.006,0.168,0.056,0.268,0.067C5.485,9.132,5.568,9.364,5.768,9.48c0.153,0.088,0.416,0.123,0.491,0.313
			c0.032,0.082,0.061,0.369-0.067,0.469L6.18,10.229L6.147,10.217z"/>
		<path fill="#515151" d="M5.979,10.35l0.011,0.023c-0.008,0-0.015,0-0.022,0c0.002,0.029,0.004,0.063-0.022,0.066L5.924,10.4
			l-0.045-0.006c0-0.008,0-0.015,0-0.022L5.868,10.35l-0.011-0.021c0.007,0,0.015,0,0.022,0c0.003-0.051-0.017-0.107-0.022-0.178
			c-0.01-0.139-0.028-0.344,0.044-0.401c0.116-0.001,0.063,0.165,0.067,0.269c0.003,0.108-0.003,0.225,0,0.313L5.979,10.35z"/>
		<path fill="#515151" d="M5.66,10.184l-0.026,0.033C5.496,10.085,5.58,9.568,5.79,9.727C5.857,9.76,5.694,9.852,5.679,9.973
			c-0.011,0.08,0.021,0.133,0.022,0.223L5.66,10.184z"/>
		<path fill="#515151" d="M5.834,8.969c0.052,0,0.104,0,0.156,0c0,0.178,0,0.356,0,0.534c-0.044,0-0.089,0-0.134,0
			C5.808,9.366,5.848,9.141,5.834,8.969z"/>
		<g>
			<g>
				<path fill="#515151" d="M6.471,3.755C6.484,3.759,6.5,3.76,6.516,3.762"/>
				<path fill="#515151" d="M6.514,4.115c-0.015,0-0.03-0.001-0.045-0.003C6.447,4.11,6.383,4.098,6.363,4.091
					c-0.186-0.06-0.288-0.259-0.229-0.444c0.057-0.177,0.235-0.28,0.419-0.236C6.74,3.442,6.879,3.617,6.854,3.806
					C6.832,3.984,6.688,4.115,6.514,4.115z"/>
			</g>
			<g>
				<path fill="#515151" d="M3.873,3.35C3.848,3.348,3.809,3.357,3.772,3.361"/>
				<path fill="#515151" d="M3.772,3.639c-0.14,0-0.261-0.106-0.276-0.249C3.479,3.238,3.59,3.101,3.743,3.084
					C3.759,3.082,3.871,3.06,3.895,3.072C4.048,3.084,4.163,3.218,4.15,3.371C4.139,3.524,4.01,3.646,3.852,3.627l0.006-0.075
					L3.811,3.355L3.802,3.638C3.792,3.639,3.782,3.639,3.772,3.639z"/>
			</g>
			<g>
				<path fill="#515151" d="M7.977,3.35C8,3.348,8.04,3.357,8.075,3.361"/>
				<path fill="#515151" d="M8.074,3.642c-0.01,0-0.02,0-0.03-0.001L8.038,3.355L7.973,3.63C7.8,3.648,7.695,3.526,7.684,3.372
					c-0.013-0.155,0.115-0.29,0.27-0.302c0.023-0.005,0.107,0.005,0.128,0.008c0.151,0.023,0.274,0.166,0.254,0.317
					C8.316,3.537,8.212,3.642,8.074,3.642z"/>
			</g>
			<g>
				<path fill="#515151" d="M9.792,3.985c0.022-0.004,0.045-0.009,0.065-0.011"/>
				<path fill="#515151" d="M9.855,4.275c-0.149,0-0.306-0.102-0.328-0.25C9.504,3.866,9.576,3.721,9.734,3.69
					c0.008-0.001,0.082-0.014,0.09-0.015c0.174-0.014,0.313,0.1,0.333,0.265c0.019,0.165-0.101,0.314-0.265,0.333
					C9.88,4.274,9.868,4.275,9.855,4.275z"/>
			</g>
			<g>
				<path fill="#515151" d="M4.029,4.353c0.015-0.004,0.036-0.009,0.056-0.011"/>
				<path fill="#515151" d="M4.041,4.659c-0.138,0-0.267-0.09-0.304-0.228C3.693,4.266,3.784,4.098,3.949,4.054
					c0.014-0.003,0.084-0.018,0.098-0.019c0.165-0.028,0.324,0.1,0.344,0.269c0.021,0.169-0.1,0.324-0.269,0.344
					C4.095,4.656,4.068,4.659,4.041,4.659z"/>
			</g>
			<g>
				<path fill="#515151" d="M4.481,4.159c0.303-0.216,0.653-0.369,1.03-0.286"/>
				<path fill="#515151" d="M4.481,4.515c-0.111,0-0.221-0.052-0.29-0.149C4.078,4.206,4.115,3.984,4.274,3.87
					c0.451-0.321,0.894-0.435,1.313-0.343C5.78,3.569,5.901,3.759,5.858,3.95C5.815,4.141,5.626,4.264,5.435,4.221
					c-0.221-0.05-0.464,0.026-0.747,0.228C4.625,4.493,4.553,4.515,4.481,4.515z"/>
			</g>
			<g>
				<path fill="#515151" d="M6.336,3.874C6.71,3.789,7.057,3.949,7.359,4.148"/>
				<path fill="#515151" d="M7.359,4.479c-0.063,0-0.127-0.018-0.183-0.054C6.861,4.218,6.625,4.148,6.41,4.197
					c-0.18,0.042-0.357-0.071-0.397-0.25C5.972,3.769,6.083,3.591,6.262,3.55c0.521-0.123,0.981,0.125,1.279,0.32
					c0.152,0.1,0.195,0.306,0.096,0.459C7.573,4.426,7.467,4.479,7.359,4.479z"/>
			</g>
			<g>
				<path fill="#515151" d="M6.392,6.561c0.015,0.004,0.036,0.008,0.057,0.012"/>
				<path fill="#515151" d="M6.447,6.891c-0.015,0-0.029-0.002-0.044-0.005C6.384,6.884,6.309,6.867,6.291,6.861
					C6.125,6.807,6.034,6.626,6.09,6.459c0.055-0.163,0.228-0.254,0.394-0.204c0.165,0.038,0.29,0.203,0.26,0.37
					C6.715,6.777,6.598,6.891,6.447,6.891z"/>
			</g>
			<g>
				<path fill="#515151" d="M6.492,5.29c0.015,0.006,0.029,0.008,0.044,0.011"/>
				<path fill="#515151" d="M6.535,5.627c-0.021,0-0.044-0.002-0.067-0.007C6.45,5.616,6.388,5.6,6.371,5.593
					C6.204,5.526,6.122,5.336,6.189,5.168c0.065-0.163,0.243-0.24,0.409-0.188c0.17,0.043,0.285,0.215,0.248,0.388
					C6.813,5.521,6.684,5.627,6.535,5.627z"/>
			</g>
			<g>
				<path fill="#515151" d="M5.311,5.835c0.023-0.007,0.04-0.008,0.056-0.011"/>
				<path fill="#515151" d="M5.333,6.073c-0.105,0-0.207-0.064-0.24-0.166C5.053,5.78,5.11,5.646,5.237,5.606
					C5.25,5.602,5.306,5.59,5.319,5.588c0.13-0.021,0.258,0.069,0.279,0.199s-0.06,0.251-0.189,0.274
					C5.384,6.069,5.358,6.073,5.333,6.073z"/>
			</g>
			<g>
				<path fill="#515151" d="M5.924,10.718c-0.003-0.104-0.027-0.214,0-0.317"/>
				<path fill="#515151" d="M5.924,11.047c-0.177,0-0.323-0.141-0.329-0.318L5.59,10.656c-0.008-0.094-0.019-0.211,0.016-0.34
					c0.046-0.176,0.223-0.28,0.402-0.233c0.175,0.046,0.28,0.226,0.234,0.401c-0.005,0.019,0,0.074,0.003,0.115l0.007,0.106
					c0.006,0.183-0.136,0.333-0.318,0.339C5.931,11.047,5.927,11.047,5.924,11.047z"/>
			</g>
			<g>
				<path fill="#515151" d="M5.868,10.35c-0.083-0.023-0.184-0.068-0.208-0.166"/>
				<path fill="#515151" d="M5.863,10.659c-0.026,0-0.054-0.005-0.082-0.013c-0.289-0.084-0.389-0.258-0.422-0.388
					c-0.042-0.166,0.059-0.335,0.225-0.377c0.144-0.034,0.289,0.034,0.353,0.161C6.09,10.1,6.192,10.271,6.146,10.43
					C6.106,10.566,5.994,10.659,5.863,10.659z"/>
			</g>
			<g>
				<path fill="#515151" d="M5.979,10.35c0.082,0.002,0.144-0.065,0.201-0.121"/>
				<path fill="#515151" d="M5.981,10.637c-0.002,0-0.003,0-0.005,0c-0.159-0.002-0.286-0.132-0.284-0.289
					c0.001-0.144,0.105-0.26,0.241-0.281C5.95,10.05,5.98,10.021,5.98,10.021c0.115-0.11,0.296-0.106,0.406,0.008
					c0.11,0.113,0.107,0.296-0.007,0.406C6.299,10.514,6.173,10.637,5.981,10.637z"/>
			</g>
		</g>
	</g>
</g>
</svg>
