<svg id="icon" xmlns="http://www.w3.org/2000/svg" viewBox="0 0 50 50"><defs><style>.cls-1{fill:#0063ff;}</style></defs><title>Artboard 205</title><path class="cls-1" d="M25,18A11,11,0,1,0,36,29,11.012,11.012,0,0,0,25,18Zm9.034,8.891a3.392,3.392,0,0,1-2.665,5.445H28.336v3.033a3.392,3.392,0,0,1-5.445,2.665,2.818,2.818,0,0,1-1.227-2.36V32.336H18.631a3.392,3.392,0,0,1-2.665-5.445,2.816,2.816,0,0,1,2.36-1.227h3.338V22.63a3.391,3.391,0,0,1,5.444-2.664,2.816,2.816,0,0,1,1.228,2.36v3.338h3.338A2.816,2.816,0,0,1,34.034,26.891Z"/><path class="cls-1" d="M44.693,25.31,26.371,6.548a1.914,1.914,0,0,0-2.682,0L5.255,25.428a.889.889,0,0,0,0,1.246l1.4,1.438a.931.931,0,0,0,1.328,0L9.215,26.85V44H40.858V26.864l1.087,1.119a1.121,1.121,0,0,0,1.6,0l1.149-1.174A1.07,1.07,0,0,0,44.693,25.31ZM25,42A13,13,0,1,1,38,29,13.038,13.038,0,0,1,25,42Z"/></svg>