<svg id="icon" xmlns="http://www.w3.org/2000/svg" viewBox="0 0 50 50"><defs><style>.cls-1{fill:#0063ff;}</style></defs><title>Artboard 206</title><path class="cls-1" d="M25,36.625A8.525,8.525,0,1,0,16.475,28.1,8.533,8.533,0,0,0,25,36.625ZM18,26.466a2.181,2.181,0,0,1,1.829-.952h2.586v-2.35a2.63,2.63,0,0,1,4.22-2.066,2.184,2.184,0,0,1,.952,1.829v2.587h2.586A2.181,2.181,0,0,1,32,26.466a2.629,2.629,0,0,1-2.065,4.22h-2.35v2.35a2.629,2.629,0,0,1-4.22,2.065,2.181,2.181,0,0,1-.952-1.829V30.686h-2.35A2.629,2.629,0,0,1,18,26.466Z"/><path class="cls-1" d="M10.784,27.412a.721.721,0,0,0,1.029,0l.954-.978V39.725H37.29V26.445l.843.867a.869.869,0,0,0,1.238,0l.89-.91a.829.829,0,0,0,0-1.164L26.062,10.7a1.482,1.482,0,0,0-2.078,0L9.7,25.332a.688.688,0,0,0,0,.965ZM25,18.025A10.075,10.075,0,1,1,14.925,28.1,10.1,10.1,0,0,1,25,18.025Z"/><path class="cls-1" d="M45,6.5a1.35,1.35,0,0,0-.495-1.01A1.35,1.35,0,0,0,43.5,5a1.109,1.109,0,0,0-.141.018C43.288,5.011,43.218,5,43.145,5H6.855c-.073,0-.143.011-.214.018A1.109,1.109,0,0,0,6.5,5a1.353,1.353,0,0,0-1.008.492A1.351,1.351,0,0,0,5,6.5a1.109,1.109,0,0,0,.018.141C5.011,6.712,5,6.782,5,6.855v36.29A1.711,1.711,0,0,0,6.5,45a1.2,1.2,0,0,0,.317-.044,2.136,2.136,0,0,0,.42.044H43.163c.069,0,.135-.011.2-.017A1.2,1.2,0,0,0,43.5,45a1.33,1.33,0,0,0,.951-.434A1.378,1.378,0,0,0,45,43.5a1.109,1.109,0,0,0-.018-.141c.007-.072.018-.141.018-.214V6.855c0-.073-.011-.143-.018-.214A1.109,1.109,0,0,0,45,6.5ZM42,42H8V8H42Z"/></svg>