<?xml version="1.0" encoding="utf-8"?>
<!-- Generator: Adobe Illustrator 15.1.0, SVG Export Plug-In . SVG Version: 6.00 Build 0)  -->
<!DOCTYPE svg PUBLIC "-//W3C//DTD SVG 1.1//EN" "http://www.w3.org/Graphics/SVG/1.1/DTD/svg11.dtd">
<svg version="1.1" id="Capa_1" xmlns="http://www.w3.org/2000/svg" xmlns:xlink="http://www.w3.org/1999/xlink" x="0px" y="0px"
	 width="12px" height="12px" viewBox="0 0 12 12" enable-background="new 0 0 12 12" xml:space="preserve">
<rect x="0.375" y="0.313" fill="none" stroke="#000000" stroke-miterlimit="10" width="11.313" height="11.313"/>
<g>
	<path d="M7.692,8.893H4.37c-0.06,0-0.114-0.035-0.14-0.088C4.204,8.75,4.21,8.688,4.248,8.641c0.011-0.014,1.044-1.33,1.271-2.711
		c-1.383,0.226-2.698,1.26-2.711,1.27C2.76,7.236,2.696,7.244,2.643,7.217C2.589,7.191,2.555,7.139,2.555,7.078V3.755
		c0-0.06,0.035-0.114,0.088-0.141C2.696,3.589,2.76,3.596,2.808,3.633c0.013,0.011,1.328,1.044,2.711,1.271
		C5.292,3.52,4.259,2.207,4.248,2.193C4.21,2.146,4.204,2.083,4.229,2.028C4.256,1.975,4.31,1.941,4.37,1.941h3.323
		c0.06,0,0.114,0.034,0.14,0.087c0.027,0.054,0.021,0.118-0.017,0.165C7.804,2.207,6.771,3.522,6.544,4.904
		c1.384-0.227,2.697-1.26,2.711-1.271c0.048-0.038,0.11-0.044,0.165-0.019c0.054,0.026,0.088,0.081,0.088,0.141v3.323
		c0,0.061-0.034,0.113-0.088,0.139c-0.055,0.027-0.117,0.02-0.165-0.018c-0.014-0.01-1.328-1.043-2.711-1.27
		c0.228,1.383,1.26,2.697,1.271,2.711C7.853,8.688,7.859,8.75,7.832,8.805C7.808,8.857,7.752,8.893,7.692,8.893z"/>
</g>
</svg>
