<?xml version="1.0" encoding="utf-8"?>
<!-- Generator: Adobe Illustrator 15.1.0, SVG Export Plug-In . SVG Version: 6.00 Build 0)  -->
<!DOCTYPE svg PUBLIC "-//W3C//DTD SVG 1.1//EN" "http://www.w3.org/Graphics/SVG/1.1/DTD/svg11.dtd">
<svg version="1.1" id="Capa_1" xmlns="http://www.w3.org/2000/svg" xmlns:xlink="http://www.w3.org/1999/xlink" x="0px" y="0px"
	 width="12px" height="12px" viewBox="0 0 12 12" enable-background="new 0 0 12 12" xml:space="preserve">
<g>
	<g>
		<circle cx="5.192" cy="2.211" r="0.87"/>
		<path d="M10.83,8.445c-0.08-0.15-0.27-0.208-0.421-0.127L9.911,8.586c0-0.001-0.001-0.002-0.001-0.002L8.378,6.539
			C8.305,6.441,8.242,6.328,8.137,6.296C8.098,6.266,8.002,6.221,7.916,6.221h-1.8V5.836h1.292c0.199,0,0.34-0.181,0.34-0.38v0
			c0-0.199-0.141-0.291-0.34-0.291H6.116V4.134c0-0.466-0.41-0.889-0.876-0.889H5.002C4.536,3.245,4.1,3.667,4.1,4.134v2.524
			c0,0.465,0.436,0.811,0.902,0.811h0.18H5.48h2.436c0.002,0,0.002,0.016,0.002,0.016l1.236,1.658
			C9.287,9.32,9.527,9.441,9.716,9.389l0.002,0.004l0.985-0.527C10.855,8.785,10.912,8.598,10.83,8.445z"/>
	</g>
	<path d="M8.193,8.815L7.57,7.986c-0.158,1.029-1.05,1.822-2.124,1.822c-1.184,0-2.13-0.964-2.13-2.148
		c0-0.453,0.112-0.875,0.4-1.222v-1.2c-0.768,0.546-1.25,1.427-1.25,2.421c0,1.654,1.336,2.998,2.99,2.998
		c1.238,0,2.298-0.754,2.755-1.826C8.207,8.826,8.198,8.82,8.193,8.815z"/>
</g>
<path d="M12.25,12.25h-12.5v-12.5h12.5V12.25z M0.25,11.75h11.5V0.25H0.25V11.75z"/>
</svg>
