<svg id="icon" xmlns="http://www.w3.org/2000/svg" viewBox="0 0 50 50"><defs><style>.cls-1,.cls-2{fill:#0063ff;}.cls-1{fill-rule:evenodd;}</style></defs><title>Artboard 193</title><path class="cls-1" d="M25,5A20,20,0,1,0,45,25,20.059,20.059,0,0,0,25,5Zm0,37A17,17,0,1,1,42,25,17.017,17.017,0,0,1,25,42Z"/><path class="cls-2" d="M33.541,24.56H21.011a2.4,2.4,0,1,0-.238,1.188v3.5H34.425V25.656A1.01,1.01,0,0,0,33.541,24.56Z"/><rect class="cls-2" x="14.315" y="26.768" width="6.498" height="2.475" rx="1.238"/><path class="cls-2" d="M37.526,25.276H34.908a.32.32,0,0,0-.319.319v3.5H16.212V20.617a.394.394,0,0,0-.393-.393h-2.47a.394.394,0,0,0-.393.393V34.144a.394.394,0,0,0,.393.393h2.47a.394.394,0,0,0,.393-.393V31.715H34.589v2.5a.32.32,0,0,0,.319.318h2.618a.32.32,0,0,0,.319-.318V25.6A.32.32,0,0,0,37.526,25.276Z"/><path class="cls-2" d="M25,10a5.25,5.25,0,1,0,5.25,5.25A5.265,5.265,0,0,0,25,10Zm0,9.712a4.463,4.463,0,1,1,4.462-4.462A4.466,4.466,0,0,1,25,19.712Z"/><path class="cls-2" d="M28.665,14.4a1.141,1.141,0,0,0-.957-.5H26.354V12.542a1.143,1.143,0,0,0-.5-.957,1.376,1.376,0,0,0-2.209,1.081V13.9H22.292a1.141,1.141,0,0,0-.957.5A1.376,1.376,0,0,0,22.416,16.6h1.23v1.354a1.143,1.143,0,0,0,.5.957,1.376,1.376,0,0,0,2.209-1.081V16.6h1.23A1.376,1.376,0,0,0,28.665,14.4Z"/></svg>