<?xml version="1.0" encoding="utf-8"?>
<!-- Generator: Adobe Illustrator 15.1.0, SVG Export Plug-In . SVG Version: 6.00 Build 0)  -->
<!DOCTYPE svg PUBLIC "-//W3C//DTD SVG 1.1//EN" "http://www.w3.org/Graphics/SVG/1.1/DTD/svg11.dtd">
<svg version="1.1" id="Capa_1" xmlns="http://www.w3.org/2000/svg" xmlns:xlink="http://www.w3.org/1999/xlink" x="0px" y="0px"
	 width="12px" height="12px" viewBox="0 0 12 12" enable-background="new 0 0 12 12" xml:space="preserve">
<g>
	<g>
		<path fill="#004B68" d="M5.916,1.02C6.317,0.905,6.458,1.515,6.102,1.6C5.92,1.645,5.669,1.524,5.708,1.245
			C5.721,1.162,5.777,1.059,5.916,1.02z"/>
		<path fill="#004B68" d="M5.859,2.069c0.05,0.08,0.1,0.162,0.131,0.263C5.808,2.32,5.58,2.355,5.428,2.312
			c0.005-0.039,0.069-0.018,0.075-0.056C5.284,2.338,5.175,2.181,5.035,2.125c0.024-0.037,0.084-0.041,0.13-0.056
			C4.952,2.071,4.769,2.066,4.641,1.938C4.686,1.877,4.79,1.874,4.866,1.843c-0.275,0.015-0.86,0.131-0.994-0.149
			C4.014,1.562,4.233,1.44,4.474,1.32c0.149-0.076,0.732-0.366,0.898-0.113C5.443,1.316,5.385,1.476,5.391,1.62
			C5.401,1.9,5.504,2.077,5.859,2.069z"/>
		<path fill="#004B68" d="M6.477,2.332c-0.15,0-0.3,0-0.45,0C6.04,2.22,6.105,2.16,6.14,2.069C6.638,2.098,6.585,1.77,6.592,1.414
			c0-0.211,0.122-0.325,0.391-0.299c0.409,0.037,0.836,0.395,1.161,0.562c-0.126,0.288-0.688,0.21-1.01,0.149
			C7.196,1.863,7.27,1.888,7.359,1.9C7.282,2.071,7.067,2.088,6.833,2.05c0.036,0.033,0.096,0.04,0.149,0.056
			c-0.123,0.1-0.292,0.196-0.488,0.169L6.468,2.297L6.477,2.332z"/>
		<path fill="#004B68" d="M5.784,1.6c0.151,0.023,0.297,0.023,0.448,0C6.207,1.694,6.155,1.76,6.046,1.769
			C6.052,1.827,6.129,1.81,6.14,1.863c0.008,0.183-0.061,0.29-0.149,0.375C5.963,2.103,5.848,2.055,5.877,1.863
			c0.034-0.017,0.024-0.076,0.094-0.057C5.903,1.743,5.799,1.717,5.784,1.6z"/>
		<path fill="#004B68" d="M4.211,1.995C3.766,2.156,3.082,2.451,2.469,2.406C2.228,2.389,2.02,2.312,1.908,2.125
			C2.565,2.021,3.217,1.911,3.78,1.714c0.068,0.15,0.231,0.205,0.431,0.225L4.2,1.966L4.211,1.995z"/>
		<path fill="#004B68" d="M7.806,1.938C7.971,1.896,8.183,1.903,8.2,1.714c0.591,0.17,1.194,0.328,1.892,0.392
			c-0.442,0.626-1.7,0.092-2.286-0.112l0.01-0.029L7.806,1.938z"/>
		<path fill="#004B68" d="M4.791,2.087C4.407,2.359,3.849,2.687,3.106,2.63C2.93,2.618,2.727,2.585,2.638,2.462
			c0.597-0.087,1.33-0.253,1.779-0.523C4.566,1.847,4.682,2.106,4.791,2.087z"/>
		<path fill="#004B68" d="M9.266,2.519C8.527,2.824,7.696,2.426,7.227,2.106C7.332,2.03,7.419,1.928,7.562,1.938
			C7.67,1.945,7.822,2.055,7.957,2.106c0.375,0.143,0.877,0.279,1.309,0.356L9.259,2.49L9.266,2.519z"/>
		<path fill="#004B68" d="M5.222,2.332C4.784,2.544,4.106,3.047,3.517,2.687c0.468-0.066,0.963-0.362,1.33-0.542
			C4.941,2.098,5.161,2.224,5.222,2.332z"/>
		<path fill="#004B68" d="M8.5,2.668C7.981,3.062,7.214,2.56,6.796,2.332C6.873,2.209,7.025,2.131,7.15,2.145
			c0.082,0.008,0.188,0.111,0.301,0.167C7.739,2.461,8.134,2.616,8.5,2.668z"/>
		<path fill="#004B68" d="M4.829,2.649c-0.05,0.069-0.123,0.115-0.15,0.206C4.604,2.843,4.516,2.845,4.454,2.818l0.01-0.029
			l-0.01-0.027C4.556,2.707,4.66,2.656,4.772,2.613l0.024,0.025L4.829,2.649z"/>
		<path fill="#004B68" d="M7.207,2.593c0.155,0.052,0.268,0.144,0.43,0.188C7.591,2.854,7.438,2.819,7.355,2.855
			c-0.079-0.043-0.109-0.14-0.169-0.206l0.027-0.022L7.207,2.593z"/>
		<path fill="#004B68" d="M5.989,2.368c0.006,0.101-0.001,0.188-0.037,0.245C5.877,2.556,5.822,2.48,5.727,2.444
			C5.769,2.373,5.869,2.362,5.989,2.368z"/>
		<path fill="#004B68" d="M6.289,2.443C6.23,2.515,6.127,2.543,6.083,2.63C6.019,2.59,6.024,2.478,6.008,2.386
			C6.104,2.337,6.246,2.382,6.289,2.443z"/>
		<path fill="#004B68" d="M6.438,4.635c0.176-0.046,0.421-0.228,0.226-0.469C6.578,4.062,6.371,3.997,6.158,3.979
			C5.712,3.942,5.229,3.956,4.922,3.697c-0.18-0.149-0.355-0.554-0.168-0.879c0.148-0.26,0.659-0.457,0.917-0.356
			C5.746,2.49,5.908,2.567,5.914,2.687c-0.072,0.113-0.19,0.15-0.317,0.15c-0.102,0-0.182-0.07-0.281-0.056
			C5.147,2.804,4.989,3.052,5.072,3.287c0.063,0.18,0.389,0.295,0.712,0.318C6.233,3.638,6.73,3.651,6.965,3.959
			c0.209,0.276,0.122,0.774-0.205,0.9C6.653,4.804,6.567,4.735,6.458,4.69l-0.01-0.028L6.438,4.635z M5.578,2.574
			c0.054,0.028,0.054-0.084,0-0.056C5.578,2.538,5.578,2.556,5.578,2.574z"/>
		<path fill="#004B68" d="M6.515,3.568c0.176-0.086,0.4-0.125,0.45-0.301c0.054-0.209-0.06-0.449-0.228-0.487
			c-0.1-0.022-0.183,0.053-0.299,0.056c-0.155,0.004-0.255-0.056-0.337-0.15C6.22,2.33,6.837,2.401,7.134,2.649
			c0.378,0.319,0.232,0.986-0.208,1.16C6.78,3.758,6.657,3.678,6.515,3.623l0.007-0.028L6.515,3.568z M6.458,2.574
			c0-0.031-0.017-0.048-0.037-0.055C6.393,2.545,6.392,2.591,6.458,2.574z"/>
		<path fill="#004B68" d="M5.989,2.612C6.182,2.775,6.105,3.208,6.12,3.548c-0.074,0-0.149,0-0.225,0
			C5.903,3.171,5.848,2.838,5.989,2.612z"/>
		<path fill="#004B68" d="M5.521,4.055C5.401,4.131,5.264,4.204,5.278,4.373C5.304,4.676,5.79,4.649,6.195,4.692
			c0.512,0.051,0.926,0.604,0.433,1.047c-0.12-0.04-0.187-0.127-0.319-0.15c0.097-0.086,0.236-0.08,0.259-0.206
			C6.607,5.207,6.418,5.04,6.252,5.01c-0.103-0.017-0.213,0.007-0.318,0c-0.654-0.032-1.33-0.426-0.806-1.105
			C5.255,3.939,5.376,3.98,5.503,4.015l-0.01,0.03L5.521,4.055z"/>
		<path fill="#004B68" d="M5.896,4.035c0.075,0,0.15,0,0.225,0c0.016,0.222-0.028,0.385-0.019,0.6c-0.068,0-0.138,0-0.206,0
			C5.896,4.436,5.896,4.235,5.896,4.035z"/>
		<path fill="#004B68" d="M5.652,5.028c-0.107,0.101-0.22,0.2-0.188,0.355c0.044,0.212,0.333,0.174,0.637,0.206
			c0.473,0.051,0.79,0.648,0.319,0.958C6.326,6.509,6.256,6.446,6.122,6.451c0.139-0.094,0.336-0.109,0.299-0.355
			c-0.039-0.25-0.282-0.219-0.6-0.244C5.52,5.829,5.286,5.721,5.185,5.478C5.161,5.23,5.216,5.061,5.315,4.935
			C5.433,4.96,5.511,5.024,5.652,5.028z"/>
		<path fill="#004B68" d="M5.916,5.046c0.063,0,0.124,0,0.187,0c0,0.175,0,0.351,0,0.525c-0.063,0-0.124,0-0.187,0
			C5.916,5.397,5.916,5.221,5.916,5.046z"/>
		<path fill="#004B68" d="M5.727,5.91C5.642,5.971,5.594,6.068,5.596,6.151C5.612,6.548,6.412,6.34,6.477,6.787
			c0.019,0.147-0.035,0.359-0.244,0.432C6.191,7.189,6.128,7.176,6.083,7.145C6.259,7.084,6.369,6.9,6.27,6.752
			C6.184,6.621,5.965,6.683,5.765,6.619c-0.285-0.087-0.545-0.461-0.3-0.787C5.573,5.839,5.634,5.89,5.727,5.91z"/>
		<path fill="#004B68" d="M5.916,5.87c0.055,0,0.111,0,0.168,0c0,0.176,0,0.351,0,0.525c-0.051,0-0.1,0-0.15,0
			C5.909,6.239,5.916,6.052,5.916,5.87z"/>
		<path fill="#004B68" d="M6.196,7.725c0.179-0.463-0.36-0.389-0.544-0.58C5.53,7.018,5.518,6.814,5.615,6.619
			c0.099-0.004,0.142,0.047,0.226,0.057c-0.2,0.137-0.131,0.333,0.036,0.433C6.005,7.181,6.227,7.21,6.289,7.37
			c0.026,0.068,0.053,0.31-0.056,0.393l-0.01-0.027L6.196,7.725z"/>
		<path fill="#004B68" d="M6.055,7.837l0.01,0.019c-0.008,0-0.013,0-0.019,0c0.001,0.024,0.003,0.054-0.02,0.057L6.008,7.878
			L5.971,7.873c0-0.007,0-0.011,0-0.018L5.962,7.837l-0.01-0.018c0.005,0,0.012,0,0.019,0C5.973,7.776,5.957,7.729,5.952,7.67
			C5.943,7.553,5.929,7.381,5.989,7.332c0.098,0,0.053,0.138,0.057,0.226c0.002,0.09-0.003,0.189,0,0.264L6.055,7.837z"/>
		<path fill="#004B68" d="M5.786,7.697L5.765,7.725c-0.115-0.111-0.046-0.544,0.131-0.41c0.057,0.026-0.08,0.104-0.093,0.204
			C5.793,7.587,5.82,7.632,5.821,7.706L5.786,7.697z"/>
		<path fill="#004B68" d="M5.933,6.676c0.044,0,0.087,0,0.132,0c0,0.15,0,0.299,0,0.448c-0.038,0-0.075,0-0.113,0
			C5.911,7.011,5.944,6.821,5.933,6.676z"/>
		<g>
			<g>
				<path fill="#004B68" d="M6.468,2.297C6.478,2.3,6.492,2.301,6.505,2.303"/>
				<path fill="#004B68" d="M6.505,2.6c-0.014,0-0.027-0.001-0.04-0.002C6.448,2.595,6.393,2.585,6.377,2.579
					c-0.156-0.05-0.241-0.217-0.192-0.373c0.048-0.148,0.197-0.235,0.354-0.198C6.694,2.035,6.81,2.181,6.79,2.339
					C6.77,2.49,6.65,2.6,6.505,2.6z"/>
			</g>
			<g>
				<path fill="#004B68" d="M4.286,1.957C4.265,1.955,4.232,1.962,4.2,1.966"/>
				<path fill="#004B68" d="M4.2,2.2c-0.117,0-0.22-0.09-0.231-0.209C3.955,1.863,4.048,1.748,4.176,1.733
					c0.014-0.001,0.108-0.02,0.128-0.01c0.129,0.01,0.226,0.123,0.215,0.251C4.509,2.103,4.4,2.206,4.268,2.189l0.006-0.063
					l-0.04-0.166L4.226,2.199C4.218,2.2,4.21,2.2,4.2,2.2z"/>
			</g>
			<g>
				<path fill="#004B68" d="M7.732,1.957c0.021-0.002,0.054,0.005,0.083,0.009"/>
				<path fill="#004B68" d="M7.815,2.202c-0.006,0-0.017,0-0.026-0.001l-0.003-0.24L7.729,2.192
					C7.584,2.208,7.498,2.105,7.487,1.975c-0.013-0.13,0.097-0.243,0.227-0.254c0.019-0.003,0.089,0.005,0.108,0.007
					c0.126,0.019,0.229,0.14,0.212,0.266C8.018,2.114,7.932,2.202,7.815,2.202z"/>
			</g>
			<g>
				<path fill="#004B68" d="M9.259,2.49c0.02-0.003,0.036-0.007,0.057-0.008"/>
				<path fill="#004B68" d="M9.312,2.733c-0.126,0-0.255-0.085-0.275-0.209C9.018,2.39,9.076,2.269,9.213,2.242
					c0.003,0,0.065-0.012,0.072-0.013c0.146-0.011,0.262,0.084,0.28,0.223C9.583,2.591,9.48,2.716,9.345,2.732
					C9.331,2.733,9.321,2.733,9.312,2.733z"/>
			</g>
			<g>
				<path fill="#004B68" d="M4.417,2.799C4.43,2.797,4.447,2.792,4.464,2.79"/>
				<path fill="#004B68" d="M4.426,3.055c-0.115,0-0.224-0.074-0.254-0.19C4.135,2.726,4.211,2.585,4.35,2.548
					C4.36,2.545,4.42,2.533,4.432,2.532C4.57,2.508,4.704,2.616,4.721,2.758C4.738,2.9,4.638,3.03,4.495,3.047
					C4.473,3.054,4.449,3.055,4.426,3.055z"/>
			</g>
			<g>
				<path fill="#004B68" d="M4.797,2.637c0.254-0.183,0.548-0.311,0.865-0.241"/>
				<path fill="#004B68" d="M4.797,2.936c-0.094,0-0.187-0.044-0.244-0.125C4.458,2.676,4.489,2.49,4.623,2.394
					c0.379-0.27,0.751-0.365,1.103-0.289C5.888,2.14,5.989,2.3,5.953,2.461c-0.037,0.16-0.195,0.263-0.355,0.228
					C5.412,2.646,5.209,2.71,4.97,2.881C4.918,2.917,4.857,2.936,4.797,2.936z"/>
			</g>
			<g>
				<path fill="#004B68" d="M6.355,2.397c0.315-0.071,0.603,0.063,0.858,0.23"/>
				<path fill="#004B68" d="M7.214,2.905c-0.054,0-0.106-0.016-0.152-0.045C6.796,2.686,6.599,2.627,6.417,2.668
					c-0.151,0.036-0.301-0.059-0.334-0.21C6.049,2.309,6.142,2.16,6.292,2.125C6.73,2.021,7.117,2.229,7.366,2.394
					C7.494,2.478,7.53,2.65,7.448,2.779C7.392,2.86,7.306,2.905,7.214,2.905z"/>
			</g>
			<g>
				<path fill="#004B68" d="M6.402,4.653c0.013,0.003,0.029,0.007,0.047,0.01"/>
				<path fill="#004B68" d="M6.448,4.93c-0.014,0-0.025-0.002-0.036-0.003C6.396,4.925,6.333,4.91,6.315,4.907
					C6.178,4.861,6.102,4.708,6.148,4.568c0.046-0.137,0.19-0.213,0.329-0.17c0.14,0.031,0.246,0.17,0.219,0.309
					C6.674,4.836,6.574,4.93,6.448,4.93z"/>
			</g>
			<g>
				<path fill="#004B68" d="M6.486,3.587c0.012,0.004,0.025,0.006,0.035,0.008"/>
				<path fill="#004B68" d="M6.521,3.87c-0.017,0-0.037-0.001-0.057-0.007C6.451,3.859,6.398,3.847,6.384,3.84
					c-0.14-0.057-0.209-0.215-0.152-0.355c0.054-0.138,0.203-0.202,0.343-0.158c0.143,0.037,0.238,0.179,0.209,0.325
					C6.753,3.78,6.648,3.87,6.521,3.87z"/>
			</g>
			<g>
				<path fill="#004B68" d="M5.493,4.045c0.02-0.006,0.034-0.006,0.048-0.01"/>
				<path fill="#004B68" d="M5.512,4.245c-0.088,0-0.173-0.054-0.201-0.141C5.278,3.999,5.325,3.886,5.432,3.852
					C5.442,3.85,5.49,3.838,5.5,3.836c0.109-0.017,0.217,0.06,0.235,0.167c0.018,0.109-0.052,0.212-0.159,0.23
					C5.555,4.24,5.532,4.245,5.512,4.245z"/>
			</g>
			<g>
				<path fill="#004B68" d="M6.008,8.145c-0.003-0.086-0.022-0.179,0-0.267"/>
				<path fill="#004B68" d="M6.008,8.422c-0.147,0-0.27-0.117-0.276-0.269L5.728,8.095C5.721,8.016,5.712,7.916,5.742,7.811
					c0.037-0.149,0.187-0.236,0.337-0.199C6.226,7.649,6.315,7.804,6.274,7.95c-0.004,0.014,0,0.063,0.004,0.095l0.005,0.093
					C6.289,8.291,6.17,8.415,6.018,8.42C6.015,8.422,6.012,8.422,6.008,8.422z"/>
			</g>
			<g>
				<path fill="#004B68" d="M5.962,7.837c-0.07-0.02-0.156-0.059-0.176-0.14"/>
				<path fill="#004B68" d="M5.957,8.097c-0.021,0-0.045-0.004-0.068-0.011c-0.243-0.07-0.327-0.217-0.354-0.325
					C5.499,7.62,5.584,7.48,5.724,7.443c0.12-0.029,0.241,0.028,0.296,0.134c0.129,0.05,0.214,0.192,0.176,0.325
					C6.161,8.018,6.067,8.097,5.957,8.097z"/>
			</g>
			<g>
				<path fill="#004B68" d="M6.055,7.837c0.068,0,0.121-0.054,0.169-0.102"/>
				<path fill="#004B68" d="M6.057,8.076c-0.002,0-0.003,0-0.004,0c-0.134,0-0.241-0.11-0.239-0.241
					c0-0.122,0.089-0.218,0.203-0.236C6.03,7.584,6.055,7.562,6.055,7.562c0.098-0.095,0.249-0.09,0.342,0.006
					c0.091,0.094,0.09,0.25-0.006,0.342C6.321,7.975,6.218,8.076,6.057,8.076z"/>
			</g>
		</g>
	</g>
</g>
<rect x="3.585" y="8.625" fill="#004B68" width="4.83" height="2.625"/>
</svg>
