<svg id="icon" xmlns="http://www.w3.org/2000/svg" viewBox="0 0 50 50"><defs><style>.cls-1{fill:#0063ff;}</style></defs><title>Artboard 202</title><path class="cls-1" d="M5.154,14.178a14.9,14.9,0,0,0,9.006-1.171,23.436,23.436,0,0,1-9.074,1.087A.865.865,0,0,1,5,13.973c5.593,0,13.549-3.648,13.549-3.648a2.7,2.7,0,0,1,3.621.341C23.9,12.688,25,13.973,25,13.973v5.174a13.2,13.2,0,0,1-2.546-1.673,8.02,8.02,0,0,1-5.218,2.266,8.572,8.572,0,0,0,4.369-2.484,13.118,13.118,0,0,1-4.809,2.5c-1.286-.018-2.112-.343-1.922-.367A15.935,15.935,0,0,0,20.574,17c.424-.258-.136-.121-.136-.121-4.431,2.559-7.1,2.5-8.5,2.09a16.209,16.209,0,0,0,7.406-2.815,25.9,25.9,0,0,1-7.54,2.769,2.9,2.9,0,0,1-1.1-.6,20.8,20.8,0,0,0,7.155-2.5c.517-.356-.221-.12-.221-.12-5.854,2.872-8.26,2.3-9.219,1.6a11.28,11.28,0,0,0,7.7-2.375A16.938,16.938,0,0,1,8.384,17.28a1.648,1.648,0,0,1-.56-.7,15,15,0,0,0,6.365-2.137c.8-.473.8-.473-.4,0C7.9,16.771,5.693,14.835,5.154,14.178Z"/><path class="cls-1" d="M44.855,14.178a14.923,14.923,0,0,1-9.015-1.171,23.464,23.464,0,0,0,9.079,1.087A1.1,1.1,0,0,0,45,13.973c-5.593,0-13.549-3.648-13.549-3.648a2.694,2.694,0,0,0-3.621.341C26.1,12.688,25,13.973,25,13.973v5.174a13.337,13.337,0,0,0,2.55-1.673,8,8,0,0,0,5.211,2.266,8.626,8.626,0,0,1-4.368-2.484,13.166,13.166,0,0,0,4.813,2.5c1.292-.018,2.111-.343,1.918-.367A16.032,16.032,0,0,1,29.426,17c-.419-.258.14-.121.14-.121,4.431,2.559,7.1,2.5,8.492,2.09a16.167,16.167,0,0,1-7.4-2.815A25.73,25.73,0,0,0,38.2,18.923a2.806,2.806,0,0,0,1.095-.6,20.769,20.769,0,0,1-7.146-2.5c-.521-.356.217-.12.217-.12,5.849,2.872,8.254,2.3,9.214,1.6a11.275,11.275,0,0,1-7.7-2.375,16.914,16.914,0,0,0,7.735,2.353,1.643,1.643,0,0,0,.563-.7,15,15,0,0,1-6.364-2.137c-.795-.473-.795-.473.4,0C42.1,16.771,44.306,14.835,44.855,14.178Z"/><path class="cls-1" d="M30.289,22.973a3.7,3.7,0,0,0-.419-1.542,2.465,2.465,0,0,0-1.133-1.046,3.341,3.341,0,0,0-2.223-.114l.01.024c-.608.147-.869.724-.754,1.553a1.069,1.069,0,0,0,1.313,1.028V22.9a1.6,1.6,0,0,1,1.123-.08c.343.365.092,1.045-.049,1.21a4.884,4.884,0,0,1-1.141.926c-.907.576-1.93,1.033-2.961,1.691a6.053,6.053,0,0,0-.781.6,2.5,2.5,0,0,0-.738,1.131A2.068,2.068,0,0,0,22.782,30c.183.279.337.532.541.806.723,1.073,1.687,1.919,2.2,2.844a1.546,1.546,0,0,1,.057,1.405,7.571,7.571,0,0,1-1.031,1.405,8.907,8.907,0,0,0-1.133,1.523,2.059,2.059,0,0,0-.242,1.11,1.738,1.738,0,0,0,.478.927,15.5,15.5,0,0,0,1.244,1.316A1.884,1.884,0,0,1,25.574,43a1.949,1.949,0,0,0-.077-.993,2.612,2.612,0,0,0-.516-.794c-.386-.477-.786-.92-1.124-1.423a1.168,1.168,0,0,1-.1-1.521,7.92,7.92,0,0,1,1.153-1.3,7.862,7.862,0,0,0,1.239-1.448,2.641,2.641,0,0,0,.1-2.364,8.711,8.711,0,0,0-1.057-1.7c-.361-.5-.7-.988-1.009-1.489-.144-.242-.3-.543-.438-.8-.091-.2-.062-.239-.042-.256a2.494,2.494,0,0,1,.953-.738c.936-.479,1.988-.822,3.052-1.37A6.141,6.141,0,0,0,29.339,25.7,3.3,3.3,0,0,0,30.1,24.52a3.07,3.07,0,0,0,.174-.863A5.325,5.325,0,0,0,30.289,22.973Z"/><path class="cls-1" d="M19.619,23.035a3.586,3.586,0,0,1,.4-1.542,2.451,2.451,0,0,1,1.113-1.073,3.336,3.336,0,0,1,2.217-.149V20.3c.6.137.874.707.767,1.541a1.074,1.074,0,0,1-1.3,1.051l-.006.022a1.56,1.56,0,0,0-1.118-.062c-.343.371-.077,1.051.062,1.21a4.928,4.928,0,0,0,1.158.908c.916.561,1.938.994,2.969,1.628a5.486,5.486,0,0,1,.8.588,2.488,2.488,0,0,1,.752,1.12,2.054,2.054,0,0,1-.227,1.621c-.178.3-.334.538-.53.822-.705,1.086-1.66,1.943-2.16,2.879a1.507,1.507,0,0,0-.039,1.4,7.426,7.426,0,0,0,1.042,1.384,9.489,9.489,0,0,1,1.152,1.5,1.974,1.974,0,0,1,.256,1.1,1.711,1.711,0,0,1-.464.943A18.117,18.117,0,0,1,25.237,41.3a1.985,1.985,0,0,0-.855,1.647,1.81,1.81,0,0,1,.261-.967,2.713,2.713,0,0,1,.5-.8,17.8,17.8,0,0,0,1.113-1.447,1.147,1.147,0,0,0,.073-1.513,7.681,7.681,0,0,0-1.162-1.284,7.582,7.582,0,0,1-1.259-1.428,2.653,2.653,0,0,1-.125-2.364,9.371,9.371,0,0,1,1.031-1.724c.357-.5.7-.994.993-1.507.135-.235.295-.538.425-.8.092-.2.064-.237.044-.255a2.434,2.434,0,0,0-.965-.715c-.936-.464-2-.8-3.061-1.312A6.088,6.088,0,0,1,20.6,25.742a3.121,3.121,0,0,1-.771-1.159,3.166,3.166,0,0,1-.2-.863C19.619,23.5,19.609,23.276,19.619,23.035Z"/><path class="cls-1" d="M26.8,9.137A1.988,1.988,0,0,1,25,11.273a2,2,0,0,1-1.8-2.136A2,2,0,0,1,25,7,1.988,1.988,0,0,1,26.8,9.137Z"/><rect class="cls-1" x="24.643" y="10.843" width="0.718" height="32.054"/></svg>