<svg id="icon" xmlns="http://www.w3.org/2000/svg" viewBox="0 0 50 50"><defs><style>.cls-1{fill:#0063ff;}</style></defs><title>Artboard 207</title><path class="cls-1" d="M25.05,5a20.05,20.05,0,0,0,0,40.1A20.288,20.288,0,0,0,45.1,25.05,20.125,20.125,0,0,0,25.05,5Zm0,37.13A17.08,17.08,0,1,1,42.13,25.05,16.957,16.957,0,0,1,25.05,42.13Z"/><path class="cls-1" d="M35.076,15.42a15.945,15.945,0,0,0-10.192-3.894,15.743,15.743,0,0,0-9.948,3.9,4.756,4.756,0,0,0-1.3,5.494l1.284,3.078a.409.409,0,0,0,.732.05,10.572,10.572,0,0,1,18.6.226.409.409,0,0,0,.737-.04l1.386-3.325A4.758,4.758,0,0,0,35.076,15.42Zm-8.094.443a.412.412,0,0,1-.412.412h-.4a.413.413,0,0,0-.412.412v.458a.412.412,0,0,1-.412.412h-.881a.412.412,0,0,1-.412-.412v-.458a.413.413,0,0,0-.412-.412h-.459a.412.412,0,0,1-.412-.412v-.884a.413.413,0,0,1,.412-.412h.459a.412.412,0,0,0,.412-.412V13.7a.412.412,0,0,1,.412-.412h.881a.412.412,0,0,1,.412.412v.458a.412.412,0,0,0,.412.412h.4a.413.413,0,0,1,.412.412Z"/><path class="cls-1" d="M29.576,21.168l0,0L21.436,26a.673.673,0,0,0-.741-1.015,6.818,6.818,0,0,0-5.063,5,9.29,9.29,0,1,0,13.944-8.822Z"/></svg>