<svg id="icon" xmlns="http://www.w3.org/2000/svg" viewBox="0 0 50 50"><title>Artboard 208</title><path d="M22,22.14a2.29,2.29,0,0,0-1.82.91l4.11,4.11V24.43A2.3,2.3,0,0,0,22,22.14Z"/><path d="M31.86,32.05a3.82,3.82,0,0,0-3.81-3.81,3.76,3.76,0,0,0-2.1.63l5.27,5.28A3.82,3.82,0,0,0,31.86,32.05Z"/><path d="M24.24,32.05a3.8,3.8,0,0,0,5.91,3.17L24.87,30A3.76,3.76,0,0,0,24.24,32.05Z"/><path d="M28.05,37.38a5.27,5.27,0,0,1-3.34-1.18,3.81,3.81,0,0,1-6.57-2.63V24.43a3.73,3.73,0,0,1,.16-1.06l-1.9-1.89A11.42,11.42,0,0,0,32.52,37.6l-1.28-1.28A5.36,5.36,0,0,1,28.05,37.38Z"/><path d="M44.69,25.31,26.37,6.55a1.91,1.91,0,0,0-2.68,0L5.26,25.43a.89.89,0,0,0,0,1.24l1.41,1.44a.92.92,0,0,0,1.32,0l1.23-1.26V44H40.86V26.86L42,28a1.11,1.11,0,0,0,1.59,0l1.15-1.18A1.07,1.07,0,0,0,44.69,25.31ZM34.16,38.16A12.85,12.85,0,1,1,38,29,12.89,12.89,0,0,1,34.16,38.16Z"/><path d="M17.48,20.4,19.05,22a3.8,3.8,0,0,1,6.71,2.46v2.8a5.33,5.33,0,0,1,6.56,8l1.28,1.28A11.42,11.42,0,0,0,17.48,20.4Z"/><path d="M19.67,33.57a2.28,2.28,0,0,0,4,1.51,5.3,5.3,0,0,1-1-3,5.35,5.35,0,0,1,.52-2.3H19.67Z"/><polygon points="19.67 28.24 23.16 28.24 19.67 24.75 19.67 28.24"/></svg>