<svg xmlns="http://www.w3.org/2000/svg" viewBox="0 0 50 50"><defs><style>.cls-1{isolation:isolate;}.cls-2{fill:#0063ff;mix-blend-mode:multiply;}</style></defs><title>Artboard 203</title><g class="cls-1"><g id="icon"><path class="cls-2" d="M28.405,15.893a.294.294,0,1,0,.294.294A.294.294,0,0,0,28.405,15.893Z"/><path class="cls-2" d="M43.392,30.064,37.62,26.458a1.719,1.719,0,0,1,0-2.915l5.772-3.607a1.718,1.718,0,0,0,.547-2.368l-3.957-6.332a1.718,1.718,0,0,0-2.368-.547l-4.533,2.833a1.719,1.719,0,0,1-2.63-1.457V6.719A1.718,1.718,0,0,0,28.733,5H21.267a1.719,1.719,0,0,0-1.719,1.719v5.346a1.718,1.718,0,0,1-2.629,1.457l-4.533-2.833a1.718,1.718,0,0,0-2.368.547L6.061,17.568a1.718,1.718,0,0,0,.547,2.368l5.772,3.607a1.719,1.719,0,0,1,0,2.915L6.608,30.064a1.718,1.718,0,0,0-.547,2.368l3.957,6.332a1.718,1.718,0,0,0,2.368.547l4.533-2.833a1.719,1.719,0,0,1,2.629,1.458v5.345A1.719,1.719,0,0,0,21.267,45h7.466a1.718,1.718,0,0,0,1.718-1.719V37.936a1.719,1.719,0,0,1,2.63-1.458l4.533,2.833a1.718,1.718,0,0,0,2.368-.547l3.957-6.332A1.718,1.718,0,0,0,43.392,30.064ZM24.969,10.124a1.1,1.1,0,0,1,.5,2.081c-.009,1.3-.023,3.737-.043,6.684-.218-.036-.423-.067-.615-.1l-.293-.047c-.021-2.883-.035-5.26-.043-6.539a1.1,1.1,0,0,1,.5-2.081Zm0,32.465a14.654,14.654,0,0,1-.166-2.554c.105.059.216.116.328.17A13.357,13.357,0,0,1,24.969,42.589ZM23.081,36.61a3.083,3.083,0,0,1,1.253-2.061c.007.341.011.676.018,1a2.285,2.285,0,0,0-.629,1.472c-.087,1.207.633,2.239,2.27,3.144C24.674,39.76,22.971,38.645,23.081,36.61Zm1.561-4.989a5.082,5.082,0,0,1,.646.626c-.036,2.672-.078,5.108-.128,6.944a4.188,4.188,0,0,1-.391-.363C24.719,36.891,24.677,34.362,24.642,31.621Zm.987,3.027c-.01,0-.018.01-.028.015.007-.349.014-.707.017-1.069.807-.761.247-1.7-2.246-3.322-1.427-.928-2.823-2.749-1.125-4.268a7.69,7.69,0,0,1,1.97-1.063c0,.258.005.517.008.776a.76.76,0,0,1-.4.682,2.756,2.756,0,0,0-.83.608c-.541.639-.389,1.558,1.307,2.652C28.49,32.362,26.785,33.943,25.629,34.648ZM24.53,20.83c.246.032.5.061.767.087l.11.013c-.023,2.849-.052,6-.089,9.008-.217-.165-.453-.329-.7-.495C24.581,26.556,24.553,23.55,24.53,20.83Zm3.7,3.657a11.356,11.356,0,0,1-2.517,1.153q0-.393.006-.782a.778.778,0,0,1,.483-.709,5.309,5.309,0,0,0,1.167-.588c1.567-1.294.388-2.75-2.042-2.992a11.319,11.319,0,0,1-3.745-.818c-3.229-1.616.356-3.766,2.557-4.315,0,.332,0,.679.007,1.04a.772.772,0,0,1-.5.732c-1.246.447-1.871,1.073-.951,1.472a26.345,26.345,0,0,0,3.856.764C29.925,20.084,30.406,22.981,28.233,24.487Zm1.007-6.8c-.933.046-2.02-.17-2.02-1q-.325-.014-.653,0a.767.767,0,0,1-.775-.78v-.015a.776.776,0,0,1,.737-.771,4.919,4.919,0,0,1,2.721.465C30.616,16.45,30.553,17.623,29.24,17.685Z"/></g></g></svg>