<svg id="icon" xmlns="http://www.w3.org/2000/svg" viewBox="0 0 50 50"><defs><style>.cls-1{fill:#10c90f;}</style></defs><title>099 copia 8</title><path class="cls-1" d="M40.8,37.116a3.733,3.733,0,0,0-3.484,2.4H35.2V33.953a3.688,3.688,0,0,0,4.163-.875C40.7,31.747,42.647,28.1,41.6,27.056s-4.692.906-6.022,2.236a5.075,5.075,0,0,0-.378.428V24.866c1.134.566,2.984-.209,4.163-1.388C40.7,22.147,42.647,18.5,41.6,17.456s-4.692.906-6.022,2.236a4.154,4.154,0,0,0-.378.444V14.881a2.939,2.939,0,0,0,2.133-3.1c0-2.062-1.313-6.4-2.933-6.4s-2.933,4.338-2.933,6.4a2.939,2.939,0,0,0,2.133,3.1v5c-.056-.062-.112-.124-.172-.184-1.33-1.33-4.977-3.282-6.022-2.236s.906,4.691,2.237,6.022a3.9,3.9,0,0,0,3.957,1v4.993c-.056-.062-.112-.124-.172-.184-1.33-1.33-4.977-3.282-6.022-2.236s.906,4.691,2.237,6.022a3.9,3.9,0,0,0,3.957,1v5.433H28.286a3.729,3.729,0,0,0-6.968,0H15.869V33.953a3.688,3.688,0,0,0,4.163-.875c1.33-1.331,3.282-4.977,2.237-6.022s-4.692.906-6.022,2.236a4.9,4.9,0,0,0-.378.428V24.866c1.134.566,2.984-.209,4.163-1.388,1.33-1.331,3.282-4.977,2.237-6.022s-4.692.906-6.022,2.236a4.041,4.041,0,0,0-.378.444V14.881A2.94,2.94,0,0,0,18,11.783c0-2.062-1.313-6.4-2.933-6.4s-2.934,4.338-2.934,6.4a2.939,2.939,0,0,0,2.134,3.1v5c-.057-.062-.113-.124-.172-.184-1.331-1.33-4.977-3.282-6.022-2.236s.906,4.691,2.236,6.022a3.9,3.9,0,0,0,3.958,1v4.993c-.057-.062-.113-.124-.172-.184-1.331-1.33-4.977-3.282-6.022-2.236s.906,4.691,2.236,6.022a3.9,3.9,0,0,0,3.958,1v5.433H12.086a3.731,3.731,0,0,0-3.484-2.4,3.83,3.83,0,0,0-3.733,2.4v5.867H44.535V39.516A4.252,4.252,0,0,0,40.8,37.116ZM12,43.516c-1.473,0-2.667-.6-2.667-1.333S10.529,40.85,12,40.85s2.667.6,2.667,1.333S13.475,43.516,12,43.516Zm12.8,0c-1.473,0-2.667-.6-2.667-1.333S23.329,40.85,24.8,40.85s2.667.6,2.667,1.333S26.275,43.516,24.8,43.516Zm13.333,0c-1.472,0-2.666-.6-2.666-1.333s1.194-1.333,2.666-1.333,2.667.6,2.667,1.333S39.608,43.516,38.135,43.516Z"/></svg>