<svg id="icon" xmlns="http://www.w3.org/2000/svg" viewBox="0 0 50 50"><defs><style>.cls-1{fill:#10c90f;}</style></defs><title>100 copia 8</title><path class="cls-1" d="M8.123,6.955C6.931,10.307,4.7,17.374,4.7,22.877c0,7,1.564,8.562,2.607,8.929V40.14c0,.6.372,1.117.74,1.117.447,0,.745-.521.745-1.117V31.806a2.581,2.581,0,0,0,1.411-1.34c0-.075.079-.075.079-.145.6-1.266,1.112-3.5,1.112-7.369a16.439,16.439,0,0,0-.218-4.237A67.6,67.6,0,0,0,8.123,6.955Z"/><path class="cls-1" d="M41.413,6.955c-1.192,3.352-3.422,10.419-3.422,15.922,0,5.061.82,7.291,1.634,8.259.079,0,.079.079.149.149a2.075,2.075,0,0,0,.824.521V40.14c0,.6.368,1.117.74,1.117.448,0,.746-.521.746-1.117V31.806c1.117-.367,2.606-1.931,2.606-8.929C44.835,17.374,42.605,10.307,41.413,6.955Z"/><path class="cls-1" d="M18.643,18.338c-.741-2.975-1.634-5.726-2.23-7.514a70.291,70.291,0,0,0-2.3,7.817,28.2,28.2,0,0,1,.294,4.236c0,3.576-.373,6.178-1.188,7.891.447,3.567,1.56,4.609,2.38,4.833V40.07c0,.592.372,1.108.74,1.108.447,0,.745-.516.745-1.108V35.6c.744-.224,1.564-1.043,2.085-3.124-.894-1.709-1.262-4.39-1.262-8.036C18.047,22.654,18.27,20.647,18.643,18.338Z"/><path class="cls-1" d="M24.737,8.519a95.411,95.411,0,0,0-2.681,9.973,30.808,30.808,0,0,0-.666,5.949c0,3.5.373,6.025,1.192,7.514v.075s0,.079.07.079a2.3,2.3,0,0,0,1.34,1.187V40.07c0,.592.373,1.108.745,1.108s.745-.516.745-1.108V33.3A2.145,2.145,0,0,0,26.6,32.4a25.352,25.352,0,0,1-.666-6.471,39.562,39.562,0,0,1,1.262-8.855A77,77,0,0,0,24.737,8.519Z"/><path class="cls-1" d="M34.95,15.74c-.591-2.309-1.266-4.316-1.782-5.731a68.666,68.666,0,0,0-2.161,7.216V17.3a38.205,38.205,0,0,0-1.266,8.706,23.438,23.438,0,0,0,.67,6.326v.07c.522,1.635,1.267,2.235,1.933,2.459V40.07c0,.592.376,1.108.745,1.108.446,0,.744-.516.744-1.108V34.861c.745-.224,1.49-.973,2.086-2.976-1.266-1.643-1.858-4.618-1.858-9.008A34.015,34.015,0,0,1,34.95,15.74Z"/></svg>