<svg id="icon" xmlns="http://www.w3.org/2000/svg" viewBox="0 0 50 50"><defs><style>.cls-1{fill:#10c90f;}</style></defs><title>Artboard 210</title><path class="cls-1" d="M17.927,18.847A65.72,65.72,0,0,0,13.635,5.424C11.957,9.25,8.812,17.316,8.812,23.6c0,7.987,2.2,9.772,3.67,10.192V43.3a1.237,1.237,0,0,0,1.042,1.276A1.161,1.161,0,0,0,14.573,43.3V33.789a3.464,3.464,0,0,0,1.985-1.531h0c0-.085.111-.085.111-.164.839-1.446,1.567-4,1.567-8.412a15.232,15.232,0,0,0-.309-4.835Z"/><path class="cls-1" d="M36.565,5.424C34.888,9.25,31.748,17.316,31.748,23.6c0,5.776,1.154,8.321,2.3,9.427h0c.111,0,.111.09.21.17h0a3.1,3.1,0,0,0,1.159.595V43.3a1.233,1.233,0,0,0,1.042,1.276A1.16,1.16,0,0,0,37.509,43.3V33.789c1.573-.42,3.669-2.205,3.669-10.192C41.382,17.316,38.243,9.25,36.565,5.424Z"/><path class="cls-1" d="M28.443,18.416C27.4,15.021,26.142,11.88,25.3,9.84a69.113,69.113,0,0,0-3.244,8.922,26.243,26.243,0,0,1,.413,4.835c0,4.081-.525,7.051-1.672,9.007h0c.629,4.07,2.2,5.26,3.35,5.515v5.1a1.229,1.229,0,0,0,1.042,1.265,1.153,1.153,0,0,0,1.048-1.265v-5.1c1.048-.255,2.2-1.19,2.936-3.565C27.918,32.6,27.4,29.543,27.4,25.382,27.6,23.342,27.918,21.052,28.443,18.416Z"/></svg>