<svg id="icon" xmlns="http://www.w3.org/2000/svg" viewBox="0 0 50 50"><defs><style>.cls-1{fill:#10c90f;}</style></defs><title>Artboard 211</title><path class="cls-1" d="M45,6.5a1.35,1.35,0,0,0-.495-1.01A1.35,1.35,0,0,0,43.5,5a1.109,1.109,0,0,0-.141.018C43.288,5.011,43.218,5,43.145,5H6.855c-.073,0-.143.011-.214.018A1.109,1.109,0,0,0,6.5,5a1.353,1.353,0,0,0-1.008.492A1.351,1.351,0,0,0,5,6.5a1.109,1.109,0,0,0,.018.141C5.011,6.712,5,6.782,5,6.855v36.29A1.711,1.711,0,0,0,6.5,45a1.2,1.2,0,0,0,.317-.044,2.136,2.136,0,0,0,.42.044H43.163c.069,0,.135-.011.2-.017A1.2,1.2,0,0,0,43.5,45a1.33,1.33,0,0,0,.951-.434A1.378,1.378,0,0,0,45,43.5a1.109,1.109,0,0,0-.018-.141c.007-.072.018-.141.018-.214V6.855c0-.073-.011-.143-.018-.214A1.109,1.109,0,0,0,45,6.5ZM42,42H8V8H42Z"/><path class="cls-1" d="M12.05,39a.826.826,0,0,0,.222-.031,1.48,1.48,0,0,0,.294.031H37.714a1.315,1.315,0,0,0,.142-.012A.755.755,0,0,0,37.95,39a.931.931,0,0,0,.666-.3A.966.966,0,0,0,39,37.95a.811.811,0,0,0-.012-.1c0-.05.012-.1.012-.15V12.3c0-.052-.008-.1-.012-.151,0-.033.012-.064.012-.1a.948.948,0,0,0-.346-.707.945.945,0,0,0-.7-.343.8.8,0,0,0-.1.012c-.05,0-.1-.012-.151-.012H12.3c-.052,0-.1.008-.151.012a.772.772,0,0,0-.1-.012.946.946,0,0,0-.706.345A.946.946,0,0,0,11,12.05c0,.034.009.065.012.1,0,.05-.012.1-.012.151V37.7A1.2,1.2,0,0,0,12.05,39Zm3.293-2.1,9.963-9.964L35.27,36.9ZM36.9,34.57l-9.614-9.614L36.9,15.343ZM35.183,13.1l-9.877,9.877L15.43,13.1ZM13.1,14.73,23.327,24.956,13.1,35.183Z"/></svg>