<svg id="icon" xmlns="http://www.w3.org/2000/svg" viewBox="0 0 50 50"><defs><style>.cls-1{fill:#10c90f;fill-rule:evenodd;}</style></defs><title>Artboard 209</title><g id="icon-2" data-name="icon"><path class="cls-1" d="M25,5A20,20,0,1,0,45,25,20.059,20.059,0,0,0,25,5Zm0,37A17,17,0,1,1,42,25,17.017,17.017,0,0,1,25,42Z"/><path class="cls-1" d="M29.75,26.25h0c1-.25,1.75-.5,2.5-.75a.245.245,0,0,0,.25-.25v-.5a30.968,30.968,0,0,1-4.5-5.5h0c.5,0,.75-.25,1.25-.25a.245.245,0,0,0,.25-.25v-.5a27.842,27.842,0,0,1-4-6c0-.25-.25-.25-.5-.25s-.25,0-.5.25a23.95,23.95,0,0,1-4.25,6,.346.346,0,0,0,0,.5.245.245,0,0,0,.25.25,2.254,2.254,0,0,0,1.25.25h0a21.7,21.7,0,0,1-4.25,5.5v.5a.245.245,0,0,0,.25.25l2.25.75h0v.25A44.587,44.587,0,0,1,14.5,33a.346.346,0,0,0,0,.5c0,.25,0,.25.25.25a25.16,25.16,0,0,0,9,1.5V38H26V35.25a25.16,25.16,0,0,0,9-1.5.245.245,0,0,0,.25-.25c0-.25,0-.25-.25-.5C33.25,30.75,31.5,28.75,29.75,26.25Z"/></g></svg>