<svg id="icon" xmlns="http://www.w3.org/2000/svg" viewBox="0 0 50 50"><title>Artboard 216</title><path d="M23.375,29.437h-6.3V24.766a1.828,1.828,0,0,0-3.656,0v4.671h-6.3a1.625,1.625,0,0,0,0,3.25h6.3v10.36a1.828,1.828,0,0,0,3.656,0V32.687h6.3a1.625,1.625,0,1,0,0-3.25Z"/><path d="M33,13.062a1.631,1.631,0,0,0-1.625-1.625h-6.3V6.766a1.828,1.828,0,0,0-3.656,0v4.671h-6.3a1.625,1.625,0,0,0,0,3.25h6.3v10.36a1.828,1.828,0,0,0,3.656,0V14.687h6.3A1.63,1.63,0,0,0,33,13.062Z"/><path d="M43.375,29.437h-6.3V24.766a1.828,1.828,0,0,0-3.656,0v4.671h-6.3a1.625,1.625,0,0,0,0,3.25h6.3v10.36a1.828,1.828,0,0,0,3.656,0V32.687h6.3a1.625,1.625,0,1,0,0-3.25Z"/></svg>