<svg id="icon" xmlns="http://www.w3.org/2000/svg" viewBox="0 0 50 50"><title>Artboard 217</title><path d="M43.441,33.789H6.559A1.653,1.653,0,0,0,5,35.3v8.081A1.653,1.653,0,0,0,6.559,44.9H43.441A1.653,1.653,0,0,0,45,43.385V35.3A1.653,1.653,0,0,0,43.441,33.789Z"/><path d="M34.653,13.66H27.172V8.11a2.172,2.172,0,1,0-4.344,0v5.55H15.347a1.931,1.931,0,1,0,0,3.861h7.481V29.828a2.172,2.172,0,1,0,4.344,0V17.521h7.481a1.931,1.931,0,1,0,0-3.861Z"/><rect x="18" y="9.5" width="14" height="3.5" rx="1.5"/><rect x="18.5" y="22" width="13" height="3.25" rx="1.5" transform="translate(13.886 -8.927) rotate(27.768)"/></svg>