<svg id="icon" xmlns="http://www.w3.org/2000/svg" viewBox="0 0 50 50"><title>Artboard 215</title><rect x="40.556" y="21" width="4.444" height="8"/><path d="M40.556,5H9.444A4.443,4.443,0,0,0,5,9.444V15H9.444V9.444H40.556V14H45V9.444A4.443,4.443,0,0,0,40.556,5Z"/><rect x="5" y="22" width="4.444" height="8"/><path d="M40.556,40.556H9.444V37H5v3.556A4.443,4.443,0,0,0,9.444,45H40.556A4.443,4.443,0,0,0,45,40.556V36H40.556Z"/><path d="M25,10.938a2.351,2.351,0,0,0-2.344,2.343v5.99H14.583a2.083,2.083,0,1,0,0,4.166h8.073V36.719a2.344,2.344,0,0,0,4.688,0V23.437h8.073a2.083,2.083,0,0,0,0-4.166H27.344v-5.99A2.351,2.351,0,0,0,25,10.938Z"/></svg>