<svg id="icon" xmlns="http://www.w3.org/2000/svg" viewBox="0 0 50 50"><defs><style>.cls-1{fill:#10c90f;fill-rule:evenodd;}</style></defs><title>Artboard 219</title><path class="cls-1" d="M34.358,18.266a7.518,7.518,0,0,0-1.344-1.892,4.818,4.818,0,0,0-4-1.86c-1.7.119-3.392,1.26-4.908,3.308q-.3-.117-.591-.231c-2.24-.87-4.208-1.634-5.521-4.3a1.652,1.652,0,0,0-1.619-.921,8.385,8.385,0,0,0-.7,2.741c-.116-.218-.225-.449-.329-.69a2.126,2.126,0,0,0-1.828,2c-.274,6.618,3.005,8.7,6.037,10.132a.724.724,0,0,1,.4.8c-.231,1.209-.381,2.641-.529,4.04-.075.729-.161,1.541-.264,2.319l-.136.021c-1.484.227-2.656.406-3.047,1.334a1.834,1.834,0,0,0,.392,1.82c.485.675,1.241,1.57,2.181,1.57a1.47,1.47,0,0,0,.381-.05c.972-.258,1.416-1.394,1.691-2.72a.729.729,0,0,1,.564-.551c.418-.092.8-.194,1.162-.308,5.839-1.852,6.991-6.079,7.915-9.475.62-2.274,1.158-4.243,2.882-5.151a.633.633,0,0,1,.233-.08,12.723,12.723,0,0,1,2.609.305l.51.163-2.022-2.139A.688.688,0,0,1,34.358,18.266ZM18.5,36.63a3.468,3.468,0,0,1-.7-.778c-.024-.032-.044-.062-.061-.09a10.441,10.441,0,0,1,1.119-.229A4.048,4.048,0,0,1,18.5,36.63ZM15.262,17.619a8.061,8.061,0,0,0,.639.655,10.365,10.365,0,0,0,3.342,6.151C17.092,23.255,15.372,21.6,15.262,17.619ZM24.431,31.94a10.615,10.615,0,0,1-2.613,1.2c-.262.083-.537.158-.84.229.067-.557.132-1.16.2-1.8.108-1.021.218-2.063.357-3a.727.727,0,0,1,1.092-.519,3.981,3.981,0,0,1,2.13,3.215A.731.731,0,0,1,24.431,31.94Zm-.205-3.909.378.208a5.564,5.564,0,0,1,.376.68A4.743,4.743,0,0,0,24.226,28.031Zm4.343-3.148a14.883,14.883,0,0,1-2.18,5.243,7.232,7.232,0,0,0-.3-1.07l-.107-.275a10.529,10.529,0,0,0-3.732-4.155c-2.1-1.616-4.1-3.162-4.669-6.87a.73.73,0,0,1,1.192-.662,14.455,14.455,0,0,0,4.1,2.138c2.459.955,4.585,1.781,5.819,5.176Zm1.438-3.957a.718.718,0,0,1-1.186.053,8.4,8.4,0,0,0-2.293-2.008.728.728,0,0,1-.148-1.127,4.512,4.512,0,0,1,2.758-1.576,3.227,3.227,0,0,1,2.618,1.339,7.67,7.67,0,0,1,.756.939A5.772,5.772,0,0,0,30.007,20.926Zm3.625-1.783h0l.1-.038.068.04Z"/><path class="cls-1" d="M25,5A20,20,0,1,0,45,25,20.059,20.059,0,0,0,25,5Zm0,37A17,17,0,1,1,42,25,17.017,17.017,0,0,1,25,42Z"/></svg>