<svg id="icon" xmlns="http://www.w3.org/2000/svg" viewBox="0 0 50 50"><defs><style>.cls-1{fill:#10c90f;}</style></defs><title>Artboard 220</title><path class="cls-1" d="M25,5A20,20,0,1,0,45,25,20.059,20.059,0,0,0,25,5Zm0,37A17,17,0,1,1,42,25,17.017,17.017,0,0,1,25,42Z"/><path class="cls-1" d="M35.322,30.828c-.323.147-.633.325-.96.463a10.826,10.826,0,0,1-5.887,1.183,14.924,14.924,0,0,1-2.181-.579c-.183-.056-.319-.264-.476-.4l.075-.123c.279.042.557.091.838.124.852.1,1.7.23,2.558.283a1.855,1.855,0,0,0,1.329-.381.769.769,0,0,0,.318-.754.7.7,0,0,0-.553-.585c-1.318-.393-2.624-.824-3.947-1.2a6.935,6.935,0,0,0-2.779-.377c-1.057.138-2.113.285-3.169.428a.379.379,0,0,0-.363.412c-.115,1.856-.245,3.711-.361,5.567a1.24,1.24,0,0,0,.105.378,1.327,1.327,0,0,0,.355-.139,1.823,1.823,0,0,1,1.476-.5c2.147.364,4.294.73,6.446,1.065a4.6,4.6,0,0,0,2.834-.162A30.184,30.184,0,0,0,35.7,32.786a2.915,2.915,0,0,0,.721-.855.794.794,0,0,0-.121-.988A.781.781,0,0,0,35.322,30.828Z"/><path class="cls-1" d="M18.112,28.817c-1.077-.061-2.154-.112-3.232-.169-.554-.029-.8.182-.858.738q-.3,2.771-.61,5.54c-.047.418.085.578.5.581.608,0,1.217,0,1.825,0,.631,0,1.262,0,1.893,0,.405,0,.623-.17.65-.515q.219-2.763.42-5.525C18.735,29,18.585,28.843,18.112,28.817Z"/><path class="cls-1" d="M33.449,18.911c-.314-.355-.458-.347-.759.039a2.082,2.082,0,0,1-.181.183l.749.05c.182.706.832.152,1.238.363.039.02.166-.129.254-.2l-.642-.382-.142.123-.426-.569-.1.079.258.366-.091.075A1.282,1.282,0,0,1,33.449,18.911Z"/><path class="cls-1" d="M35.583,19.681c-.131.536.557.133.576.55l-.879.533-.478-.895-.081.035c.145.338.289.677.441,1.035l.452-.15c0,.077.021.145,0,.181-.541.775-.671,1.757-1.255,2.5-.108.137-.352.168-.563.262-.181-.562-.538-.973-.4-1.567a1.467,1.467,0,0,0-.226-.812c-.036-.077-.254-.073-.39-.1a2.679,2.679,0,0,1-.761-.153c-.673-.372-.263-1.472.342-1.834a.987.987,0,0,0,.148-.135c-.459.126-.4-.17-.382-.477l.43-.037-.147-.365.825-.693c.609.484.692-.307,1.111-.531-.537-.024-.456-.3-.307-.607L33.9,16.4l-.138.579c-.042.178-.084.356-.124.527-.317-.028-.25-.641-.623-.2a1.065,1.065,0,0,1,1.145-1.337,3.9,3.9,0,0,0,.606.1,6.354,6.354,0,0,0-9.093.037c.708.452,1.551.165,2.408.1,0,.21-.014.388,0,.563.025.263-.076.375-.34.423-.168.031-.4.141-.448.271s.091.343.2.483a4.887,4.887,0,0,0,.534.521c.056-.354.082-.6.138-.845a.286.286,0,0,1,.481-.136,3.332,3.332,0,0,1,.888,1.343c0,.029.008.059.019.137-.706.373-1.611.569-1.753,1.445a3.269,3.269,0,0,0-.836-.062c-.1.017-.142.317-.257.6l.53-.15c.166.262.318.5.48.752a1.307,1.307,0,0,1,1.761.341,2.388,2.388,0,0,0,1.073.823c-.309.387-.254.922-.877,1.085-.286.075-.472.53-.7.813a8.234,8.234,0,0,0-.7.872,1.993,1.993,0,0,0-.123.663c-.4-.105-.544-.333-.43-.823.13-.559.285-1.114.394-1.678a.6.6,0,0,0-.132-.456,1.358,1.358,0,0,1-.247-1.52,4.859,4.859,0,0,1-1.4-.792,3.928,3.928,0,0,1-.914-1.757,3.485,3.485,0,0,0-.592-1.43.982.982,0,0,0-.192-.194A6.365,6.365,0,1,0,36.6,20.532c0-.176-.012-.349-.026-.521A4.026,4.026,0,0,0,35.583,19.681ZM32.042,17.17c.095-.18.2-.357.365-.657l.307.8-.7.062A.815.815,0,0,1,32.042,17.17Zm-1.666.154c-.1.19-.176.395-.29.655a1.574,1.574,0,0,1-.256-.308c-.13-.288-.2-.606-.354-.88-.21-.375.022-.6.265-.742.3-.177.432.107.588.319A.813.813,0,0,1,30.376,17.324Zm5.06,5.714c-.347-.269-.292-.536.222-.813Z"/><path class="cls-1" d="M35.115,18.747l-.618-.374-.238.473h.819Z"/></svg>