<?xml version="1.0" encoding="utf-8"?>
<!-- Generator: Adobe Illustrator 15.1.0, SVG Export Plug-In . SVG Version: 6.00 Build 0)  -->
<!DOCTYPE svg PUBLIC "-//W3C//DTD SVG 1.1//EN" "http://www.w3.org/Graphics/SVG/1.1/DTD/svg11.dtd">
<svg version="1.1" id="Capa_1" xmlns="http://www.w3.org/2000/svg" xmlns:xlink="http://www.w3.org/1999/xlink" x="0px" y="0px"
	 width="12px" height="12px" viewBox="0 0 12 12" enable-background="new 0 0 12 12" xml:space="preserve">
<g>
	<path fill-rule="evenodd" clip-rule="evenodd" d="M10.53,4.658c0,1.569,0,3.138,0,4.707c-0.084,1.191-1.451,1.099-2.689,1.136
		c-1.607,0-3.213,0-4.821,0c-2.363-0.489-1.295-4.228-1.392-6.63C1.616,3.554,1.543,3.247,1.559,2.966
		C1.579,2.615,1.75,2.13,1.884,1.969c0.385-0.468,1.542-0.44,2.434-0.44c1.472,0,2.69-0.064,4.103,0
		c0.771,0.035,1.938-0.003,2.063,0.649c0.03,0.157-0.022,0.374-0.022,0.58C10.461,3.407,10.491,4.028,10.53,4.658z M6.891,2.131
		C5.305,2.27,2.73,1.563,2.162,2.85c-0.151,0.345-0.021,0.84,0,1.345c0.027,0.606-0.07,1.278-0.115,1.947
		C2,6.816,1.997,7.527,2.023,8.136c0.029,0.658,0.249,1.407,0.626,1.6c0.332,0.169,1.045,0.139,1.6,0.139
		c1.291,0,2.215-0.04,3.43-0.046c0.973-0.006,2.042,0.107,2.295-0.557c0.156-0.41,0.069-1.173,0.069-1.762
		c0-1.314-0.013-2.462-0.046-3.663C9.98,3.265,10.029,2.699,9.719,2.27C8.826,2.126,7.854,2.047,6.891,2.131z"/>
	<path fill-rule="evenodd" clip-rule="evenodd" d="M8.954,7.974c-0.16-0.118-0.09-0.396-0.047-0.533
		c0.094-0.299,0.364-0.604,0.325-0.998c-0.21,0.138-0.127,0.57-0.44,0.603C8.743,6.657,9.239,6.126,8.885,5.724
		C8.918,6.002,8.831,6.211,8.769,6.42C8.731,6.541,8.731,6.741,8.583,6.744C8.343,6.411,8.874,5.788,8.49,5.516
		c0.17,0.628-0.313,0.916-0.231,1.554c0.03,0.239,0.233,0.387,0.255,0.626c0.018,0.198-0.105,0.315-0.186,0.486
		c-0.073,0.157-0.076,0.359-0.232,0.44C8.067,8.371,8.177,8.073,8.259,7.857C8.147,7.436,7.949,7.2,7.98,6.722
		c0.037-0.586,0.496-1.132,0.139-1.6c-0.094-0.123-0.3-0.191-0.417-0.208c-0.672-0.1-1.293,0.413-2.016,0.162
		c-0.14-0.309-0.482-0.34-0.696-0.58C4.831,4.316,4.807,4.062,4.666,3.87C4.4,3.508,4.018,3.418,3.553,3.221
		C3.455,3.238,3.45,3.349,3.414,3.429c-0.4,0.233-0.552,0.715-0.857,1.043c-0.333-0.004-0.109-0.325,0-0.464
		C2.78,3.723,2.973,3.446,3.228,3.221c-0.05-0.147-0.209-0.296-0.139-0.487C3.285,2.726,3.38,2.953,3.553,2.989
		c0.091,0.019,0.203-0.034,0.301-0.023c0.259,0.029,0.768,0.417,0.928,0.579c0.295,0.3,0.387,0.733,0.648,1.066
		c0.185,0.04,0.329,0.12,0.418,0.255C6.551,5,7.014,4.609,7.633,4.658c0.539,0.043,1.276,0.535,1.6,0.858
		C9.48,5.764,9.687,6.15,9.649,6.513c-0.04,0.394-0.377,0.675-0.487,1.066C9.119,7.734,9.219,7.944,8.954,7.974z"/>
	<path fill-rule="evenodd" clip-rule="evenodd" d="M3.877,4.078c0.127,0.05,0.081,0.162,0.023,0.255
		c0.39,0.381,0.095,1.19,0.417,1.831c0.25,0.498,0.664,0.796,0.557,1.669C4.845,8.07,4.77,8.362,4.689,8.599
		C4.75,8.692,4.776,8.821,4.782,8.97C4.708,9.107,4.42,9.146,4.225,9.086c0.089-0.41,0.425-0.752,0.417-1.252
		C4.64,7.666,4.594,7.384,4.573,7.162C4.548,6.906,4.32,6.741,4.156,6.513C4.036,6.345,3.901,6.153,3.854,5.91
		c-0.097-0.5,0.014-0.922-0.186-1.345C3.421,4.493,3.037,4.691,2.88,4.635c0.087-0.229,0.415-0.317,0.626-0.348
		C3.664,4.251,3.69,4.084,3.877,4.078z"/>
	<path fill-rule="evenodd" clip-rule="evenodd" d="M8.003,9.039c0.01,0.095-0.144,0.026-0.208,0.047
		C7.753,9.16,7.672,9.318,7.54,9.225c-0.085-0.37,0.361-0.649,0.301-1.182C7.816,7.827,7.619,7.717,7.493,7.532
		C7.291,7.236,7.208,6.781,6.96,6.582C6.432,6.66,5.981,6.847,5.384,6.791C5.156,7.027,5.332,7.449,5.292,7.788
		C5.253,8.117,5.165,8.42,4.92,8.553C4.825,8.323,4.913,8.007,5.06,7.881C4.999,7.467,4.936,6.962,5.175,6.698
		c0.199-0.117,0.452-0.081,0.719-0.116C6.291,6.53,6.846,6.154,7.262,6.443c0.137,0.095,0.266,0.521,0.371,0.719
		C7.704,7.296,7.765,7.406,7.841,7.51c0.106,0.143,0.27,0.281,0.278,0.533C8.131,8.37,7.908,8.718,8.003,9.039z"/>
</g>
</svg>
