<svg id="icon" xmlns="http://www.w3.org/2000/svg" viewBox="0 0 50 50"><defs><style>.cls-1{fill:#10c90f;}</style></defs><title>Artboard 218</title><path class="cls-1" d="M25,5a20.013,20.013,0,0,0-1,40h1.75A20.007,20.007,0,0,0,25,5Zm9.5,34.5A10.183,10.183,0,0,0,36,36.75l-4.75,1C27,38.75,26.5,41.5,26.5,42h-.75V33.25H23.5V42h-.75c0-.75-.5-3.25-4.75-4.25l-4.75-1c.25.5.75,1.5,1.5,2.75a18.892,18.892,0,0,1-7-14.5A17.25,17.25,0,1,1,34.5,39.5Z"/><path class="cls-1" d="M22.5,13.5a3.451,3.451,0,0,1,1-.75,2.7,2.7,0,0,0-2.25-.5C21.75,12.75,22.25,13,22.5,13.5Z"/><path class="cls-1" d="M28,13a5.465,5.465,0,0,1,1.25-.75c0-.75-.5-1-.75-1-.75-.25-1.75.25-2.75.75.25,0,.5.25.75.25Z"/><path class="cls-1" d="M25,18.5a12.236,12.236,0,0,1,2.5-4.75l.25-.25A4.224,4.224,0,0,0,26.5,13a2.114,2.114,0,0,0-1.75,0l-.75.25A3.451,3.451,0,0,0,23,14,15.146,15.146,0,0,1,25,18.5Z"/><path class="cls-1" d="M29.5,12.75a5.453,5.453,0,0,0-1.25,1L28,14c-1,1-1.75,3-2.5,5.75a42.342,42.342,0,0,1,1.5,9.5,6.431,6.431,0,0,1-1.25,3.5c.25.25.25.25.5.25h.25c4.25-.25,5.75-3,5.75-3,3.5-6.25-.25-15.75-.75-17.25Z"/><path class="cls-1" d="M24.75,19.75a14.122,14.122,0,0,0-2.5-5.5,3.467,3.467,0,0,0-2-1.5A2.254,2.254,0,0,0,19,12.5c-.5,1.25-4.25,11-.75,17.25a6.714,6.714,0,0,0,5.5,3h.5c.25,0,.5-.25.75-.5A6.552,6.552,0,0,0,26.5,29,70.276,70.276,0,0,0,24.75,19.75Z"/></svg>