<svg id="icon" xmlns="http://www.w3.org/2000/svg" viewBox="0 0 50 50"><defs><style>.cls-1{fill:#4eb5b0;}</style></defs><title>Artboard 224</title><path class="cls-1" d="M20.451,26.676q.066-.738.127-1.467t.115-1.477q.1.695.277,1.472t.452,1.66l1.852,6.208h3.452l1.852-6.208q.265-.882.446-1.66c.122-.518.215-1.009.282-1.472q.043.738.11,1.472t.133,1.472l.705,6.4h5.69L33.386,16.928H27.409l-1.2,3.926q-.441,1.445-.706,2.6t-.4,2.182h-.1a24.564,24.564,0,0,0-.893-4.157c-.074-.249-.129-.437-.166-.562L22.8,16.928H16.813L14.056,33.072h5.689Z"/><path class="cls-1" d="M45,6.5a1.35,1.35,0,0,0-.495-1.01A1.35,1.35,0,0,0,43.5,5a1.109,1.109,0,0,0-.141.018C43.288,5.011,43.218,5,43.145,5H6.855c-.073,0-.143.011-.214.018A1.109,1.109,0,0,0,6.5,5a1.353,1.353,0,0,0-1.008.492A1.351,1.351,0,0,0,5,6.5a1.109,1.109,0,0,0,.018.141C5.011,6.712,5,6.782,5,6.855v36.29A1.711,1.711,0,0,0,6.5,45a1.2,1.2,0,0,0,.317-.044,2.136,2.136,0,0,0,.42.044H43.163c.07,0,.135-.011.2-.017A1.2,1.2,0,0,0,43.5,45a1.33,1.33,0,0,0,.951-.434A1.378,1.378,0,0,0,45,43.5a1.109,1.109,0,0,0-.018-.141c.007-.072.018-.141.018-.214V6.855c0-.073-.011-.143-.018-.214A1.109,1.109,0,0,0,45,6.5ZM42,42H8V8H42Z"/></svg>