<svg id="icon" xmlns="http://www.w3.org/2000/svg" viewBox="0 0 50 50"><defs><style>.cls-1{fill:#4eb5b0;}</style></defs><title>Artboard 223</title><path class="cls-1" d="M17.31,29.818H20.8l.413,1.619h4.978l-4.5-12.874H16.537l-4.59,12.874h4.968ZM18.48,25.3c.193-.738.325-1.308.395-1.706a8.9,8.9,0,0,0,.132-1.125h.079a9.284,9.284,0,0,0,.132,1.125c.071.4.2.968.4,1.706l.4,1.46H18.084Z"/><path class="cls-1" d="M31.538,27.638h1.451a5.8,5.8,0,0,0,3.85-1.051,4.173,4.173,0,0,0,1.214-3.328A4.4,4.4,0,0,0,36.7,19.688a6.621,6.621,0,0,0-4.27-1.125H26.9V31.437h4.634Zm.017-5.5h.721a1.575,1.575,0,0,1,1,.286.959.959,0,0,1,.36.8.946.946,0,0,1-.351.787,1.613,1.613,0,0,1-1.012.277h-.721Z"/><path class="cls-1" d="M45,6.5a1.35,1.35,0,0,0-.495-1.01A1.35,1.35,0,0,0,43.5,5a1.109,1.109,0,0,0-.141.018C43.288,5.011,43.218,5,43.145,5H6.855c-.073,0-.143.011-.214.018A1.109,1.109,0,0,0,6.5,5a1.353,1.353,0,0,0-1.008.492A1.351,1.351,0,0,0,5,6.5a1.109,1.109,0,0,0,.018.141C5.011,6.712,5,6.782,5,6.855v36.29A1.711,1.711,0,0,0,6.5,45a1.2,1.2,0,0,0,.317-.044,2.136,2.136,0,0,0,.42.044H43.163c.07,0,.135-.011.2-.017A1.2,1.2,0,0,0,43.5,45a1.33,1.33,0,0,0,.951-.434A1.378,1.378,0,0,0,45,43.5a1.109,1.109,0,0,0-.018-.141c.007-.072.018-.141.018-.214V6.855c0-.073-.011-.143-.018-.214A1.109,1.109,0,0,0,45,6.5ZM42,42H8V8H42Z"/></svg>