<svg id="icon" xmlns="http://www.w3.org/2000/svg" viewBox="0 0 50 50"><defs><style>.cls-1{fill:#4eb5b0;}</style></defs><title>Artboard 221</title><path class="cls-1" d="M45,6.5a1.35,1.35,0,0,0-.495-1.01A1.35,1.35,0,0,0,43.5,5a1.109,1.109,0,0,0-.141.018C43.288,5.011,43.218,5,43.145,5H6.855c-.073,0-.143.011-.214.018A1.109,1.109,0,0,0,6.5,5a1.353,1.353,0,0,0-1.008.492A1.351,1.351,0,0,0,5,6.5a1.109,1.109,0,0,0,.018.141C5.011,6.712,5,6.782,5,6.855v36.29A1.711,1.711,0,0,0,6.5,45a1.2,1.2,0,0,0,.317-.044,2.136,2.136,0,0,0,.42.044H43.163c.069,0,.135-.011.2-.017A1.2,1.2,0,0,0,43.5,45a1.33,1.33,0,0,0,.951-.434A1.378,1.378,0,0,0,45,43.5a1.109,1.109,0,0,0-.018-.141c.007-.072.018-.141.018-.214V6.855c0-.073-.011-.143-.018-.214A1.109,1.109,0,0,0,45,6.5ZM42,42H8V8H42Z"/><path class="cls-1" d="M12.949,32.156h2.469a.393.393,0,0,0,.393-.392V29.335H34.189v2.5a.319.319,0,0,0,.319.318h2.617a.319.319,0,0,0,.319-.318V23.214a.32.32,0,0,0-.319-.319H34.508a.32.32,0,0,0-.319.319v3.5h-.165V23.275a1.01,1.01,0,0,0-.883-1.1H20.61a2.4,2.4,0,1,0-3.594,2.209h-1.2V18.236a.394.394,0,0,0-.393-.393H12.949a.394.394,0,0,0-.393.393V31.764A.393.393,0,0,0,12.949,32.156Zm6.775-5.438a1.221,1.221,0,0,0,.649-.9v.9Zm.649-3.351v2.062a1.214,1.214,0,0,0-1.038-1.009A2.406,2.406,0,0,0,20.373,23.367Z"/></svg>