<svg id="icon" xmlns="http://www.w3.org/2000/svg" viewBox="0 0 50 50"><defs><style>.cls-1{fill:#4eb5b0;}</style></defs><title>Artboard 222</title><path class="cls-1" d="M23.444,28.857l3.966,7.482h9.139l-6.057-9.232a4.6,4.6,0,0,0,3.2-1.828A6.409,6.409,0,0,0,34.875,21.3a6.968,6.968,0,0,0-2.354-5.669q-2.353-1.968-6.815-1.968H15.451V36.339h7.993Zm0-9.356h1.27a2.538,2.538,0,0,1,1.789.581,2.154,2.154,0,0,1,.628,1.665,2.066,2.066,0,0,1-.628,1.619,2.581,2.581,0,0,1-1.789.565h-1.27Z"/><path class="cls-1" d="M45,6.5a1.35,1.35,0,0,0-.495-1.01A1.35,1.35,0,0,0,43.5,5a1.109,1.109,0,0,0-.141.018C43.288,5.011,43.218,5,43.145,5H6.855c-.073,0-.143.011-.214.018A1.109,1.109,0,0,0,6.5,5a1.353,1.353,0,0,0-1.008.492A1.351,1.351,0,0,0,5,6.5a1.109,1.109,0,0,0,.018.141C5.011,6.712,5,6.782,5,6.855v36.29A1.711,1.711,0,0,0,6.5,45a1.2,1.2,0,0,0,.317-.044,2.136,2.136,0,0,0,.42.044H43.163c.07,0,.135-.011.2-.017A1.2,1.2,0,0,0,43.5,45a1.33,1.33,0,0,0,.951-.434A1.378,1.378,0,0,0,45,43.5a1.109,1.109,0,0,0-.018-.141c.007-.072.018-.141.018-.214V6.855c0-.073-.011-.143-.018-.214A1.109,1.109,0,0,0,45,6.5ZM42,42H8V8H42Z"/></svg>