<svg id="icon" xmlns="http://www.w3.org/2000/svg" viewBox="0 0 50 50"><title>Artboard 225</title><path d="M39.78,7.065a.994.994,0,0,0-1.22.413.9.9,0,0,0,.211,1.164c.1.169.592,1.1.46,3.67-.025.476-.09,1.741-2.656,1.741-.28,0-.538-.017-.749-.038a14.306,14.306,0,0,0-.939-1.586,3.912,3.912,0,0,0-3.444-1.776,6.523,6.523,0,0,0-2.662.609A15.2,15.2,0,0,1,25,11.994a15.2,15.2,0,0,1-3.781-.732,6.531,6.531,0,0,0-2.663-.609,3.909,3.909,0,0,0-3.443,1.776,14.513,14.513,0,0,0-.94,1.586c-.21.021-.468.038-.749.038-2.565,0-2.631-1.265-2.655-1.741-.132-2.57.355-3.5.46-3.67a.9.9,0,0,0,.211-1.164,1,1,0,0,0-1.221-.413,8.227,8.227,0,0,0-5.168,8.646c.366,3.566,1.948,5,3.3,5.567-1.1,1.056-2.271,2.469-2.306,3.693A2.636,2.636,0,0,0,6.7,26.954a2.8,2.8,0,0,0,2.127.743,9.138,9.138,0,0,0,1.516-.15c1.349-.231,2.682-.564,3.518-.79.442,1.21,1.286,3.452,2.008,4.973a18.134,18.134,0,0,1,1.253,3.631c-.145.886-.508,4.019,1.206,5.745,1.345,1.355,4,1.639,5.989,1.639.336,0,.58-.009.685-.014s.349.014.684.014c1.99,0,4.645-.284,5.99-1.639,1.714-1.726,1.351-4.858,1.206-5.745a18.113,18.113,0,0,1,1.253-3.631c.722-1.521,1.566-3.763,2.008-4.973.836.226,2.169.558,3.518.79a9.148,9.148,0,0,0,1.516.15,2.8,2.8,0,0,0,2.127-.743,2.636,2.636,0,0,0,.652-1.983c-.035-1.224-1.21-2.637-2.306-3.693,1.354-.567,2.935-2,3.3-5.567A8.226,8.226,0,0,0,39.78,7.065ZM16.256,23.824a2.98,2.98,0,0,1,1.126-2.343,1.1,1.1,0,0,1,1.412.034l2.759,2.429a1.117,1.117,0,0,1,.222,1.4,2.963,2.963,0,0,1-5.519-1.524Zm5.418,16.259a2.161,2.161,0,0,1-.656.1,2.479,2.479,0,0,1-2.332-1.907,2.231,2.231,0,0,1,1.322-2.886,2.155,2.155,0,0,1,.655-.1A2.479,2.479,0,0,1,23,37.2,2.233,2.233,0,0,1,21.674,40.083Zm8,0a2.156,2.156,0,0,1-.656.1,2.479,2.479,0,0,1-2.332-1.907,2.232,2.232,0,0,1,1.322-2.886,2.161,2.161,0,0,1,.656-.1A2.48,2.48,0,0,1,31,37.2,2.234,2.234,0,0,1,29.676,40.083Zm1.1-13.27a2.978,2.978,0,0,1-2.551-1.465,1.116,1.116,0,0,1,.222-1.4l2.759-2.429a1.1,1.1,0,0,1,1.412-.034,2.993,2.993,0,0,1-1.842,5.332Z"/></svg>