<?xml version="1.0" encoding="utf-8"?>
<!-- Generator: Adobe Illustrator 23.0.0, SVG Export Plug-In . SVG Version: 6.00 Build 0)  -->
<svg version="1.1" xmlns="http://www.w3.org/2000/svg" xmlns:xlink="http://www.w3.org/1999/xlink" x="0px" y="0px"
	 viewBox="0 0 50 50" style="enable-background:new 0 0 50 50;" xml:space="preserve">
<style type="text/css">
	.st0{display:none;}
	.st1{display:inline;}
	.st2{display:inline;fill:#050505;}
	.st3{fill:none;stroke:#000000;stroke-width:3.2292;stroke-linecap:round;stroke-linejoin:round;stroke-miterlimit:10;}
</style>
<g id="icon" class="st0">
	<path class="st1" d="M32.7,16.5H18c-0.9,0-1.7-0.8-1.7-1.7v0c0-0.9,0.8-1.7,1.7-1.7h14.7c0.9,0,1.7,0.8,1.7,1.7v0
		C34.4,15.7,33.6,16.5,32.7,16.5z"/>
	<path class="st1" d="M27.7,15.5h-4.6c-0.7,0-1.3-0.6-1.3-1.3V5.3c0-0.7,0.6-1.3,1.3-1.3h4.6C28.4,4,29,4.6,29,5.3v8.9
		C29,14.9,28.4,15.5,27.7,15.5z"/>
	<path class="st1" d="M29.7,5.4h-8.7c-0.7,0-1.3-0.6-1.3-1.3V3c0-0.5,0.4-0.9,0.9-0.9h9.6C30.6,2.1,31,2.5,31,3v1.1
		C31,4.8,30.4,5.4,29.7,5.4z"/>
	<path class="st1" d="M29.7,13.7h-8.7c-0.7,0-1.3,0.6-1.3,1.3v22.7c0,0.7,0.6,1.3,1.3,1.3h8.7c0.7,0,1.3-0.6,1.3-1.3V15.1
		C31,14.3,30.4,13.7,29.7,13.7z M27.9,36.3c0,0.1-0.1,0.2-0.2,0.2h-4.6c-0.1,0-0.2-0.1-0.2-0.2V17.6c0-0.1,0.1-0.2,0.2-0.2h4.6
		c0.1,0,0.2,0.1,0.2,0.2V36.3z"/>
	<path class="st1" d="M27.8,37.3H23l1.1,4.3c0.1,0.4,0.6,0.7,1.1,0.7h0c0.5,0,1-0.3,1.1-0.7L27.8,37.3z"/>
	<path class="st1" d="M25.4,47.7L25.4,47.7c-0.2,0-0.4-0.2-0.4-0.4v-7.4c0-0.2,0.2-0.4,0.4-0.4l0,0c0.2,0,0.4,0.2,0.4,0.4v7.4
		C25.8,47.5,25.6,47.7,25.4,47.7z"/>
</g>
<g id="icon_1_" class="st0">
	<path class="st2" d="M46.7,31.1V2.4H42v28.7h-3.7V2.4h-4.7v28.7h-3.7V2.3h-4.7v28.7h-6V22l-7.6,9.1H10V22l-7.6,9.1H0v15.7h50.4
		V31.1H46.7z M9.6,43.9H2.6v-3.1h6.9V43.9z M9.6,39.9H2.6v-3.1h6.9V39.9z M19.4,43.9h-6.9v-3.1h6.9V43.9z M19.4,39.9h-6.9v-3.1h6.9
		V39.9z M28.2,43.9h-6.9v-3.1h6.9V43.9z M28.2,39.9h-6.9v-3.1h6.9V39.9z M38,43.9H31v-3.1H38V43.9z M38,39.9H31v-3.1H38V39.9z
		 M47.7,43.9h-6.9v-3.1h6.9V43.9z M47.7,39.9h-6.9v-3.1h6.9V39.9z"/>
</g>
<g id="icon_2_" class="st0">
	<g class="st1">
		<path class="st3" d="M46.1,21.2"/>
		<path class="st3" d="M4.1,20.6"/>
		<g>
			<path d="M33.6,46.7h-6.3L26.8,2c0-1.1-0.4-2-1.5-2h-0.1c-1.1,0-1.6,1.1-1.6,2.2l-0.4,44.5h-6c-0.2,0-0.4,0.2-0.4,0.4v2.7
				c0,0.2,0.2,0.4,0.4,0.4h16.4c0.2,0,0.4-0.2,0.4-0.4v-2.7C34,46.9,33.8,46.7,33.6,46.7z"/>
			<path d="M6,19.1H1.9c-0.2,0-0.4,0.2-0.4,0.4v2.8c0,0.2,0.2,0.4,0.4,0.4H6c0.2,0,0.4-0.2,0.4-0.4v-2.8C6.5,19.3,6.3,19.1,6,19.1z"
				/>
			<path d="M48.1,19.1H44c-0.2,0-0.4,0.2-0.4,0.4v2.8c0,0.2,0.2,0.4,0.4,0.4h4.1c0.2,0,0.4-0.2,0.4-0.4v-2.8
				C48.5,19.3,48.3,19.1,48.1,19.1z"/>
		</g>
	</g>
</g>
<g id="icon_3_">
	<path d="M49.5-1.3h-4.3c-0.2,0-0.5,0.2-0.5,0.5v21.4H26.5L14.6,5.3v15.3h-1.8L1,5.3v15.3H0.5C0.2,20.6,0,20.8,0,21v28.5
		C0,49.8,0.2,50,0.5,50h5V35.8c0-0.2,0.2-0.5,0.5-0.5h6.3c0.2,0,0.5,0.2,0.5,0.5V50h36.8c0.2,0,0.5-0.2,0.5-0.5V21.7V21V-0.9
		C50-1.1,49.8-1.3,49.5-1.3z M31.5,42c0,0.2-0.2,0.5-0.5,0.5H19.7c-0.2,0-0.5-0.2-0.5-0.5v-6.2c0-0.2,0.2-0.5,0.5-0.5H31
		c0.2,0,0.5,0.2,0.5,0.5V42z M46.8,42c0,0.2-0.2,0.5-0.5,0.5H35.1c-0.2,0-0.5-0.2-0.5-0.5v-6.2c0-0.2,0.2-0.5,0.5-0.5h11.3
		c0.2,0,0.5,0.2,0.5,0.5V42z"/>
</g>
</svg>
