<svg id="icon" xmlns="http://www.w3.org/2000/svg" viewBox="0 0 50 50"><defs><style>.cls-1{fill:#010002;}</style></defs><title>Artboard 226</title><path class="cls-1" d="M11.265,13.919a19.575,19.575,0,0,1,5.406-3.793c.8-.379.927-1.095.185-1.571A15.736,15.736,0,0,0,7.611,6.231c-1.14.226-4.038.562-1.763,1.928,1.421.853,2.839,3.554,3.7,5.46A.97.97,0,0,0,11.265,13.919Z"/><path class="cls-1" d="M42.39,6.232a15.727,15.727,0,0,0-9.251,2.327c-.744.477-.612,1.194.186,1.572a19.6,19.6,0,0,1,5.4,3.8.969.969,0,0,0,1.715-.3c.862-1.907,2.282-4.616,3.707-5.472C46.428,6.794,43.529,6.458,42.39,6.232Z"/><path class="cls-1" d="M25.144,11.393A16.22,16.22,0,1,0,41.363,27.614,16.221,16.221,0,0,0,25.144,11.393Zm3.5,9.259a1.937,1.937,0,1,1-1.935,1.936A1.94,1.94,0,0,1,28.641,20.652Zm-6.717,0a1.937,1.937,0,1,1-1.935,1.936A1.94,1.94,0,0,1,21.924,20.652Zm6.345,16.116H21.86A5.611,5.611,0,0,1,16,31.457a5.61,5.61,0,0,1,5.857-5.311h6.409a5.61,5.61,0,0,1,5.857,5.311A5.611,5.611,0,0,1,28.269,36.768Z"/><path class="cls-1" d="M28.068,27.727H21.935a3.968,3.968,0,0,0-4.2,3.68,3.968,3.968,0,0,0,4.2,3.679h6.133a3.966,3.966,0,0,0,4.2-3.679A3.965,3.965,0,0,0,28.068,27.727ZM22.623,32.3c-.394.472-1.628.758-1.47-.27a2.238,2.238,0,0,1,.635-1.116c.494-.524,1.077-.325,1.068.3A1.981,1.981,0,0,1,22.623,32.3Zm4.906,0a1.973,1.973,0,0,1-.232-1.086c-.01-.622.575-.823,1.068-.3A2.226,2.226,0,0,1,29,32.028C29.158,33.055,27.924,32.77,27.529,32.3Z"/></svg>