<?xml version="1.0" encoding="UTF-8" standalone="no"?>
<!-- Generator: Adobe Illustrator 16.0.0, SVG Export Plug-In . SVG Version: 6.00 Build 0)  -->

<svg
   xmlns:dc="http://purl.org/dc/elements/1.1/"
   xmlns:cc="http://creativecommons.org/ns#"
   xmlns:rdf="http://www.w3.org/1999/02/22-rdf-syntax-ns#"
   xmlns:svg="http://www.w3.org/2000/svg"
   xmlns="http://www.w3.org/2000/svg"
   xmlns:sodipodi="http://sodipodi.sourceforge.net/DTD/sodipodi-0.dtd"
   xmlns:inkscape="http://www.inkscape.org/namespaces/inkscape"
   version="1.1"
   id="Layer_1"
   x="0px"
   y="0px"
   width="12"
   height="12"
   viewBox="0 0 12 12"
   enable-background="new 0 0 100 100"
   xml:space="preserve"
   inkscape:version="0.48.4 r9939"
   sodipodi:docname="ancient3.svg"><metadata
   id="metadata9"><rdf:RDF><cc:Work
       rdf:about=""><dc:format>image/svg+xml</dc:format><dc:type
         rdf:resource="http://purl.org/dc/dcmitype/StillImage" /><dc:title></dc:title></cc:Work></rdf:RDF></metadata><defs
   id="defs7" /><sodipodi:namedview
   pagecolor="#ffffff"
   bordercolor="#666666"
   borderopacity="1"
   objecttolerance="10"
   gridtolerance="10"
   guidetolerance="10"
   inkscape:pageopacity="0"
   inkscape:pageshadow="2"
   inkscape:window-width="1600"
   inkscape:window-height="838"
   id="namedview5"
   showgrid="false"
   inkscape:zoom="26.780625"
   inkscape:cx="8.6956522"
   inkscape:cy="4.9919485"
   inkscape:window-x="-8"
   inkscape:window-y="32"
   inkscape:window-maximized="1"
   inkscape:current-layer="Layer_1" />

<g
   id="g3002"
   transform="matrix(0.17960023,0,0,0.17960023,-3.7440372,13.781293)"><path
     inkscape:connector-curvature="0"
     id="path3"
     d="m 64.950056,-64.807919 c -2.312702,-4.866411 -7.89156,-7.142084 -12.877553,-5.470076 l -1.279112,-2.691519 c -0.237365,-0.499466 -0.833863,-0.710898 -1.332426,-0.473962 L 27.980296,-63.23505 c -0.498563,0.236936 -0.711327,0.83296 -0.473962,1.332426 l 1.264947,2.661713 c -4.615801,2.753837 -6.47304,8.635393 -4.120849,13.584897 1.529783,3.218984 4.511923,5.389027 8.020691,5.89714 -0.185148,2.569183 0.209814,4.916928 1.194472,6.988855 3.331699,7.010594 12.370538,9.28169 19.024036,9.981545 -3.583041,2.511039 -5.116025,4.906987 -4.239963,6.750406 0.237366,0.499467 0.833863,0.710899 1.332427,0.473962 l 22.102066,-10.503737 c 0.498563,-0.236936 0.711328,-0.83296 0.473962,-1.332426 -0.876062,-1.84342 -3.70099,-2.168323 -7.911613,-0.975518 3.660033,-5.599021 7.606463,-14.043422 4.274763,-21.054016 -0.986804,-2.076443 -2.510803,-3.885412 -4.490854,-5.391289 1.848462,-3.050749 2.057576,-6.750682 0.519637,-9.986827 z m -38.492332,18.293012 c -2.024258,-4.259464 -0.205236,-9.371081 4.054228,-11.395339 2.333854,-1.109136 5.136849,-0.112823 6.246414,2.221935 0.711238,1.496592 0.589132,3.217608 -0.326025,4.602488 -0.07102,0.106826 -0.116299,0.223561 -0.136555,0.341691 -1.748781,3.188276 -2.869299,6.207518 -3.366711,9.002604 -2.831991,-0.418978 -5.236021,-2.173986 -6.471351,-4.773379 z m 34.834879,19.459549 c -0.265246,0.357456 -0.260725,0.846896 0.0091,1.200296 0.270239,0.354304 0.740827,0.487175 1.155107,0.32683 3.524235,-1.36041 5.783547,-1.650235 7.04694,-1.526551 l -18.653671,8.86493 c 0.702387,-1.056791 2.352574,-2.626013 5.633004,-4.499438 0.385951,-0.219955 0.581017,-0.66917 0.476062,-1.102023 -0.103622,-0.432379 -0.480733,-0.743643 -0.924924,-0.765055 -4.900935,-0.231801 -12.774739,-1.286182 -17.49412,-5.383075 l 1.40537,-0.667885 c 0.498564,-0.236936 0.711328,-0.83296 0.473963,-1.332427 l -2.647074,-5.569999 4.479843,-2.128991 2.629046,5.532065 c 0.237366,0.499467 0.833863,0.710899 1.332427,0.473962 l 6.435259,-3.058278 c 0.498563,-0.236936 0.711327,-0.83296 0.473962,-1.332426 l -2.629046,-5.532065 4.62887,-2.199814 2.629046,5.532064 c 0.237366,0.499467 0.833863,0.710899 1.332427,0.473963 l 6.435259,-3.058279 c 0.498563,-0.236936 0.711327,-0.83296 0.473962,-1.332426 l -2.629046,-5.532065 2.363659,-1.1233 c 0.528638,0.674375 1.00194,1.40937 1.388678,2.223148 3.431281,7.220135 -2.176392,16.579133 -5.824088,21.516839 z m 1.482026,-28.889835 c -2.531552,-1.529435 -5.63674,-2.646751 -9.229467,-3.27329 -1.651291,-0.164099 -3.062809,-1.156279 -3.774476,-2.653775 -1.096259,-2.306758 -0.129948,-5.063387 2.14451,-6.199655 4.225661,-1.899689 9.2313,-0.08234 11.229375,4.122029 1.230564,2.591693 1.077445,5.549776 -0.369942,8.004691 z" /><g
     transform="matrix(0.81375163,-0.2391873,0.24385984,0.82964833,-8.5682035,-71.091206)"
     id="g2997"><polygon
       style="fill:#010101"
       id="polygon17"
       points="52.575,54.72 57.669,48.695 51.67,43.62 49.16,46.567 49.654,52.219 "
       transform="matrix(1.9210606,0,0,1.6487883,-21.591472,-21.770061)" /><polygon
       style="fill:#010101"
       id="polygon19"
       points="66.418,56.046 55.104,56.046 55.094,67.573 62.79,67.573 66.418,63.655 "
       transform="matrix(1.9210606,0,0,1.6487883,-37.237049,-23.273494)" /><polygon
       style="fill:#010101"
       id="polygon21"
       points="36.604,64.849 45.979,68.171 49.805,67.054 46.362,55.522 38.19,57.946 "
       transform="matrix(1.9210606,0,0,1.6487883,-35.992789,-27.425546)" /></g></g></svg>