<?xml version="1.0" encoding="UTF-8" standalone="no"?>
<!-- Generator: Adobe Illustrator 16.0.0, SVG Export Plug-In . SVG Version: 6.00 Build 0)  -->

<svg
   xmlns:dc="http://purl.org/dc/elements/1.1/"
   xmlns:cc="http://creativecommons.org/ns#"
   xmlns:rdf="http://www.w3.org/1999/02/22-rdf-syntax-ns#"
   xmlns:svg="http://www.w3.org/2000/svg"
   xmlns="http://www.w3.org/2000/svg"
   xmlns:sodipodi="http://sodipodi.sourceforge.net/DTD/sodipodi-0.dtd"
   xmlns:inkscape="http://www.inkscape.org/namespaces/inkscape"
   version="1.1"
   id="Layer_1"
   x="0px"
   y="0px"
   width="12"
   height="12"
   viewBox="0 0 12 12"
   enable-background="new 0 0 126 126"
   xml:space="preserve"
   inkscape:version="0.48.4 r9939"
   sodipodi:docname="criminal26.svg"><metadata
   id="metadata9"><rdf:RDF><cc:Work
       rdf:about=""><dc:format>image/svg+xml</dc:format><dc:type
         rdf:resource="http://purl.org/dc/dcmitype/StillImage" /><dc:title></dc:title></cc:Work></rdf:RDF></metadata><defs
   id="defs7" /><sodipodi:namedview
   pagecolor="#ffffff"
   bordercolor="#666666"
   borderopacity="1"
   objecttolerance="10"
   gridtolerance="10"
   guidetolerance="10"
   inkscape:pageopacity="0"
   inkscape:pageshadow="2"
   inkscape:window-width="1600"
   inkscape:window-height="838"
   id="namedview5"
   showgrid="false"
   inkscape:zoom="38.631285"
   inkscape:cx="6.3516068"
   inkscape:cy="5.7634951"
   inkscape:window-x="-8"
   inkscape:window-y="32"
   inkscape:window-maximized="1"
   inkscape:current-layer="Layer_1" />
<path
   d="M 11.275578,1.5361133 V 0.5 H 0.724422 v 1.0361133 h 0.24245 V 10.463887 H 0.724422 V 11.5 H 11.275578 V 10.463887 H 11.068977 V 1.5361133 h 0.206601 z M 1.484929,10.463887 V 1.5361133 H 2.883682 V 7.2044817 C 2.705367,7.3478798 2.541661,7.5124145 2.39588,7.6897971 c -0.199659,0.242865 -0.238617,0.5778403 0,0.8165609 0.1205,0.1204999 0.310627,0.1826667 0.487802,0.1654673 V 10.46399 H 1.484929 z M 5.039937,7.7982782 C 4.905242,7.9539024 4.730554,8.0396926 4.547991,8.0396926 c -0.02155,0 -0.04331,-0.00125 -0.06517,-0.00373 -0.04155,-0.00477 -0.08288,-0.00715 -0.122676,-0.00715 -0.156764,0 -0.295085,0.037818 -0.423563,0.1046475 0.106098,0.9654503 0.220796,2.2885669 0.220796,2.2885669 0,0.01627 4.14e-4,0.147646 0.0011,0.240482 h -0.0072 c -0.0017,-0.02414 -0.0025,-0.04849 -0.0025,-0.07284 0,0 -0.004,-0.04631 -0.01098,-0.125784 H 3.401763 V 8.2914692 C 3.687315,7.9944155 4.008821,7.7947565 4.461914,7.8464585 4.775234,7.8823085 5.039236,7.5567612 5.039236,7.2691362 5.039236,6.9273225 4.774406,6.7273526 4.461914,6.6918139 4.139268,6.6550319 3.833304,6.7040409 3.549513,6.81335 3.547313,6.775118 3.542413,6.738646 3.533763,6.7050762 3.854959,6.5818823 4.187448,6.5348427 4.518071,6.5725572 4.945882,6.6213582 5.233196,6.9154072 5.233196,7.304364 5.2333,7.4762553 5.162846,7.6563318 5.039961,7.7982793 z m 0.296328,-2.370938 c -0.0058,-7.253e-4 -0.01192,-4.144e-4 -0.01772,-9.35e-4 V 5.3470392 C 5.121062,5.2640472 4.945027,5.1410598 4.800488,4.9873006 v 0.5334948 c -0.06258,0.020929 -0.121328,0.045071 -0.178314,0.070767 l -0.0021,-1.036e-4 c -0.05834,0.00964 -0.149719,0.065586 -0.258511,0.1485787 -0.04507,0.032015 -0.08755,0.066 -0.12713,0.1022643 C 3.958722,6.0739768 3.619499,6.4142364 3.401604,6.6393837 V 1.5361116 H 4.800357 V 2.7602794 C 4.55169,3.0300833 4.398449,3.3893038 4.398449,3.7854098 c 0,0.8210162 0.653788,1.4877551 1.469002,1.5121037 -0.188366,0.011397 -0.36751,0.055743 -0.531216,0.129825 z M 5.318545,2.3923572 V 1.5361133 H 6.717298 V 2.5038431 C 6.48407,2.3571294 6.208877,2.2709247 5.91286,2.2709247 c -0.211056,0 -0.411751,0.043413 -0.594315,0.1214325 z m 2.108699,1.3930543 c 0,-0.2677316 -0.07014,-0.5187819 -0.191993,-0.7369873 V 1.5361133 H 8.634004 V 6.6932634 L 8.033474,6.153552 C 7.916186,5.9886027 7.762012,5.8519394 7.576756,5.7431475 l -0.0023,-0.00217 -0.0014,0 C 7.469548,5.6804685 7.357337,5.6278339 7.235283,5.5849389 V 4.6727447 C 7.1124,4.8990318 6.93367,5.0898839 6.717226,5.2277906 v 0.2405855 c -0.017,-1.036e-4 -0.03409,-3.109e-4 -0.05056,9.35e-4 C 6.471981,5.3656998 6.252014,5.3036366 6.018474,5.2944151 c 0.786928,-0.0545 1.4087,-0.708287 1.4087,-1.5089953 z m 0.664147,6.6784755 c 0,-0.02145 1.04e-4,-0.03699 1.04e-4,-0.04186 0,0 0.02538,-1.0394291 0.08061,-1.9473752 -0.251361,-0.2722905 -0.50552,-0.4458395 -0.84464,-0.4458395 -0.03978,0 -0.08102,0.00238 -0.122676,0.00715 -0.02186,0.00248 -0.04362,0.00373 -0.06517,0.00373 C 6.74745,8.0395886 6.454438,7.651357 6.454438,7.3041555 c 0,-0.388957 0.287313,-0.6830059 0.715125,-0.7318068 0.405431,-0.046315 0.813556,0.034295 1.200026,0.2277376 V 6.9602694 C 8.004049,6.7523215 7.59209,6.6409394 7.148633,6.6916053 6.836038,6.7272483 6.571311,6.9271138 6.571311,7.2689276 c 0,0.2876251 0.264002,0.6131718 0.577322,0.5773223 0.555564,-0.06341 0.913438,0.2509466 1.249553,0.6597969 0.06248,0.075843 0.145263,0.1244373 0.235923,0.1490967 V 10.463577 H 8.091393 z m 2.459526,0 H 9.152166 V 8.5584745 c 0.02228,-0.01606 0.04351,-0.033156 0.06258,-0.05222 0.238618,-0.2387205 0.199659,-0.5736959 0,-0.8165608 -0.0203,-0.024659 -0.04144,-0.048801 -0.06258,-0.072942 V 1.536114 h 1.398753 v 8.927773 z"
   id="path3"
   inkscape:connector-curvature="0" />
</svg>