<?xml version="1.0" encoding="UTF-8" standalone="no"?>
<!-- Generator: Adobe Illustrator 16.0.4, SVG Export Plug-In . SVG Version: 6.00 Build 0)  -->

<svg
   xmlns:dc="http://purl.org/dc/elements/1.1/"
   xmlns:cc="http://creativecommons.org/ns#"
   xmlns:rdf="http://www.w3.org/1999/02/22-rdf-syntax-ns#"
   xmlns:svg="http://www.w3.org/2000/svg"
   xmlns="http://www.w3.org/2000/svg"
   xmlns:sodipodi="http://sodipodi.sourceforge.net/DTD/sodipodi-0.dtd"
   xmlns:inkscape="http://www.inkscape.org/namespaces/inkscape"
   version="1.1"
   id="Layer_1"
   x="0px"
   y="0px"
   width="12"
   height="12"
   viewBox="0 0 12 12"
   enable-background="new 0 0 26 26"
   xml:space="preserve"
   inkscape:version="0.48.4 r9939"
   sodipodi:docname="wine22.svg"><metadata
   id="metadata9"><rdf:RDF><cc:Work
       rdf:about=""><dc:format>image/svg+xml</dc:format><dc:type
         rdf:resource="http://purl.org/dc/dcmitype/StillImage" /><dc:title></dc:title></cc:Work></rdf:RDF></metadata><defs
   id="defs7" /><sodipodi:namedview
   pagecolor="#ffffff"
   bordercolor="#666666"
   borderopacity="1"
   objecttolerance="10"
   gridtolerance="10"
   guidetolerance="10"
   inkscape:pageopacity="0"
   inkscape:pageshadow="2"
   inkscape:window-width="1600"
   inkscape:window-height="838"
   id="namedview5"
   showgrid="false"
   inkscape:zoom="23.884615"
   inkscape:cx="7.8293076"
   inkscape:cy="13"
   inkscape:window-x="-8"
   inkscape:window-y="32"
   inkscape:window-maximized="1"
   inkscape:current-layer="Layer_1" />
<g
   id="g2989"
   transform="matrix(0.42307692,0,0,0.42307692,0.50000004,6.4230769)"><path
     sodipodi:nodetypes="cccc"
     inkscape:connector-curvature="0"
     id="rect2986"
     d="m 4.7729468,-13.288245 c 4.0193237,0 12.5603862,0.251208 16.5797102,0.251208 C 22.604803,-5.2146121 18.77754,1.0444017 11.05314,0.19323622 2.5476175,-3.716414 4.3533494,-8.8827549 4.7729468,-13.288245 z"
     style="fill:#ffffff;fill-opacity:1;fill-rule:nonzero;stroke:none" /><path
     inkscape:connector-curvature="0"
     style="fill:#000000"
     id="path3"
     d="m 20.402,-1.764 c 0.484,-0.611 0.913,-1.279 1.274,-1.999 0.001,-0.002 0.002,-0.004 0.004,-0.006 0.11,-0.221 0.211,-0.448 0.309,-0.677 0.025,-0.06 0.051,-0.12 0.075,-0.18 0.092,-0.226 0.177,-0.454 0.256,-0.687 0.02,-0.056 0.036,-0.113 0.055,-0.17 0.254,-0.788 0.436,-1.614 0.532,-2.472 0.002,-0.015 0.005,-0.03 0.007,-0.045 H 22.913 C 22.965,-8.469 23,-8.944 23,-9.429 23,-11.055 22.698,-12.6 22.162,-14 H 3.838 C 3.302,-12.6 3,-11.055 3,-9.429 3,-4.779 5.435,-0.785 8.923,1 H 8.906 c 0,0 3.094,1.458 3.094,3.5 0,1.828 0,2.844 0,3.5 0,2 -5.984,3.016 -4.787,4 H 18.788 C 19.984,11.047 14,10 14,8 14,7.33 14,6.322 14,4.5 14,2.458 17.094,1 17.094,1 h -0.017 c 0.019,-0.01 0.036,-0.021 0.056,-0.03 0.089,-0.047 0.177,-0.097 0.265,-0.146 0.172,-0.097 0.343,-0.193 0.51,-0.301 0.029,-0.019 0.057,-0.041 0.086,-0.06 0.388,-0.257 0.759,-0.542 1.111,-0.854 0.033,-0.029 0.068,-0.057 0.101,-0.087 0.16,-0.145 0.312,-0.297 0.464,-0.453 0.057,-0.059 0.114,-0.117 0.17,-0.177 0.146,-0.158 0.289,-0.32 0.428,-0.487 0.044,-0.055 0.088,-0.113 0.134,-0.169 z M 5,-9.429 C 5,-10.306 5.103,-11.166 5.305,-12 H 20.693 C 20.896,-11.166 21,-10.306 21,-9.429 21,-8.942 20.959,-8.467 20.898,-8 H 7.086 c 0.344,3.137 1.802,5.872 3.903,7.687 C 7.55,-1.369 5,-5.049 5,-9.429 z" /></g>
</svg>