<?xml version="1.0" standalone="no"?>
<!DOCTYPE svg PUBLIC "-//W3C//DTD SVG 20010904//EN"
 "http://www.w3.org/TR/2001/REC-SVG-20010904/DTD/svg10.dtd">
<svg version="1.0" xmlns="http://www.w3.org/2000/svg"
 width="225.000000pt" height="225.000000pt" viewBox="0 0 225.000000 225.000000"
 preserveAspectRatio="xMidYMid meet">

<g transform="translate(0.000000,225.000000) scale(0.100000,-0.100000)"
fill="#000000" stroke="none">
<path d="M956 1584 c-3 -9 -6 -78 -6 -155 l0 -139 -150 0 -150 0 0 -164 c0
-140 2 -165 16 -170 9 -3 76 -6 150 -6 l134 0 0 -134 c0 -74 3 -141 6 -150 5
-14 30 -16 170 -16 l164 0 0 150 0 150 139 0 c77 0 146 3 155 6 14 5 16 30 16
170 l0 163 -152 3 -153 3 -3 153 -3 152 -163 0 c-140 0 -165 -2 -170 -16z
m314 -164 l0 -150 150 0 150 0 0 -145 0 -145 -150 0 -150 0 0 -150 0 -150
-145 0 -145 0 0 150 0 150 -150 0 -150 0 0 145 0 145 150 0 150 0 0 150 0 150
145 0 145 0 0 -150z"/>
</g>
</svg>
