<?xml version="1.0" encoding="utf-8"?>
<!-- Generator: Adobe Illustrator 16.0.0, SVG Export Plug-In . SVG Version: 6.00 Build 0)  -->
<!DOCTYPE svg PUBLIC "-//W3C//DTD SVG 1.1//EN" "http://www.w3.org/Graphics/SVG/1.1/DTD/svg11.dtd">
<svg version="1.1" xmlns="http://www.w3.org/2000/svg" xmlns:xlink="http://www.w3.org/1999/xlink" x="0px" y="0px" width="580px"
	 height="580px" viewBox="0 0 580 580" enable-background="new 0 0 580 580" xml:space="preserve">
<g id="Layer_3" display="none">
</g>
<g id="dane" xmlns:inkscape="http://www.inkscape.org/namespaces/inkscape" xmlns:dc="http://purl.org/dc/elements/1.1/" xmlns:svg="http://www.w3.org/2000/svg" xmlns:cc="http://creativecommons.org/ns#" xmlns:rdf="http://www.w3.org/1999/02/22-rdf-syntax-ns#" xmlns:sodipodi="http://sodipodi.sourceforge.net/DTD/sodipodi-0.dtd" sodipodi:docbase="s:\Data\FacilityIcons" inkscape:output_extension="org.inkscape.output.svg.inkscape" sodipodi:docname="amenity_atm.svg" sodipodi:version="0.32" inkscape:version="0.46" display="none">
	
		<sodipodi:namedview  inkscape:current-layer="svg2" inkscape:window-y="0" inkscape:window-x="0" inkscape:pageshadow="2" inkscape:pageopacity="0.0" inkscape:window-height="1005" inkscape:window-width="1280" objecttolerance="10.0" gridtolerance="10.0" inkscape:zoom="1.3034483" pagecolor="#ffffff" borderopacity="1.0" id="base" guidetolerance="10.0" showgrid="false" inkscape:cy="302.63451" bordercolor="#666666" inkscape:cx="285.84646">
		</sodipodi:namedview>
	<defs  display="inline">
		
		
			<inkscape:perspective  inkscape:persp3d-origin="290 : 193.33333 : 1" inkscape:vp_x="0 : 290 : 1" sodipodi:type="inkscape:persp3d" inkscape:vp_y="0 : 1000 : 0" inkscape:vp_z="580 : 290 : 1" id="perspective2441">
			</inkscape:perspective>
	</defs>
	<g id="g4372" transform="translate(-130.0802,122.26983)" display="inline">
	</g>
	<g display="inline">
		<rect x="512.5" y="172.824" fill="#231F20" width="1" height="56.816"/>
		<rect x="512.5" y="374.204" fill="#231F20" width="1" height="55.988"/>
		<rect x="512.5" y="264.115" fill="#231F20" width="1.001" height="76.114"/>
		<path fill="#231F20" d="M354.154,398.516c-20.766,0-40.892-16.53-40.892-41.307c0-23.17,17.218-42.206,40.488-42.206
			c22.358,0,34.926,10.65,39.328,25.019l119.421,0.205v-76.111l-119.422,0.069c-4.485,17.966-20.478,23.949-38.841,23.949
			c-23.286,0-40.975-17.947-40.975-41.151c0-23.169,17.555-42.223,40.117-42.223c21.17,0,35.366,8.592,39.667,24.88H512.5v-56.816
			l-442-0.012v257.38h442v-55.987l-119.422,0.137C387.989,392.876,371.709,398.516,354.154,398.516z"/>
	</g>
</g>
<g id="aeropuerto" display="none">
	<g display="inline">
		<path fill-rule="evenodd" clip-rule="evenodd" fill="#231F20" d="M200.301,486.354c-17.199-52.218-49.932-90.175-106.907-104.891
			c15.928-26.715,33.204-42.089,62.138-32.876c25.009,7.963,41.47-2.063,57.944-20.259c17.261-19.069,38.002-34.989,60.099-54.877
			c-72.013-38.138-137.407-72.768-203.046-107.533c32.533-44.458,32.514-44.387,80.037-31.752
			c61.049,16.237,121.927,33.232,183.402,47.667c10.762,2.527,27.282-2.384,35.683-9.932c30.394-27.305,58.424-57.235,87.415-86.112
			c14.654-14.599,31.327-23.069,48.311-5.414c16.74,17.41,4.705,32.479-8.327,45.665c-29.407,29.771-58.496,59.903-88.981,88.54
			c-11.985,11.259-13.885,21.743-9.808,36.818c15.517,57.392,26.999,116.079,45.894,172.299
			c12.868,38.296,6.888,64.201-31.568,84.849c-33.487-64.1-67.518-129.232-104.165-199.385
			c-25.684,26.863-49.993,49.822-70.873,75.562c-6.688,8.248-8.286,24.919-5.319,35.879
			C240.48,451.099,228.561,470.185,200.301,486.354z"/>
	</g>
</g>
<g id="alcadia" display="none">
	<g display="inline">
		<path fill-rule="evenodd" clip-rule="evenodd" fill="#231F20" d="M68,474.796c6.923,0.363,13.846,0.728,22.05,1.16
			c0-5.75,0.445-10.205-0.097-14.538c-1.03-8.234,2.61-11.178,10.389-10.554c3.139,0.251,6.315,0.041,10.996,0.041
			c0-5.423,0.364-10.131-0.083-14.762c-0.742-7.691,2.582-10.09,10.011-10.051c42.417,0.23,84.835,0.133,127.253,0.131
			c62.35-0.002,124.701-0.006,187.052-0.037c8.348-0.004,16.699-0.087,25.045-0.304c6.688-0.171,9.177,2.97,8.637,9.494
			c-0.391,4.711-0.075,9.482-0.075,15.736c21.688-4.518,24.34,7.58,20.442,24.901c9.05-0.482,15.965-0.853,22.88-1.219
			c0,8.373,0,16.75,0,25.123c-148.166,0-296.333,0-444.5,0C68,491.546,68,483.169,68,474.796z"/>
		<path fill-rule="evenodd" clip-rule="evenodd" fill="#231F20" d="M290.014,182.32c-61.793,0.013-123.586,0.088-185.377-0.171
			c-3.747-0.017-9.55-1.727-10.803-4.36c-2.782-5.841,1.176-9.582,6.979-12.305c60.217-28.255,120.25-56.908,180.589-84.9
			c4.793-2.224,12.389-2.297,17.16-0.087c60.665,28.106,121.02,56.88,181.559,85.254c5.55,2.6,9.077,6.304,6.584,11.659
			c-1.237,2.661-6.755,4.681-10.348,4.696C414.242,182.385,352.129,182.307,290.014,182.32z"/>
		<path fill-rule="evenodd" clip-rule="evenodd" fill="#231F20" d="M289.109,214.756c-49.53,0-99.065-0.391-148.586,0.292
			c-11.376,0.156-9.23-6.161-9.851-12.776c-0.732-7.814,1.679-10.797,9.992-10.776c95.24,0.233,190.48,0.149,285.721,0.151
			c3.219,0,6.436,0.014,9.654-0.011c11.832-0.085,17.009,6.215,12.957,17.452c-1.011,2.802-6.732,5.458-10.337,5.524
			c-25.729,0.477-51.47,0.271-77.207,0.275c-24.114,0.004-48.229,0.002-72.343,0.002
			C289.109,214.844,289.109,214.799,289.109,214.756z"/>
		<path fill-rule="evenodd" clip-rule="evenodd" fill="#231F20" d="M141.805,374.558c1.364-47.258,2.837-94.512,3.969-141.776
			c0.163-6.843,2.776-8.674,9.265-8.743c24.201-0.259,24.158-0.453,24.916,23.296c1.685,52.724,3.255,105.452,5.285,158.162
			c0.331,8.548-2.229,11.6-10.761,10.951c-8.32-0.628-16.732-0.378-25.089-0.098c-5.886,0.195-7.997-2.266-7.872-8.001
			c0.245-11.255,0.072-22.521,0.072-33.783C141.663,374.563,141.734,374.56,141.805,374.558z"/>
		<path fill-rule="evenodd" clip-rule="evenodd" fill="#231F20" d="M354.064,374.538c0,11.261-0.132,22.526,0.056,33.784
			c0.094,5.673-2.091,8.214-7.949,8.047c-9.328-0.264-18.671-0.258-28-0.048c-5.879,0.13-7.911-2.39-7.741-8.148
			c1.717-58.533,3.352-117.065,4.813-175.605c0.171-6.864,3.201-8.487,9.563-8.557c24.648-0.268,24.326-0.451,24.958,24.139
			c1.084,42.132,2.61,84.252,3.951,126.378C353.831,374.531,353.947,374.533,354.064,374.538z"/>
		<path fill-rule="evenodd" clip-rule="evenodd" fill="#231F20" d="M396.774,365.476c0.977-42.455,1.823-84.915,3.002-127.367
			c0.387-13.928,0.781-13.918,14.161-13.892c22.867,0.043,20.108-2.763,20.659,20.659c1.252,53.389,2.579,106.778,4.325,160.153
			c0.29,8.898-2.223,12.215-11.253,11.43c-7.983-0.693-16.092-0.394-24.12-0.021c-6.398,0.3-8.387-2.287-8.229-8.521
			c0.362-14.138,0.115-28.293,0.115-42.442C395.883,365.476,396.329,365.476,396.774,365.476z"/>
		<path fill-rule="evenodd" clip-rule="evenodd" fill="#231F20" d="M226.393,416.321c0-4.901-0.083-8.68,0.012-12.456
			c1.42-56.594,3.028-113.186,4.12-169.785c0.16-8.267,3.046-10.194,10.767-10.073c23.044,0.361,22.84,0.075,23.52,22.801
			c1.587,53.044,3.256,106.087,5.266,159.118c0.307,8.08-2.164,10.921-10.207,10.523
			C249.289,415.928,238.662,416.321,226.393,416.321z"/>
	</g>
</g>
<g id="areas_edificadas" display="none">
	<path display="inline" fill-rule="evenodd" clip-rule="evenodd" fill="#231F20" d="M513.509,484.752c0,9.251,0,18.499,0,27.748
		c-147.986,0-295.97,0-443.956,0c0-9.181,0-18.363,0-27.854c9.53,0,18.434,0,27.783,0c0-138.797,0-277.271,0-415.815
		c64.942,0,129.434,0,194.392,0c0,55.53,0,110.775,0,166.328c64.856,0,129.245,0,194.095,0c0,83.299,0,166.286,0,249.593
		C495.357,484.752,504.434,484.752,513.509,484.752z M235.827,429.549c-27.792,0-55.28,0-82.7,0c0,18.537,0,36.781,0,54.991
		c27.719,0,55.105,0,82.7,0C235.827,466.185,235.827,448.042,235.827,429.549z M347.227,484.454c27.817,0,55.306,0,82.699,0
		c0-18.546,0-36.791,0-54.973c-27.729,0-55.113,0-82.699,0C347.227,447.845,347.227,465.986,347.227,484.454z M180.348,96.596
		c-18.583,0-36.825,0-54.957,0c0,18.551,0,36.793,0,54.961c18.484,0,36.625,0,54.957,0
		C180.348,133.19,180.348,115.05,180.348,96.596z M208.519,96.482c0,18.636,0,36.777,0,55.037c18.471,0,36.712,0,54.959,0
		c0-18.51,0-36.752,0-55.037C245.033,96.482,226.895,96.482,208.519,96.482z M125.358,179.722c0,18.599,0,36.841,0,54.957
		c18.555,0,36.798,0,54.951,0c0-18.49,0-36.63,0-54.957C161.936,179.722,143.795,179.722,125.358,179.722z M208.481,234.719
		c18.591,0,36.834,0,54.957,0c0-18.552,0-36.794,0-54.955c-18.487,0-36.627,0-54.957,0
		C208.481,198.134,208.481,216.273,208.481,234.719z M180.232,318.08c0-18.599,0-36.84,0-54.956c-18.556,0-36.798,0-54.951,0
		c0,18.489,0,36.629,0,54.956C143.654,318.08,161.793,318.08,180.232,318.08z M208.481,317.961c18.591,0,36.834,0,54.957,0
		c0-18.553,0-36.795,0-54.955c-18.487,0-36.627,0-54.957,0C208.481,281.375,208.481,299.516,208.481,317.961z M374.578,263.08
		c-18.583,0-36.825,0-54.957,0c0,18.549,0,36.792,0,54.96c18.485,0,36.623,0,54.957,0
		C374.578,299.674,374.578,281.534,374.578,263.08z M457.822,263.082c-18.59,0-36.832,0-54.956,0c0,18.553,0,36.796,0,54.957
		c18.486,0,36.626,0,54.956,0C457.822,299.669,457.822,281.529,457.822,263.082z M180.348,346.249c-18.644,0-36.783,0-55.029,0
		c0,18.476,0,36.717,0,54.952c18.516,0,36.757,0,55.029,0C180.348,382.752,180.348,364.613,180.348,346.249z M263.578,346.261
		c-18.448,0-36.69,0-55.007,0c0,18.487,0,36.729,0,54.929c18.527,0,36.77,0,55.007,0
		C263.578,382.729,263.578,364.589,263.578,346.261z M319.474,401.206c18.582,0,36.825,0,54.956,0c0-18.55,0-36.792,0-54.961
		c-18.485,0-36.625,0-54.956,0C319.474,364.611,319.474,382.752,319.474,401.206z M402.822,346.211c0,18.58,0,36.822,0,54.958
		c18.55,0,36.792,0,54.966,0c0-18.482,0-36.623,0-54.958C439.422,346.211,421.283,346.211,402.822,346.211z"/>
</g>
<g id="banco" display="none">
	<g display="inline">
		<path fill="#231F20" d="M278.189,512.934v-44.291c-22.146-2.791-40.151-7.751-54.011-14.887
			c-13.865-7.136-25.838-18.66-35.926-34.572c-10.089-15.909-15.956-35.348-17.594-58.317l44.537-8.367
			c3.445,23.788,9.513,41.259,18.209,52.413c12.465,15.748,27.395,24.525,44.784,26.329V290.246
			c-18.209-3.445-36.829-10.496-55.857-21.161c-14.109-7.875-24.975-18.782-32.603-32.727c-7.629-13.941-11.442-29.773-11.442-47.49
			c0-31.496,11.153-57.002,33.465-76.526c14.925-13.122,37.071-21.162,66.438-24.114V67.066h26.082v21.162
			c25.752,2.461,46.177,10.008,61.271,22.638c19.354,16.079,31.004,38.14,34.94,66.191l-45.768,6.89
			c-2.626-17.386-8.082-30.716-16.363-39.985c-8.285-9.266-19.646-15.379-34.08-18.332v127.707
			c22.309,5.579,37.071,9.927,44.291,13.042c13.78,6.071,25.016,13.453,33.712,22.146c8.692,8.697,15.379,19.032,20.054,31.004
			c4.675,11.977,7.013,24.936,7.013,38.878c0,30.676-9.761,56.268-29.281,76.771c-19.523,20.507-44.784,31.496-75.788,32.973v44.783
			H278.189z M278.189,125.138c-17.226,2.626-30.8,9.516-40.724,20.669c-9.928,11.158-14.887,24.36-14.887,39.617
			c0,15.094,4.222,27.725,12.672,37.894c8.446,10.173,22.761,18.293,42.938,24.36V125.138z M304.271,431.241
			c17.226-2.131,31.454-9.598,42.693-22.393c11.233-12.795,16.854-28.625,16.854-47.491c0-16.073-3.979-28.992-11.935-38.753
			c-7.958-9.759-23.829-18.494-47.613-26.207V431.241z"/>
	</g>
</g>
<g id="Layer_7" display="none">
	<g display="inline">
		<path fill-rule="evenodd" clip-rule="evenodd" fill="#231F20" d="M70.949,446.225c-0.284,0-0.569,0-0.854,0
			c-0.216-28.283-0.424-56.568-0.651-84.85c-0.208-25.867-0.501-51.734-0.638-77.601c-0.17-32.271-0.264-64.543-0.203-96.813
			c0.003-1.91,1.215-4.342,2.665-5.63c4.879-4.335,9.998-8.429,15.245-12.318c22.082-16.362,46.118-28.457,73.507-33.013
			c5.288-0.879,10.62-1.49,15.932-2.224c3.984,0,7.967,0,11.951,0c0.915,0.265,1.817,0.707,2.745,0.771
			c26.617,1.83,50.611,11.11,72.292,26.265c9.585,6.701,18.359,14.56,27.784,22.119c-0.04,0.058,0.223-0.472,0.618-0.869
			c22.579-22.626,48.964-38.527,80.499-45.117c6.901-1.442,13.961-2.132,20.947-3.169c3.984,0,7.968,0,11.952,0
			c1.186,0.293,2.361,0.635,3.558,0.874c10.833,2.164,21.943,3.42,32.453,6.636c25.407,7.773,47.116,22.248,67.252,39.285
			c2.541,2.15,3.432,4.351,3.41,7.61c-0.373,55.166-0.602,110.333-0.929,165.497c-0.183,30.852-0.489,61.701-0.74,92.549
			c-0.284,0-0.569,0-0.854,0c-0.809-0.938-1.492-2.031-2.443-2.793c-29-23.215-61.802-37.172-99.088-38.846
			c-44.494-1.998-82.687,14.609-117.013,41.639c-0.284,0-0.569,0-0.854,0c-2.81-2.168-5.551-4.434-8.439-6.492
			c-28.347-20.203-59.346-33.539-94.518-35.17c-37.106-1.721-70.615,9.412-101.168,29.988
			C80.258,437.992,75.74,442.313,70.949,446.225z M476.395,394.184c0.129-1.158,0.246-1.721,0.246-2.281
			c0.011-60.607,0.03-121.216-0.08-181.823c-0.002-1.568-1.023-3.6-2.237-4.62c-4.78-4.02-9.599-8.072-14.816-11.479
			c-26.415-17.251-55.107-25.104-86.732-20.37c-26.608,3.983-49.538,16.028-70.515,32.258c-1.308,1.012-2.298,3.273-2.319,4.967
			c-0.114,8.954,0.186,17.912,0.242,26.869c0.303,48.219,0.579,96.437,0.858,144.657c0.021,3.738,0.004,7.479,0.004,11.668
			C360.007,354.723,418.021,355.689,476.395,394.184z M279.158,391.158c0-23.512-0.06-46.111,0.014-68.711
			c0.113-34.842-0.188-69.699,0.786-104.52c0.3-10.763-3.182-16.928-11.954-22.61c-23.488-15.215-48.362-26.038-76.705-26.353
			c-32.54-0.36-60.715,11.478-85.319,32.425c-2.274,1.936-3.057,4.022-3.053,6.977c0.079,59.312,0.059,118.624,0.069,177.937
			c0,1.357,0.129,2.713,0.226,4.598C161.695,352.361,219.816,351.375,279.158,391.158z"/>
	</g>
</g>
<g id="estacion_de_gasolina" display="none">
	<g display="inline">
		<path fill-rule="evenodd" clip-rule="evenodd" fill="#231F20" d="M149.313,71.285c54.33,0,108.66,0,162.989,0
			c3.016,0.768,6.064,1.426,9.041,2.321c22.199,6.683,36.129,26.059,36.152,50.53c0.055,53.741,0.018,107.485,0.018,161.226
			c0,1.792,0,3.585,0,5.225c8.756,0.749,16.912,1.021,24.93,2.218c20.357,3.042,34.02,14.216,39.012,34.524
			c1.822,7.428,2.666,15.181,3.158,22.836c1.104,17.103,1.355,34.265,2.635,51.35c0.861,11.535,3.326,22.782,8.811,33.285
			c5.648,10.825,23.408,11.16,28.863-0.206c1.293-2.694,2.65-5.383,3.65-8.191c5.092-14.322,6.322-29.333,6.701-44.305
			c0.672-26.57,0.623-53.159,0.676-79.742c0.004-1.984-1.135-4.438-2.553-5.883c-8.506-8.671-17.318-17.04-25.879-25.661
			c-3.92-3.947-7.623-8.126-11.191-12.397c-6.219-7.447-10-15.946-10.094-25.805c-0.146-14.717-0.465-29.439-0.18-44.149
			c0.109-5.6-1.539-9.559-5.541-13.459c-13.404-13.071-26.418-26.537-39.637-39.799c-5.148-5.167-7.572-11.205-5.178-18.266
			c4.307-12.699,18.752-15.642,28.605-5.591c25.916,26.43,51.758,52.933,77.266,79.754c12.521,13.169,24.145,27.166,28.039,45.75
			c0,45.751,0,91.502,0,137.255c-0.604,7.953-1.16,15.913-1.818,23.863c-1.367,16.581-3.85,32.941-11.09,48.14
			c-8.908,18.703-23.264,29.675-44.502,30.283c-20.309,0.584-35.529-8.133-45.563-25.723c-8.02-14.056-11.389-29.592-12.672-45.448
			c-1.441-17.791-1.664-35.678-2.734-53.502c-0.361-5.944-1.471-11.877-2.67-17.727c-0.721-3.533-3.115-6.407-6.805-6.991
			c-7.816-1.24-15.705-2.022-23.914-3.037c0,51.553,0,102.045,0,153.063c6.002,0,11.695-0.16,17.373,0.04
			c7.979,0.282,14.822,6.001,15.633,13.823c0.654,6.314,0.133,12.748,0.133,19.505c-2.137,0-3.965,0-5.791,0
			c-103.073,0-206.149,0-309.225,0.004c-1.857,0.001-3.713,0.068-5.57,0.104c0-6.576,0-13.154,0-19.73
			c3.412-10.574,10.821-14.846,21.664-13.841c2.125,0.195,4.284,0.028,6.429,0.028c5.78-0.006,5.786-0.007,5.786-5.801
			c0.002-73.326,0.002-146.649,0.002-219.974c0-42.166-0.061-84.332,0.023-126.496c0.052-26.404,14.976-45.978,39.305-51.933
			C145.509,72.286,147.409,71.776,149.313,71.285z M230.695,240.365c24.437,0,48.878,0.007,73.315-0.002
			c13.25-0.006,19.84-6.471,19.855-19.631c0.039-32.013,0.033-64.025,0.004-96.037c-0.014-13.206-6.609-19.85-19.727-19.855
			c-48.876-0.025-97.753-0.026-146.629,0c-12.917,0.006-19.587,6.659-19.597,19.508c-0.026,32.154-0.025,64.311-0.001,96.465
			c0.01,12.971,6.574,19.541,19.465,19.548C181.819,240.375,206.258,240.365,230.695,240.365z"/>
	</g>
</g>
<g id="carcel" display="none">
	<rect x="67.5" y="69" display="inline" fill="#231F20" width="54" height="442"/>
	<rect x="166" y="69" display="inline" fill="#231F20" width="54" height="442"/>
	<rect x="264.5" y="69" display="inline" fill="#231F20" width="54" height="442"/>
	<rect x="363" y="69" display="inline" fill="#231F20" width="54" height="442"/>
	<rect x="461.5" y="69" display="inline" fill="#231F20" width="54" height="442"/>
</g>
<g id="casa_de_la_cultura" display="none">
	<g display="inline">
		<path fill-rule="evenodd" clip-rule="evenodd" fill="#231F20" d="M262.131,157.559c-2.774-17.777-13.98-30.001-29.983-38.417
			c-8.265-4.345-16.971-7.857-25.205-12.255c-9.383-5.015-10.153-9.532-1.852-16.261c6.214-5.038,13.337-10.143,20.875-12.167
			c45.212-12.133,90.513-13.751,135.075,3.061c6.2,2.341,11.602,7.436,16.628,12.063c4.45,4.093,3.753,8.821-1.884,11.725
			c-9.107,4.691-18.456,8.912-27.554,13.622c-16.083,8.326-27.348,20.507-30.585,39.46c10.614,1.452,20.97,2.782,31.293,4.328
			c3.861,0.579,7.667,1.581,11.464,2.533c17.513,4.395,22.026,15.492,9.591,30.124c-15.905,18.713-28.522,39.655-33.449,64.37
			c-5.079,25.477,5.283,46.557,29.086,56.786c19.655,8.445,39.91,15.51,59.491,24.111c10.141,4.456,19.599,10.6,28.98,16.585
			c7.41,4.729,10.197,11.542,9.301,20.902c-3.512,36.608-23.52,61.829-53.934,79.976c-4.902,2.926-7.948,5.394-7.571,11.662
			c0.147,2.418-2.478,5.922-4.81,7.424c-16.243,10.449-32.653,20.648-49.232,30.554c-3.148,1.882-7.282,2.933-10.971,2.961
			c-31.416,0.227-62.835,0.212-94.25,0.01c-3.409-0.022-7.237-0.977-10.14-2.719c-16.565-9.93-32.965-20.144-49.266-30.505
			c-2.254-1.432-5.412-4.485-5.135-6.335c1.22-8.132-3.92-10.654-9.56-14.163c-28.869-17.961-48.03-42.424-51.856-77.502
			c-1.137-10.424,1.585-18.238,10.303-23.012c16.084-8.809,32.43-17.201,49.06-24.919c11.184-5.188,23.216-8.517,34.569-13.377
			c29.879-12.797,40.285-35.654,30.896-66.794c-6.657-22.077-19.103-40.868-33.256-58.693c-9.605-12.1-7.466-21.608,7.526-25.858
			C230.763,162.591,246.391,160.61,262.131,157.559z"/>
	</g>
</g>
<g id="cementerio" display="none">
	<path display="inline" fill="#231F20" d="M410,440.188V72.791c0-2.37-1.343-4.291-3-4.291H167c-1.657,0-3,1.921-3,4.291v367.396
		c35.259-18.123,77.536-28.688,123-28.688S374.741,422.064,410,440.188z"/>
	<g display="inline">
		<path fill="#231F20" d="M480.08,515.714c-16.468-26.954-42.282-49.995-74.651-66.633C370.323,431.037,329.372,421.5,287,421.5
			c-42.371,0-83.323,9.537-118.429,27.581c-32.37,16.638-58.184,39.679-74.651,66.633l-17.066-10.428
			c18.383-30.089,46.937-55.676,82.575-73.992C197.35,411.803,241.463,401.5,287,401.5s89.651,10.303,127.571,29.794
			c35.638,18.316,64.191,43.902,82.575,73.992L480.08,515.714z"/>
	</g>
	<rect x="258" y="100.5" display="inline" fill="#231F20" width="64" height="275"/>
	<rect x="196.5" y="145.5" display="inline" fill="#231F20" width="187" height="63"/>
</g>
<g id="circo_de_toros" display="none">
	<path display="inline" fill="#231F20" d="M452.685,291.897c-15.273-0.36-30.563-0.499-45.81-1.352
		c-8.541-0.479-17.027-2.122-25.504-3.447c-1.393-0.216-2.917-1.234-3.877-2.326c-13.486-15.36-27.559-30.126-43.443-43.066
		c-9.293-7.57-19.097-14.377-30.171-19.881c2.61-1.328,5.023-2.381,7.262-3.728c5.083-3.065,10.104-6.238,15.09-9.457
		c0.943-0.609,1.689-1.577,2.391-2.483c1.053-1.36,1.063-2.734-0.313-3.954c-1.051-0.93-2.028-1.958-3.151-2.791
		c-8.628-6.406-18.04-11.261-29.004-14.317c3.391-0.783,6.269-1.389,9.115-2.116c9.986-2.549,19.557-6.061,27.893-12.347
		c10.349-7.803,15.533-18.552,17.827-31.01c3.221-17.525-3.57-31.355-15.917-43.051c-7.691-7.286-16.801-12.187-27.019-15.023
		c-0.601-0.167-1.156-0.506-1.734-0.766c-1.323,0-2.646,0-3.969,0c-0.971,1.539,0.082,2.223,1.223,2.832
		c12.644,6.75,20.241,17.405,23.821,31.067c1.401,5.351,1.322,10.806,0.048,16.2c-2.797,11.844-11.545,18.37-24.716,18.638
		c-6.202,0.126-12.1-1.237-18-2.958c-14.608-4.256-29.458-6.844-44.741-5.203c-5.902,0.633-11.744,1.822-17.635,2.601
		c-1.645,0.218-3.384,0.003-5.046-0.239c-7.176-1.046-14.304-2.613-21.515-3.179c-12.524-0.982-25.132-1.422-37.564,0.863
		c-6.535,1.202-13.25,2.584-19.246,5.294c-11.251,5.088-32.307-0.927-38.924-11.957c-4.975-8.295-8.673-16.774-6.178-26.7
		c1.982-7.89,7.188-13.422,13.662-17.913c2.031-1.408,4.251-2.544,6.301-3.93c0.507-0.343,0.686-1.172,1.016-1.777
		c-0.662-0.122-1.408-0.507-1.972-0.326c-11.266,3.608-21.958,8.315-30.414,16.934c-6.017,6.134-9.675,13.503-10.886,22.049
		c-0.066,0.468-0.302,0.913-0.459,1.369c0,3.969,0,7.939,0,11.908c0.728,3.117,1.224,6.308,2.22,9.335
		c6.219,18.898,19.837,29.996,38.189,36.142c-1.399,4.303-4.596,7.701-14.259,14.928c2.982,1.082,5.758,2.09,8.872,3.217
		c-2.733,1.641-5.126,3.08-7.604,4.568c14.046,16.262,32.388,18.811,52.333,16.302c-0.279,10.281-0.546,20.004-0.809,29.728
		c-0.472,17.228,0.601,34.394,3.266,51.389c3.069,19.566,6.584,39.072,10.367,58.516c2.258,11.61,2.179,23.007,0.26,34.637
		c-3.125,18.937-1.539,37.682,3.423,56.208c4.571,17.069,9.336,34.104,16.685,50.2c1.612,3.528,3.07,7.095,4.409,10.693h325.249
		V292.981c-6.794-0.042-13.597-0.229-20.388-0.309C479.788,292.517,466.236,292.218,452.685,291.897z"/>
</g>
<g id="club_social" display="none">
	<g display="inline">
		<path fill-rule="evenodd" clip-rule="evenodd" d="M279.9,71c7.401,0,14.8,0,22.2,0c1.278,0.434,2.522,1.052,3.837,1.275
			c48.062,8.154,83.982,54.71,79.759,103.185c-2.151,24.69-10.496,47.186-23.424,68.12c-3.456,5.596-7.197,11.019-11.845,18.101
			c5.536-3.183,9.438-5.458,13.372-7.681c15.643-8.833,31.996-15.702,50.225-16.395c43.564-1.66,82.431,27.395,94.807,70.684
			c1.568,5.49,2.788,11.08,4.17,16.624c0,8.325,0,16.65,0,24.976c-1.804,6.856-3.325,13.802-5.456,20.555
			c-13.595,43.113-61.831,80.425-117.794,61.583c-21.52-7.246-40.838-18.127-58.806-31.703c-7.483-5.654-14.772-11.563-22.15-17.356
			c-0.672,0.249-1.345,0.499-2.017,0.749c3.422,19.685,5.979,39.567,10.452,59.01c8.239,35.82,31.199,58.208,66.195,68.631
			c3.471,1.033,6.835,2.421,10.25,3.645c-68.449,0-136.899,0-205.35,0c2.762-0.994,5.483-2.126,8.293-2.964
			c29.428-8.764,52.266-25.219,63.644-54.844c9.12-23.744,11.601-48.73,13.795-75.153c-2.915,2.128-4.891,3.602-6.899,5.03
			c-14.49,10.302-28.667,21.087-43.566,30.76c-16.847,10.938-35.322,18.233-55.665,19.286
			c-42.848,2.218-82.389-27.339-94.757-70.608c-1.568-5.488-2.788-11.077-4.169-16.619c0-8.325,0-16.65,0-24.976
			c0.49-1.722,1.096-3.42,1.451-5.17c7.675-37.75,28.517-64.875,65.351-77.548c31.336-10.782,60.48-2.992,87.723,14.157
			c1.933,1.217,3.899,2.376,5.85,3.563c-0.528-3.021-1.906-4.88-2.942-6.915c-8.351-16.393-18.631-32.13-24.575-49.362
			c-19.011-55.113,10.693-113.639,64.103-129.072C270.566,73.234,275.251,72.182,279.9,71z"/>
	</g>
</g>
<g id="colegio" display="none">
	<g display="inline">
		<path fill-rule="evenodd" clip-rule="evenodd" d="M237.108,446.905c-16.568-53.003-53.399-92.347-85.112-134.968
			c63.945-64.522,94.273-147.703,125.737-230.263c1.432-3.751,2.911-7.485,6.157-10.873c0,3.007,0,6.015,0,9.02
			c0,68.495-0.056,136.989,0.093,205.486c0.013,6.305-0.814,10.695-7.124,14.457c-10.13,6.034-13.454,18.139-9.704,28.541
			c3.623,10.054,13.76,16.645,24.726,16.078c10.732-0.552,19.928-8.213,22.671-18.888c2.603-10.126-2.377-20.694-11.65-27.234
			c-3.059-2.157-6.502-6.484-6.518-9.835c-0.372-71.304-0.28-142.609-0.256-213.915c0-1.251,0.301-2.503,0.703-5.646
			c34.527,87.23,63.876,175.206,131.173,243.043c-31.359,42.31-68.553,81.768-85.066,134.997
			C307.854,446.905,272.14,446.905,237.108,446.905z"/>
		<path fill-rule="evenodd" clip-rule="evenodd" d="M360.506,484.334c1.289,6.551,4.521,13.21,3.255,18.864
			c-1.859,8.293-10.343,7.937-17.512,7.931c-37.584-0.029-75.167-0.033-112.749,0.005c-7.211,0.006-15.65,0.176-17.367-8.148
			c-1.173-5.683,2.188-12.302,3.369-17.796c-1.331-5.52-4.668-11.711-3.713-17.149c1.464-8.329,9.658-9.122,16.907-9.135
			c38.286-0.064,76.572-0.067,114.858,0.007c7.277,0.014,15.425,1.002,16.728,9.37C365.135,473.748,361.671,479.887,360.506,484.334
			z"/>
	</g>
</g>
<g id="construccion" display="none">
	<g display="inline">
		<path fill-rule="evenodd" clip-rule="evenodd" d="M269.885,279.32c16.275-4.413,33.242-7.983,49.481-13.65
			c26.688-9.314,61.059,1.221,80.812,28.841c36.302,50.758,72.39,101.666,108.653,152.449c6.606,9.25,7.975,18.958,2.868,29.046
			c-3.625,7.153-9.909,10.469-18.136,9.912c-60.846-4.104-121.816-6.927-182.494-12.762c-30.124-2.897-49.972-23.472-59.391-51.563
			c-9.313-27.778-16.372-56.36-23.251-84.872c-1.927-7.99,0.116-16.988,0.625-25.507c0.512-8.572,1.385-17.122,2.104-25.728
			c-23.221-17.61-48.264-35.705-72.301-55.043c-33.901-27.273-62.746-59.589-89.295-93.926c-1.875-2.422-1.328-7.235-0.831-10.788
			c0.338-2.403,2.412-4.65,3.962-6.786c15.672-21.596,17.941-22.194,40.046-7.729c59.545,38.967,111.001,86.594,152.163,144.792
			C268.875,261.625,268.155,270.563,269.885,279.32z"/>
	</g>
</g>
<g id="direccion_a">
	<polygon fill-rule="evenodd" clip-rule="evenodd" points="481.744,513.283 98.256,291.879 481.744,70.471 	"/>
</g>
<g id="drogueria" display="none">
	<g display="inline">
		<path fill-rule="evenodd" clip-rule="evenodd" d="M212.168,313.664c8.356,8.914,16.333,17.419,24.369,25.992
			c6.563-2.599,7.642-5.191,2.562-9.772c-7.479-6.745-14.591-13.897-22.27-21.271c4.46-4.094,7.986-7.332,11.821-10.853
			c4.185,3.996,8.799,8.407,13.949,13.326c1.797-1.553,3.465-2.995,7.027-6.073c-5.876-4.501-11.169-8.556-17.218-13.189
			c4.896-4.67,8.166-7.79,11.806-11.261c5.165,4.885,9.985,9.441,15.599,14.749c1.784-1.764,3.251-3.213,5.184-5.124
			c-5.304-5.61-9.842-10.412-15.104-15.979c3.334-3.354,6.249-6.282,10.762-10.818c7.801,8.508,14.858,16.154,21.855,23.856
			c4.099,4.511,6.62,2.77,9.05-2.969c-8.534-7.912-17.292-16.033-27.01-25.043c4.141-3.827,7.416-6.85,10.644-9.833
			c5.533,4.604,10.563,8.915,15.862,12.86c0.292,0.218,2.841-2.599,5.777-5.351c-5.604-4.681-10.725-8.958-15.88-13.265
			c4.379-3.992,7.723-7.04,11.09-10.108c15.674,12.03,15.674,12.03,20.746,6.136c-5.335-3.775-10.829-7.662-16.587-11.738
			c5.907-5.497,9.896-9.208,14.767-13.74c7.945,8.709,16.157,17.713,23.868,26.165c7.478-3.464,7.573-6.247,3.22-10.374
			c-7.334-6.95-14.239-14.352-21.814-22.062c2.236-2.372,4.416-4.686,7.103-7.538c4.847,4.443,9.262,8.494,14.89,13.656
			c7.054-11.445-7.319-12.817-7.604-21.396c2.19-1.991,5.521-5.017,9.364-8.508c4.624,4.286,9.035,8.373,13.724,12.716
			c1.771-1.652,3.262-3.047,5.324-4.971c-4.453-4.677-8.606-9.044-13.98-14.693c9.954-8.779,19.789-17.453,30.315-26.738
			c-4.999-5.4-8.438-9.115-12.431-13.423c2.297-2.513,4.503-4.921,6.121-6.69c25.998,25.978,51.772,51.728,78.131,78.063
			c-1.205,1.299-3.359,3.623-6.187,6.672c-4.542-4.275-8.685-8.176-13.575-12.781c-2.716,2.585-5.336,4.955-7.82,7.461
			c-60.509,61.069-121.042,122.112-181.419,183.312c-4.575,4.636-9.125,7.199-15.868,7.474c-12.86,0.528-25.721,1.847-38.477,3.597
			c-3.476,0.479-7.276,3.024-9.749,5.708c-28.908,31.389-57.589,62.992-86.342,94.525c-2.046,2.244-4.184,4.407-6.777,7.13
			c-2.753-2.337-5.234-4.44-8.27-7.019c4.162-4.634,7.978-8.938,11.849-13.19c27.072-29.743,54.305-59.345,81.064-89.365
			c3.781-4.243,5.63-10.398,7.67-15.927c1.13-3.066,1.301-6.708,1.05-10.025C172.126,346.727,192.618,331.195,212.168,313.664z"/>
		<path fill-rule="evenodd" clip-rule="evenodd" d="M439.562,185.769c-16.471-16.474-32.671-32.683-49.443-49.461
			c17.355-16.784,35.521-34.349,53.806-52.029c-4.613-5.222-7.391-8.366-10.167-11.51c0.228-0.922,0.456-1.843,0.685-2.764
			c2.542,0.444,6-0.022,7.486,1.472c21.379,21.525,42.49,43.314,63.938,65.318c-5.984,9.474-7.867-3.881-13.298-2.715
			C475.334,150.884,457.195,168.573,439.562,185.769z M402.852,133.139c13.479,13.554,26.387,26.541,37.753,37.974
			c15.083-14.692,30.552-29.755,44.355-43.199c-12.441-12.724-25.199-25.769-37.472-38.321
			C432.854,103.87,417.747,118.606,402.852,133.139z"/>
	</g>
</g>
<g id="edificio" display="none">
	<path display="inline" fill-rule="evenodd" clip-rule="evenodd" fill="#231F20" d="M131.837,68.5v443.199H448.5V68.5H131.837z
		 M283.071,451.4H150.019V345.876h133.052V451.4z M283.071,326.782H150.019V221.258h133.052V326.782z M283.071,202.163H150.019
		V96.64h133.052V202.163z M430.41,451.4H297.358V345.876H430.41V451.4z M430.41,326.782H297.358V221.258H430.41V326.782z
		 M430.41,202.163H297.358V96.64H430.41V202.163z"/>
</g>
<g id="escuela_urbana" display="none">
	<g display="inline">
		<path fill-rule="evenodd" clip-rule="evenodd" d="M237.108,446.905c-16.568-53.003-53.399-92.347-85.112-134.968
			c63.945-64.522,94.273-147.703,125.737-230.263c1.432-3.751,2.911-7.485,6.157-10.873c0,3.007,0,6.015,0,9.02
			c0,68.495-0.056,136.989,0.093,205.486c0.013,6.305-0.814,10.695-7.124,14.457c-10.13,6.034-13.454,18.139-9.704,28.541
			c3.623,10.054,13.76,16.645,24.726,16.078c10.732-0.552,19.928-8.213,22.671-18.888c2.603-10.126-2.377-20.694-11.65-27.234
			c-3.059-2.157-6.502-6.484-6.518-9.835c-0.372-71.304-0.28-142.609-0.256-213.915c0-1.251,0.301-2.503,0.703-5.646
			c34.527,87.23,63.876,175.206,131.173,243.043c-31.359,42.31-68.553,81.768-85.066,134.997
			C307.854,446.905,272.14,446.905,237.108,446.905z"/>
		<path fill-rule="evenodd" clip-rule="evenodd" d="M360.506,484.334c1.289,6.551,4.521,13.21,3.255,18.864
			c-1.859,8.293-10.343,7.937-17.512,7.931c-37.584-0.029-75.167-0.033-112.749,0.005c-7.211,0.006-15.65,0.176-17.367-8.148
			c-1.173-5.683,2.188-12.302,3.369-17.796c-1.331-5.52-4.668-11.711-3.713-17.149c1.464-8.329,9.658-9.122,16.907-9.135
			c38.286-0.064,76.572-0.067,114.858,0.007c7.277,0.014,15.425,1.002,16.728,9.37C365.135,473.748,361.671,479.887,360.506,484.334
			z"/>
	</g>
</g>
<g id="estaciond_e_bomberos" display="none">
	<g display="inline">
		<path fill-rule="evenodd" clip-rule="evenodd" d="M211.45,143.671c-2.031,12.208-4.534,23.044-5.478,34.016
			c-1.14,13.241-1.741,26.632-1.161,39.896c0.854,19.579,13.451,32.625,27.37,45.885c6.905-24.915,16.869-47.011,32.765-66.059
			c3.732-4.472,7.544-9.02,11.989-12.728c27.384-22.849,32.881-52.251,25.321-85.218c-2.31-10.063-6.753-19.636-10.446-30.074
			c25.275,11.751,42.656,30.423,51.386,56.754c9.328,28.141,4.42,55.521-6.259,82.149c-4.428,11.044-9.901,21.723-15.571,32.204
			c-16.312,30.155-7.756,62.425,21.589,80.121c12.377,7.463,26.184,6.886,36.492-4.394c9.231-10.103,17.9-21.564,23.525-33.924
			c9.366-20.585,16.103-42.368,23.253-61.765c4.422,22.041,8.27,46.822,14.58,70.962c5.411,20.697,8.443,41.316,7.421,62.583
			c-1.307,27.157-6.457,53.457-17.967,78.276c-22.161,47.781-60.278,73.103-112.062,77.282
			c-33.767,2.723-67.373,0.322-98.529-15.044c-49.562-24.444-79.74-64.387-85.987-119.001
			c-8.42-73.625,8.519-142.388,48.786-204.897C189.479,159.815,198.679,150.542,211.45,143.671z M218.374,308.312
			c-4.668,7.743-10.017,13.614-11.979,20.456c-5.102,17.79-11.166,35.844-12.385,54.088c-2.186,32.721,10.98,64.799,47.642,80.342
			c29.036,12.309,58.755,11.651,87.915,1.222c25.849-9.246,39.948-28.82,43.567-56.073c3.003-22.62-5.874-41.142-19.57-58.827
			c-1.384,2.548-2.452,4.744-3.722,6.821c-7.265,11.89-16.84,20.693-31.275,22.591c-18.536,2.436-26.555-7.538-22.055-25.234
			c2.905-11.424,4.751-23.494,4.579-35.239c-0.314-21.716-17.852-43.691-37.619-49.702c-0.096,0.248-0.326,0.537-0.267,0.739
			c0.473,1.589,0.965,3.173,1.516,4.736c5.945,16.856,6.205,32.729-4.751,48.372c-4.195,5.99-5.277,14.425-6.772,21.946
			c-0.989,4.976-0.188,10.309-0.188,16.505C227.744,352.457,226.556,329.306,218.374,308.312z"/>
	</g>
</g>
<g id="estacion_de_ferrocarril" display="none">
	<g display="inline">
		<path fill-rule="evenodd" clip-rule="evenodd" d="M508.955,508.971c-146.173,0-291.8,0-437.96,0c0-4.068-0.259-8.031,0.145-11.927
			c0.136-1.304,1.77-2.717,3.049-3.6c31.18-21.514,62.406-42.964,93.622-64.426c1.521-1.046,3.031-2.107,5.16-3.589
			c-1.693-0.827-2.982-1.469-4.281-2.092c-18.578-8.901-34.093-21.121-43.434-40.042c-4.747-9.617-7.063-19.819-7.068-30.51
			c-0.03-64.999,0.121-129.998-0.082-194.996c-0.082-26.258,10.73-46.733,31.399-62.276c17.137-12.887,36.794-19.769,57.844-22.534
			c9.708-1.275,19.582-1.706,29.384-1.755c38.627-0.191,77.258-0.331,115.883,0.014c24.292,0.216,47.494,5.644,68.586,18.12
			c20.5,12.126,35.007,28.976,39.379,53.13c0.758,4.181,1.133,8.489,1.138,12.739c0.07,64.428-0.191,128.857,0.155,193.283
			c0.16,29.701-12.896,51.535-37.223,67.333c-5.444,3.535-11.331,6.391-17.404,9.775c9.355,6.458,18.544,12.823,27.754,19.157
			c23.234,15.977,46.433,32.011,69.776,47.826c3.223,2.183,4.676,4.461,4.232,8.284C508.719,503.404,508.955,505.98,508.955,508.971
			z M289.947,154.555c-28.927,0-57.854-0.068-86.78,0.06c-5.387,0.024-10.83,0.474-16.145,1.35
			c-18.439,3.04-29.395,12.993-32.305,31.411c-3.051,19.318-3.039,38.935,0.242,58.267c2.544,14.994,11.796,24.88,26.746,28.292
			c7.7,1.757,15.741,2.776,23.633,2.809c56.427,0.232,112.857,0.159,169.285,0.068c5.674-0.009,11.39-0.483,17.012-1.27
			c19.162-2.681,30.488-12.647,33.576-31.622c3.098-19.023,2.896-38.348-0.087-57.43c-2.439-15.615-11.926-25.613-27.285-29.311
			c-6.582-1.584-13.488-2.45-20.258-2.511C348.372,154.402,319.158,154.555,289.947,154.555z M137.692,489.49
			c102.014,0,202.654,0,304.576,0c-9.096-6.241-17.088-11.858-25.25-17.219c-1.771-1.163-4.146-1.983-6.244-1.987
			c-80.537-0.099-161.075-0.085-241.612-0.062c-1.4,0.002-3.102-0.122-4.152,0.578C156.179,476.694,147.466,482.767,137.692,489.49z
			 M289.53,125.178c15.387,0,30.773,0.012,46.161-0.005c8.647-0.009,14.901-5.747,14.865-13.58
			c-0.036-7.939-6.224-13.761-14.84-13.771c-30.49-0.034-60.98-0.033-91.469,0c-8.628,0.009-14.793,5.79-14.864,13.748
			c-0.069,7.815,6.207,13.594,14.84,13.604C259.325,125.19,274.428,125.178,289.53,125.178z M190.39,453.226
			c66.727,0,132.466,0,199.136,0c-8.573-5.89-16.276-11.26-24.089-16.467c-1.19-0.793-2.89-1.157-4.354-1.159
			c-47.449-0.058-94.898-0.059-142.348,0.004c-1.457,0.002-3.14,0.42-4.335,1.217C206.586,442.029,198.88,447.396,190.39,453.226z
			 M202.268,324.349c-13.408-0.002-24.21,10.728-24.212,24.05c-0.003,13.306,10.895,24.271,24.109,24.264
			c13.214-0.009,24.228-10.932,24.352-24.15C226.638,335.395,215.556,324.35,202.268,324.349z M378.043,324.349
			c-13.401-0.089-24.338,10.474-24.617,23.778c-0.276,13.176,11.021,24.547,24.378,24.535c13.024-0.012,23.958-10.848,24.08-23.865
			C402.011,335.44,391.279,324.436,378.043,324.349z"/>
	</g>
</g>
<g id="estacion_de_policia" display="none">
	<g display="inline">
		<path fill-rule="evenodd" clip-rule="evenodd" d="M290.627,512c-0.925,0-1.85,0-2.775,0c-2.874-3.892-4.92-9.304-8.771-11.401
			c-14.491-7.899-29.065-16.124-44.527-21.671c-44.115-15.826-85.186-36.35-115.798-72.972
			c-21.558-25.791-30.354-55.893-22.739-89.296c3.79-16.62,8.427-33.194,14.433-49.129c13.1-34.744,10.999-68.903-1.71-102.935
			c-4.011-10.742-9.227-21.035-11.998-27.271c21.032-23.095,40.79-44.79,60.242-66.147c42.845,27.124,78.509,32.17,120.164,16.663
			c8.875-3.303,16.082-3.054,24.964,0.082c43.991,15.52,85.217,11.574,121.714-19.924c0.926,0,1.85,0,2.775,0
			c18.221,18.303,36.18,36.88,54.817,54.749c5.813,5.574,5.945,9.417,2.28,16.39c-21.578,41.057-31.819,83.648-14.875,129.269
			c3.378,9.095,6.336,18.346,9.634,27.473c13.694,37.913,11.203,74.465-14.462,106.093c-23.792,29.316-53.553,51.868-89.712,65.145
			c-20.355,7.472-40.696,15.29-60.134,24.813C305.185,496.322,298.4,505.171,290.627,512z M268.58,391.596
			c0-27.113,0-52.757,0-78.271c19.742-1.073,38.363-0.49,56.409-3.437c28.02-4.574,45.112-29.21,45.119-61.304
			c0.008-29.192-17.012-53.872-44.465-57.11c-33.218-3.918-66.937-3.585-101.259-5.127c0,70.145,0,137.332,0,205.249
			C238.945,391.596,252.586,391.596,268.58,391.596z"/>
		<path fill-rule="evenodd" clip-rule="evenodd" d="M267.449,279.843c0-20.785,0-38.961,0-58.662
			c18.636,1.235,38.229-5.854,52.066,10.88c8.262,9.989,7.531,23.319,0.737,33.826C307.496,285.617,286.868,278.046,267.449,279.843
			z"/>
	</g>
</g>
<g id="fabrica" display="none">
	<g display="inline">
		<path fill-rule="evenodd" clip-rule="evenodd" d="M456.166,489.769c0-22.96,0-45.084,0-68.189c-44.513,0-87.784,0-132.77,0
			c0,22.583,0,45.087,0,68.5c-86.047,0-170.4,0-256.599,0c-0.242-4.551-0.717-9.369-0.72-14.187
			c-0.045-75.462,0.189-150.923-0.284-226.383c-0.067-10.635,3.306-16.216,12.775-20.949c27.971-13.976,55.399-29.042,85.322-44.89
			c0,14.833,0,27.619,0,43.38c26.838-14.166,51.093-26.965,77.421-40.861c0,13.605,0,24.874,0,38.245
			c26.431-13.852,50.859-26.656,77.624-40.686c0,14.868,0,27.669,0,43.482c26.566-14.18,50.456-26.933,76.775-40.982
			c0,15.497,0,29.163,0,43.462c10.477,0,18.896,0,29.666,0c3.768-97.507,7.529-47.387,11.326-145.616c16.012,0,30.91,0,47.284,0
			c3.238,97.958,6.456,47.999,9.677,145.476c7.403,0.709,13.301,1.281,19.961,1.917c0,86.233,0,171.622,0,258.281
			C495.342,489.769,476.981,489.769,456.166,489.769z M400.834,313.978c22.894,0,44.041,0,66.076,0c0-14.501,0-28.358,0-42.763
			c-22.496,0-43.922,0-66.076,0C400.834,285.785,400.834,299.222,400.834,313.978z M203.239,270.877c0,15.322,0,29.155,0,42.963
			c22.311,0,43.384,0,65.2,0c0-14.58,0-28.376,0-42.963C246.372,270.877,225.334,270.877,203.239,270.877z M302.313,313.763
			c22.237,0,43.681,0,65.55,0c0-14.678,0-28.484,0-42.45c-22.459,0-43.865,0-65.55,0
			C302.313,286.021,302.313,299.491,302.313,313.763z M169.757,313.746c0-14.652,0-28.417,0-43.59
			c-20.226,0-39.35-0.335-58.436,0.372c-2.785,0.104-7.46,5.031-7.698,8.012c-0.911,11.415-0.37,22.948-0.37,35.207
			C126.382,313.746,147.815,313.746,169.757,313.746z"/>
	</g>
</g>
<g id="hospital__centro_de_salud" display="none">
	<path display="inline" d="M67.603,67.601v446.977H514.58V67.601H67.603z M472.241,342.839H342.839v129.402H237.161V342.839H107.759
		V237.161h129.402V107.759h105.678v129.402h129.402V342.839z"/>
</g>
<g id="hotel" display="none">
	<path display="inline" d="M69.103,69.101v445.478H514.58V69.101H69.103z M446.699,482.346h-50.845V301.247H196.147v181.099h-50.844
		V98.132h50.844v157.774h199.707V98.132h50.845V482.346z"/>
</g>
<g id="iglesia" display="none">
	<g display="inline">
		<path fill-rule="evenodd" clip-rule="evenodd" d="M487.718,513.246c-29.625,0-57.236,0-85.942,0
			c0-28.935-1.917-87.505,0.578-115.686c2.182-24.645-5.608-39.836-26.848-52.608c-26.583-15.984-51.053-35.518-76.143-53.916
			c-5.729-4.202-9.708-4.477-15.608-0.179c-31.507,22.962-63.254,45.597-95.144,68.023c-5.488,3.861-7.71,7.938-7.638,14.725
			c0.352,32.629,0.158,95.265,0.158,127.897c0,3.67,0,7.342,0,11.646c-28.506,0-56.12,0-84.964,0c0-38.842,0-107.985,0-148.206
			c-9.616,0-18.057,0-26.499,0c-0.705-0.996-1.411-1.99-2.116-2.986c3.279-3.514,6.063-7.73,9.911-10.435
			c60.707-42.703,121.448-85.358,182.484-127.586c8.197-5.672,12.059-11.449,11.502-21.75c-0.943-17.493-0.259-35.074-0.259-53.448
			c-16.529,0-32.147,0-48.646,0c0-11.424,0-22.046,0-33.928c15.659,0,31.561,0,48.266,0c0-15.318,0-29.44,0-44.418
			c13.679,0,26.557,0,40.686,0c0,14.223,0,28.614,0,43.82c16.822,0,32.442,0,48.902,0c0,11.433,0,22.05,0,33.93
			c-15.78,0-31.675,0-48.65,0c0,22.112-0.362,43.018,0.371,63.885c0.116,3.309,4.648,7.183,8.014,9.551
			c61.935,43.567,124.03,86.908,185.975,130.467c3.641,2.559,6.281,6.541,9.388,9.86c-0.666,0.827-1.332,1.656-2,2.482
			c-8.19,0-16.383,0-25.778,0C487.718,404.14,487.718,473.289,487.718,513.246z"/>
		<path fill-rule="evenodd" clip-rule="evenodd" d="M241.948,478.75c0-25.798-1.258-50.915,0.451-75.829
			c1.102-16.067,14.244-25.021,28.364-30.384c17.347-6.587,34.691-5.429,50.659,4.64c12.717,8.017,20.558,18.563,19.811,35.047
			c-0.996,21.961-0.247,43.998-0.247,66.526C307.788,478.75,275.696,478.75,241.948,478.75z"/>
	</g>
</g>
<g id="jardin_infantil" display="none">
	<g display="inline">
		<path fill-rule="evenodd" clip-rule="evenodd" d="M202.074,227.694c10.197,0.96,20.413,1.772,30.58,2.979
			c2.794,0.332,3.933-1.054,5.43-2.742c16.544-18.663,32.396-38.014,49.869-55.765c37.641-38.235,81.279-67.545,132.542-84.692
			c25.077-8.388,50.835-13.309,77.152-15.703c10.27-0.934,14.889,5.161,14.385,14.715c-4.113,77.663-34.363,144.12-85.894,201.534
			c-18.458,20.565-38.413,39.599-59.454,57.49c-2.509,2.134-2.928,4.13-2.41,7.156c3.277,19.191,5.217,38.441,1.659,57.843
			c-2.8,15.277-12.181,26.465-22.975,36.674c-16.702,15.796-36.412,27.185-56.945,36.985c-16.966,8.101-34.502,15.022-51.892,22.212
			c-7.599,3.143-14.166,0.229-15.751-6.846c-0.567-2.53-0.086-5.535,0.688-8.091c5.661-18.675,11.464-37.305,17.37-55.904
			c0.828-2.604,0.438-4.179-1.563-6.104c-23.578-22.688-47.077-45.461-70.498-68.311c-2.001-1.951-3.634-2.248-6.188-1.348
			c-19.841,6.994-39.717,13.884-59.606,20.733c-7.657,2.637-14.073-0.062-15.609-6.802c-0.55-2.418-0.313-5.324,0.487-7.695
			c10.232-30.359,21.997-60.069,38.702-87.559c9.272-15.257,20.069-29.227,34.913-39.651c9.539-6.699,20.326-9.171,31.662-10.002
			c4.421-0.324,8.854-0.483,13.281-0.717C202.031,227.955,202.052,227.825,202.074,227.694z M248.755,412.838
			c1.479-1.119,2.82-2.092,4.116-3.122c20.054-15.967,40.083-31.966,60.157-47.908c34.876-27.699,68.822-56.422,98.438-89.87
			c39.333-44.419,66.194-94.981,75.418-154.137c1.186-7.611,1.964-15.287,3.009-23.558c-4.345,0.634-7.989,1.177-11.638,1.698
			c-40.461,5.777-77.94,19.687-112.609,41.272c-37.736,23.494-68.86,54.314-97.389,87.985
			c-27.796,32.806-52.018,68.306-77.315,102.991c-4.055,5.562-8.034,11.178-12.145,16.904
			C202.284,367.837,225.469,390.289,248.755,412.838z M110.511,353.487c15.305-5.326,29.316-10.098,43.226-15.146
			c2.282-0.829,4.664-2.487,6.08-4.433c19.162-26.321,38.163-52.76,57.196-79.174c0.783-1.086,1.5-2.221,2.625-3.896
			c-14.932-1.2-29.277-2.312-43.241,2.26c-9.297,3.043-15.751,10.169-21.898,17.326c-13.312,15.495-22.498,33.523-30.914,51.938
			C119.065,332.248,115.141,342.405,110.511,353.487z M345.757,367.505c-0.545-0.148-1.089-0.298-1.635-0.448
			c-1,0.671-2.042,1.283-2.992,2.016c-23.252,17.927-46.282,36.148-69.852,53.646c-7.838,5.818-12.981,12.334-15.287,21.906
			c-2.701,11.21-6.665,22.115-10.286,33.809c1.933-0.71,3.213-1.097,4.425-1.64c8.457-3.784,17.035-7.329,25.319-11.459
			c18.735-9.338,37.066-19.389,52.553-33.787c9.415-8.755,17.43-18.422,17.711-32.156
			C345.932,388.767,345.757,378.133,345.757,367.505z"/>
		<path fill-rule="evenodd" clip-rule="evenodd" d="M357.553,261.4c-0.375,17.715-14.646,31.504-32.171,31.081
			c-16.938-0.407-30.554-14.362-30.334-31.086c0.23-17.419,14.888-31.748,32.097-31.373
			C344.314,230.396,357.911,244.425,357.553,261.4z M325.618,281.639c11.448,0.222,20.776-8.657,21.07-20.054
			c0.292-11.345-8.513-20.58-19.772-20.738c-11.147-0.156-20.8,9.196-21.014,20.359C305.69,272.223,314.569,281.425,325.618,281.639
			z"/>
		<path fill-rule="evenodd" clip-rule="evenodd" d="M378.905,176.601c17.263,0.418,31.193,14.632,30.588,31.21
			c-0.651,17.807-15.073,31.801-32.207,31.251c-17.022-0.546-30.65-14.498-30.395-31.118
			C347.161,190.325,361.608,176.181,378.905,176.601z M378.313,187.424c-11.271,0.026-20.595,9.419-20.528,20.681
			c0.068,11.055,9.087,20.105,20.076,20.144c11.286,0.04,20.987-9.775,20.782-21.025
			C398.44,196.091,389.515,187.397,378.313,187.424z"/>
		<path fill-rule="evenodd" clip-rule="evenodd" d="M428.48,186.164c-17.865-0.686-30.984-14.609-30.343-32.203
			c0.612-16.833,15.282-30.811,31.81-30.308c17.843,0.543,31.354,14.921,30.575,32.53
			C459.774,173.046,445.074,186.802,428.48,186.164z M428.652,175.296c11.303,0.269,20.865-8.862,21.068-20.112
			c0.202-11.265-8.719-20.521-19.949-20.698c-10.908-0.173-20.507,9.078-20.822,20.07
			C408.623,165.972,417.221,175.024,428.652,175.296z"/>
	</g>
</g>
<g id="museo" display="none">
	<g display="inline">
		<path fill-rule="evenodd" clip-rule="evenodd" d="M75.848,511.095c0-13.968,0-25.222,0-38.779
			c29.271,1.569,29.133-17.433,28.734-38.892c-0.938-50.563-0.302-101.15-0.302-153.656c14.8,0,27.33,0,43.53,0
			c0,27.694-0.003,55.336,0,82.983c0,27.084,1.023,54.223-0.34,81.24c-0.957,18.945,4.512,26.335,24.686,26.095
			c80.373-0.944,160.771-0.841,241.146-0.067c18.806,0.18,23.697-6.948,23.404-24.657c-0.902-54.835-0.33-109.688-0.33-166.024
			c14.545,0,26.414,0,43.537,0c0,15.68,0,31.78,0,47.88c0.003,36.698,0.758,73.415-0.289,110.083
			c-0.59,20.638,1.213,37.076,29.044,34.057c0,13.613,0,25.592,0,39.737C364.899,511.095,221.384,511.095,75.848,511.095z"/>
		<path fill-rule="evenodd" clip-rule="evenodd" d="M517.942,250.367c-151.87,0-300.017,0-455.885,0
			c36.916-27.36,68.052-50.526,99.281-73.564c38.697-28.544,77.102-57.51,116.579-84.932c6.491-4.512,20.815-6.24,26.46-2.194
			c69.635,49.896,138.337,101.094,207.21,152.045C513.418,243.081,514.444,245.526,517.942,250.367z M384.538,204.789
			c-32.39-23.72-58.051-42.84-84.205-61.258c-3.315-2.333-10.709-3.107-13.691-1.015c-26.75,18.782-52.934,38.369-85.485,62.273
			C265.003,204.789,320.56,204.789,384.538,204.789z"/>
		<path fill-rule="evenodd" clip-rule="evenodd" d="M344.008,294.699c10.384,0,25.018,0,39.813,0c0,49.722,0,98.294,0,148.067
			c-11.238,0-22.327,0-34.257,0c0-30.104,0-60.726,0-91.342c-1.638-0.898-3.278-1.79-4.917-2.682
			c-17.762,29.749-35.521,59.5-55.683,93.27c-18.755-32.78-35.758-62.495-56.412-98.592c0,37.154,0,67.534,0,99.231
			c-12.914,0-23.771,0-33.957,0c0-49.178,0-97.714,0-147.671c14.585,0,30.752,0,42.831,0c16.164,29.761,31.624,58.223,49.813,91.715
			C310.02,353.958,326.084,325.945,344.008,294.699z"/>
	</g>
</g>
<g id="paradero" display="none">
	<g display="inline">
		<path fill-rule="evenodd" clip-rule="evenodd" d="M107.374,376.092c-11.895,0-22.778,0-34.133,0
			c-0.144-2.651-0.366-4.853-0.367-7.053c-0.021-35.376-0.06-70.753,0.002-106.129c0.044-25.432,11.564-41.32,35.593-49.928
			c1.901-0.681,3.729-3.078,4.526-5.099c10.947-27.756,21.857-55.529,32.468-83.416c9.912-26.05,23.91-36.168,51.524-36.196
			c60.71-0.062,121.422-0.058,182.132-0.002c27.721,0.024,41.818,10.089,51.703,35.975c10.644,27.875,21.506,55.667,32.571,83.377
			c0.968,2.422,3.836,4.938,6.355,5.75c18.77,6.05,33.341,23.776,33.541,43.202c0.4,38.795,0.146,77.598,0.141,116.397
			c0,0.857-0.25,1.715-0.451,3.002c-11.106,0-21.993,0-34.017,0c0,5.587,0.005,10.72-0.001,15.852
			c-0.007,7.987,0.155,15.98-0.065,23.962c-0.534,19.247-12.541,31.751-30.31,31.798c-18.077,0.047-30.686-12.619-31.153-31.806
			c-0.315-12.95-0.061-25.914-0.061-39.256c-79.487,0-158.371,0-238.393,0c0,2.439,0.054,5.054-0.009,7.665
			c-0.321,13.202,0.428,26.552-1.304,39.568c-1.994,14.992-14.75,24.01-30.403,23.826c-14.691-0.174-26.371-9.493-28.784-24.185
			c-1.282-7.805-0.909-15.899-1.073-23.867C107.252,392.041,107.374,384.546,107.374,376.092z M431.999,211.572
			c-9.878-26.51-19.482-52.059-28.9-77.676c-4.173-11.351-12.2-16.291-24.107-16.272c-60.484,0.102-120.971,0.104-181.458,0
			c-12.211-0.021-20.234,5.162-24.473,16.782c-8.82,24.178-17.959,48.239-26.928,72.364c-0.532,1.43-0.722,2.986-1.145,4.803
			C240.535,211.572,335.669,211.572,431.999,211.572z M469.162,276.536c0.146-17.95-13.95-32.905-31.297-33.202
			c-17.672-0.301-32.379,14.37-32.679,32.6c-0.295,17.995,14.351,33.118,32.073,33.119
			C454.747,309.055,469.017,294.509,469.162,276.536z M107.319,276.285c0.021,18.003,14.166,32.647,31.655,32.77
			c17.72,0.125,32.5-14.862,32.417-32.873c-0.08-17.747-14.601-32.727-31.84-32.849C121.81,243.21,107.297,258.045,107.319,276.285z
			"/>
	</g>
</g>
<g id="parque" display="none">
	<g display="inline">
		<path fill-rule="evenodd" clip-rule="evenodd" d="M399.202,510.843c-67.067,0-134.134,0-201.202,0
			c-1.153-9.779,0.671-12.438,10.51-15.183c1.796-0.501,3.639-0.829,5.456-1.258c12.004-2.828,24.271-4.865,35.947-8.697
			c14.602-4.792,23.965-15.229,26.004-30.892c0.826-6.353,0.763-12.935,0.192-19.33c-1.251-14.031-3.078-28.012-4.686-42.01
			c-0.979-8.507-1.991-17.009-3.106-26.529c-1.729,1.894-2.796,3.146-3.952,4.315c-14.853,15.035-32.634,20.958-53.451,16.724
			c-3.278-0.668-4.992-0.251-7.121,2.52c-18.949,24.659-57.16,19.598-69.234-9.092c-1.421-3.377-2.302-6.979-3.258-9.938
			c-6.732,0-13.202,1.015-19.23-0.188c-18.824-3.753-32.086-20.494-32.284-39.537c-0.193-18.615,12.46-34.645,31.242-39.437
			c2.38-0.607,3.488-1.517,3.609-4.249c0.549-12.427,5.269-23.136,13.968-32.068c0.354-0.362,0.542-0.885,1.201-1.997
			c-11.538,1.932-21.88,0.141-31.056-6.025c-9.332-6.271-15.277-15.071-17.406-26.239c-1.88-9.862-0.404-19.261,4.667-27.895
			c6.734-11.466,17.079-17.902,30.284-20.122c-3.593-19.047,1.634-34.668,17.823-44.945c16.15-10.252,32.485-8.277,48.277,3.198
			c0-1.819-0.027-2.921,0.004-4.021c0.765-26.889,24.854-45.234,50.847-38.615c2.694,0.687,4.052-0.157,5.744-2.152
			c12.255-14.451,27.804-20.098,46.298-15.752c16.367,3.845,27.14,14.341,32.631,30.208c0.705,2.037,1.256,3.381,4.063,3.2
			c16.437-1.056,28.928,5.781,37.589,19.655c1.772,2.838,3.046,5.986,4.581,9.055c19.54-16.561,42.684-12.313,55.671-0.233
			c6.411,5.962,10.628,13.211,12.329,21.767c2.496,12.544-0.556,23.894-8.622,34.223c1.101,0.222,1.622,0.403,2.151,0.423
			c19.727,0.767,35.185,14.739,38.854,32.735c0.271,1.333,2.11,2.746,3.547,3.361c3.012,1.29,6.35,1.818,9.361,3.107
			c15.105,6.461,24.743,22.89,23.481,39.742c-1.26,16.802-13.277,31.512-29.154,35.823c-2.038,0.555-4.843,0.299-5.012,3.646
			c-0.168,3.335-1.024,6.311,2.494,9.173c12.6,10.251,17.157,23.865,14.233,39.688c-2.916,15.782-16.598,28.979-32.134,31.821
			c-16.558,3.027-33.241-4.209-42.142-18.277c-4.041-6.389-6.325-6.919-13.081-3.231c-10.469,5.714-21.728,7.74-33.384,5.689
			c-41.585-7.317-58.795-54.275-32.093-87.148c0.615-0.757,1.124-1.599,1.838-2.626c-2.103-1.311-4.019-2.506-6.162-3.843
			c-6.953,9.407-15.429,16.564-25.69,21.634c-1.02,0.503-1.844,2.493-1.847,3.795c-0.018,12.376-0.037,24.757,0.329,37.126
			c0.779,26.392,9.468,49.193,30.545,66.334c1.373,1.118,2.205,3.639,2.251,5.531c0.39,15.536,0.339,31.085,0.828,46.617
			c0.266,8.468,2.627,16.424,8.296,23.092c7.383,8.687,17.544,11.533,28.128,13.558c7.331,1.401,14.699,2.652,21.955,4.374
			C395.832,502.564,398.951,505.613,399.202,510.843z"/>
	</g>
</g>
<g id="parqueadero" display="none">
	<rect x="66.103" y="69.101" display="inline" fill-rule="evenodd" clip-rule="evenodd" width="448.478" height="446.977"/>
	<g display="inline">
		<path fill="#FFFFFF" d="M148.836,123.645H319.73c37.221,0,65.096,8.852,83.631,26.554c18.533,17.702,27.803,42.894,27.803,75.574
			c0,33.589-10.1,59.841-30.299,78.753c-20.197,18.915-51.027,28.368-92.482,28.368h-56.284v123.462H148.836V123.645z
			 M252.099,265.489h25.191c19.819,0,33.739-3.439,41.758-10.326c8.02-6.883,12.029-15.695,12.029-26.44
			c0-10.439-3.482-19.29-10.439-26.553c-6.961-7.263-20.051-10.894-39.263-10.894h-29.276V265.489z"/>
	</g>
</g>
<g id="placa_polideportiva" display="none">
	<g display="inline">
		<path fill-rule="evenodd" clip-rule="evenodd" d="M513.761,348.483c-1.129,4.933-2.03,9.93-3.425,14.787
			c-10.33,36.012-45.392,61.322-81.76,59.135c-40.037-2.409-71.932-30.475-78.121-68.742c-6.355-39.297,15.457-76.967,52.767-90.815
			c3.38-1.254,4.349-2.577,3.512-6.231c-2.527-11.045-4.605-22.195-7.021-34.099c-1.479,1.386-2.615,2.368-3.657,3.441
			c-38.865,40.009-77.745,80.005-116.523,120.099c-2.35,2.43-4.672,3.305-7.975,3.264c-13.666-0.171-27.333-0.072-41.199-0.072
			c-4.556,29.41-19.345,51.439-45.876,64.729c-20.526,10.281-41.951,11.2-63.583,3.664c-43.206-15.052-65.61-63.636-49.355-106.744
			c16.678-44.233,69.22-67.978,116.743-43.269c3.696-6.185,7.418-12.389,11.117-18.607c6.396-10.755,12.905-21.446,19.092-32.32
			c1.916-3.368,3.893-5.616,8.068-4.769c0.644,0.13,1.377-0.188,2.498-0.368c-0.632-5.018-1.242-9.85-1.894-15.029
			c-7.146,1.465-13.794,2.829-20.819,4.269c0-8.382,0-16.548,0-24.988c20.133,0,40.165,0,60.564,0c0,3.603,0,7.156,0,11.099
			c-7.518,1.934-15.217,3.915-23.199,5.968c1.222,5.877,2.171,11.445,3.684,16.855c0.296,1.058,2.77,2.134,4.246,2.142
			c23.301,0.133,46.603,0.094,69.905,0.094c23.156,0,46.313,0,69.469,0c1.855,0,3.712,0,6.245,0
			c-1.367-7.704-2.628-14.815-3.892-21.926c-1.172-6.588-2.468-13.158-3.457-19.773c-0.354-2.362-1.406-3.222-3.615-3.384
			c-3.773-0.275-7.53-0.812-11.307-1.034c-7.489-0.441-7.493-0.384-6.708-8.461c11.388,0,22.813,0,34.649,0
			c6.472,33.377,12.966,66.875,19.265,99.355c10.169,1.175,19.818,1.447,29.069,3.511c31.998,7.138,57.273,35.342,61.635,67.835
			c0.17,1.274,0.567,2.52,0.858,3.777C513.761,337.411,513.761,342.947,513.761,348.483z M411.269,279.536
			c-31.387,9.508-50.265,44.967-41.5,77.114c9.174,33.648,43.487,54.003,76.978,45.663c33.428-8.322,54.751-42.188,47.469-75.196
			c-8.469-38.384-43.897-54.007-67.936-50.5c0.14,1.25,0.196,2.529,0.438,3.772c3.807,19.703,7.663,39.394,11.399,59.11
			c0.223,1.174-0.063,3.234-0.813,3.669c-3.69,2.132-7.616,3.853-11.856,5.912C420.658,325.592,415.986,302.68,411.269,279.536z
			 M139.77,349.349c13.339-22.466,26.113-43.979,38.882-65.486c-23.236-13.833-55.309-9.012-75.381,10.896
			c-20.395,20.225-24.664,52.521-10.209,77.237c14.972,25.601,44.617,37.714,72.755,29.729
			c24.051-6.825,45.722-31.718,45.313-52.376C187.744,349.349,164.35,349.349,139.77,349.349z M244.546,226.579
			c7.749,34.417,15.426,68.515,22.726,100.938c33.942-33.268,68.255-66.896,102.988-100.938
			C328.063,226.579,286.512,226.579,244.546,226.579z M252.964,335.111c-7.856-34.866-15.663-69.517-23.734-105.337
			c-9.534,16.929-18.409,32.687-27.348,48.559c17.539,15.107,26.626,34.195,29.076,56.778
			C238.283,335.111,245.349,335.111,252.964,335.111z M169.673,335.075c14.584,0,28.471,0,42.712,0
			c-1.881-15.849-8.348-29.139-18.999-41.036C185.398,307.863,177.646,321.278,169.673,335.075z"/>
	</g>
</g>
<g id="puente" display="none">
	<g display="inline">
		<path fill-rule="evenodd" clip-rule="evenodd" d="M495.79,107.345c6.838,3.542,13.46,6.976,20.29,10.514
			c-6.136,11.832-12.132,23.371-18.11,34.925c-11.4,22.023-22.819,44.036-34.134,66.105c-1.214,2.371-2.486,3.426-5.358,3.422
			c-111.25-0.09-222.499-0.078-333.749-0.06c-2.051,0-3.638-0.019-4.848-2.368c-17.2-33.409-34.534-66.744-51.831-100.102
			c-0.283-0.546-0.511-1.118-0.9-1.975c6.712-3.479,13.336-6.912,20.228-10.484c0.898,1.672,1.674,3.078,2.413,4.5
			c14.548,28.012,29.125,56.009,43.574,84.069c1.266,2.454,2.655,3.352,5.438,3.348c101.845-0.075,203.686-0.075,305.532-0.004
			c2.744,0.004,4.188-0.8,5.472-3.295c14.545-28.293,29.224-56.518,43.872-84.758C494.306,109.978,494.986,108.804,495.79,107.345z"
			/>
		<path fill-rule="evenodd" clip-rule="evenodd" d="M67.039,462.156c8.646-16.646,17.131-32.969,25.605-49.299
			c9-17.345,18.044-34.667,26.914-52.075c1.218-2.39,2.623-3.07,5.185-3.066c111.251,0.06,222.501,0.052,333.751,0.034
			c2.059,0,3.624,0.04,4.825,2.374c17.234,33.529,34.604,66.992,51.937,100.473c0.223,0.43,0.38,0.889,0.687,1.619
			c-6.703,3.471-13.323,6.9-20.196,10.462c-0.909-1.702-1.683-3.108-2.422-4.537c-14.532-28.02-29.096-56.021-43.522-84.093
			c-1.286-2.506-2.743-3.284-5.48-3.284c-101.844,0.071-203.687,0.071-305.531-0.004c-2.791-0.004-4.167,0.917-5.428,3.363
			c-14.571,28.281-29.265,56.5-43.93,84.732c-0.624,1.2-1.285,2.382-2.059,3.811C80.577,469.154,74.042,465.776,67.039,462.156z"/>
	</g>
</g>
<g id="puerto" display="none">
	<g display="inline">
		<path fill-rule="evenodd" clip-rule="evenodd" d="M123.026,394.503c-4.178,1.352-8.403,2.793-12.672,4.089
			c-14.077,4.275-26.065-6.369-23.702-20.813c4.368-26.69,8.659-53.393,12.806-80.118c1.147-7.392,4.219-13.141,11.537-15.694
			c7.306-2.548,13.246-0.079,18.733,5.131c19.855,18.848,39.926,37.47,59.877,56.217c11.915,11.195,8.45,26.699-7.072,31.901
			c-4.229,1.416-8.458,2.837-12.672,4.252c10.573,36.109,48.685,74.964,97.616,82.945c0.081-1.718,0.226-3.383,0.226-5.049
			c-0.018-87.581-0.072-175.163,0.007-262.745c0.004-3.711-1.07-5.66-4.427-7.374c-25.715-13.134-38.484-42.491-30.78-70.219
			c7.676-27.63,33.957-46.213,62.698-44.338c27.354,1.785,50.052,21.778,55.658,49.024c5.358,26.035-7.886,53.627-31.726,65.651
			c-3.132,1.58-4.312,3.35-4.309,6.923c0.106,87.742,0.082,175.484,0.092,263.227c0,1.414,0.122,2.827,0.189,4.26
			c35.892-5.251,78.983-35.096,95.372-82.149c-4.301-1.459-8.606-2.94-12.926-4.383c-15.449-5.159-18.978-20.78-7.146-31.912
			c20.173-18.979,40.422-37.878,60.567-56.885c5.093-4.805,10.849-6.848,17.577-4.644c6.894,2.259,10.57,7.394,11.706,14.479
			c4.381,27.336,8.916,54.649,13.123,82.013c2.247,14.616-10.051,24.646-24.234,20.114c-4.097-1.309-8.171-2.689-12.159-4.005
			c-30.621,75.015-84.771,119.29-166.754,119.392C208.202,513.895,153.973,469.765,123.026,394.503z M315.979,134.088
			c0.338-13.953-10.285-25.086-24.334-25.503c-13.751-0.407-25.054,10.535-25.34,24.532c-0.28,13.746,10.806,25.159,24.607,25.335
			C304.459,158.625,315.648,147.75,315.979,134.088z"/>
	</g>
</g>
<g id="salon_comunal" display="none">
	<path display="inline" d="M514.58,67.601H70.602v445.478H120.1V291.09h356.982v221.989h37.498V67.601z M271.455,253.955H120.099
		V102.599h151.356V253.955z M474.083,253.955H322.726V102.599h151.357V253.955z"/>
	<rect x="120.1" y="513.079" display="inline" fill="#FFFFFF" width="356.982" height="11.999"/>
</g>
<g id="sitio" display="none">
	<circle display="inline" fill="none" stroke="#000000" stroke-width="20" stroke-miterlimit="10" cx="290" cy="290" r="212.989"/>
	<circle display="inline" fill="none" stroke="#000000" stroke-width="20" stroke-miterlimit="10" cx="290" cy="290" r="135.743"/>
	<circle display="inline" cx="290" cy="290" r="22.499"/>
</g>
<g id="sitios_arqueologicos" display="none">
	<g display="inline">
		<path fill-rule="evenodd" clip-rule="evenodd" d="M388.587,433.79c11.318-4.667,14.66-10.029,12.275-20.924
			c-2.536-11.575-7.703-21.989-17.486-29.312c-7.778-5.822-17.054-3.984-25.576-3.201c-6.988,0.642-13.738,3.901-20.589,6.018
			c-10.552,3.263-15.236,11.533-16.088,21.482c-2.476,28.929,4.424,55.459,22.879,78.313c7.898,9.785,28.949,13.622,43.037,7.337
			c17.83-7.951,33.896-18.848,47.332-33.191c9.465-10.104,11.907-22.518,10.487-35.867c-1.518-14.235-1.538-28.479-7.366-42.285
			c-10.681-25.298-29.14-37.753-56.153-38.091c-17.568-0.218-35.16-0.56-52.708,0.104c-23.365,0.883-46.393,3.82-65.612,19.155
			c-14.314,11.423-24.717,26.686-30.418,43.188c-7.235,20.943-19.261,36.678-36.656,49.175
			c-14.494,10.412-29.116,20.643-43.723,30.896c-1.67,1.172-3.617,2.728-5.435,2.726c-2.66-0.003-6.061-0.531-7.712-2.23
			c-1.075-1.107-0.526-5.679,0.883-6.992c6.614-6.166,13.587-11.992,20.785-17.477c13.346-10.172,27.046-19.88,40.333-30.124
			c2.681-2.066,5.31-5.452,5.901-8.614c0.562-3.008-0.903-8.857-2.654-9.362c-4.921-1.414-11.476-2.648-15.542-0.483
			c-11.542,6.141-22.357,13.74-33.095,21.283c-10.14,7.123-19.576,15.261-29.831,22.201c-3.583,2.425-8.628,3.342-13.095,3.653
			c-7.087,0.496-12.252-6.944-8.28-12.73c4.204-6.124,9.913-11.869,16.208-15.772c13.129-8.14,27.613-14.135,40.519-22.573
			c10.293-6.731,19.111-15.735,28.476-23.854c1.048-0.908,1.87-2.571,2-3.958c0.733-7.803-14.33-19.962-21.345-16.333
			c-13.195,6.822-26.377,14.062-38.316,22.83c-14.344,10.533-27.345,22.89-41.01,34.357c-4.616,3.873-8.536,2.258-12.041-1.985
			c-5.452-6.604-6.117-12.604-0.537-16.988c9.149-7.188,18.489-14.288,28.447-20.261c16.844-10.104,30.761-23.476,44.195-37.447
			c1.771-1.843,3.004-5.821,2.294-8.141c-2.834-9.262-16.521-14.098-25.074-9.324c-18.692,10.434-32.218,26.719-47.125,41.466
			c-1.586,1.568-6.297,2.816-6.784,2.157c-1.897-2.564-2.884-5.9-3.749-9.076c-0.25-0.921,0.84-2.425,1.648-3.382
			c14.963-17.717,31.847-33.272,50.852-46.668c15.878-11.192,32.132-10.58,49.311-4.09c20.362,7.691,41.16,12.605,63.227,9.086
			c5.083-0.811,10.374-0.284,15.567-0.424c38.403-1.031,76.82-3.21,115.202-2.677c21.77,0.302,44.254,3.667,61.816,18.554
			c8.649,7.334,15.576,17.106,21.903,26.687c11.192,16.941,15.705,36.263,15.971,56.387c0.19,14.413,2.036,29.188-4.872,42.823
			c-1.374,2.712-2.945,5.583-5.151,7.572c-21.669,19.511-45.297,36.75-73.658,44.028c-14.376,3.69-30.074-0.318-43.148-10.008
			c-21.757-16.125-31.161-39.014-36.641-64.349c-3.313-15.318-1.39-30.397,1.804-45.318c2.655-12.415,17.673-25.157,30.278-26.838
			c12.238-1.636,24.463-3.444,36.738-4.725c13.213-1.376,23.49,3.813,31.229,14.681c7.989,11.219,15.035,22.839,17.112,36.698
			c4.793,31.969-23.419,45.618-46.457,42.338c-4.828-0.689-9.707-6.357-13.058-10.853c-5.241-7.025-9.424-14.901-7.835-24.414
			c1.355-8.103,6.035-11.175,13.503-8.208C376.76,414.718,384.741,422.001,388.587,433.79z"/>
		<path fill-rule="evenodd" clip-rule="evenodd" d="M209.09,156.712c-3.122-2.1-6.844-5.236-11.088-7.293
			c-5.185-2.515-12.021,0.849-12.794,6.408c-1.678,12.068-2.674,24.257,6.765,34.17c5.976,6.277,11.699,12.903,18.341,18.402
			c6.15,5.093,14.914,4.628,21.414-0.108c14.348-10.455,25.933-22.844,28.481-41.507c1.488-10.9-3.131-20.128-7.332-29.548
			c-9.319-20.896-27.194-30.517-48.122-34.854c-5.958-1.235-14,0.407-19.156,3.728c-22.693,14.611-42.935,31.826-50.916,59.247
			c-0.85,2.921-1.689,6.159-1.288,9.079c3.523,25.642,10.655,49.821,28.514,69.695c8.855,9.854,20.459,13.977,32.803,15.674
			c17.1,2.352,34.389,4.961,51.562,4.745c21.529-0.273,42.332-6.115,61.143-17.022c18.753-10.875,27.333-29.591,35.698-48.441
			c8.006-18.044,11.784-38.373,26.712-52.804c12.439-12.029,24.994-24.021,38.397-34.925c4.053-3.298,11.071-3.588,16.806-3.902
			c2.531-0.14,6.314,2.579,7.488,4.992c0.722,1.49-1.793,5.715-3.913,7.223c-10.758,7.649-22.09,14.498-32.757,22.265
			c-6.2,4.515-11.697,10.052-17.191,15.454c-5.446,5.353-4.284,11.857-0.226,16.872c4.421,5.466,11.469,6.895,17.544,3.16
			c13.612-8.373,26.689-17.616,40.045-26.414c9.038-5.953,17.822-12.474,27.475-17.196c3.099-1.519,9.385,0.921,12.639,3.52
			c1.309,1.045-1.293,7.505-2.741,11.259c-0.682,1.768-2.669,3.218-4.36,4.375c-14.021,9.591-28.11,19.082-42.176,28.604
			c-8.338,5.644-16.897,11.002-24.888,17.103c-2.575,1.966-5.865,7.102-4.996,8.673c2.291,4.149,6.173,8.22,10.414,10.205
			c2.776,1.298,7.859-0.138,10.917-1.987c18.098-10.95,35.816-22.528,53.867-33.556c5.436-3.32,11.509-5.604,17.325-8.289
			c4.693-2.164,8.551-1.22,11.308,3.332c3.008,4.967,1.512,9.468-2.693,12.338c-9.548,6.518-19.249,12.906-29.376,18.457
			c-11.749,6.438-24.198,11.594-35.957,18.016c-3.674,2.007-7.753,5.873-8.766,9.659c-3.073,11.497,4.095,16.916,17.102,13.205
			c20.506-5.851,40.991-11.814,61.285-18.352c5.021-1.617,8.701-0.095,10.626,3.162c1.324,2.241,0.421,6.92-1.128,9.537
			c-6.315,10.658-18.242,11.074-28.423,13.172c-21.395,4.407-43.056,7.093-62.262,18.989c-3.492,2.163-9.803,1.727-14.087,0.307
			c-15.438-5.118-31.382-4.995-46.714-2.632c-31.509,4.851-62.494,13.46-94.086,17.299c-26.557,3.227-53.805,3.364-78.962-9.7
			c-8.682-4.509-18.003-7.774-26.737-12.193c-20.167-10.204-28.9-28.765-34.299-49.214c-4.651-17.628-9.246-35.362-12.072-53.332
			c-1.012-6.44,1.722-14.636,5.317-20.438c17.317-27.942,41.683-48.418,70.882-63.204c2.358-1.194,5.773-1.978,8.134-1.214
			c18.599,6.023,37.826,10.91,52.24,25.536c13.743,13.944,19.854,31.716,24.493,50.039c1.946,7.686,2.399,15.753,3.456,23.659
			c1.174,8.767-2.997,15.41-8.68,21.419c-4.641,4.905-9.174,9.915-13.935,14.701c-22.473,22.605-45.588,23.141-67.213,1.633
			c-11.979-11.915-20.246-27.822-28.842-42.705c-2.308-3.996-1.093-11.426,0.948-16.244c4.362-10.295,12.476-17.728,22.894-22.162
			c13.568-5.773,33.789,0.987,42.123,13.899c4.44,6.879,7.561,13.814,4.686,22.502c-3.186,9.627-13.643,15.978-22.929,12.598
			c-8.426-3.067-8.227-11.68-9.201-18.255C198.228,164.831,204.611,161.125,209.09,156.712z"/>
	</g>
</g>
<g id="sitio_historioco" display="none">
	<g display="inline">
		<path fill-rule="evenodd" clip-rule="evenodd" d="M70.324,330.925c18.012-18.082,35.97-36.217,54.054-54.228
			c11.702-11.657,17.334-11.641,29.21,0.227c12.304,12.297,24.376,24.826,37.564,38.289c3.714-3.99,6.592-6.871,9.234-9.952
			c63.833-74.433,127.628-148.896,191.483-223.31c3.495-4.072,7.441-7.755,11.178-11.62c36.452,0,72.904,0,109.357,0
			c0,36.453,0,72.904,0,109.356c-11.219,10.045-22.261,20.295-33.682,30.107c-66.728,57.312-133.545,114.521-200.325,171.773
			c-3.205,2.747-6.345,5.569-10.865,9.544c13.115,13.011,25.749,25.424,38.243,37.973c11.827,11.882,11.889,17.553,0.318,29.221
			c-15.006,15.135-30.069,30.216-45.218,45.205c-11.86,11.736-16.97,11.693-29.078-0.396
			c-14.518-14.494-28.847-29.182-45.304-45.859c-6.578,7.501-14.212,13.292-17.905,20.977
			c-10.256,21.346-27.242,34.163-48.329,33.865c-21.56-0.302-39.146-13.797-47.49-36.387c-0.659-1.784-1.625-3.456-2.447-5.181
			c0-6.206,0-12.409,0-18.614c6.307-15.258,14.575-28.457,30.296-36.328c8.78-4.395,16.181-11.55,24.798-17.897
			c-19.884-20.736-37.489-39.099-55.094-57.458C70.324,337.13,70.324,334.026,70.324,330.925z M247.832,367.739
			c1.269-0.677,2.043-0.93,2.615-1.418c75.388-64.528,150.811-129.013,225.96-193.819c3.245-2.797,5.413-8.471,5.593-12.904
			c0.656-16.255-0.104-32.563,0.408-48.827c0.267-8.389-3.131-10.639-10.925-10.414c-15.105,0.436-30.247,0.525-45.344-0.041
			c-8.175-0.307-13.57,2.586-18.825,8.746c-61.875,72.556-124.005,144.894-186.038,217.315c-2.432,2.841-4.557,5.946-6.179,8.078
			C226.423,345.972,236.928,356.65,247.832,367.739z M135.432,305.901c-4.578,5.642-9.521,12.593-15.334,18.716
			c-11.286,11.886-11.558,11.761,0.333,23.701c21.831,21.92,43.741,43.763,65.634,65.621c17.518,17.489,34.854,35.172,52.81,52.202
			c2.681,2.545,9.889,4.186,12.297,2.461c9.327-6.672,17.56-14.874,25.335-21.743C228.801,399.193,183.478,353.908,135.432,305.901z
			 M120.515,443.217c-9.798,0.101-18.702,8.644-18.86,18.096c-0.175,10.364,9.813,20.219,20.03,19.767
			c9.509-0.421,17.692-9.284,17.805-19.282C139.614,450.72,131.833,443.099,120.515,443.217z"/>
		<path fill-rule="evenodd" clip-rule="evenodd" fill="#FFFFFF" d="M70.324,340.231c17.605,18.359,35.21,36.722,55.094,57.458
			c-8.617,6.348-16.018,13.503-24.798,17.897c-15.721,7.871-23.99,21.07-30.296,36.328C70.324,414.688,70.324,377.46,70.324,340.231
			z"/>
	</g>
</g>
<g id="tanque" display="none">
	<polygon display="inline" fill-rule="evenodd" clip-rule="evenodd" fill="#231F20" points="428.203,511.58 170.164,511.58 
		87.511,129.102 492.489,129.102 	"/>
	
		<rect x="65.762" y="64.603" display="inline" fill-rule="evenodd" clip-rule="evenodd" fill="#231F20" width="448.477" height="109.494"/>
</g>
<g id="teatro" display="none">
	<g display="inline">
		<path fill-rule="evenodd" clip-rule="evenodd" d="M290.624,70.38c43.383,0.585,86.523,3.169,128.28,16.419
			c18.004,5.714,35.05,13.375,49.379,26.088c10.764,9.543,15.992,20.946,15.734,35.923c-1.006,58.601-5.786,116.678-20.872,173.54
			c-12.308,46.396-30.971,89.77-62.039,126.973c-21.752,26.051-48.177,45.541-80.379,57.197c-32.94,11.926-62.6,2.898-91.062-13.316
			c-36.123-20.584-61.452-51.529-80.87-87.583c-28.002-51.992-41.124-108.403-47.032-166.578
			c-3.055-30.08-3.602-60.407-5.675-90.597c-1.08-15.723,5.497-27.468,17.178-37.045c21.972-18.013,48.034-27.201,75.369-31.481
			c33.695-5.273,67.78-8.05,101.699-11.906C290.43,68.804,290.527,69.592,290.624,70.38z M379.572,340.759
			c-30.432,16.239-60.365,33.316-95.958,33.324c-35.595,0.009-65.514-17.491-97.587-35.352
			c13.821,29.12,30.086,52.959,55.053,69.411c24.001,15.814,49.884,18.395,75.864,5.346
			C347.612,398.082,365.502,371.045,379.572,340.759z M150.061,237.077c20.149,18.331,36.917,39.462,66.748,34.51
			c23.076-3.832,39.73-17.683,53.646-36.798C229.778,224.849,190.822,222.03,150.061,237.077z M429.438,236.858
			c-32.08-13.257-81.063-13.922-117.7-1.813C343.077,279.3,387.938,288.815,429.438,236.858z"/>
	</g>
</g>
<g id="telecom" display="none">
	<g display="inline">
		<path fill-rule="evenodd" clip-rule="evenodd" d="M279.426,261.502c2.82-5.353,5.576-10.375,8.072-15.523
			c0.426-0.879-0.058-2.376-0.467-3.458c-3.588-9.509,0.35-20.699,9.132-25.736c6.285-3.604,13.805-3.247,19.147,0.907
			c5.657,4.399,8.047,12.462,5.711,19.991c-2.438,7.86-7.611,12.926-15.733,14.879c-0.979,0.235-2.194,0.871-2.647,1.685
			c-2.737,4.914-5.284,9.934-8.07,15.253c54.627,28.905,109.122,57.738,163.725,86.629
			c-60.229,55.933-161.197,76.305-248.031,22.245c-78.383-48.798-105.417-137.056-94.378-203.377
			c27.303,14.434,54.507,28.811,81.707,43.199C224.724,232.547,251.85,246.908,279.426,261.502z M133.079,209.829
			c1.123,52.224,22.655,94.37,59.02,129.76c-2.181-5.756-4.589-11.415-7.051-17.053c-7.236-16.564-13.969-33.376-17.107-51.216
			c-2.423-13.775-3.451-27.802-4.938-41.734c-0.244-2.291-0.915-3.673-3.023-4.803c-7.194-3.853-14.259-7.951-21.377-11.945
			C136.926,211.898,135.228,210.998,133.079,209.829z"/>
		<path fill-rule="evenodd" clip-rule="evenodd" d="M312.016,512.456c-58.147,0-115.885,0-174.168,0
			c20.792-40.063,33.663-83.1,47.274-126.37c0.989,0.654,1.844,1.114,2.576,1.723c25.169,20.941,54.14,33.58,86.208,39.414
			c2.006,0.363,3.254,0.977,3.959,3.085c9.133,27.286,20.093,53.818,33.129,79.48C311.342,510.471,311.548,511.222,312.016,512.456z
			 M158.698,502.408c0.046,0.159,0.092,0.318,0.138,0.478c0.996-1.272,1.965-2.568,2.996-3.81c0.659-0.796,1.449-1.482,2.112-2.274
			c18.86-22.572,30.168-48.945,38.556-76.771c0.232-0.774-0.07-2.214-0.645-2.644c-3.564-2.652-7.278-5.104-10.371-7.233
			C180.5,441.062,169.6,471.734,158.698,502.408z"/>
		<path fill-rule="evenodd" clip-rule="evenodd" d="M463.859,195.68c-4.675,1.577-9.322,3.146-14.224,4.8
			c-1.809-5.118-3.41-10.123-5.328-15.002c-13.602-34.576-35.931-62.099-68.104-80.739c-39.966-23.157-81.733-26.789-124.77-8.545
			c-0.833,0.353-1.69,0.649-2.859,1.097c-1.833-5.3-3.614-10.451-5.469-15.809c9.434-4.451,18.938-7.794,28.847-9.866
			c48.815-10.211,92.383,1.724,131.118,32.128c29.866,23.44,49.33,54.176,60.513,90.297
			C463.719,194.47,463.737,194.934,463.859,195.68z"/>
		<path fill-rule="evenodd" clip-rule="evenodd" d="M261.05,136.651c-1.684-4.967-3.262-9.619-4.985-14.701
			c2.891-1.181,5.566-2.438,8.346-3.384c35.875-12.201,69.828-7.653,101.666,12.415c28.428,17.919,46.622,43.794,56.904,75.508
			c0.207,0.633,0.278,1.31,0.439,2.1c-0.751,0.298-1.364,0.576-2,0.789c-3.907,1.3-7.82,2.585-11.884,3.925
			c-2.348-6.003-4.448-11.932-6.955-17.682c-8.147-18.691-20.068-34.553-36.293-46.989c-16.17-12.395-34.364-19.671-54.806-21.188
			C294.021,126.15,277.437,129.499,261.05,136.651z"/>
		<path fill-rule="evenodd" clip-rule="evenodd" d="M272.5,172.742c-1.458-4.391-2.969-8.934-4.463-13.43
			c45.156-21.82,103.073,6.41,118.479,61.218c-4.71,1.555-9.439,3.119-14.343,4.739c-2.273-5.27-4.256-10.39-6.652-15.309
			c-5.921-12.155-13.72-22.891-24.811-30.891c-16.322-11.775-34.528-14.316-53.871-10.424
			C282.141,169.588,277.591,171.264,272.5,172.742z"/>
	</g>
</g>
<g id="telefono_publico" display="none">
	<g display="inline">
		<path d="M66.103,69.101v446.977H514.58V69.101H66.103z M252.748,106.643c0.749,0,1.497,0,2.246,0
			c0.666,0.115,1.333,0.223,1.997,0.345c2.546,0.467,4.958,1.337,7.285,2.454c2.749,1.319,5.366,2.854,7.718,4.808
			c1.319,1.096,2.513,2.31,3.423,3.779c0.615,0.992,0.953,2.042,0.967,3.239c0.108,9.213,0.25,18.426,0.385,27.638
			c0.163,11.037,0.325,22.073,0.508,33.109c0.011,0.648-0.125,1.163-0.552,1.654c-1.366,1.569-2.703,3.164-4.047,4.752
			c-1.854,2.189-4.097,3.885-6.62,5.228c-2.526,1.345-5.12,2.52-7.966,3.001c-0.707,0.12-1.448,0.147-2.163,0.088
			c-1.248-0.102-1.986-0.696-2.125-1.924c-0.171-1.509-0.367-3.018-0.462-4.533c-0.464-7.398-0.729-14.806-0.898-22.217
			c-0.244-10.754-0.495-21.507-0.695-32.262c-0.173-9.306-0.278-18.612-0.413-27.918c-0.004-0.299,0-0.599,0-0.905
			C251.848,106.857,252.298,106.75,252.748,106.643z M393.801,401.382c-5.979,3.788-12.271,6.97-18.774,9.748
			c-10.253,4.38-20.808,7.845-31.646,10.452c-0.134,0.032-0.26,0.094-0.39,0.142c-6.082,0-12.164,0-18.245,0
			c-0.129-0.044-0.254-0.11-0.387-0.129c-4.128-0.592-8.167-1.574-12.129-2.864c-7.326-2.385-14.21-5.727-20.783-9.726
			c-7.677-4.669-14.777-10.11-21.516-16.037c-7.635-6.715-14.707-13.989-21.42-21.616c-7.64-8.679-14.768-17.767-21.577-27.108
			c-6.104-8.373-11.902-16.957-17.649-25.576c-3.626-5.438-6.734-11.166-9.491-17.089c-2.754-5.918-5.145-11.98-7.267-18.15
			c-4.111-11.953-7.226-24.172-9.658-36.567c-0.863-4.401-1.622-8.825-2.356-13.25c-0.54-3.25-0.994-6.515-1.427-9.781
			c-0.437-3.29-0.823-6.587-1.187-9.886c-0.339-3.067-0.654-6.137-0.918-9.211c-0.29-3.377-0.549-6.759-0.75-10.143
			c-0.267-4.481-0.479-8.967-0.688-13.451c-0.122-2.617-0.188-5.235-0.288-7.853c-0.01-0.274-0.079-0.546-0.121-0.819
			c0-2.012,0-4.023,0-6.035c0.052-0.249,0.128-0.495,0.151-0.747c0.179-1.932,0.319-3.868,0.528-5.796
			c0.351-3.236,1.009-6.416,1.906-9.543c3.083-10.756,8.972-19.661,17.655-26.717c5.681-4.616,12.032-8.05,18.847-10.653
			c5.78-2.208,11.736-3.779,17.837-4.81c3.531-0.596,7.08-1.009,10.657-1.188c0.138-0.007,0.276,0,0.496,0
			c0.028,0.286,0.069,0.553,0.078,0.822c0.057,1.73,0.109,3.46,0.158,5.189c0.161,5.681,0.313,11.362,0.48,17.043
			c0.254,8.58,0.519,17.159,0.776,25.738c0.109,3.647,0.208,7.294,0.315,10.941c0.22,7.458,0.444,14.915,0.663,22.372
			c0.086,2.922,0.148,5.845,0.257,8.767c0.018,0.477-0.241,0.593-0.565,0.746c-2.612,1.233-5.062,2.726-7.273,4.594
			c-4.767,4.029-7.631,9.137-8.657,15.284c-0.77,4.614-0.426,9.178,0.633,13.708c0.56,2.397,1.353,4.698,2.47,6.908
			c10.23,20.236,20.572,40.413,31.292,60.394c4.818,8.982,9.716,17.922,14.868,26.718c2.576,4.399,5.195,8.772,8.175,12.916
			c2.174,3.023,4.813,5.531,8.129,7.284c2.15,1.136,4.432,1.861,6.838,2.2c4.475,0.63,8.807-0.037,13.054-1.443
			c2.38-0.789,4.672-1.782,6.843-3.045c0.079-0.046,0.167-0.076,0.29-0.131c24.111,18.957,48.229,37.919,72.429,56.945
			C394.206,401.105,394.008,401.25,393.801,401.382z M409.095,375.128c-0.361,1.373-0.669,2.762-1.093,4.115
			c-1.729,5.53-3.495,11.049-5.249,16.571c-0.055,0.17-0.128,0.335-0.229,0.6c-24.836-19.714-49.611-39.379-74.439-59.087
			c0.197-0.131,0.335-0.24,0.488-0.32c6.325-3.341,12.649-6.682,18.982-10.006c0.315-0.166,0.705-0.244,1.064-0.26
			c2.639-0.116,5.073,0.677,7.44,1.733c1.994,0.891,3.854,2.021,5.595,3.329c6.057,4.552,12.134,9.078,18.125,13.716
			c8.081,6.255,16.107,12.582,24.118,18.928c2.36,1.869,4,4.305,4.86,7.22c0.157,0.532,0.227,1.09,0.337,1.637
			C409.095,373.912,409.095,374.52,409.095,375.128z"/>
	</g>
</g>
<g id="terminal" display="none">
	<g display="inline">
		<path fill-rule="evenodd" clip-rule="evenodd" d="M466.582,264.813c0,62.797,0,125.596,0,188.394c-9.945,0-19.889,0-30.045,0
			c0,6,0.008,11.01-0.002,16.019c-0.01,5.016,0.088,10.036-0.072,15.048c-0.467,14.377-11.139,24.761-25.416,24.85
			c-14.645,0.091-25.568-10.1-26.117-24.586c-0.238-6.297-0.074-12.609-0.086-18.917c-0.006-3.952-0.002-7.905-0.002-11.958
			c-65.324,0-130.04,0-195.231,0c0,1.768,0.002,3.302,0,4.834c-0.014,8.6,0.165,17.203-0.088,25.796
			c-0.427,14.55-11.305,24.858-25.873,24.831c-14.516-0.026-25.313-10.454-25.656-25.038c-0.206-8.736-0.051-17.483-0.084-26.226
			c-0.005-1.371-0.148-2.742-0.251-4.51c-10.055,0-19.731,0-29.8,0c0-2.106,0-3.794,0-5.479c0-56.184-0.088-112.367,0.09-168.549
			c0.028-8.984,0.863-18.015,1.981-26.941c4.645-37.084,9.898-74.095,14.203-111.218c2.364-20.382,11.759-35.204,30.123-44.322
			c2.818-1.399,5.608-2.869,8.49-4.127c28.259-12.347,58.303-17.371,88.566-21.423c8.07-1.081,16.197-1.754,24.297-2.614
			c7.742,0,15.485,0,23.227,0c1.255,0.233,2.502,0.598,3.768,0.681c22.9,1.485,45.461,5.129,67.832,10.201
			c19.201,4.353,37.871,10.045,54.91,20.195c13.184,7.854,21.695,19.305,23.824,34.499c4.686,33.444,8.742,66.975,13.123,100.462
			C463.605,244.763,465.146,254.781,466.582,264.813z M287.229,282.305c43.441,0,86.882,0.002,130.322-0.01
			c2.15,0,4.314,0.003,6.443-0.238c5.965-0.678,9.953-4.49,10.816-10.468c0.324-2.243,0.455-4.6,0.15-6.834
			c-4.285-31.507-8.754-62.991-12.986-94.505c-2.629-19.55-7.209-23.773-26.793-23.774c-69.535-0.003-139.07-0.002-208.604,0.002
			c-4.301,0-8.605-0.065-12.9,0.099c-12.722,0.488-18.3,5.139-20.201,17.746c-3.354,22.234-6.363,44.521-9.467,66.792
			c-1.621,11.633-3.37,23.255-4.625,34.93c-1.119,10.404,4.151,16.018,14.511,16.25c1.29,0.028,2.581,0.008,3.871,0.008
			C200.92,282.305,244.074,282.305,287.229,282.305z M286.905,124.526c23.79,0,47.58,0.009,71.369-0.018
			c1.85-0.002,3.756-0.023,5.537-0.444c5.219-1.231,8.4-5.749,8.09-11.157c-0.318-5.543-3.807-9.319-9.354-10.025
			c-1.559-0.199-3.141-0.268-4.713-0.269c-47.006-0.013-94.011-0.014-141.017,0.001c-1.714,0.001-3.437,0.111-5.143,0.288
			c-4.298,0.445-7.061,2.847-8.454,6.877c-2.734,7.91,2.486,14.711,11.457,14.73C238.753,124.559,262.829,124.525,286.905,124.526z
			 M410.773,345.711c-13.672-0.038-24.896,11.096-24.951,24.748c-0.057,13.591,11.193,24.946,24.758,24.999
			c13.561,0.052,24.893-11.216,24.951-24.808C435.59,357.002,424.416,345.748,410.773,345.711z M163.928,345.711
			c-13.688-0.059-24.918,11.03-25.005,24.692c-0.087,13.589,11.133,24.967,24.703,25.055c13.561,0.086,24.917-11.155,25.007-24.753
			C188.723,357.065,177.557,345.769,163.928,345.711z"/>
		<path fill-rule="evenodd" clip-rule="evenodd" fill="#FFFFFF" d="M275.607,68.676c-8.1,0.86-16.227,1.533-24.297,2.614
			c-30.263,4.053-60.307,9.076-88.566,21.423c-2.881,1.258-5.671,2.728-8.49,4.127c-18.363,9.119-27.758,23.94-30.123,44.322
			c-4.304,37.123-9.558,74.133-14.203,111.218c-1.118,8.927-1.953,17.957-1.981,26.941c-0.178,56.182-0.09,112.365-0.09,168.549
			c0,1.685,0,3.372,0,5.479c10.068,0,19.745,0,29.8,0c0.103,1.768,0.246,3.139,0.251,4.51c0.033,8.742-0.122,17.489,0.084,26.226
			c0.343,14.584,11.14,25.012,25.656,25.038c14.567,0.027,25.445-10.281,25.873-24.831c0.252-8.593,0.074-17.196,0.088-25.796
			c0.002-1.532,0-3.066,0-4.834c65.191,0,129.907,0,195.231,0c0,4.053-0.004,8.006,0.002,11.958
			c0.012,6.308-0.152,12.62,0.086,18.917c0.549,14.486,11.473,24.677,26.117,24.586c14.277-0.089,24.949-10.473,25.416-24.85
			c0.16-5.012,0.063-10.032,0.072-15.048c0.01-5.009,0.002-10.019,0.002-16.019c10.156,0,20.1,0,30.045,0
			c0,18.926,0,37.851,0,56.776c-119.861,0-239.723,0-359.584,0c0-147.103,0-294.205,0-441.307
			C163.201,68.676,219.404,68.676,275.607,68.676z"/>
		<path fill-rule="evenodd" clip-rule="evenodd" fill="#FFFFFF" d="M466.582,264.813c-1.436-10.032-2.977-20.051-4.291-30.099
			c-4.381-33.487-8.438-67.019-13.123-100.462c-2.129-15.194-10.641-26.646-23.824-34.499c-17.039-10.15-35.709-15.842-54.91-20.195
			c-22.371-5.072-44.932-8.716-67.832-10.201c-1.266-0.083-2.513-0.447-3.768-0.681c55.916,0,111.832,0,167.748,0
			C466.582,134.055,466.582,199.434,466.582,264.813z"/>
	</g>
</g>
<g id="torre_de_energia" display="none">
	<g display="inline">
		<path fill-rule="evenodd" clip-rule="evenodd" fill="#FFFFFF" d="M117.267,513.697c0.443,0.362,0.886,0.726,1.329,1.087
			c129.135-92.241,258.271-184.483,387.406-276.726c-0.25-0.695-0.504-1.391-0.754-2.086c-73.019,0-146.036,0-219.054,0
			c-0.34-0.685-0.681-1.368-1.021-2.052C340.188,178.911,395.203,123.9,450.467,68.64c-1.105-0.259-1.884-0.6-2.664-0.6
			c-71.566-0.031-143.139-0.099-214.707,0.178c-3.053,0.012-7.06,2.522-8.999,5.093c-53.61,71.118-107.013,142.392-160.417,213.665
			c-1.074,1.432-1.739,3.171-3.052,5.619c55.98,0,110.824,0,167.116,0C190.595,366.943,153.931,440.32,117.267,513.697z"/>
		<path fill-rule="evenodd" clip-rule="evenodd" d="M117.267,513.697c36.665-73.377,73.329-146.754,110.478-221.103
			c-56.292,0-111.135,0-167.116,0c1.313-2.447,1.979-4.187,3.052-5.619c53.404-71.273,106.807-142.547,160.417-213.665
			c1.938-2.57,5.945-5.081,8.999-5.093c71.568-0.277,143.14-0.209,214.707-0.178c0.78,0,1.559,0.341,2.664,0.6
			c-55.264,55.26-110.278,110.271-165.293,165.281c0.34,0.684,0.681,1.367,1.021,2.052c73.018,0,146.035,0,219.054,0
			c0.25,0.695,0.504,1.391,0.754,2.086C376.866,330.301,247.73,422.543,118.596,514.784
			C118.153,514.423,117.709,514.06,117.267,513.697z"/>
	</g>
</g>
<g id="uiversidad" display="none">
	<g display="inline">
		<path fill-rule="evenodd" clip-rule="evenodd" d="M66.499,343.709c0.765-2.415,1.804-4.778,2.251-7.251
			c4.538-25.079,15.512-46.295,33.053-65.358c54.438-59.157,107.894-119.221,161.4-179.228c7.568-8.488,15.409-10.729,26.214-8.282
			c67.698,15.332,135.469,30.347,203.235,45.386c20.333,4.51,25.136,18.261,11.363,34.159
			c-58.623,67.672-117.465,135.156-175.976,202.926c-7.248,8.393-15.23,10.389-25.352,7.482
			c-54.406-15.619-108.821-31.2-163.26-46.705c-4.899-1.396-9.933-2.773-14.975-3.116c-11.279-0.768-19.466,4.733-21.803,15.812
			c-5.118,24.265-0.137,54.163,34.087,63.597c57.728,15.908,114.963,33.621,172.277,51c7.468,2.263,11.698,1.016,16.656-5.003
			c47.635-57.837,95.683-115.329,143.247-173.22c2.917-3.548,3.256-9.557,3.929-14.537c1.747-12.896,1.959-26.092,4.811-38.711
			c2.143-9.476,11.435-13.654,19.564-11.421c9.156,2.515,12.724,10.045,11.957,20.494c-0.891,12.144,0.403,24.446-0.495,36.587
			c-0.478,6.466-1.873,14.138-5.762,18.882c-53.732,65.587-107.977,130.753-162.077,196.04c-7.421,8.955-16.021,10.676-27.321,7.245
			c-62.901-19.102-125.887-37.94-189.027-56.229c-31.541-9.137-48.688-30.398-55.745-61.313c-0.723-3.17-1.5-6.325-2.253-9.486
			C66.499,356.874,66.499,350.292,66.499,343.709z M279.12,149.957c-13.435-0.247-32.978,14.7-34.208,24.278
			c-0.321,2.493,2.659,6.425,5.181,8.008c3.251,2.045,7.541,2.5,11.429,3.45c35.771,8.763,71.71,16.891,107.258,26.476
			c16.401,4.423,28.68,2.588,39.236-11.914c9.892-13.588,9.551-16.888-6.883-20.938c-25.139-6.195-50.323-12.204-75.497-18.259
			C308.989,157.052,292.326,153.107,279.12,149.957z"/>
	</g>
</g>
<g id="zona_militar" display="none">
	<g display="inline">
		<path fill-rule="evenodd" clip-rule="evenodd" d="M405.152,68.483c-0.068,10.57-0.044,21.141-0.229,31.708
			c-0.256,14.661-6.987,26.139-19.228,33.515c-28.383,17.104-57.101,33.66-85.841,50.159c-9.582,5.5-19.871,5.5-29.452,0
			c-28.742-16.499-57.458-33.055-85.842-50.157c-12.245-7.378-18.956-18.869-19.228-33.517c-0.196-10.567-0.162-21.138-0.231-31.708
			C245.119,68.483,325.136,68.483,405.152,68.483z"/>
		<path fill-rule="evenodd" clip-rule="evenodd" d="M193.37,500.304c2.239-13.104,4.178-24.517,6.141-35.925
			c2.701-15.689,5.525-31.359,7.99-47.087c0.289-1.84-0.817-4.538-2.2-5.904c-18.557-18.34-37.328-36.463-55.89-54.797
			c-2.163-2.137-4.205-5.024-4.891-7.9c-1.539-6.452,2.996-12.041,10.091-13.085c26.067-3.837,52.139-7.645,78.232-11.286
			c3.387-0.474,5.305-1.738,6.826-4.87c11.323-23.305,22.833-46.517,34.316-69.743c3.357-6.788,9.097-9.787,15.133-6.934
			c2.958,1.399,5.726,4.467,7.239,7.458c11.631,22.988,23.006,46.108,34.254,69.287c1.547,3.188,3.537,4.333,6.872,4.8
			c26.094,3.657,52.162,7.484,78.236,11.28c4.858,0.707,8.424,3.273,9.846,8.031c1.479,4.953-0.439,8.988-4.05,12.494
			c-18.51,17.974-36.906,36.064-55.503,53.948c-2.932,2.819-3.775,5.345-3.032,9.443c4.593,25.349,8.83,50.763,13.176,76.157
			c0.833,4.865,0.196,9.348-4.052,12.5c-4.333,3.216-8.88,2.814-13.477,0.396c-23.187-12.207-46.418-24.327-69.544-36.648
			c-2.914-1.553-5.055-1.521-7.946,0.02c-22.869,12.186-45.843,24.174-68.764,36.265c-4.809,2.536-9.839,3.734-14.157-0.167
			C195.769,505.821,194.542,502.254,193.37,500.304z"/>
		<path fill-rule="evenodd" clip-rule="evenodd" d="M251.146,205.975c22.789,0,45.027,0,68.243,0
			c-0.333,7.251,0.035,14.506-1.182,21.485c-1.231,7.065-7.629,11.838-15.172,12.053c-11.862,0.337-23.75,0.396-35.61,0.011
			c-9.535-0.31-15.993-7.382-16.253-16.951C251.027,217.232,251.146,211.884,251.146,205.975z"/>
	</g>
</g>
</svg>
