<?xml version="1.0" encoding="UTF-8" standalone="no"?>
<!-- Created with Inkscape (http://www.inkscape.org/) -->

<svg
   xmlns:dc="http://purl.org/dc/elements/1.1/"
   xmlns:cc="http://creativecommons.org/ns#"
   xmlns:rdf="http://www.w3.org/1999/02/22-rdf-syntax-ns#"
   xmlns:svg="http://www.w3.org/2000/svg"
   xmlns="http://www.w3.org/2000/svg"
   xmlns:sodipodi="http://sodipodi.sourceforge.net/DTD/sodipodi-0.dtd"
   xmlns:inkscape="http://www.inkscape.org/namespaces/inkscape"
   width="12"
   height="12"
   id="svg2"
   version="1.1"
   inkscape:version="0.48.4 r9939"
   sodipodi:docname="lago.svg">
  <defs
     id="defs4">
    <clipPath
       clipPathUnits="userSpaceOnUse"
       id="clipPath4123">
      <path
         style="fill:#ffffff;fill-opacity:1;fill-rule:nonzero;stroke:#000000;stroke-width:0.2;stroke-miterlimit:4;stroke-dasharray:none"
         d="m 7.275371,1049.0138 c 5.955e-4,1.2239 -0.8139799,2.2002 -1.6959009,2.7432 -1.5165375,0.9251 -3.3574107,1.037 -4.98477191,0.4612 -1.05195324,-0.3898 -2.11846329,-1.1484 -2.52050849,-2.4015 -0.3322425,-1.0182 0.056039,-2.1724 0.7404578,-2.8608 1.11954634,-1.1616 2.4280822,0.8396 3.8970926,0.9154 1.3443903,0.086 3.018773,-1.8132 3.9462001,-0.627 0.370623,0.4857 0.6211575,1.113 0.6174308,1.7695 z"
         id="path4125"
         inkscape:connector-curvature="0"
         sodipodi:nodetypes="cccccccc"
         mask="none" />
    </clipPath>
  </defs>
  <sodipodi:namedview
     id="base"
     pagecolor="#ffffff"
     bordercolor="#666666"
     borderopacity="1.0"
     inkscape:pageopacity="0.0"
     inkscape:pageshadow="2"
     inkscape:zoom="44.8"
     inkscape:cx="3.6205196"
     inkscape:cy="5.213193"
     inkscape:document-units="px"
     inkscape:current-layer="layer1"
     showgrid="false"
     inkscape:window-width="1600"
     inkscape:window-height="838"
     inkscape:window-x="-8"
     inkscape:window-y="32"
     inkscape:window-maximized="1" />
  <metadata
     id="metadata7">
    <rdf:RDF>
      <cc:Work
         rdf:about="">
        <dc:format>image/svg+xml</dc:format>
        <dc:type
           rdf:resource="http://purl.org/dc/dcmitype/StillImage" />
        <dc:title></dc:title>
      </cc:Work>
    </rdf:RDF>
  </metadata>
  <g
     inkscape:label="Capa 1"
     inkscape:groupmode="layer"
     id="layer1"
     transform="translate(0,-1040.3622)">
    <g
       id="g4127"
       transform="matrix(1.1552267,0,0,1.1552267,-0.9313601,-162.42332)">
      <path
         mask="none"
         sodipodi:nodetypes="cccccccc"
         inkscape:connector-curvature="0"
         id="path3842-1"
         d="m 10.660929,1045.7933 c 5.96e-4,1.224 -0.8139799,2.2002 -1.6959019,2.7433 -1.5165371,0.9251 -3.3574102,1.037 -4.9847714,0.4611 -1.0519533,-0.3897 -2.1184633,-1.1483 -2.5205085,-2.4014 -0.3322425,-1.0182 0.056039,-2.1724 0.7404578,-2.8609 1.1195463,-1.1616 2.4280822,0.8396 3.8970926,0.9155 1.3443902,0.086 3.0187725,-1.8132 3.9462004,-0.627 0.370623,0.4856 0.621158,1.113 0.617431,1.7694 z"
         style="fill:#ffffff;fill-opacity:1;fill-rule:nonzero;stroke:#000000;stroke-width:0.17312619;stroke-miterlimit:4;stroke-dasharray:none" />
      <path
         transform="translate(3.3855578,-3.2204349)"
         clip-path="url(#clipPath4123)"
         sodipodi:nodetypes="cccccccccccccc"
         mask="none"
         id="path4024"
         style="fill:#0000ff;stroke:#000000;stroke-width:0.2596893;stroke-linecap:butt;stroke-linejoin:miter;stroke-miterlimit:4;stroke-opacity:1;stroke-dasharray:none"
         d="m 8.149077,1046.3801 -3.7209,6.4818 m 2.3746893,-6.4818 -3.7208989,6.4818 m 2.3746905,-6.4818 -3.7208989,6.4818 m 2.3746898,-6.4818 -3.72089895,6.4818 m 2.37468975,-6.4818 -3.72089895,6.4818 m 2.37469015,-6.4818 -3.7208988,6.4818 m 2.37468965,-6.4818 -3.72089865,6.4818"
         inkscape:connector-curvature="0" />
    </g>
  </g>
</svg>
