<?xml version="1.0" encoding="UTF-8" standalone="no"?>
<!-- Generator: Adobe Illustrator 16.0.0, SVG Export Plug-In . SVG Version: 6.00 Build 0)  -->

<svg
   xmlns:dc="http://purl.org/dc/elements/1.1/"
   xmlns:cc="http://creativecommons.org/ns#"
   xmlns:rdf="http://www.w3.org/1999/02/22-rdf-syntax-ns#"
   xmlns:svg="http://www.w3.org/2000/svg"
   xmlns="http://www.w3.org/2000/svg"
   xmlns:sodipodi="http://sodipodi.sourceforge.net/DTD/sodipodi-0.dtd"
   xmlns:inkscape="http://www.inkscape.org/namespaces/inkscape"
   version="1.1"
   id="Layer_1"
   x="0px"
   y="0px"
   width="12"
   height="12"
   viewBox="0 0 12 12"
   enable-background="new 0 0 512 512"
   xml:space="preserve"
   inkscape:version="0.48.4 r9939"
   sodipodi:docname="plazaBase.svg"><metadata
   id="metadata9"><rdf:RDF><cc:Work
       rdf:about=""><dc:format>image/svg+xml</dc:format><dc:type
         rdf:resource="http://purl.org/dc/dcmitype/StillImage" /><dc:title></dc:title></cc:Work></rdf:RDF></metadata><defs
   id="defs7" /><sodipodi:namedview
   pagecolor="#ffffff"
   bordercolor="#666666"
   borderopacity="1"
   objecttolerance="10"
   gridtolerance="10"
   guidetolerance="10"
   inkscape:pageopacity="0"
   inkscape:pageshadow="2"
   inkscape:window-width="1600"
   inkscape:window-height="838"
   id="namedview5"
   showgrid="false"
   inkscape:zoom="39.805228"
   inkscape:cx="5.5335233"
   inkscape:cy="5.9797752"
   inkscape:window-x="-8"
   inkscape:window-y="32"
   inkscape:window-maximized="1"
   inkscape:current-layer="Layer_1" />

<g
   id="g3029"
   transform="translate(5e-6,-0.2763454)"><path
     sodipodi:nodetypes="cccccccccscccsssccssssccsccssscsccssscccscsccccccscccsssccsccccsccccccccsssccssssccsccssscsccssscccscsccccccscccsssccs"
     inkscape:connector-curvature="0"
     d="m 10.81279,6.9378434 -4.8493,0 c -0.20265,0.561274 -0.0283,0.916709 0.0387,1.546253 0.068,0.3733728 0.30805,0.6872228 0.68723,0.6872228 l 0,1.7180588 c -0.37919,0 -0.68723,0.307704 -0.68723,0.687223 l 5.49779,0 c 0,-0.379519 -0.30737,-0.687223 -0.68722,-0.687223 l 0,-1.7180588 c 0.37985,0 0.68722,-0.307704 0.68722,-0.6872228 l 0,-0.687223 0,-0.171806 z m -0.68723,1.546253 c 0,0.1895878 -0.15435,0.3436118 -0.34361,0.3436118 -0.18925,0 -0.34361,-0.154024 -0.34361,-0.3436118 l 0,-0.687223 0.68722,0 z m -2.06167,0 c 0,0.1895878 -0.15402,0.3436118 -0.34361,0.3436118 -0.18925,0 -0.34361,-0.154024 -0.34361,-0.3436118 l 0,-0.687223 0.68722,0 z m 0.34361,-0.687223 0.68723,0 0,0.687223 c 0,0.1895878 -0.15403,0.3436118 -0.34361,0.3436118 -0.18926,0 -0.34362,-0.154024 -0.34362,-0.3436118 z m -2.06167,0.687223 0,-0.687223 0.68723,0 0,0.687223 c 0,0.1895878 -0.15403,0.3436118 -0.34361,0.3436118 -0.18926,0 -0.34362,-0.154024 -0.34362,-0.3436118 z m 0.68723,2.4052816 0,-1.8133568 c 0.0651,-0.03792 0.12282,-0.08524 0.1718,-0.141611 0.12617,0.143952 0.30939,0.236909 0.51542,0.236909 0.20671,0 0.38958,-0.09295 0.51542,-0.236909 0.12617,0.143952 0.30939,0.236909 0.51542,0.236909 0.12617,0 0.24228,-0.03624 0.34361,-0.0953 l 0,1.8133568 z m 3.43611,0 -1.03083,0 0,-1.8133568 c 0.10134,0.05906 0.21812,0.0953 0.34361,0.0953 0.20671,0 0.38993,-0.09295 0.51542,-0.236909 0.0497,0.05637 0.10671,0.103685 0.1718,0.141611 z M 11.1564,8.4840964 c 0,0.1895878 -0.15436,0.3436118 -0.34361,0.3436118 -0.18926,0 -0.34362,-0.154024 -0.34362,-0.3436118 l 0,-0.687223 0.68723,0 z m -5.17299,-1.546253 -4.79618,0 -0.68722,0.687224 0,0.171806 0,0.687223 c 0,0.3795188 0.30805,0.6872228 0.68722,0.6872228 l 0,1.7180588 c -0.37918,0 -0.68722,0.307704 -0.68722,0.687223 l 5.49779,0 c 0,-0.379519 -0.30737,-0.687223 -0.68723,-0.687223 l 0,-1.7180588 c 0.37986,0 0.68723,-0.307704 0.68723,-0.6872228 0.005,-0.513302 -0.005,-1.084235 -0.0144,-1.546253 z m -1.36006,1.546253 c 0,0.1895878 -0.15436,0.3436118 -0.34361,0.3436118 -0.18926,0 -0.34361,-0.154024 -0.34361,-0.3436118 l 0,-0.687223 0.68722,0 z m -2.06167,0 c 0,0.1895878 -0.15402,0.3436118 -0.34361,0.3436118 -0.18926,0 -0.34361,-0.154024 -0.34361,-0.3436118 l 0,-0.687223 0.68722,0 z m 0.34361,-0.687223 0.68723,0 0,0.687223 c 0,0.1895878 -0.15403,0.3436118 -0.34362,0.3436118 -0.18925,0 -0.34361,-0.154024 -0.34361,-0.3436118 z m -2.06167,0.687223 0,-0.687223 0.68723,0 0,0.687223 c 0,0.1895878 -0.15403,0.3436118 -0.34362,0.3436118 -0.18925,0 -0.34361,-0.154024 -0.34361,-0.3436118 z m 0.68723,2.4052816 0,-1.8133568 c 0.0651,-0.03792 0.12281,-0.08524 0.1718,-0.141611 0.12617,0.143952 0.30939,0.236909 0.51542,0.236909 0.2067,0 0.38958,-0.09295 0.51542,-0.236909 0.12617,0.143952 0.30939,0.236909 0.51541,0.236909 0.12617,0 0.24228,-0.03624 0.34362,-0.0953 l 0,1.8133568 z m 3.43611,0 -1.03083,0 0,-1.8133568 c 0.10134,0.05906 0.21811,0.0953 0.34361,0.0953 0.2067,0 0.38992,-0.09295 0.51542,-0.236909 0.0497,0.05637 0.10671,0.103685 0.1718,0.141611 z M 5.65419,8.4840964 c 0,0.1895878 -0.15436,0.3436118 -0.34362,0.3436118 -0.18925,0 -0.34361,-0.154024 -0.34361,-0.3436118 l 0,-0.687223 0.68723,0 z"
     id="path3-1" /><path
     sodipodi:nodetypes="cccccccccscccsssccssssccsccssscsccssscccscsccccccscccsssccsccccsccccccccsssccssssccsccssscsccssscccscsccccccscccsssccs"
     inkscape:connector-curvature="0"
     d="m 10.81279,0.9760898 -4.8493,0 c -0.20265,0.5612731 -0.0283,0.9167089 0.0387,1.5462526 0.068,0.3733726 0.30805,0.6872233 0.68723,0.6872233 l 0,1.7180583 c -0.37919,0 -0.68723,0.3077044 -0.68723,0.6872235 l 5.49779,0 c 0,-0.3795191 -0.30737,-0.6872235 -0.68722,-0.6872235 l 0,-1.7180583 c 0.37985,0 0.68722,-0.3077043 0.68722,-0.6872233 l 0,-0.6872234 0,-0.1718058 z m -0.68723,1.5462526 c 0,0.1895877 -0.15435,0.3436116 -0.34361,0.3436116 -0.18925,0 -0.34361,-0.1540239 -0.34361,-0.3436116 l 0,-0.6872234 0.68722,0 z m -2.06167,0 c 0,0.1895877 -0.15402,0.3436116 -0.34361,0.3436116 -0.18925,0 -0.34361,-0.1540239 -0.34361,-0.3436116 l 0,-0.6872234 0.68722,0 z M 8.4075,1.835119 l 0.68723,0 0,0.6872234 c 0,0.1895877 -0.15403,0.3436116 -0.34361,0.3436116 -0.18926,0 -0.34362,-0.1540239 -0.34362,-0.3436116 z m -2.06167,0.6872234 0,-0.6872234 0.68723,0 0,0.6872234 c 0,0.1895877 -0.15403,0.3436116 -0.34361,0.3436116 -0.18926,0 -0.34362,-0.1540239 -0.34362,-0.3436116 z m 0.68723,2.4052816 0,-1.8133569 c 0.0651,-0.037915 0.12282,-0.085237 0.1718,-0.1416109 0.12617,0.1439518 0.30939,0.2369095 0.51542,0.2369095 0.20671,0 0.38958,-0.092947 0.51542,-0.2369095 0.12617,0.1439518 0.30939,0.2369095 0.51542,0.2369095 0.12617,0 0.24228,-0.03624 0.34361,-0.095299 l 0,1.8133569 z m 3.43611,0 -1.03083,0 0,-1.8133569 c 0.10134,0.059058 0.21812,0.095299 0.34361,0.095299 0.20671,0 0.38993,-0.092947 0.51542,-0.2369095 0.0497,0.056374 0.10671,0.1036848 0.1718,0.1416109 z M 11.1564,2.5223424 c 0,0.1895877 -0.15436,0.3436116 -0.34361,0.3436116 -0.18926,0 -0.34362,-0.1540239 -0.34362,-0.3436116 l 0,-0.6872234 0.68723,0 z m -5.17299,-1.5462526 -4.79618,0 -0.68722,0.6872234 0,0.1718058 0,0.6872234 c 0,0.379519 0.30805,0.6872233 0.68722,0.6872233 l 0,1.7180583 c -0.37918,0 -0.68722,0.3077044 -0.68722,0.6872235 l 5.49779,0 C 5.9978,5.2353284 5.69043,4.927624 5.31057,4.927624 l 0,-1.7180583 c 0.37986,0 0.68723,-0.3077043 0.68723,-0.6872233 C 6.0028,2.0090403 5.9928,1.4381074 5.9834,0.9760898 z M 4.62335,2.5223424 c 0,0.1895877 -0.15436,0.3436116 -0.34361,0.3436116 -0.18926,0 -0.34361,-0.1540239 -0.34361,-0.3436116 l 0,-0.6872234 0.68722,0 z m -2.06167,0 c 0,0.1895877 -0.15402,0.3436116 -0.34361,0.3436116 -0.18926,0 -0.34361,-0.1540239 -0.34361,-0.3436116 l 0,-0.6872234 0.68722,0 z m 0.34361,-0.6872234 0.68723,0 0,0.6872234 c 0,0.1895877 -0.15403,0.3436116 -0.34362,0.3436116 -0.18925,0 -0.34361,-0.1540239 -0.34361,-0.3436116 z m -2.06167,0.6872234 0,-0.6872234 0.68723,0 0,0.6872234 c 0,0.1895877 -0.15403,0.3436116 -0.34362,0.3436116 -0.18925,0 -0.34361,-0.1540239 -0.34361,-0.3436116 z m 0.68723,2.4052816 0,-1.8133569 c 0.0651,-0.037915 0.12281,-0.085237 0.1718,-0.1416109 0.12617,0.1439518 0.30939,0.2369095 0.51542,0.2369095 0.2067,0 0.38958,-0.092947 0.51542,-0.2369095 0.12617,0.1439518 0.30939,0.2369095 0.51541,0.2369095 0.12617,0 0.24228,-0.03624 0.34362,-0.095299 l 0,1.8133569 z m 3.43611,0 -1.03083,0 0,-1.8133569 c 0.10134,0.059058 0.21811,0.095299 0.34361,0.095299 0.2067,0 0.38992,-0.092947 0.51542,-0.2369095 0.0497,0.056374 0.10671,0.1036848 0.1718,0.1416109 z M 5.65419,2.5223424 c 0,0.1895877 -0.15436,0.3436116 -0.34362,0.3436116 -0.18925,0 -0.34361,-0.1540239 -0.34361,-0.3436116 l 0,-0.6872234 0.68723,0 z"
     id="path3-1-5" /></g></svg>