<?xml version="1.0" encoding="UTF-8" standalone="no"?>
<!-- Generator: Adobe Illustrator 16.0.4, SVG Export Plug-In . SVG Version: 6.00 Build 0)  -->

<svg
   xmlns:dc="http://purl.org/dc/elements/1.1/"
   xmlns:cc="http://creativecommons.org/ns#"
   xmlns:rdf="http://www.w3.org/1999/02/22-rdf-syntax-ns#"
   xmlns:svg="http://www.w3.org/2000/svg"
   xmlns="http://www.w3.org/2000/svg"
   xmlns:sodipodi="http://sodipodi.sourceforge.net/DTD/sodipodi-0.dtd"
   xmlns:inkscape="http://www.inkscape.org/namespaces/inkscape"
   version="1.1"
   id="Capa_1"
   x="0px"
   y="0px"
   width="12"
   height="12"
   viewBox="0 0 12 12"
   xml:space="preserve"
   inkscape:version="0.48.4 r9939"
   sodipodi:docname="molino.svg"><metadata
   id="metadata40"><rdf:RDF><cc:Work
       rdf:about=""><dc:format>image/svg+xml</dc:format><dc:type
         rdf:resource="http://purl.org/dc/dcmitype/StillImage" /><dc:title></dc:title></cc:Work></rdf:RDF></metadata><defs
   id="defs38" /><sodipodi:namedview
   pagecolor="#ffffff"
   bordercolor="#666666"
   borderopacity="1"
   objecttolerance="10"
   gridtolerance="10"
   guidetolerance="10"
   inkscape:pageopacity="0"
   inkscape:pageshadow="2"
   inkscape:window-width="1600"
   inkscape:window-height="838"
   id="namedview36"
   showgrid="false"
   inkscape:zoom="42.21826"
   inkscape:cx="5.9786086"
   inkscape:cy="6.9750434"
   inkscape:window-x="-8"
   inkscape:window-y="32"
   inkscape:window-maximized="1"
   inkscape:current-layer="Capa_1" />
<rect
   style="fill:#ffffff;fill-opacity:1;fill-rule:nonzero;stroke:none"
   id="rect3017"
   width="1.8949146"
   height="3.4345329"
   x="5.0925832"
   y="7.1679678" /><g
   id="g3"
   transform="matrix(0.18665739,0,0,0.18665739,1.7114065,0.5000935)">
	<path
   id="path3424"
   style="fill:#040606"
   d="m 26.726,48.434 c 0,1.381 -0.827,2.998 -2.207,2.998 h -3 c -1.381,0 -2.293,-1.617 -2.293,-2.998 v -5.5 c 0,-2.208 1.542,-4 3.75,-4 2.208,0 3.75,1.792 3.75,4 v 5.5 z M 12.663,29.345 0.814,39.711 c -1.039,0.91 -1.09,2.438 -0.113,3.414 l 2.124,2.121 c 0.977,0.976 2.505,0.925 3.415,-0.114 l 5.923,-6.768 -1.005,18.071 c -0.076,1.379 0.981,2.496 2.361,2.496 h 19 c 1.381,0 2.438,-1.117 2.362,-2.496 l -0.999,-17.964 5.83,6.664 c 0.91,1.04 2.438,1.09 3.414,0.114 l 2.124,-2.124 c 0.977,-0.977 0.925,-2.505 -0.114,-3.414 L 33.379,29.425 33.019,22.934 c 0,-1.799 -0.482,-3.484 -1.315,-4.942 L 45.137,6.238 C 46.177,5.329 46.227,3.8 45.251,2.824 L 43.128,0.702 C 42.151,-0.275 40.623,-0.225 39.714,0.815 L 27.96,14.247 c -1.459,-0.831 -3.143,-1.313 -4.941,-1.313 -1.822,0 -3.526,0.496 -4.998,1.348 L 6.239,0.813 C 5.33,-0.226 3.801,-0.276 2.825,0.699 L 0.704,2.822 c -0.976,0.976 -0.925,2.505 0.114,3.413 l 13.486,11.803 c -0.815,1.447 -1.285,3.116 -1.285,4.896 l -0.356,6.411"
   inkscape:connector-curvature="0" />
</g>
<g
   id="g6"
   transform="translate(0,-46.932)">
</g>
<g
   id="g8"
   transform="translate(0,-46.932)">
</g>
<g
   id="g10"
   transform="translate(0,-46.932)">
</g>
<g
   id="g12"
   transform="translate(0,-46.932)">
</g>
<g
   id="g14"
   transform="translate(0,-46.932)">
</g>
<g
   id="g16"
   transform="translate(0,-46.932)">
</g>
<g
   id="g18"
   transform="translate(0,-46.932)">
</g>
<g
   id="g20"
   transform="translate(0,-46.932)">
</g>
<g
   id="g22"
   transform="translate(0,-46.932)">
</g>
<g
   id="g24"
   transform="translate(0,-46.932)">
</g>
<g
   id="g26"
   transform="translate(0,-46.932)">
</g>
<g
   id="g28"
   transform="translate(0,-46.932)">
</g>
<g
   id="g30"
   transform="translate(0,-46.932)">
</g>
<g
   id="g32"
   transform="translate(0,-46.932)">
</g>
<g
   id="g34"
   transform="translate(0,-46.932)">
</g>
</svg>