<?xml version="1.0" encoding="UTF-8" standalone="no"?>
<!-- Created with Inkscape (http://www.inkscape.org/) -->

<svg
   xmlns:dc="http://purl.org/dc/elements/1.1/"
   xmlns:cc="http://creativecommons.org/ns#"
   xmlns:rdf="http://www.w3.org/1999/02/22-rdf-syntax-ns#"
   xmlns:svg="http://www.w3.org/2000/svg"
   xmlns="http://www.w3.org/2000/svg"
   xmlns:sodipodi="http://sodipodi.sourceforge.net/DTD/sodipodi-0.dtd"
   xmlns:inkscape="http://www.inkscape.org/namespaces/inkscape"
   width="12"
   height="12"
   id="svg2"
   version="1.1"
   inkscape:version="0.48.4 r9939"
   sodipodi:docname="construccionRural.svg">
  <defs
     id="defs4" />
  <sodipodi:namedview
     id="base"
     pagecolor="#ffffff"
     bordercolor="#666666"
     borderopacity="1.0"
     inkscape:pageopacity="0.0"
     inkscape:pageshadow="2"
     inkscape:zoom="44.8"
     inkscape:cx="3.6205196"
     inkscape:cy="5.213193"
     inkscape:document-units="px"
     inkscape:current-layer="layer1"
     showgrid="false"
     inkscape:window-width="1600"
     inkscape:window-height="838"
     inkscape:window-x="-8"
     inkscape:window-y="32"
     inkscape:window-maximized="1" />
  <metadata
     id="metadata7">
    <rdf:RDF>
      <cc:Work
         rdf:about="">
        <dc:format>image/svg+xml</dc:format>
        <dc:type
           rdf:resource="http://purl.org/dc/dcmitype/StillImage" />
        <dc:title></dc:title>
      </cc:Work>
    </rdf:RDF>
  </metadata>
  <g
     inkscape:label="Capa 1"
     inkscape:groupmode="layer"
     id="layer1"
     transform="translate(0,-1040.3622)">
    <g
       id="g3831"
       transform="matrix(1.1734943,0,0,1.1734943,-1.1068234,-178.54039)">
      <path
         id="path3"
         d="m 8.7837565,1045.3453 0.00183,-0.025 c 0.094013,-1.3313 1.3935405,-2.0957 1.9573915,-2.3663 -0.189853,-0.049 -0.38655,-0.039 -0.594885,0.029 -0.9921583,0.3224 -1.8775254,1.8589 -2.1454174,2.3625 H 8.783761 z"
         inkscape:connector-curvature="0" />
      <path
         id="path5"
         d="m 8.8777697,1042.3528 c -0.1188856,0.01 -0.2352611,0.048 -0.3518649,0.1205 -0.809837,0.5066 -1.2853797,2.3754 -1.3990166,2.8717 h 0.5791394 c 0.056362,-1.5952 0.8185081,-2.6077 1.1717421,-2.9922 z"
         inkscape:connector-curvature="0" />
      <path
         id="path9"
         d="m 7.1029287,1041.7531 c -0.6081199,1.0524 -0.7103479,3.5022 -0.7137701,3.5922 h 0.4634483 c -0.1049664,-0.7394 0.1346303,-2.72 0.2503218,-3.5922 z"
         inkscape:connector-curvature="0" />
      <path
         id="path11"
         d="m 3.3451391,1045.3453 h 0.4607098 c -0.2229385,-0.6173 -0.7927231,-1.9469 -1.6347344,-2.1843 -0.2576232,-0.073 -0.5262001,-0.034 -0.8018506,0.1162 0.1462686,0 0.3144428,0.027 0.4949392,0.099 0.6110852,0.243 1.1085343,0.9072 1.480936,1.969 z"
         inkscape:connector-curvature="0" />
      <path
         id="path13"
         d="m 5.9439646,1041.0357 c -0.2010328,0.9877 -0.2608178,2.9516 -0.2697176,4.3096 h 0.4864955 l -0.2167779,-4.3096 z"
         inkscape:connector-curvature="0" />
      <path
         id="path15"
         d="m 4.88335,1045.3453 h 0.4771396 c -0.11455,-1.1307 -0.286375,-2.5306 -0.477368,-3.4303 0.04769,1.0133 0.099262,2.6193 2.284e-4,3.4303 z"
         inkscape:connector-curvature="0" />
      <path
         id="path19"
         d="m 4.1780229,1045.3453 h 0.3710324 c -0.075074,-0.7572 -0.3235696,-2.4793 -1.0585607,-2.9687 0.2621869,0.5609 0.7908969,1.8562 0.6875283,2.9687 z"
         inkscape:connector-curvature="0" />
      <rect
         y="1045.5974"
         x="3.0950305"
         height="0.40000001"
         width="5.8571429"
         id="rect3791"
         style="fill:#000000;fill-opacity:1;fill-rule:nonzero;stroke:none" />
      <rect
         y="1046.1801"
         x="3.0950305"
         height="0.40000001"
         width="5.8571429"
         id="rect3791-3"
         style="fill:#000000;fill-opacity:1;fill-rule:nonzero;stroke:none" />
    </g>
  </g>
</svg>
