<?xml version="1.0" encoding="UTF-8" standalone="no"?>
<!-- Generator: Adobe Illustrator 14.0.0, SVG Export Plug-In . SVG Version: 6.00 Build 43363)  -->

<svg
   xmlns:dc="http://purl.org/dc/elements/1.1/"
   xmlns:cc="http://creativecommons.org/ns#"
   xmlns:rdf="http://www.w3.org/1999/02/22-rdf-syntax-ns#"
   xmlns:svg="http://www.w3.org/2000/svg"
   xmlns="http://www.w3.org/2000/svg"
   xmlns:sodipodi="http://sodipodi.sourceforge.net/DTD/sodipodi-0.dtd"
   xmlns:inkscape="http://www.inkscape.org/namespaces/inkscape"
   version="1.1"
   id="icon"
   x="0px"
   y="0px"
   width="12"
   height="12"
   viewBox="0 0 12 12"
   enable-background="new 0 0 1024 1024"
   xml:space="preserve"
   inkscape:version="0.48.4 r9939"
   sodipodi:docname="park.svg"><metadata
   id="metadata13"><rdf:RDF><cc:Work
       rdf:about=""><dc:format>image/svg+xml</dc:format><dc:type
         rdf:resource="http://purl.org/dc/dcmitype/StillImage" /><dc:title></dc:title></cc:Work></rdf:RDF></metadata><defs
   id="defs11" /><sodipodi:namedview
   pagecolor="#ffffff"
   bordercolor="#666666"
   borderopacity="1"
   objecttolerance="10"
   gridtolerance="10"
   guidetolerance="10"
   inkscape:pageopacity="0"
   inkscape:pageshadow="2"
   inkscape:window-width="1600"
   inkscape:window-height="838"
   id="namedview9"
   showgrid="false"
   inkscape:zoom="9.9105931"
   inkscape:cx="3.2979066"
   inkscape:cy="14.84058"
   inkscape:window-x="-8"
   inkscape:window-y="32"
   inkscape:window-maximized="1"
   inkscape:current-layer="g3" />
<g
   id="g3"
   transform="translate(0,-1012)">
	<path
   d="m 8.5564157,1018.387 0,0 c 0.28264,0 0.38448,-0.1907 0.22768,-0.4254 l -1.47797,-2.217 c -0.1568,-0.2357 -0.0539,-0.4254 0.22767,-0.4254 0.28264,0 0.38448,-0.1908 0.22768,-0.4254 l -1.47795,-2.217 c -0.15682,-0.2357 -0.41045,-0.2357 -0.56726,0 l -1.477972,2.2169 c -0.156816,0.2347 -0.05392,0.4255 0.227677,0.4255 0.281595,0 0.384475,0.1897 0.227675,0.4254 l -1.477967,2.2169 c -0.1568,0.2347 -0.05392,0.4254 0.227677,0.4254 0.281614,0 0.393506,0.1958 0.248681,0.4385 l -2.542497,4.2362 c -0.144825,0.2416 -0.03298,0.4384 0.248618,0.4384 h 9.2034883 c 0.28259,0 0.39346,-0.1968 0.24863,-0.4384 l -2.5425303,-4.2362 c -0.14482,-0.2427 -0.034,-0.4384 0.24867,-0.4384"
   id="path5"
   inkscape:connector-curvature="0" />
	
</g>
</svg>