<?xml version="1.0" encoding="UTF-8" standalone="no"?>
<!-- Generator: Adobe Illustrator 16.0.0, SVG Export Plug-In . SVG Version: 6.00 Build 0)  -->

<svg
   xmlns:dc="http://purl.org/dc/elements/1.1/"
   xmlns:cc="http://creativecommons.org/ns#"
   xmlns:rdf="http://www.w3.org/1999/02/22-rdf-syntax-ns#"
   xmlns:svg="http://www.w3.org/2000/svg"
   xmlns="http://www.w3.org/2000/svg"
   xmlns:sodipodi="http://sodipodi.sourceforge.net/DTD/sodipodi-0.dtd"
   xmlns:inkscape="http://www.inkscape.org/namespaces/inkscape"
   version="1.1"
   id="Layer_1"
   x="0px"
   y="0px"
   width="12"
   height="12"
   viewBox="0 0 12 12"
   xml:space="preserve"
   inkscape:version="0.48.4 r9939"
   sodipodi:docname="playground.svg"><metadata
   id="metadata39"><rdf:RDF><cc:Work
       rdf:about=""><dc:format>image/svg+xml</dc:format><dc:type
         rdf:resource="http://purl.org/dc/dcmitype/StillImage" /><dc:title></dc:title></cc:Work></rdf:RDF></metadata><defs
   id="defs37" /><sodipodi:namedview
   pagecolor="#ffffff"
   bordercolor="#666666"
   borderopacity="1"
   objecttolerance="10"
   gridtolerance="10"
   guidetolerance="10"
   inkscape:pageopacity="0"
   inkscape:pageshadow="2"
   inkscape:window-width="1600"
   inkscape:window-height="838"
   id="namedview35"
   showgrid="false"
   inkscape:zoom="32.139529"
   inkscape:cx="0.77700538"
   inkscape:cy="4.5733871"
   inkscape:window-x="-8"
   inkscape:window-y="32"
   inkscape:window-maximized="1"
   inkscape:current-layer="Layer_1" />
<rect
   style="fill:#ffffff;fill-opacity:1;fill-rule:nonzero;stroke:none"
   id="rect3016"
   width="10.609987"
   height="6.3473239"
   x="0.6845153"
   y="2.8212719" /><path
   d="m 0.5,2.6231017 v 6.7537966 h 11 V 2.6231017 H 0.5 z M 11.063775,8.3289793 C 9.948046,8.2321592 9.0689547,7.2939947 9.0689547,6.1530977 c 0,-1.140896 0.8790913,-2.078709 1.9948203,-2.175532 V 8.3289793 z M 5.8322213,6.7924057 c -0.3663172,-0.07725 -0.6428027,-0.402669 -0.6428027,-0.792406 0,-0.389736 0.2764855,-0.715157 0.6428027,-0.792755 v 1.585161 z M 6.167779,5.2079437 c 0.3663171,0.0776 0.6424531,0.403019 0.6424531,0.792406 0,0.389387 -0.276136,0.714808 -0.6424531,0.792405 v -1.584811 z m -5.23155401,-1.3653 c 1.04896731,0.15939 1.85570391,1.064697 1.85570391,2.157356 0,1.09266 -0.8067366,1.9976165 -1.85570391,2.1573566 V 3.8426437 z m 0,4.7533835 C 2.2256753,8.4327922 3.2281539,7.3334927 3.2281539,5.9999997 c 0,-1.333492 -1.0021291,-2.432793 -2.29192891,-2.596028 V 3.0593267 H 5.8322213 v 1.812011 c -0.5519225,0.08179 -0.9783604,0.554369 -0.9783604,1.128662 0,0.574293 0.4264379,1.04722 0.9783604,1.128663 V 8.9406733 H 0.93622499 V 8.5960272 z M 6.167779,8.9406733 V 7.1286627 c 0.5515729,-0.08214 0.9776612,-0.555069 0.9776612,-1.128663 0,-0.574293 -0.4260883,-1.04687 -0.9776612,-1.128662 v -1.812011 h 4.895996 v 0.482364 c -1.3565616,0.09787 -2.4310452,1.230727 -2.4310452,2.611757 0,1.3810295 1.0744836,2.5135366 2.4310452,2.6121065 v 0.175469 H 6.167779 z"
   id="path3"
   inkscape:connector-curvature="0" />
<g
   id="g5"
   transform="translate(0,-7.3220005)">
</g>
<g
   id="g7"
   transform="translate(0,-7.3220005)">
</g>
<g
   id="g9"
   transform="translate(0,-7.3220005)">
</g>
<g
   id="g11"
   transform="translate(0,-7.3220005)">
</g>
<g
   id="g13"
   transform="translate(0,-7.3220005)">
</g>
<g
   id="g15"
   transform="translate(0,-7.3220005)">
</g>
<g
   id="g17"
   transform="translate(0,-7.3220005)">
</g>
<g
   id="g19"
   transform="translate(0,-7.3220005)">
</g>
<g
   id="g21"
   transform="translate(0,-7.3220005)">
</g>
<g
   id="g23"
   transform="translate(0,-7.3220005)">
</g>
<g
   id="g25"
   transform="translate(0,-7.3220005)">
</g>
<g
   id="g27"
   transform="translate(0,-7.3220005)">
</g>
<g
   id="g29"
   transform="translate(0,-7.3220005)">
</g>
<g
   id="g31"
   transform="translate(0,-7.3220005)">
</g>
<g
   id="g33"
   transform="translate(0,-7.3220005)">
</g>
</svg>