<?xml version="1.0" standalone="no"?>
<!DOCTYPE svg PUBLIC "-//W3C//DTD SVG 20010904//EN"
 "http://www.w3.org/TR/2001/REC-SVG-20010904/DTD/svg10.dtd">
<svg version="1.0" xmlns="http://www.w3.org/2000/svg"
 width="4338.000000pt" height="5783.000000pt" viewBox="0 0 4338.000000 5783.000000"
 preserveAspectRatio="xMidYMid meet">

<g transform="translate(0.000000,5783.000000) scale(0.100000,-0.100000)"
fill="#000000" stroke="none">
<path d="M372 57597 c-6 -7 -12 -37 -14 -67 l-3 -55 -40 -3 c-50 -4 -65 -23
-65 -83 0 -59 18 -79 71 -79 l39 0 0 -58 c0 -32 5 -63 12 -70 17 -17 152 -16
166 1 6 7 12 37 14 67 l3 55 50 5 c70 7 75 12 75 80 0 68 -5 73 -75 80 l-50 5
-3 60 c-2 33 -9 63 -15 67 -21 13 -153 9 -165 -5z m116 -107 c2 -30 6 -58 11
-62 4 -5 26 -9 49 -10 83 -3 84 -37 1 -53 l-54 -10 -5 -60 c-4 -48 -9 -61 -24
-63 -25 -5 -35 13 -29 57 6 51 -13 72 -71 78 -29 4 -50 12 -53 20 -8 20 10 29
60 31 54 2 70 23 63 78 -6 47 -1 56 29 52 17 -3 20 -11 23 -58z"/>
</g>
</svg>
