<?xml version="1.0" standalone="no"?>
<!DOCTYPE svg PUBLIC "-//W3C//DTD SVG 20010904//EN"
 "http://www.w3.org/TR/2001/REC-SVG-20010904/DTD/svg10.dtd">
<svg version="1.0" xmlns="http://www.w3.org/2000/svg"
 width="1248.000000pt" height="1664.000000pt" viewBox="0 0 1248.000000 1664.000000"
 preserveAspectRatio="xMidYMid meet">

<g transform="translate(0.000000,1664.000000) scale(0.100000,-0.100000)"
fill="#000000" stroke="none">
<path d="M110 16550 c0 -11 -7 -20 -15 -20 -8 0 -15 -9 -15 -20 0 -11 7 -20
15 -20 8 0 15 -9 15 -20 0 -15 7 -20 25 -20 18 0 25 5 25 20 0 11 7 20 15 20
8 0 15 9 15 20 0 11 -7 20 -15 20 -8 0 -15 9 -15 20 0 15 -7 20 -25 20 -18 0
-25 -5 -25 -20z m40 -10 c0 -11 7 -20 15 -20 8 0 15 -4 15 -10 0 -5 -7 -10
-15 -10 -8 0 -15 -9 -15 -20 0 -11 -7 -20 -15 -20 -8 0 -15 9 -15 20 0 11 -7
20 -15 20 -8 0 -15 5 -15 10 0 6 7 10 15 10 8 0 15 9 15 20 0 11 7 20 15 20 8
0 15 -9 15 -20z"/>
</g>
</svg>
