<?xml version="1.0" encoding="UTF-8" standalone="no"?>
<!-- Generator: Adobe Illustrator 16.0.4, SVG Export Plug-In . SVG Version: 6.00 Build 0)  -->

<svg
   xmlns:dc="http://purl.org/dc/elements/1.1/"
   xmlns:cc="http://creativecommons.org/ns#"
   xmlns:rdf="http://www.w3.org/1999/02/22-rdf-syntax-ns#"
   xmlns:svg="http://www.w3.org/2000/svg"
   xmlns="http://www.w3.org/2000/svg"
   xmlns:sodipodi="http://sodipodi.sourceforge.net/DTD/sodipodi-0.dtd"
   xmlns:inkscape="http://www.inkscape.org/namespaces/inkscape"
   version="1.1"
   id="Capa_1"
   x="0px"
   y="0px"
   width="12"
   height="12"
   viewBox="0 0 12 12"
   enable-background="new 0 0 32 32"
   xml:space="preserve"
   inkscape:version="0.48.4 r9939"
   sodipodi:docname="cup4.svg"><metadata
   id="metadata9"><rdf:RDF><cc:Work
       rdf:about=""><dc:format>image/svg+xml</dc:format><dc:type
         rdf:resource="http://purl.org/dc/dcmitype/StillImage" /><dc:title></dc:title></cc:Work></rdf:RDF></metadata><defs
   id="defs7" /><sodipodi:namedview
   pagecolor="#ffffff"
   bordercolor="#666666"
   borderopacity="1"
   objecttolerance="10"
   gridtolerance="10"
   guidetolerance="10"
   inkscape:pageopacity="0"
   inkscape:pageshadow="2"
   inkscape:window-width="1600"
   inkscape:window-height="838"
   id="namedview5"
   showgrid="false"
   inkscape:zoom="13.722291"
   inkscape:cx="5.0683825"
   inkscape:cy="16.532145"
   inkscape:window-x="-8"
   inkscape:window-y="32"
   inkscape:window-maximized="1"
   inkscape:current-layer="Capa_1" />
<path
   d="M 10.757893,0.70075 1.2373929,0.7015357 C 0.82725,0.7278571 0.5,1.061 0.5,1.4778214 l 0,1.1785715 c 0,0.4337142 0.352,0.7857142 0.7857143,0.7857142 l 0.4062143,0 -0.00825,0.086821 0.7857143,7.0714279 c 0.044,0.39718 0.3798928,0.698894 0.7806071,0.698894 l 5.5,0 c 0.400714,0 0.736607,-0.301714 0.780214,-0.698893 l 0.785715,-7.0714284 -0.0083,-0.086821 0.406607,0 C 11.148,3.4421071 11.5,3.0901071 11.5,2.6563929 l 0,-1.1785715 C 11.5,1.0594286 11.17,0.7247143 10.757893,0.70075 z m -0.04361,1.9556429 -9.4285708,0 0,-1.1785715 9.4285708,0 z"
   id="path3"
   inkscape:connector-curvature="0"
   style="fill:#000000"
   sodipodi:nodetypes="ccssscccsscccssscccccc" />
</svg>