<?xml version="1.0" encoding="UTF-8" standalone="no"?>
<!-- Generator: Adobe Illustrator 17.1.0, SVG Export Plug-In . SVG Version: 6.00 Build 0)  -->

<svg
   xmlns:dc="http://purl.org/dc/elements/1.1/"
   xmlns:cc="http://creativecommons.org/ns#"
   xmlns:rdf="http://www.w3.org/1999/02/22-rdf-syntax-ns#"
   xmlns:svg="http://www.w3.org/2000/svg"
   xmlns="http://www.w3.org/2000/svg"
   xmlns:sodipodi="http://sodipodi.sourceforge.net/DTD/sodipodi-0.dtd"
   xmlns:inkscape="http://www.inkscape.org/namespaces/inkscape"
   version="1.1"
   id="Capa_1"
   x="0px"
   y="0px"
   width="12"
   height="12"
   viewBox="0 0 12 12"
   enable-background="new 0 0 1000 1000"
   xml:space="preserve"
   inkscape:version="0.48.4 r9939"
   sodipodi:docname="stadium1.svg"><metadata
   id="metadata19"><rdf:RDF><cc:Work
       rdf:about=""><dc:format>image/svg+xml</dc:format><dc:type
         rdf:resource="http://purl.org/dc/dcmitype/StillImage" /><dc:title></dc:title></cc:Work></rdf:RDF></metadata><defs
   id="defs17" /><sodipodi:namedview
   pagecolor="#ffffff"
   bordercolor="#666666"
   borderopacity="1"
   objecttolerance="10"
   gridtolerance="10"
   guidetolerance="10"
   inkscape:pageopacity="0"
   inkscape:pageshadow="2"
   inkscape:window-width="1600"
   inkscape:window-height="838"
   id="namedview15"
   showgrid="false"
   inkscape:zoom="39.744"
   inkscape:cx="8.5404235"
   inkscape:cy="5.3306258"
   inkscape:window-x="-8"
   inkscape:window-y="32"
   inkscape:window-maximized="1"
   inkscape:current-layer="Capa_1" />
<path
   style="fill:#ffffff;stroke:none"
   d="M 0.9812802,7.4206924 0.52838165,4.0491143 11.297302,4.0239533 10.768922,7.9742351 8.152174,9.1316425 7.0450886,10.364533 4.8057568,10.414855 3.5980274,8.9051932 z"
   id="path3018"
   inkscape:connector-curvature="0"
   sodipodi:nodetypes="ccccccccc" /><g
   id="g3"
   transform="matrix(0.01194581,0,0,0.01194581,0.00424864,-0.11446285)">
	<path
   d="M 896.7,716.6 920.4,540 c -23.7,9.2 -55,17.5 -93.2,24.6 -89.2,16.7 -207.5,25.9 -333.2,25.9 -125.7,0 -244.1,-9.2 -333.2,-25.9 -38,-7.1 -69.1,-15.3 -92.7,-24.4 l 24.2,176.3 c 1,5.4 4.9,13 9.1,16.6 31.9,26.8 100.7,59 235.6,73.3 v -146 c 0,-13.8 11.2,-25 25,-25 h 263.8 c 13.8,0 25,11.2 25,25 v 146.3 c 135.5,-13.9 203.8,-45.6 236.7,-73.6 4.3,-3.5 8.2,-11.1 9.2,-16.5 z"
   id="path5"
   inkscape:connector-curvature="0" />
	<path
   d="m 940,394.9 c -2.9,1.5 -6,3 -9.3,4.4 -24.6,10.9 -59.4,20.6 -103.5,28.9 -89.2,16.7 -207.5,25.9 -333.2,25.9 -125.7,0 -244.1,-9.2 -333.2,-25.9 -44.1,-8.3 -78.9,-18 -103.5,-28.9 -3.2,-1.4 -6.3,-2.9 -9.2,-4.4 l 15.2,110.5 c 1.9,0.9 3.9,1.9 6.2,2.9 22.2,9.8 55.6,19.1 96.8,26.8 87.4,16.4 203.8,25.4 327.7,25.4 123.9,0 240.3,-9 327.7,-25.4 41.2,-7.7 74.7,-17 96.8,-26.8 2.4,-1.1 4.6,-2.1 6.6,-3.1 L 940,394.9 z"
   id="path7"
   inkscape:connector-curvature="0" />
	<path
   d="m 69.5,371.9 c 22.2,9.8 55.6,19.1 96.8,26.8 0,0 0,0 0,0 1,-0.6 2.1,-1.1 3.4,-1.4 72.9,-17 193.7,-27.1 323.1,-27.1 131.1,0 252.8,10.3 325.5,27.7 0.9,0.2 1.8,0.6 2.6,1 0.3,0 0.5,-0.1 0.8,-0.1 41.2,-7.7 74.7,-17 96.8,-26.8 18,-8 24.9,-14.7 27,-18.2 0.6,-1 0.8,-1.7 0.8,-2.2 0,-2.2 -5,-10.3 -27.8,-20.4 -9.8,-4.3 -21.8,-8.6 -35.7,-12.6 V 303 287.4 268 l 76,-45.2 c 4.7,-2.8 4.7,-7.4 0,-10.2 L 874,162.8 c -1.9,-0.8 -4,-1.3 -6.2,-1.3 -8.3,0 -15,6.7 -15,15 v 103.5 15.4 15.4 c -9.8,-2.3 -20.2,-4.4 -31.1,-6.5 -83.6,-15.7 -193.6,-24.6 -311.5,-25.4 v -15 -15 -15 l 76,-45.2 c 4.7,-2.8 4.7,-7.4 0,-10.2 l -84.9,-49.7 c -1.9,-0.8 -4,-1.3 -6.2,-1.3 -8.3,0 -15,6.7 -15,15 v 106.4 15 15 c -118.7,0.6 -229.8,9.6 -313.9,25.4 -10.1,1.9 -19.6,3.9 -28.7,5.9 v -15.4 -15.4 -11.6 l 76,-45.2 c 4.7,-2.8 4.7,-7.4 0,-10.2 l -84.9,-49.7 c -1.9,-0.8 -4,-1.3 -6.2,-1.3 -8.3,0 -15,6.7 -15,15 v 110.2 15.5 15.6 c -14.9,4.2 -27.8,8.7 -38.1,13.3 -22.8,10.1 -27.8,18.2 -27.8,20.4 0,0.5 0.2,1.2 0.8,2.2 2.3,3.7 9.2,10.3 27.2,18.3 z"
   id="path9"
   inkscape:connector-curvature="0" />
	<path
   d="M 754.7,409.1 C 684.6,398.8 591.6,393 492.9,393 c -98,0 -190.7,5.8 -260.8,16 76.4,9.9 167,15.2 261.9,15.2 94.5,-0.1 184.5,-5.3 260.7,-15.1 z"
   id="path11"
   inkscape:connector-curvature="0" />
	<path
   d="m 367.1,665.5 v 143.8 28.8 l -15,5 -15,5 -19.2,6.3 c -5.2,1.7 -9.5,7.6 -9.5,13.1 v 18.7 c 0,5.5 4.5,10 10,10 h 351.1 c 5.5,0 10,-4.5 10,-10 v -18.7 c 0,-5.5 -4.3,-11.4 -9.5,-13.1 l -19.2,-6.3 -15,-5 -15,-5 v -28.6 -144 H 584.2 V 794.4 H 403.7 V 665.5 h -36.6 z"
   id="path13"
   inkscape:connector-curvature="0" />
</g>
</svg>